<?xml version="1.0" standalone="no"?>
 <!DOCTYPE svg PUBLIC "-//W3C//DTD SVG 1.1//EN" 
 "http://www.w3.org/Graphics/SVG/1.1/DTD/svg11.dtd"> 
<svg
  xmlns:svg="http://www.w3.org/2000/svg"
  xmlns="http://www.w3.org/2000/svg"
  xmlns:xlink="http://www.w3.org/1999/xlink"
  version="1.1"
  width="29.8196mm" height="9.6774mm" viewBox="0.0000 0.0000 29.8196 9.6774">
<title>SVG Image created as CONN-TH_2P-P5.00_JL126-50002G01.svg date 2024/09/29 11:27:31 </title>
  <desc>Image generated by PCBNEW </desc>
<g style="fill:#000000; fill-opacity:1.0000;stroke:#000000; stroke-opacity:1.0000;
stroke-linecap:round; stroke-linejoin:round;"
 transform="translate(0 0) scale(1 1)">
</g>
<g style="fill:#4D7FC4; fill-opacity:1.0000; stroke:none;">
<circle cx="12.3707" cy="4.8483" r="1.2500" /> 
</g>
<g style="fill:#4D7FC4; fill-opacity:1.0000; stroke:none;">
<circle cx="17.4507" cy="4.8483" r="1.2500" /> 
</g>
<g style="fill:#02FFEE; fill-opacity:0.4000; stroke:none;">
<circle cx="12.3707" cy="4.8483" r="1.2500" /> 
</g>
<g style="fill:#02FFEE; fill-opacity:0.4000; stroke:none;">
<circle cx="17.4507" cy="4.8483" r="1.2500" /> 
</g>
<g style="fill:#F2EDA1; fill-opacity:1.0000; stroke:none;">
<circle cx="12.3707" cy="4.8483" r="1.2500" /> 
</g>
<g style="fill:#F2EDA1; fill-opacity:1.0000; stroke:none;">
<circle cx="17.4507" cy="4.8483" r="1.2500" /> 
</g>
<g style="fill:#E8B2A7; fill-opacity:1.0000; stroke:none;">
<circle cx="12.3707" cy="4.8483" r="1.2500" /> 
</g>
<g style="fill:#E8B2A7; fill-opacity:1.0000; stroke:none;">
<circle cx="17.4507" cy="4.8483" r="1.2500" /> 
</g>
<g style="fill:#28CCD9; fill-opacity:1.0000; stroke:none;">
<circle cx="12.3707" cy="4.8483" r="1.2500" /> 
</g>
<g style="fill:#28CCD9; fill-opacity:1.0000; stroke:none;">
<circle cx="17.4507" cy="4.8483" r="1.2500" /> 
</g>
<g style="fill:#A7A5C6; fill-opacity:1.0000; stroke:none;">
<circle cx="12.3707" cy="4.8483" r="1.2500" /> 
</g>
<g style="fill:#A7A5C6; fill-opacity:1.0000; stroke:none;">
<circle cx="17.4507" cy="4.8483" r="1.2500" /> 
</g>
<g style="fill:#F76F8E; fill-opacity:1.0000; stroke:none;">
<circle cx="12.3707" cy="4.8483" r="1.2500" /> 
</g>
<g style="fill:#F76F8E; fill-opacity:1.0000; stroke:none;">
<circle cx="17.4507" cy="4.8483" r="1.2500" /> 
</g>
<g style="fill:#5BC3EB; fill-opacity:1.0000; stroke:none;">
<circle cx="12.3707" cy="4.8483" r="1.2500" /> 
</g>
<g style="fill:#5BC3EB; fill-opacity:1.0000; stroke:none;">
<circle cx="17.4507" cy="4.8483" r="1.2500" /> 
</g>
<g style="fill:#ED7C33; fill-opacity:1.0000; stroke:none;">
<circle cx="12.3707" cy="4.8483" r="1.2500" /> 
</g>
<g style="fill:#ED7C33; fill-opacity:1.0000; stroke:none;">
<circle cx="17.4507" cy="4.8483" r="1.2500" /> 
</g>
<g style="fill:#F2EDA1; fill-opacity:1.0000; stroke:none;">
<circle cx="12.3707" cy="4.8483" r="1.2500" /> 
</g>
<g style="fill:#F2EDA1; fill-opacity:1.0000; stroke:none;">
<circle cx="17.4507" cy="4.8483" r="1.2500" /> 
</g>
<g style="fill:#E8B2A7; fill-opacity:1.0000; stroke:none;">
<circle cx="12.3707" cy="4.8483" r="1.2500" /> 
</g>
<g style="fill:#E8B2A7; fill-opacity:1.0000; stroke:none;">
<circle cx="17.4507" cy="4.8483" r="1.2500" /> 
</g>
<g style="fill:#28CCD9; fill-opacity:1.0000; stroke:none;">
<circle cx="12.3707" cy="4.8483" r="1.2500" /> 
</g>
<g style="fill:#28CCD9; fill-opacity:1.0000; stroke:none;">
<circle cx="17.4507" cy="4.8483" r="1.2500" /> 
</g>
<g style="fill:#A7A5C6; fill-opacity:1.0000; stroke:none;">
<circle cx="12.3707" cy="4.8483" r="1.2500" /> 
</g>
<g style="fill:#A7A5C6; fill-opacity:1.0000; stroke:none;">
<circle cx="17.4507" cy="4.8483" r="1.2500" /> 
</g>
<g style="fill:#F76F8E; fill-opacity:1.0000; stroke:none;">
<circle cx="12.3707" cy="4.8483" r="1.2500" /> 
</g>
<g style="fill:#F76F8E; fill-opacity:1.0000; stroke:none;">
<circle cx="17.4507" cy="4.8483" r="1.2500" /> 
</g>
<g style="fill:#5BC3EB; fill-opacity:1.0000; stroke:none;">
<circle cx="12.3707" cy="4.8483" r="1.2500" /> 
</g>
<g style="fill:#5BC3EB; fill-opacity:1.0000; stroke:none;">
<circle cx="17.4507" cy="4.8483" r="1.2500" /> 
</g>
<g style="fill:#ED7C33; fill-opacity:1.0000; stroke:none;">
<circle cx="12.3707" cy="4.8483" r="1.2500" /> 
</g>
<g style="fill:#ED7C33; fill-opacity:1.0000; stroke:none;">
<circle cx="17.4507" cy="4.8483" r="1.2500" /> 
</g>
<g style="fill:#F2EDA1; fill-opacity:1.0000; stroke:none;">
<circle cx="12.3707" cy="4.8483" r="1.2500" /> 
</g>
<g style="fill:#F2EDA1; fill-opacity:1.0000; stroke:none;">
<circle cx="17.4507" cy="4.8483" r="1.2500" /> 
</g>
<g style="fill:#E8B2A7; fill-opacity:1.0000; stroke:none;">
<circle cx="12.3707" cy="4.8483" r="1.2500" /> 
</g>
<g style="fill:#E8B2A7; fill-opacity:1.0000; stroke:none;">
<circle cx="17.4507" cy="4.8483" r="1.2500" /> 
</g>
<g style="fill:#28CCD9; fill-opacity:1.0000; stroke:none;">
<circle cx="12.3707" cy="4.8483" r="1.2500" /> 
</g>
<g style="fill:#28CCD9; fill-opacity:1.0000; stroke:none;">
<circle cx="17.4507" cy="4.8483" r="1.2500" /> 
</g>
<g style="fill:#A7A5C6; fill-opacity:1.0000; stroke:none;">
<circle cx="12.3707" cy="4.8483" r="1.2500" /> 
</g>
<g style="fill:#A7A5C6; fill-opacity:1.0000; stroke:none;">
<circle cx="17.4507" cy="4.8483" r="1.2500" /> 
</g>
<g style="fill:#F76F8E; fill-opacity:1.0000; stroke:none;">
<circle cx="12.3707" cy="4.8483" r="1.2500" /> 
</g>
<g style="fill:#F76F8E; fill-opacity:1.0000; stroke:none;">
<circle cx="17.4507" cy="4.8483" r="1.2500" /> 
</g>
<g style="fill:#5BC3EB; fill-opacity:1.0000; stroke:none;">
<circle cx="12.3707" cy="4.8483" r="1.2500" /> 
</g>
<g style="fill:#5BC3EB; fill-opacity:1.0000; stroke:none;">
<circle cx="17.4507" cy="4.8483" r="1.2500" /> 
</g>
<g style="fill:#ED7C33; fill-opacity:1.0000; stroke:none;">
<circle cx="12.3707" cy="4.8483" r="1.2500" /> 
</g>
<g style="fill:#ED7C33; fill-opacity:1.0000; stroke:none;">
<circle cx="17.4507" cy="4.8483" r="1.2500" /> 
</g>
<g style="fill:#8DCB81; fill-opacity:1.0000; stroke:none;">
<circle cx="12.3707" cy="4.8483" r="1.2500" /> 
</g>
<g style="fill:#8DCB81; fill-opacity:1.0000; stroke:none;">
<circle cx="17.4507" cy="4.8483" r="1.2500" /> 
</g>
<g style="fill:#F2EDA1; fill-opacity:1.0000; stroke:none;">
<circle cx="12.3707" cy="4.8483" r="1.2500" /> 
</g>
<g style="fill:#F2EDA1; fill-opacity:1.0000; stroke:none;">
<circle cx="17.4507" cy="4.8483" r="1.2500" /> 
</g>
<g style="fill:#E8B2A7; fill-opacity:1.0000; stroke:none;">
<circle cx="12.3707" cy="4.8483" r="1.2500" /> 
</g>
<g style="fill:#E8B2A7; fill-opacity:1.0000; stroke:none;">
<circle cx="17.4507" cy="4.8483" r="1.2500" /> 
</g>
<g style="fill:#28CCD9; fill-opacity:1.0000; stroke:none;">
<circle cx="12.3707" cy="4.8483" r="1.2500" /> 
</g>
<g style="fill:#28CCD9; fill-opacity:1.0000; stroke:none;">
<circle cx="17.4507" cy="4.8483" r="1.2500" /> 
</g>
<g style="fill:#A7A5C6; fill-opacity:1.0000; stroke:none;">
<circle cx="12.3707" cy="4.8483" r="1.2500" /> 
</g>
<g style="fill:#A7A5C6; fill-opacity:1.0000; stroke:none;">
<circle cx="17.4507" cy="4.8483" r="1.2500" /> 
</g>
<g style="fill:#DB628B; fill-opacity:1.0000; stroke:none;">
<circle cx="12.3707" cy="4.8483" r="1.2500" /> 
</g>
<g style="fill:#DB628B; fill-opacity:1.0000; stroke:none;">
<circle cx="17.4507" cy="4.8483" r="1.2500" /> 
</g>
<g style="fill:#4FCBCB; fill-opacity:1.0000; stroke:none;">
<circle cx="12.3707" cy="4.8483" r="1.2500" /> 
</g>
<g style="fill:#4FCBCB; fill-opacity:1.0000; stroke:none;">
<circle cx="17.4507" cy="4.8483" r="1.2500" /> 
</g>
<g style="fill:#CE7D2C; fill-opacity:1.0000; stroke:none;">
<circle cx="12.3707" cy="4.8483" r="1.2500" /> 
</g>
<g style="fill:#CE7D2C; fill-opacity:1.0000; stroke:none;">
<circle cx="17.4507" cy="4.8483" r="1.2500" /> 
</g>
<g style="fill:#7FC87F; fill-opacity:1.0000; stroke:none;">
<circle cx="12.3707" cy="4.8483" r="1.2500" /> 
</g>
<g style="fill:#7FC87F; fill-opacity:1.0000; stroke:none;">
<circle cx="17.4507" cy="4.8483" r="1.2500" /> 
</g>
<g style="fill:#C83434; fill-opacity:1.0000; stroke:none;">
<circle cx="12.3707" cy="4.8483" r="1.2500" /> 
</g>
<g style="fill:#C83434; fill-opacity:1.0000; stroke:none;">
<circle cx="17.4507" cy="4.8483" r="1.2500" /> 
</g>
<g style="fill:#D864FF; fill-opacity:0.4000; stroke:none;">
<circle cx="12.3707" cy="4.8483" r="1.2500" /> 
</g>
<g style="fill:#D864FF; fill-opacity:0.4000; stroke:none;">
<circle cx="17.4507" cy="4.8483" r="1.2500" /> 
</g>
<g style="fill:none; 
stroke:#F2EDA1; stroke-width:0.1500; stroke-opacity:1; 
stroke-linecap:round; stroke-linejoin:round;">
<text x="14.9107" y="1.3482"
textLength="4.5357" font-size="1.3333" lengthAdjust="spacingAndGlyphs"
text-anchor="middle" opacity="0" stroke-opacity="0">REF**</text>
<g class="stroked-text"><desc>REF**</desc>
<path d="M13.5774 1.3031
L13.2440 0.8269
" />
<path d="M13.0060 1.3031
L13.0060 0.3031
" />
<path d="M13.0060 0.3031
L13.3869 0.3031
" />
<path d="M13.3869 0.3031
L13.4821 0.3507
" />
<path d="M13.4821 0.3507
L13.5298 0.3983
" />
<path d="M13.5298 0.3983
L13.5774 0.4935
" />
<path d="M13.5774 0.4935
L13.5774 0.6364
" />
<path d="M13.5774 0.6364
L13.5298 0.7316
" />
<path d="M13.5298 0.7316
L13.4821 0.7793
" />
<path d="M13.4821 0.7793
L13.3869 0.8269
" />
<path d="M13.3869 0.8269
L13.0060 0.8269
" />
<path d="M14.0060 0.7793
L14.3393 0.7793
" />
<path d="M14.4821 1.3031
L14.0060 1.3031
" />
<path d="M14.0060 1.3031
L14.0060 0.3031
" />
<path d="M14.0060 0.3031
L14.4821 0.3031
" />
<path d="M15.2440 0.7793
L14.9107 0.7793
" />
<path d="M14.9107 1.3031
L14.9107 0.3031
" />
<path d="M14.9107 0.3031
L15.3869 0.3031
" />
<path d="M15.9107 0.3031
L15.9107 0.5412
" />
<path d="M15.6726 0.4459
L15.9107 0.5412
" />
<path d="M15.9107 0.5412
L16.1488 0.4459
" />
<path d="M15.7679 0.7316
L15.9107 0.5412
" />
<path d="M15.9107 0.5412
L16.0536 0.7316
" />
<path d="M16.6726 0.3031
L16.6726 0.5412
" />
<path d="M16.4345 0.4459
L16.6726 0.5412
" />
<path d="M16.6726 0.5412
L16.9107 0.4459
" />
<path d="M16.5298 0.7316
L16.6726 0.5412
" />
<path d="M16.6726 0.5412
L16.8155 0.7316
" />
</g></g>
<g style="fill:none; 
stroke:#F2EDA1; stroke-width:0.2500; stroke-opacity:1; 
stroke-linecap:round; stroke-linejoin:round;">
<path d="M9.8307 1.0482
L19.9907 1.0482
" />
<path d="M19.9907 1.0482
L19.9907 8.8483
" />
<path d="M9.8307 8.8483
L9.8307 1.0482
" />
<path d="M19.9907 8.8483
L9.8307 8.8483
" />
<path d="M9.8307 7.0082
L19.9907 7.0082
" />
<path d="M9.8307 1.9682
L19.9907 1.9682
" />
<path d="M9.8307 6.5982
L9.5507 6.5982
" />
<path d="M9.5507 6.5982
L9.3207 6.3682
" />
<path d="M9.3207 6.3682
L9.3207 7.3882
" />
<path d="M9.3207 7.3882
L9.5807 7.1382
" />
<path d="M9.5807 7.1382
L9.7007 7.1382
" />
<path d="M19.7107 6.4982
L19.4807 6.2683
" />
<path d="M19.4807 6.2683
L19.4807 7.2882
" />
<path d="M19.4807 7.2882
L19.7407 7.0382
" />
<path d="M19.7407 7.0382
L19.9907 7.0183
" />
<path d="M19.7407 6.5282
L19.9907 6.5082
" />
</g>
<g style="fill:none; 
stroke:#AFAFAF; stroke-width:0.1500; stroke-opacity:1; 
stroke-linecap:round; stroke-linejoin:round;">
<text x="14.9107" y="9.3483"
textLength="29.8214" font-size="1.3333" lengthAdjust="spacingAndGlyphs"
text-anchor="middle" opacity="0" stroke-opacity="0">CONN-TH_2P-P5.00_JL126-50002G01</text>
<g class="stroked-text"><desc>CONN-TH_2P-P5.00_JL126-50002G01</desc>
<path d="M0.9345 9.2078
L0.8869 9.2554
" />
<path d="M0.8869 9.2554
L0.7440 9.3031
" />
<path d="M0.7440 9.3031
L0.6488 9.3031
" />
<path d="M0.6488 9.3031
L0.5060 9.2554
" />
<path d="M0.5060 9.2554
L0.4107 9.1602
" />
<path d="M0.4107 9.1602
L0.3631 9.0650
" />
<path d="M0.3631 9.0650
L0.3155 8.8745
" />
<path d="M0.3155 8.8745
L0.3155 8.7316
" />
<path d="M0.3155 8.7316
L0.3631 8.5412
" />
<path d="M0.3631 8.5412
L0.4107 8.4459
" />
<path d="M0.4107 8.4459
L0.5060 8.3507
" />
<path d="M0.5060 8.3507
L0.6488 8.3031
" />
<path d="M0.6488 8.3031
L0.7440 8.3031
" />
<path d="M0.7440 8.3031
L0.8869 8.3507
" />
<path d="M0.8869 8.3507
L0.9345 8.3983
" />
<path d="M1.5536 8.3031
L1.7440 8.3031
" />
<path d="M1.7440 8.3031
L1.8393 8.3507
" />
<path d="M1.8393 8.3507
L1.9345 8.4459
" />
<path d="M1.9345 8.4459
L1.9821 8.6364
" />
<path d="M1.9821 8.6364
L1.9821 8.9697
" />
<path d="M1.9821 8.9697
L1.9345 9.1602
" />
<path d="M1.9345 9.1602
L1.8393 9.2554
" />
<path d="M1.8393 9.2554
L1.7440 9.3031
" />
<path d="M1.7440 9.3031
L1.5536 9.3031
" />
<path d="M1.5536 9.3031
L1.4583 9.2554
" />
<path d="M1.4583 9.2554
L1.3631 9.1602
" />
<path d="M1.3631 9.1602
L1.3155 8.9697
" />
<path d="M1.3155 8.9697
L1.3155 8.6364
" />
<path d="M1.3155 8.6364
L1.3631 8.4459
" />
<path d="M1.3631 8.4459
L1.4583 8.3507
" />
<path d="M1.4583 8.3507
L1.5536 8.3031
" />
<path d="M2.4107 9.3031
L2.4107 8.3031
" />
<path d="M2.4107 8.3031
L2.9821 9.3031
" />
<path d="M2.9821 9.3031
L2.9821 8.3031
" />
<path d="M3.4583 9.3031
L3.4583 8.3031
" />
<path d="M3.4583 8.3031
L4.0298 9.3031
" />
<path d="M4.0298 9.3031
L4.0298 8.3031
" />
<path d="M4.5060 8.9221
L5.2679 8.9221
" />
<path d="M5.6012 8.3031
L6.1726 8.3031
" />
<path d="M5.8869 9.3031
L5.8869 8.3031
" />
<path d="M6.5060 9.3031
L6.5060 8.3031
" />
<path d="M6.5060 8.7793
L7.0774 8.7793
" />
<path d="M7.0774 9.3031
L7.0774 8.3031
" />
<path d="M7.3155 9.3983
L8.0774 9.3983
" />
<path d="M8.2679 8.3983
L8.3155 8.3507
" />
<path d="M8.3155 8.3507
L8.4107 8.3031
" />
<path d="M8.4107 8.3031
L8.6488 8.3031
" />
<path d="M8.6488 8.3031
L8.7440 8.3507
" />
<path d="M8.7440 8.3507
L8.7917 8.3983
" />
<path d="M8.7917 8.3983
L8.8393 8.4935
" />
<path d="M8.8393 8.4935
L8.8393 8.5888
" />
<path d="M8.8393 8.5888
L8.7917 8.7316
" />
<path d="M8.7917 8.7316
L8.2202 9.3031
" />
<path d="M8.2202 9.3031
L8.8393 9.3031
" />
<path d="M9.2679 9.3031
L9.2679 8.3031
" />
<path d="M9.2679 8.3031
L9.6488 8.3031
" />
<path d="M9.6488 8.3031
L9.7440 8.3507
" />
<path d="M9.7440 8.3507
L9.7917 8.3983
" />
<path d="M9.7917 8.3983
L9.8393 8.4935
" />
<path d="M9.8393 8.4935
L9.8393 8.6364
" />
<path d="M9.8393 8.6364
L9.7917 8.7316
" />
<path d="M9.7917 8.7316
L9.7440 8.7793
" />
<path d="M9.7440 8.7793
L9.6488 8.8269
" />
<path d="M9.6488 8.8269
L9.2679 8.8269
" />
<path d="M10.2679 8.9221
L11.0298 8.9221
" />
<path d="M11.5060 9.3031
L11.5060 8.3031
" />
<path d="M11.5060 8.3031
L11.8869 8.3031
" />
<path d="M11.8869 8.3031
L11.9821 8.3507
" />
<path d="M11.9821 8.3507
L12.0298 8.3983
" />
<path d="M12.0298 8.3983
L12.0774 8.4935
" />
<path d="M12.0774 8.4935
L12.0774 8.6364
" />
<path d="M12.0774 8.6364
L12.0298 8.7316
" />
<path d="M12.0298 8.7316
L11.9821 8.7793
" />
<path d="M11.9821 8.7793
L11.8869 8.8269
" />
<path d="M11.8869 8.8269
L11.5060 8.8269
" />
<path d="M12.9821 8.3031
L12.5060 8.3031
" />
<path d="M12.5060 8.3031
L12.4583 8.7793
" />
<path d="M12.4583 8.7793
L12.5060 8.7316
" />
<path d="M12.5060 8.7316
L12.6012 8.6840
" />
<path d="M12.6012 8.6840
L12.8393 8.6840
" />
<path d="M12.8393 8.6840
L12.9345 8.7316
" />
<path d="M12.9345 8.7316
L12.9821 8.7793
" />
<path d="M12.9821 8.7793
L13.0298 8.8745
" />
<path d="M13.0298 8.8745
L13.0298 9.1126
" />
<path d="M13.0298 9.1126
L12.9821 9.2078
" />
<path d="M12.9821 9.2078
L12.9345 9.2554
" />
<path d="M12.9345 9.2554
L12.8393 9.3031
" />
<path d="M12.8393 9.3031
L12.6012 9.3031
" />
<path d="M12.6012 9.3031
L12.5060 9.2554
" />
<path d="M12.5060 9.2554
L12.4583 9.2078
" />
<path d="M13.4583 9.2078
L13.5060 9.2554
" />
<path d="M13.5060 9.2554
L13.4583 9.3031
" />
<path d="M13.4583 9.3031
L13.4107 9.2554
" />
<path d="M13.4107 9.2554
L13.4583 9.2078
" />
<path d="M13.4583 9.2078
L13.4583 9.3031
" />
<path d="M14.1250 8.3031
L14.2202 8.3031
" />
<path d="M14.2202 8.3031
L14.3155 8.3507
" />
<path d="M14.3155 8.3507
L14.3631 8.3983
" />
<path d="M14.3631 8.3983
L14.4107 8.4935
" />
<path d="M14.4107 8.4935
L14.4583 8.6840
" />
<path d="M14.4583 8.6840
L14.4583 8.9221
" />
<path d="M14.4583 8.9221
L14.4107 9.1126
" />
<path d="M14.4107 9.1126
L14.3631 9.2078
" />
<path d="M14.3631 9.2078
L14.3155 9.2554
" />
<path d="M14.3155 9.2554
L14.2202 9.3031
" />
<path d="M14.2202 9.3031
L14.1250 9.3031
" />
<path d="M14.1250 9.3031
L14.0298 9.2554
" />
<path d="M14.0298 9.2554
L13.9821 9.2078
" />
<path d="M13.9821 9.2078
L13.9345 9.1126
" />
<path d="M13.9345 9.1126
L13.8869 8.9221
" />
<path d="M13.8869 8.9221
L13.8869 8.6840
" />
<path d="M13.8869 8.6840
L13.9345 8.4935
" />
<path d="M13.9345 8.4935
L13.9821 8.3983
" />
<path d="M13.9821 8.3983
L14.0298 8.3507
" />
<path d="M14.0298 8.3507
L14.1250 8.3031
" />
<path d="M15.0774 8.3031
L15.1726 8.3031
" />
<path d="M15.1726 8.3031
L15.2679 8.3507
" />
<path d="M15.2679 8.3507
L15.3155 8.3983
" />
<path d="M15.3155 8.3983
L15.3631 8.4935
" />
<path d="M15.3631 8.4935
L15.4107 8.6840
" />
<path d="M15.4107 8.6840
L15.4107 8.9221
" />
<path d="M15.4107 8.9221
L15.3631 9.1126
" />
<path d="M15.3631 9.1126
L15.3155 9.2078
" />
<path d="M15.3155 9.2078
L15.2679 9.2554
" />
<path d="M15.2679 9.2554
L15.1726 9.3031
" />
<path d="M15.1726 9.3031
L15.0774 9.3031
" />
<path d="M15.0774 9.3031
L14.9821 9.2554
" />
<path d="M14.9821 9.2554
L14.9345 9.2078
" />
<path d="M14.9345 9.2078
L14.8869 9.1126
" />
<path d="M14.8869 9.1126
L14.8393 8.9221
" />
<path d="M14.8393 8.9221
L14.8393 8.6840
" />
<path d="M14.8393 8.6840
L14.8869 8.4935
" />
<path d="M14.8869 8.4935
L14.9345 8.3983
" />
<path d="M14.9345 8.3983
L14.9821 8.3507
" />
<path d="M14.9821 8.3507
L15.0774 8.3031
" />
<path d="M15.6012 9.3983
L16.3631 9.3983
" />
<path d="M16.8869 8.3031
L16.8869 9.0174
" />
<path d="M16.8869 9.0174
L16.8393 9.1602
" />
<path d="M16.8393 9.1602
L16.7440 9.2554
" />
<path d="M16.7440 9.2554
L16.6012 9.3031
" />
<path d="M16.6012 9.3031
L16.5060 9.3031
" />
<path d="M17.8393 9.3031
L17.3631 9.3031
" />
<path d="M17.3631 9.3031
L17.3631 8.3031
" />
<path d="M18.6964 9.3031
L18.1250 9.3031
" />
<path d="M18.4107 9.3031
L18.4107 8.3031
" />
<path d="M18.4107 8.3031
L18.3155 8.4459
" />
<path d="M18.3155 8.4459
L18.2202 8.5412
" />
<path d="M18.2202 8.5412
L18.1250 8.5888
" />
<path d="M19.0774 8.3983
L19.1250 8.3507
" />
<path d="M19.1250 8.3507
L19.2202 8.3031
" />
<path d="M19.2202 8.3031
L19.4583 8.3031
" />
<path d="M19.4583 8.3031
L19.5536 8.3507
" />
<path d="M19.5536 8.3507
L19.6012 8.3983
" />
<path d="M19.6012 8.3983
L19.6488 8.4935
" />
<path d="M19.6488 8.4935
L19.6488 8.5888
" />
<path d="M19.6488 8.5888
L19.6012 8.7316
" />
<path d="M19.6012 8.7316
L19.0298 9.3031
" />
<path d="M19.0298 9.3031
L19.6488 9.3031
" />
<path d="M20.5060 8.3031
L20.3155 8.3031
" />
<path d="M20.3155 8.3031
L20.2202 8.3507
" />
<path d="M20.2202 8.3507
L20.1726 8.3983
" />
<path d="M20.1726 8.3983
L20.0774 8.5412
" />
<path d="M20.0774 8.5412
L20.0298 8.7316
" />
<path d="M20.0298 8.7316
L20.0298 9.1126
" />
<path d="M20.0298 9.1126
L20.0774 9.2078
" />
<path d="M20.0774 9.2078
L20.1250 9.2554
" />
<path d="M20.1250 9.2554
L20.2202 9.3031
" />
<path d="M20.2202 9.3031
L20.4107 9.3031
" />
<path d="M20.4107 9.3031
L20.5060 9.2554
" />
<path d="M20.5060 9.2554
L20.5536 9.2078
" />
<path d="M20.5536 9.2078
L20.6012 9.1126
" />
<path d="M20.6012 9.1126
L20.6012 8.8745
" />
<path d="M20.6012 8.8745
L20.5536 8.7793
" />
<path d="M20.5536 8.7793
L20.5060 8.7316
" />
<path d="M20.5060 8.7316
L20.4107 8.6840
" />
<path d="M20.4107 8.6840
L20.2202 8.6840
" />
<path d="M20.2202 8.6840
L20.1250 8.7316
" />
<path d="M20.1250 8.7316
L20.0774 8.7793
" />
<path d="M20.0774 8.7793
L20.0298 8.8745
" />
<path d="M21.0298 8.9221
L21.7917 8.9221
" />
<path d="M22.7440 8.3031
L22.2679 8.3031
" />
<path d="M22.2679 8.3031
L22.2202 8.7793
" />
<path d="M22.2202 8.7793
L22.2679 8.7316
" />
<path d="M22.2679 8.7316
L22.3631 8.6840
" />
<path d="M22.3631 8.6840
L22.6012 8.6840
" />
<path d="M22.6012 8.6840
L22.6964 8.7316
" />
<path d="M22.6964 8.7316
L22.7440 8.7793
" />
<path d="M22.7440 8.7793
L22.7917 8.8745
" />
<path d="M22.7917 8.8745
L22.7917 9.1126
" />
<path d="M22.7917 9.1126
L22.7440 9.2078
" />
<path d="M22.7440 9.2078
L22.6964 9.2554
" />
<path d="M22.6964 9.2554
L22.6012 9.3031
" />
<path d="M22.6012 9.3031
L22.3631 9.3031
" />
<path d="M22.3631 9.3031
L22.2679 9.2554
" />
<path d="M22.2679 9.2554
L22.2202 9.2078
" />
<path d="M23.4107 8.3031
L23.5060 8.3031
" />
<path d="M23.5060 8.3031
L23.6012 8.3507
" />
<path d="M23.6012 8.3507
L23.6488 8.3983
" />
<path d="M23.6488 8.3983
L23.6964 8.4935
" />
<path d="M23.6964 8.4935
L23.7440 8.6840
" />
<path d="M23.7440 8.6840
L23.7440 8.9221
" />
<path d="M23.7440 8.9221
L23.6964 9.1126
" />
<path d="M23.6964 9.1126
L23.6488 9.2078
" />
<path d="M23.6488 9.2078
L23.6012 9.2554
" />
<path d="M23.6012 9.2554
L23.5060 9.3031
" />
<path d="M23.5060 9.3031
L23.4107 9.3031
" />
<path d="M23.4107 9.3031
L23.3155 9.2554
" />
<path d="M23.3155 9.2554
L23.2679 9.2078
" />
<path d="M23.2679 9.2078
L23.2202 9.1126
" />
<path d="M23.2202 9.1126
L23.1726 8.9221
" />
<path d="M23.1726 8.9221
L23.1726 8.6840
" />
<path d="M23.1726 8.6840
L23.2202 8.4935
" />
<path d="M23.2202 8.4935
L23.2679 8.3983
" />
<path d="M23.2679 8.3983
L23.3155 8.3507
" />
<path d="M23.3155 8.3507
L23.4107 8.3031
" />
<path d="M24.3631 8.3031
L24.4583 8.3031
" />
<path d="M24.4583 8.3031
L24.5536 8.3507
" />
<path d="M24.5536 8.3507
L24.6012 8.3983
" />
<path d="M24.6012 8.3983
L24.6488 8.4935
" />
<path d="M24.6488 8.4935
L24.6964 8.6840
" />
<path d="M24.6964 8.6840
L24.6964 8.9221
" />
<path d="M24.6964 8.9221
L24.6488 9.1126
" />
<path d="M24.6488 9.1126
L24.6012 9.2078
" />
<path d="M24.6012 9.2078
L24.5536 9.2554
" />
<path d="M24.5536 9.2554
L24.4583 9.3031
" />
<path d="M24.4583 9.3031
L24.3631 9.3031
" />
<path d="M24.3631 9.3031
L24.2679 9.2554
" />
<path d="M24.2679 9.2554
L24.2202 9.2078
" />
<path d="M24.2202 9.2078
L24.1726 9.1126
" />
<path d="M24.1726 9.1126
L24.1250 8.9221
" />
<path d="M24.1250 8.9221
L24.1250 8.6840
" />
<path d="M24.1250 8.6840
L24.1726 8.4935
" />
<path d="M24.1726 8.4935
L24.2202 8.3983
" />
<path d="M24.2202 8.3983
L24.2679 8.3507
" />
<path d="M24.2679 8.3507
L24.3631 8.3031
" />
<path d="M25.3155 8.3031
L25.4107 8.3031
" />
<path d="M25.4107 8.3031
L25.5060 8.3507
" />
<path d="M25.5060 8.3507
L25.5536 8.3983
" />
<path d="M25.5536 8.3983
L25.6012 8.4935
" />
<path d="M25.6012 8.4935
L25.6488 8.6840
" />
<path d="M25.6488 8.6840
L25.6488 8.9221
" />
<path d="M25.6488 8.9221
L25.6012 9.1126
" />
<path d="M25.6012 9.1126
L25.5536 9.2078
" />
<path d="M25.5536 9.2078
L25.5060 9.2554
" />
<path d="M25.5060 9.2554
L25.4107 9.3031
" />
<path d="M25.4107 9.3031
L25.3155 9.3031
" />
<path d="M25.3155 9.3031
L25.2202 9.2554
" />
<path d="M25.2202 9.2554
L25.1726 9.2078
" />
<path d="M25.1726 9.2078
L25.1250 9.1126
" />
<path d="M25.1250 9.1126
L25.0774 8.9221
" />
<path d="M25.0774 8.9221
L25.0774 8.6840
" />
<path d="M25.0774 8.6840
L25.1250 8.4935
" />
<path d="M25.1250 8.4935
L25.1726 8.3983
" />
<path d="M25.1726 8.3983
L25.2202 8.3507
" />
<path d="M25.2202 8.3507
L25.3155 8.3031
" />
<path d="M26.0298 8.3983
L26.0774 8.3507
" />
<path d="M26.0774 8.3507
L26.1726 8.3031
" />
<path d="M26.1726 8.3031
L26.4107 8.3031
" />
<path d="M26.4107 8.3031
L26.5060 8.3507
" />
<path d="M26.5060 8.3507
L26.5536 8.3983
" />
<path d="M26.5536 8.3983
L26.6012 8.4935
" />
<path d="M26.6012 8.4935
L26.6012 8.5888
" />
<path d="M26.6012 8.5888
L26.5536 8.7316
" />
<path d="M26.5536 8.7316
L25.9821 9.3031
" />
<path d="M25.9821 9.3031
L26.6012 9.3031
" />
<path d="M27.5536 8.3507
L27.4583 8.3031
" />
<path d="M27.4583 8.3031
L27.3155 8.3031
" />
<path d="M27.3155 8.3031
L27.1726 8.3507
" />
<path d="M27.1726 8.3507
L27.0774 8.4459
" />
<path d="M27.0774 8.4459
L27.0298 8.5412
" />
<path d="M27.0298 8.5412
L26.9821 8.7316
" />
<path d="M26.9821 8.7316
L26.9821 8.8745
" />
<path d="M26.9821 8.8745
L27.0298 9.0650
" />
<path d="M27.0298 9.0650
L27.0774 9.1602
" />
<path d="M27.0774 9.1602
L27.1726 9.2554
" />
<path d="M27.1726 9.2554
L27.3155 9.3031
" />
<path d="M27.3155 9.3031
L27.4107 9.3031
" />
<path d="M27.4107 9.3031
L27.5536 9.2554
" />
<path d="M27.5536 9.2554
L27.6012 9.2078
" />
<path d="M27.6012 9.2078
L27.6012 8.8745
" />
<path d="M27.6012 8.8745
L27.4107 8.8745
" />
<path d="M28.2202 8.3031
L28.3155 8.3031
" />
<path d="M28.3155 8.3031
L28.4107 8.3507
" />
<path d="M28.4107 8.3507
L28.4583 8.3983
" />
<path d="M28.4583 8.3983
L28.5060 8.4935
" />
<path d="M28.5060 8.4935
L28.5536 8.6840
" />
<path d="M28.5536 8.6840
L28.5536 8.9221
" />
<path d="M28.5536 8.9221
L28.5060 9.1126
" />
<path d="M28.5060 9.1126
L28.4583 9.2078
" />
<path d="M28.4583 9.2078
L28.4107 9.2554
" />
<path d="M28.4107 9.2554
L28.3155 9.3031
" />
<path d="M28.3155 9.3031
L28.2202 9.3031
" />
<path d="M28.2202 9.3031
L28.1250 9.2554
" />
<path d="M28.1250 9.2554
L28.0774 9.2078
" />
<path d="M28.0774 9.2078
L28.0298 9.1126
" />
<path d="M28.0298 9.1126
L27.9821 8.9221
" />
<path d="M27.9821 8.9221
L27.9821 8.6840
" />
<path d="M27.9821 8.6840
L28.0298 8.4935
" />
<path d="M28.0298 8.4935
L28.0774 8.3983
" />
<path d="M28.0774 8.3983
L28.1250 8.3507
" />
<path d="M28.1250 8.3507
L28.2202 8.3031
" />
<path d="M29.5060 9.3031
L28.9345 9.3031
" />
<path d="M29.2202 9.3031
L29.2202 8.3031
" />
<path d="M29.2202 8.3031
L29.1250 8.4459
" />
<path d="M29.1250 8.4459
L29.0298 8.5412
" />
<path d="M29.0298 8.5412
L28.9345 8.5888
" />
</g><text x="14.9107" y="5.3483"
textLength="4.5357" font-size="1.3333" lengthAdjust="spacingAndGlyphs"
text-anchor="middle" opacity="0" stroke-opacity="0">REF**</text>
<g class="stroked-text"><desc>REF**</desc>
<path d="M13.5774 5.3031
L13.2440 4.8269
" />
<path d="M13.0060 5.3031
L13.0060 4.3031
" />
<path d="M13.0060 4.3031
L13.3869 4.3031
" />
<path d="M13.3869 4.3031
L13.4821 4.3507
" />
<path d="M13.4821 4.3507
L13.5298 4.3983
" />
<path d="M13.5298 4.3983
L13.5774 4.4935
" />
<path d="M13.5774 4.4935
L13.5774 4.6364
" />
<path d="M13.5774 4.6364
L13.5298 4.7316
" />
<path d="M13.5298 4.7316
L13.4821 4.7793
" />
<path d="M13.4821 4.7793
L13.3869 4.8269
" />
<path d="M13.3869 4.8269
L13.0060 4.8269
" />
<path d="M14.0060 4.7793
L14.3393 4.7793
" />
<path d="M14.4821 5.3031
L14.0060 5.3031
" />
<path d="M14.0060 5.3031
L14.0060 4.3031
" />
<path d="M14.0060 4.3031
L14.4821 4.3031
" />
<path d="M15.2440 4.7793
L14.9107 4.7793
" />
<path d="M14.9107 5.3031
L14.9107 4.3031
" />
<path d="M14.9107 4.3031
L15.3869 4.3031
" />
<path d="M15.9107 4.3031
L15.9107 4.5412
" />
<path d="M15.6726 4.4459
L15.9107 4.5412
" />
<path d="M15.9107 4.5412
L16.1488 4.4459
" />
<path d="M15.7679 4.7316
L15.9107 4.5412
" />
<path d="M15.9107 4.5412
L16.0536 4.7316
" />
<path d="M16.6726 4.3031
L16.6726 4.5412
" />
<path d="M16.4345 4.4459
L16.6726 4.5412
" />
<path d="M16.6726 4.5412
L16.9107 4.4459
" />
<path d="M16.5298 4.7316
L16.6726 4.5412
" />
<path d="M16.6726 4.5412
L16.8155 4.7316
" />
</g></g>
<g style="fill:none; 
stroke:#AFAFAF; stroke-width:0.7000; stroke-opacity:1; 
stroke-linecap:round; stroke-linejoin:round;">
<circle cx="12.3707" cy="4.8483" r="0.3500" /> 
<circle cx="17.4507" cy="4.8483" r="0.3500" /> 
</g>
<g style="fill:none; 
stroke:#AFAFAF; stroke-width:0.0600; stroke-opacity:1; 
stroke-linecap:round; stroke-linejoin:round;">
<circle cx="9.1907" cy="8.9782" r="0.0300" /> 
</g> 
</svg>
