<?xml version="1.0" standalone="no"?>
 <!DOCTYPE svg PUBLIC "-//W3C//DTD SVG 1.1//EN" 
 "http://www.w3.org/Graphics/SVG/1.1/DTD/svg11.dtd"> 
<svg
  xmlns:svg="http://www.w3.org/2000/svg"
  xmlns="http://www.w3.org/2000/svg"
  xmlns:xlink="http://www.w3.org/1999/xlink"
  version="1.1"
  width="21.7932mm" height="9.6774mm" viewBox="0.0000 0.0000 21.7932 9.6774">
<title>SVG Image created as CONN-TH_JL301-50004U01.svg date 2024/09/23 17:20:49 </title>
  <desc>Image generated by PCBNEW </desc>
<g style="fill:#000000; fill-opacity:1.0000;stroke:#000000; stroke-opacity:1.0000;
stroke-linecap:round; stroke-linejoin:round;"
 transform="translate(0 0) scale(1 1)">
</g>
<g style="fill:#4D7FC4; fill-opacity:1.0000; stroke:none;">
<circle cx="13.5850" cy="4.8483" r="1.1000" /> 
</g>
<g style="fill:#4D7FC4; fill-opacity:1.0000; stroke:none;">
<circle cx="8.5050" cy="4.8483" r="1.1000" /> 
</g>
<g style="fill:#4D7FC4; fill-opacity:1.0000; stroke:none;">
<circle cx="3.4250" cy="4.8483" r="1.1000" /> 
</g>
<g style="fill:#4D7FC4; fill-opacity:1.0000; stroke:none;">
<circle cx="18.5850" cy="4.8483" r="1.1000" /> 
</g>
<g style="fill:#02FFEE; fill-opacity:0.4000; stroke:none;">
<circle cx="13.5850" cy="4.8483" r="1.1000" /> 
</g>
<g style="fill:#02FFEE; fill-opacity:0.4000; stroke:none;">
<circle cx="8.5050" cy="4.8483" r="1.1000" /> 
</g>
<g style="fill:#02FFEE; fill-opacity:0.4000; stroke:none;">
<circle cx="3.4250" cy="4.8483" r="1.1000" /> 
</g>
<g style="fill:#02FFEE; fill-opacity:0.4000; stroke:none;">
<circle cx="18.5850" cy="4.8483" r="1.1000" /> 
</g>
<g style="fill:#F2EDA1; fill-opacity:1.0000; stroke:none;">
<circle cx="13.5850" cy="4.8483" r="1.1000" /> 
</g>
<g style="fill:#F2EDA1; fill-opacity:1.0000; stroke:none;">
<circle cx="8.5050" cy="4.8483" r="1.1000" /> 
</g>
<g style="fill:#F2EDA1; fill-opacity:1.0000; stroke:none;">
<circle cx="3.4250" cy="4.8483" r="1.1000" /> 
</g>
<g style="fill:#F2EDA1; fill-opacity:1.0000; stroke:none;">
<circle cx="18.5850" cy="4.8483" r="1.1000" /> 
</g>
<g style="fill:#E8B2A7; fill-opacity:1.0000; stroke:none;">
<circle cx="13.5850" cy="4.8483" r="1.1000" /> 
</g>
<g style="fill:#E8B2A7; fill-opacity:1.0000; stroke:none;">
<circle cx="8.5050" cy="4.8483" r="1.1000" /> 
</g>
<g style="fill:#E8B2A7; fill-opacity:1.0000; stroke:none;">
<circle cx="3.4250" cy="4.8483" r="1.1000" /> 
</g>
<g style="fill:#E8B2A7; fill-opacity:1.0000; stroke:none;">
<circle cx="18.5850" cy="4.8483" r="1.1000" /> 
</g>
<g style="fill:#28CCD9; fill-opacity:1.0000; stroke:none;">
<circle cx="13.5850" cy="4.8483" r="1.1000" /> 
</g>
<g style="fill:#28CCD9; fill-opacity:1.0000; stroke:none;">
<circle cx="8.5050" cy="4.8483" r="1.1000" /> 
</g>
<g style="fill:#28CCD9; fill-opacity:1.0000; stroke:none;">
<circle cx="3.4250" cy="4.8483" r="1.1000" /> 
</g>
<g style="fill:#28CCD9; fill-opacity:1.0000; stroke:none;">
<circle cx="18.5850" cy="4.8483" r="1.1000" /> 
</g>
<g style="fill:#A7A5C6; fill-opacity:1.0000; stroke:none;">
<circle cx="13.5850" cy="4.8483" r="1.1000" /> 
</g>
<g style="fill:#A7A5C6; fill-opacity:1.0000; stroke:none;">
<circle cx="8.5050" cy="4.8483" r="1.1000" /> 
</g>
<g style="fill:#A7A5C6; fill-opacity:1.0000; stroke:none;">
<circle cx="3.4250" cy="4.8483" r="1.1000" /> 
</g>
<g style="fill:#A7A5C6; fill-opacity:1.0000; stroke:none;">
<circle cx="18.5850" cy="4.8483" r="1.1000" /> 
</g>
<g style="fill:#F76F8E; fill-opacity:1.0000; stroke:none;">
<circle cx="13.5850" cy="4.8483" r="1.1000" /> 
</g>
<g style="fill:#F76F8E; fill-opacity:1.0000; stroke:none;">
<circle cx="8.5050" cy="4.8483" r="1.1000" /> 
</g>
<g style="fill:#F76F8E; fill-opacity:1.0000; stroke:none;">
<circle cx="3.4250" cy="4.8483" r="1.1000" /> 
</g>
<g style="fill:#F76F8E; fill-opacity:1.0000; stroke:none;">
<circle cx="18.5850" cy="4.8483" r="1.1000" /> 
</g>
<g style="fill:#5BC3EB; fill-opacity:1.0000; stroke:none;">
<circle cx="13.5850" cy="4.8483" r="1.1000" /> 
</g>
<g style="fill:#5BC3EB; fill-opacity:1.0000; stroke:none;">
<circle cx="8.5050" cy="4.8483" r="1.1000" /> 
</g>
<g style="fill:#5BC3EB; fill-opacity:1.0000; stroke:none;">
<circle cx="3.4250" cy="4.8483" r="1.1000" /> 
</g>
<g style="fill:#5BC3EB; fill-opacity:1.0000; stroke:none;">
<circle cx="18.5850" cy="4.8483" r="1.1000" /> 
</g>
<g style="fill:#ED7C33; fill-opacity:1.0000; stroke:none;">
<circle cx="13.5850" cy="4.8483" r="1.1000" /> 
</g>
<g style="fill:#ED7C33; fill-opacity:1.0000; stroke:none;">
<circle cx="8.5050" cy="4.8483" r="1.1000" /> 
</g>
<g style="fill:#ED7C33; fill-opacity:1.0000; stroke:none;">
<circle cx="3.4250" cy="4.8483" r="1.1000" /> 
</g>
<g style="fill:#ED7C33; fill-opacity:1.0000; stroke:none;">
<circle cx="18.5850" cy="4.8483" r="1.1000" /> 
</g>
<g style="fill:#F2EDA1; fill-opacity:1.0000; stroke:none;">
<circle cx="13.5850" cy="4.8483" r="1.1000" /> 
</g>
<g style="fill:#F2EDA1; fill-opacity:1.0000; stroke:none;">
<circle cx="8.5050" cy="4.8483" r="1.1000" /> 
</g>
<g style="fill:#F2EDA1; fill-opacity:1.0000; stroke:none;">
<circle cx="3.4250" cy="4.8483" r="1.1000" /> 
</g>
<g style="fill:#F2EDA1; fill-opacity:1.0000; stroke:none;">
<circle cx="18.5850" cy="4.8483" r="1.1000" /> 
</g>
<g style="fill:#E8B2A7; fill-opacity:1.0000; stroke:none;">
<circle cx="13.5850" cy="4.8483" r="1.1000" /> 
</g>
<g style="fill:#E8B2A7; fill-opacity:1.0000; stroke:none;">
<circle cx="8.5050" cy="4.8483" r="1.1000" /> 
</g>
<g style="fill:#E8B2A7; fill-opacity:1.0000; stroke:none;">
<circle cx="3.4250" cy="4.8483" r="1.1000" /> 
</g>
<g style="fill:#E8B2A7; fill-opacity:1.0000; stroke:none;">
<circle cx="18.5850" cy="4.8483" r="1.1000" /> 
</g>
<g style="fill:#28CCD9; fill-opacity:1.0000; stroke:none;">
<circle cx="13.5850" cy="4.8483" r="1.1000" /> 
</g>
<g style="fill:#28CCD9; fill-opacity:1.0000; stroke:none;">
<circle cx="8.5050" cy="4.8483" r="1.1000" /> 
</g>
<g style="fill:#28CCD9; fill-opacity:1.0000; stroke:none;">
<circle cx="3.4250" cy="4.8483" r="1.1000" /> 
</g>
<g style="fill:#28CCD9; fill-opacity:1.0000; stroke:none;">
<circle cx="18.5850" cy="4.8483" r="1.1000" /> 
</g>
<g style="fill:#A7A5C6; fill-opacity:1.0000; stroke:none;">
<circle cx="13.5850" cy="4.8483" r="1.1000" /> 
</g>
<g style="fill:#A7A5C6; fill-opacity:1.0000; stroke:none;">
<circle cx="8.5050" cy="4.8483" r="1.1000" /> 
</g>
<g style="fill:#A7A5C6; fill-opacity:1.0000; stroke:none;">
<circle cx="3.4250" cy="4.8483" r="1.1000" /> 
</g>
<g style="fill:#A7A5C6; fill-opacity:1.0000; stroke:none;">
<circle cx="18.5850" cy="4.8483" r="1.1000" /> 
</g>
<g style="fill:#F76F8E; fill-opacity:1.0000; stroke:none;">
<circle cx="13.5850" cy="4.8483" r="1.1000" /> 
</g>
<g style="fill:#F76F8E; fill-opacity:1.0000; stroke:none;">
<circle cx="8.5050" cy="4.8483" r="1.1000" /> 
</g>
<g style="fill:#F76F8E; fill-opacity:1.0000; stroke:none;">
<circle cx="3.4250" cy="4.8483" r="1.1000" /> 
</g>
<g style="fill:#F76F8E; fill-opacity:1.0000; stroke:none;">
<circle cx="18.5850" cy="4.8483" r="1.1000" /> 
</g>
<g style="fill:#5BC3EB; fill-opacity:1.0000; stroke:none;">
<circle cx="13.5850" cy="4.8483" r="1.1000" /> 
</g>
<g style="fill:#5BC3EB; fill-opacity:1.0000; stroke:none;">
<circle cx="8.5050" cy="4.8483" r="1.1000" /> 
</g>
<g style="fill:#5BC3EB; fill-opacity:1.0000; stroke:none;">
<circle cx="3.4250" cy="4.8483" r="1.1000" /> 
</g>
<g style="fill:#5BC3EB; fill-opacity:1.0000; stroke:none;">
<circle cx="18.5850" cy="4.8483" r="1.1000" /> 
</g>
<g style="fill:#ED7C33; fill-opacity:1.0000; stroke:none;">
<circle cx="13.5850" cy="4.8483" r="1.1000" /> 
</g>
<g style="fill:#ED7C33; fill-opacity:1.0000; stroke:none;">
<circle cx="8.5050" cy="4.8483" r="1.1000" /> 
</g>
<g style="fill:#ED7C33; fill-opacity:1.0000; stroke:none;">
<circle cx="3.4250" cy="4.8483" r="1.1000" /> 
</g>
<g style="fill:#ED7C33; fill-opacity:1.0000; stroke:none;">
<circle cx="18.5850" cy="4.8483" r="1.1000" /> 
</g>
<g style="fill:#F2EDA1; fill-opacity:1.0000; stroke:none;">
<circle cx="13.5850" cy="4.8483" r="1.1000" /> 
</g>
<g style="fill:#F2EDA1; fill-opacity:1.0000; stroke:none;">
<circle cx="8.5050" cy="4.8483" r="1.1000" /> 
</g>
<g style="fill:#F2EDA1; fill-opacity:1.0000; stroke:none;">
<circle cx="3.4250" cy="4.8483" r="1.1000" /> 
</g>
<g style="fill:#F2EDA1; fill-opacity:1.0000; stroke:none;">
<circle cx="18.5850" cy="4.8483" r="1.1000" /> 
</g>
<g style="fill:#E8B2A7; fill-opacity:1.0000; stroke:none;">
<circle cx="13.5850" cy="4.8483" r="1.1000" /> 
</g>
<g style="fill:#E8B2A7; fill-opacity:1.0000; stroke:none;">
<circle cx="8.5050" cy="4.8483" r="1.1000" /> 
</g>
<g style="fill:#E8B2A7; fill-opacity:1.0000; stroke:none;">
<circle cx="3.4250" cy="4.8483" r="1.1000" /> 
</g>
<g style="fill:#E8B2A7; fill-opacity:1.0000; stroke:none;">
<circle cx="18.5850" cy="4.8483" r="1.1000" /> 
</g>
<g style="fill:#28CCD9; fill-opacity:1.0000; stroke:none;">
<circle cx="13.5850" cy="4.8483" r="1.1000" /> 
</g>
<g style="fill:#28CCD9; fill-opacity:1.0000; stroke:none;">
<circle cx="8.5050" cy="4.8483" r="1.1000" /> 
</g>
<g style="fill:#28CCD9; fill-opacity:1.0000; stroke:none;">
<circle cx="3.4250" cy="4.8483" r="1.1000" /> 
</g>
<g style="fill:#28CCD9; fill-opacity:1.0000; stroke:none;">
<circle cx="18.5850" cy="4.8483" r="1.1000" /> 
</g>
<g style="fill:#A7A5C6; fill-opacity:1.0000; stroke:none;">
<circle cx="13.5850" cy="4.8483" r="1.1000" /> 
</g>
<g style="fill:#A7A5C6; fill-opacity:1.0000; stroke:none;">
<circle cx="8.5050" cy="4.8483" r="1.1000" /> 
</g>
<g style="fill:#A7A5C6; fill-opacity:1.0000; stroke:none;">
<circle cx="3.4250" cy="4.8483" r="1.1000" /> 
</g>
<g style="fill:#A7A5C6; fill-opacity:1.0000; stroke:none;">
<circle cx="18.5850" cy="4.8483" r="1.1000" /> 
</g>
<g style="fill:#F76F8E; fill-opacity:1.0000; stroke:none;">
<circle cx="13.5850" cy="4.8483" r="1.1000" /> 
</g>
<g style="fill:#F76F8E; fill-opacity:1.0000; stroke:none;">
<circle cx="8.5050" cy="4.8483" r="1.1000" /> 
</g>
<g style="fill:#F76F8E; fill-opacity:1.0000; stroke:none;">
<circle cx="3.4250" cy="4.8483" r="1.1000" /> 
</g>
<g style="fill:#F76F8E; fill-opacity:1.0000; stroke:none;">
<circle cx="18.5850" cy="4.8483" r="1.1000" /> 
</g>
<g style="fill:#5BC3EB; fill-opacity:1.0000; stroke:none;">
<circle cx="13.5850" cy="4.8483" r="1.1000" /> 
</g>
<g style="fill:#5BC3EB; fill-opacity:1.0000; stroke:none;">
<circle cx="8.5050" cy="4.8483" r="1.1000" /> 
</g>
<g style="fill:#5BC3EB; fill-opacity:1.0000; stroke:none;">
<circle cx="3.4250" cy="4.8483" r="1.1000" /> 
</g>
<g style="fill:#5BC3EB; fill-opacity:1.0000; stroke:none;">
<circle cx="18.5850" cy="4.8483" r="1.1000" /> 
</g>
<g style="fill:#ED7C33; fill-opacity:1.0000; stroke:none;">
<circle cx="13.5850" cy="4.8483" r="1.1000" /> 
</g>
<g style="fill:#ED7C33; fill-opacity:1.0000; stroke:none;">
<circle cx="8.5050" cy="4.8483" r="1.1000" /> 
</g>
<g style="fill:#ED7C33; fill-opacity:1.0000; stroke:none;">
<circle cx="3.4250" cy="4.8483" r="1.1000" /> 
</g>
<g style="fill:#ED7C33; fill-opacity:1.0000; stroke:none;">
<circle cx="18.5850" cy="4.8483" r="1.1000" /> 
</g>
<g style="fill:#8DCB81; fill-opacity:1.0000; stroke:none;">
<circle cx="13.5850" cy="4.8483" r="1.1000" /> 
</g>
<g style="fill:#8DCB81; fill-opacity:1.0000; stroke:none;">
<circle cx="8.5050" cy="4.8483" r="1.1000" /> 
</g>
<g style="fill:#8DCB81; fill-opacity:1.0000; stroke:none;">
<circle cx="3.4250" cy="4.8483" r="1.1000" /> 
</g>
<g style="fill:#8DCB81; fill-opacity:1.0000; stroke:none;">
<circle cx="18.5850" cy="4.8483" r="1.1000" /> 
</g>
<g style="fill:#F2EDA1; fill-opacity:1.0000; stroke:none;">
<circle cx="13.5850" cy="4.8483" r="1.1000" /> 
</g>
<g style="fill:#F2EDA1; fill-opacity:1.0000; stroke:none;">
<circle cx="8.5050" cy="4.8483" r="1.1000" /> 
</g>
<g style="fill:#F2EDA1; fill-opacity:1.0000; stroke:none;">
<circle cx="3.4250" cy="4.8483" r="1.1000" /> 
</g>
<g style="fill:#F2EDA1; fill-opacity:1.0000; stroke:none;">
<circle cx="18.5850" cy="4.8483" r="1.1000" /> 
</g>
<g style="fill:#E8B2A7; fill-opacity:1.0000; stroke:none;">
<circle cx="13.5850" cy="4.8483" r="1.1000" /> 
</g>
<g style="fill:#E8B2A7; fill-opacity:1.0000; stroke:none;">
<circle cx="8.5050" cy="4.8483" r="1.1000" /> 
</g>
<g style="fill:#E8B2A7; fill-opacity:1.0000; stroke:none;">
<circle cx="3.4250" cy="4.8483" r="1.1000" /> 
</g>
<g style="fill:#E8B2A7; fill-opacity:1.0000; stroke:none;">
<circle cx="18.5850" cy="4.8483" r="1.1000" /> 
</g>
<g style="fill:#28CCD9; fill-opacity:1.0000; stroke:none;">
<circle cx="13.5850" cy="4.8483" r="1.1000" /> 
</g>
<g style="fill:#28CCD9; fill-opacity:1.0000; stroke:none;">
<circle cx="8.5050" cy="4.8483" r="1.1000" /> 
</g>
<g style="fill:#28CCD9; fill-opacity:1.0000; stroke:none;">
<circle cx="3.4250" cy="4.8483" r="1.1000" /> 
</g>
<g style="fill:#28CCD9; fill-opacity:1.0000; stroke:none;">
<circle cx="18.5850" cy="4.8483" r="1.1000" /> 
</g>
<g style="fill:#A7A5C6; fill-opacity:1.0000; stroke:none;">
<circle cx="13.5850" cy="4.8483" r="1.1000" /> 
</g>
<g style="fill:#A7A5C6; fill-opacity:1.0000; stroke:none;">
<circle cx="8.5050" cy="4.8483" r="1.1000" /> 
</g>
<g style="fill:#A7A5C6; fill-opacity:1.0000; stroke:none;">
<circle cx="3.4250" cy="4.8483" r="1.1000" /> 
</g>
<g style="fill:#A7A5C6; fill-opacity:1.0000; stroke:none;">
<circle cx="18.5850" cy="4.8483" r="1.1000" /> 
</g>
<g style="fill:#DB628B; fill-opacity:1.0000; stroke:none;">
<circle cx="13.5850" cy="4.8483" r="1.1000" /> 
</g>
<g style="fill:#DB628B; fill-opacity:1.0000; stroke:none;">
<circle cx="8.5050" cy="4.8483" r="1.1000" /> 
</g>
<g style="fill:#DB628B; fill-opacity:1.0000; stroke:none;">
<circle cx="3.4250" cy="4.8483" r="1.1000" /> 
</g>
<g style="fill:#DB628B; fill-opacity:1.0000; stroke:none;">
<circle cx="18.5850" cy="4.8483" r="1.1000" /> 
</g>
<g style="fill:#4FCBCB; fill-opacity:1.0000; stroke:none;">
<circle cx="13.5850" cy="4.8483" r="1.1000" /> 
</g>
<g style="fill:#4FCBCB; fill-opacity:1.0000; stroke:none;">
<circle cx="8.5050" cy="4.8483" r="1.1000" /> 
</g>
<g style="fill:#4FCBCB; fill-opacity:1.0000; stroke:none;">
<circle cx="3.4250" cy="4.8483" r="1.1000" /> 
</g>
<g style="fill:#4FCBCB; fill-opacity:1.0000; stroke:none;">
<circle cx="18.5850" cy="4.8483" r="1.1000" /> 
</g>
<g style="fill:#CE7D2C; fill-opacity:1.0000; stroke:none;">
<circle cx="13.5850" cy="4.8483" r="1.1000" /> 
</g>
<g style="fill:#CE7D2C; fill-opacity:1.0000; stroke:none;">
<circle cx="8.5050" cy="4.8483" r="1.1000" /> 
</g>
<g style="fill:#CE7D2C; fill-opacity:1.0000; stroke:none;">
<circle cx="3.4250" cy="4.8483" r="1.1000" /> 
</g>
<g style="fill:#CE7D2C; fill-opacity:1.0000; stroke:none;">
<circle cx="18.5850" cy="4.8483" r="1.1000" /> 
</g>
<g style="fill:#7FC87F; fill-opacity:1.0000; stroke:none;">
<circle cx="13.5850" cy="4.8483" r="1.1000" /> 
</g>
<g style="fill:#7FC87F; fill-opacity:1.0000; stroke:none;">
<circle cx="8.5050" cy="4.8483" r="1.1000" /> 
</g>
<g style="fill:#7FC87F; fill-opacity:1.0000; stroke:none;">
<circle cx="3.4250" cy="4.8483" r="1.1000" /> 
</g>
<g style="fill:#7FC87F; fill-opacity:1.0000; stroke:none;">
<circle cx="18.5850" cy="4.8483" r="1.1000" /> 
</g>
<g style="fill:#C83434; fill-opacity:1.0000; stroke:none;">
<circle cx="13.5850" cy="4.8483" r="1.1000" /> 
</g>
<g style="fill:#C83434; fill-opacity:1.0000; stroke:none;">
<circle cx="8.5050" cy="4.8483" r="1.1000" /> 
</g>
<g style="fill:#C83434; fill-opacity:1.0000; stroke:none;">
<circle cx="3.4250" cy="4.8483" r="1.1000" /> 
</g>
<g style="fill:#C83434; fill-opacity:1.0000; stroke:none;">
<circle cx="18.5850" cy="4.8483" r="1.1000" /> 
</g>
<g style="fill:#D864FF; fill-opacity:0.4000; stroke:none;">
<circle cx="13.5850" cy="4.8483" r="1.1000" /> 
</g>
<g style="fill:#D864FF; fill-opacity:0.4000; stroke:none;">
<circle cx="8.5050" cy="4.8483" r="1.1000" /> 
</g>
<g style="fill:#D864FF; fill-opacity:0.4000; stroke:none;">
<circle cx="3.4250" cy="4.8483" r="1.1000" /> 
</g>
<g style="fill:#D864FF; fill-opacity:0.4000; stroke:none;">
<circle cx="18.5850" cy="4.8483" r="1.1000" /> 
</g>
<g style="fill:none; 
stroke:#F2EDA1; stroke-width:0.1500; stroke-opacity:1; 
stroke-linecap:round; stroke-linejoin:round;">
<text x="11.0050" y="1.3482"
textLength="4.5357" font-size="1.3333" lengthAdjust="spacingAndGlyphs"
text-anchor="middle" opacity="0" stroke-opacity="0">REF**</text>
<g class="stroked-text"><desc>REF**</desc>
<path d="M9.6717 1.3031
L9.3383 0.8269
" />
<path d="M9.1002 1.3031
L9.1002 0.3031
" />
<path d="M9.1002 0.3031
L9.4812 0.3031
" />
<path d="M9.4812 0.3031
L9.5764 0.3507
" />
<path d="M9.5764 0.3507
L9.6240 0.3983
" />
<path d="M9.6240 0.3983
L9.6717 0.4935
" />
<path d="M9.6717 0.4935
L9.6717 0.6364
" />
<path d="M9.6717 0.6364
L9.6240 0.7316
" />
<path d="M9.6240 0.7316
L9.5764 0.7793
" />
<path d="M9.5764 0.7793
L9.4812 0.8269
" />
<path d="M9.4812 0.8269
L9.1002 0.8269
" />
<path d="M10.1002 0.7793
L10.4336 0.7793
" />
<path d="M10.5764 1.3031
L10.1002 1.3031
" />
<path d="M10.1002 1.3031
L10.1002 0.3031
" />
<path d="M10.1002 0.3031
L10.5764 0.3031
" />
<path d="M11.3383 0.7793
L11.0050 0.7793
" />
<path d="M11.0050 1.3031
L11.0050 0.3031
" />
<path d="M11.0050 0.3031
L11.4812 0.3031
" />
<path d="M12.0050 0.3031
L12.0050 0.5412
" />
<path d="M11.7669 0.4459
L12.0050 0.5412
" />
<path d="M12.0050 0.5412
L12.2431 0.4459
" />
<path d="M11.8621 0.7316
L12.0050 0.5412
" />
<path d="M12.0050 0.5412
L12.1479 0.7316
" />
<path d="M12.7669 0.3031
L12.7669 0.5412
" />
<path d="M12.5288 0.4459
L12.7669 0.5412
" />
<path d="M12.7669 0.5412
L13.0050 0.4459
" />
<path d="M12.6240 0.7316
L12.7669 0.5412
" />
<path d="M12.7669 0.5412
L12.9098 0.7316
" />
</g></g>
<g style="fill:none; 
stroke:#F2EDA1; stroke-width:0.2500; stroke-opacity:1; 
stroke-linecap:round; stroke-linejoin:round;">
<path d="M2.3050 8.3483
L2.3050 6.9482
" />
<path d="M2.3050 6.9482
L4.5050 6.9482
" />
<path d="M4.5050 6.9482
L4.5050 8.3483
" />
<path d="M17.4650 8.3483
L17.4650 6.9482
" />
<path d="M17.4650 6.9482
L19.6650 6.9482
" />
<path d="M19.6650 6.9482
L19.6650 8.3483
" />
<path d="M12.4650 8.3483
L12.4650 6.9482
" />
<path d="M12.4650 6.9482
L14.6650 6.9482
" />
<path d="M14.6650 6.9482
L14.6650 8.3483
" />
<path d="M7.3850 8.3483
L7.3850 6.9482
" />
<path d="M7.3850 6.9482
L9.5850 6.9482
" />
<path d="M9.5850 6.9482
L9.5850 8.3483
" />
<path d="M1.0050 6.5482
L21.2450 6.5482
" />
<path d="M21.1250 0.7482
L21.1250 8.3483
" />
<path d="M0.8850 0.7482
L21.1250 0.7482
" />
<path d="M0.8850 1.4183
L0.8350 1.4183
" />
<path d="M0.8350 1.4183
L0.3850 0.9682
" />
<path d="M0.3850 0.9682
L0.1250 0.9682
" />
<path d="M0.1250 0.9682
L0.1250 2.2382
" />
<path d="M0.1250 2.2382
L0.3850 2.2382
" />
<path d="M0.3850 2.2382
L0.4350 2.2382
" />
<path d="M0.4350 2.2382
L0.8850 1.7882
" />
<path d="M0.8850 2.3082
L21.1250 2.3082
" />
<path d="M0.8850 8.3483
L0.8850 0.7482
" />
<path d="M0.8850 8.3483
L21.1250 8.3483
" />
<circle cx="13.5850" cy="1.6783" r="0.3800" /> 
<circle cx="3.4250" cy="1.6783" r="0.3800" /> 
<circle cx="8.5050" cy="1.6783" r="0.3800" /> 
<circle cx="18.5550" cy="1.6783" r="0.3800" /> 
</g>
<g style="fill:none; 
stroke:#AFAFAF; stroke-width:0.1500; stroke-opacity:1; 
stroke-linecap:round; stroke-linejoin:round;">
<text x="11.0050" y="9.3483"
textLength="21.5833" font-size="1.3333" lengthAdjust="spacingAndGlyphs"
text-anchor="middle" opacity="0" stroke-opacity="0">CONN-TH_JL301-50004U01</text>
<g class="stroked-text"><desc>CONN-TH_JL301-50004U01</desc>
<path d="M1.1479 9.2078
L1.1002 9.2554
" />
<path d="M1.1002 9.2554
L0.9574 9.3031
" />
<path d="M0.9574 9.3031
L0.8621 9.3031
" />
<path d="M0.8621 9.3031
L0.7193 9.2554
" />
<path d="M0.7193 9.2554
L0.6240 9.1602
" />
<path d="M0.6240 9.1602
L0.5764 9.0650
" />
<path d="M0.5764 9.0650
L0.5288 8.8745
" />
<path d="M0.5288 8.8745
L0.5288 8.7316
" />
<path d="M0.5288 8.7316
L0.5764 8.5412
" />
<path d="M0.5764 8.5412
L0.6240 8.4459
" />
<path d="M0.6240 8.4459
L0.7193 8.3507
" />
<path d="M0.7193 8.3507
L0.8621 8.3031
" />
<path d="M0.8621 8.3031
L0.9574 8.3031
" />
<path d="M0.9574 8.3031
L1.1002 8.3507
" />
<path d="M1.1002 8.3507
L1.1479 8.3983
" />
<path d="M1.7669 8.3031
L1.9574 8.3031
" />
<path d="M1.9574 8.3031
L2.0526 8.3507
" />
<path d="M2.0526 8.3507
L2.1479 8.4459
" />
<path d="M2.1479 8.4459
L2.1955 8.6364
" />
<path d="M2.1955 8.6364
L2.1955 8.9697
" />
<path d="M2.1955 8.9697
L2.1479 9.1602
" />
<path d="M2.1479 9.1602
L2.0526 9.2554
" />
<path d="M2.0526 9.2554
L1.9574 9.3031
" />
<path d="M1.9574 9.3031
L1.7669 9.3031
" />
<path d="M1.7669 9.3031
L1.6717 9.2554
" />
<path d="M1.6717 9.2554
L1.5764 9.1602
" />
<path d="M1.5764 9.1602
L1.5288 8.9697
" />
<path d="M1.5288 8.9697
L1.5288 8.6364
" />
<path d="M1.5288 8.6364
L1.5764 8.4459
" />
<path d="M1.5764 8.4459
L1.6717 8.3507
" />
<path d="M1.6717 8.3507
L1.7669 8.3031
" />
<path d="M2.6240 9.3031
L2.6240 8.3031
" />
<path d="M2.6240 8.3031
L3.1955 9.3031
" />
<path d="M3.1955 9.3031
L3.1955 8.3031
" />
<path d="M3.6717 9.3031
L3.6717 8.3031
" />
<path d="M3.6717 8.3031
L4.2431 9.3031
" />
<path d="M4.2431 9.3031
L4.2431 8.3031
" />
<path d="M4.7193 8.9221
L5.4812 8.9221
" />
<path d="M5.8145 8.3031
L6.3860 8.3031
" />
<path d="M6.1002 9.3031
L6.1002 8.3031
" />
<path d="M6.7193 9.3031
L6.7193 8.3031
" />
<path d="M6.7193 8.7793
L7.2907 8.7793
" />
<path d="M7.2907 9.3031
L7.2907 8.3031
" />
<path d="M7.5288 9.3983
L8.2907 9.3983
" />
<path d="M8.8145 8.3031
L8.8145 9.0174
" />
<path d="M8.8145 9.0174
L8.7669 9.1602
" />
<path d="M8.7669 9.1602
L8.6717 9.2554
" />
<path d="M8.6717 9.2554
L8.5288 9.3031
" />
<path d="M8.5288 9.3031
L8.4336 9.3031
" />
<path d="M9.7669 9.3031
L9.2907 9.3031
" />
<path d="M9.2907 9.3031
L9.2907 8.3031
" />
<path d="M10.0050 8.3031
L10.6240 8.3031
" />
<path d="M10.6240 8.3031
L10.2907 8.6840
" />
<path d="M10.2907 8.6840
L10.4336 8.6840
" />
<path d="M10.4336 8.6840
L10.5288 8.7316
" />
<path d="M10.5288 8.7316
L10.5764 8.7793
" />
<path d="M10.5764 8.7793
L10.6240 8.8745
" />
<path d="M10.6240 8.8745
L10.6240 9.1126
" />
<path d="M10.6240 9.1126
L10.5764 9.2078
" />
<path d="M10.5764 9.2078
L10.5288 9.2554
" />
<path d="M10.5288 9.2554
L10.4336 9.3031
" />
<path d="M10.4336 9.3031
L10.1479 9.3031
" />
<path d="M10.1479 9.3031
L10.0526 9.2554
" />
<path d="M10.0526 9.2554
L10.0050 9.2078
" />
<path d="M11.2431 8.3031
L11.3383 8.3031
" />
<path d="M11.3383 8.3031
L11.4336 8.3507
" />
<path d="M11.4336 8.3507
L11.4812 8.3983
" />
<path d="M11.4812 8.3983
L11.5288 8.4935
" />
<path d="M11.5288 8.4935
L11.5764 8.6840
" />
<path d="M11.5764 8.6840
L11.5764 8.9221
" />
<path d="M11.5764 8.9221
L11.5288 9.1126
" />
<path d="M11.5288 9.1126
L11.4812 9.2078
" />
<path d="M11.4812 9.2078
L11.4336 9.2554
" />
<path d="M11.4336 9.2554
L11.3383 9.3031
" />
<path d="M11.3383 9.3031
L11.2431 9.3031
" />
<path d="M11.2431 9.3031
L11.1479 9.2554
" />
<path d="M11.1479 9.2554
L11.1002 9.2078
" />
<path d="M11.1002 9.2078
L11.0526 9.1126
" />
<path d="M11.0526 9.1126
L11.0050 8.9221
" />
<path d="M11.0050 8.9221
L11.0050 8.6840
" />
<path d="M11.0050 8.6840
L11.0526 8.4935
" />
<path d="M11.0526 8.4935
L11.1002 8.3983
" />
<path d="M11.1002 8.3983
L11.1479 8.3507
" />
<path d="M11.1479 8.3507
L11.2431 8.3031
" />
<path d="M12.5288 9.3031
L11.9574 9.3031
" />
<path d="M12.2431 9.3031
L12.2431 8.3031
" />
<path d="M12.2431 8.3031
L12.1479 8.4459
" />
<path d="M12.1479 8.4459
L12.0526 8.5412
" />
<path d="M12.0526 8.5412
L11.9574 8.5888
" />
<path d="M12.9574 8.9221
L13.7193 8.9221
" />
<path d="M14.6717 8.3031
L14.1955 8.3031
" />
<path d="M14.1955 8.3031
L14.1479 8.7793
" />
<path d="M14.1479 8.7793
L14.1955 8.7316
" />
<path d="M14.1955 8.7316
L14.2907 8.6840
" />
<path d="M14.2907 8.6840
L14.5288 8.6840
" />
<path d="M14.5288 8.6840
L14.6240 8.7316
" />
<path d="M14.6240 8.7316
L14.6717 8.7793
" />
<path d="M14.6717 8.7793
L14.7193 8.8745
" />
<path d="M14.7193 8.8745
L14.7193 9.1126
" />
<path d="M14.7193 9.1126
L14.6717 9.2078
" />
<path d="M14.6717 9.2078
L14.6240 9.2554
" />
<path d="M14.6240 9.2554
L14.5288 9.3031
" />
<path d="M14.5288 9.3031
L14.2907 9.3031
" />
<path d="M14.2907 9.3031
L14.1955 9.2554
" />
<path d="M14.1955 9.2554
L14.1479 9.2078
" />
<path d="M15.3383 8.3031
L15.4336 8.3031
" />
<path d="M15.4336 8.3031
L15.5288 8.3507
" />
<path d="M15.5288 8.3507
L15.5764 8.3983
" />
<path d="M15.5764 8.3983
L15.6240 8.4935
" />
<path d="M15.6240 8.4935
L15.6717 8.6840
" />
<path d="M15.6717 8.6840
L15.6717 8.9221
" />
<path d="M15.6717 8.9221
L15.6240 9.1126
" />
<path d="M15.6240 9.1126
L15.5764 9.2078
" />
<path d="M15.5764 9.2078
L15.5288 9.2554
" />
<path d="M15.5288 9.2554
L15.4336 9.3031
" />
<path d="M15.4336 9.3031
L15.3383 9.3031
" />
<path d="M15.3383 9.3031
L15.2431 9.2554
" />
<path d="M15.2431 9.2554
L15.1955 9.2078
" />
<path d="M15.1955 9.2078
L15.1479 9.1126
" />
<path d="M15.1479 9.1126
L15.1002 8.9221
" />
<path d="M15.1002 8.9221
L15.1002 8.6840
" />
<path d="M15.1002 8.6840
L15.1479 8.4935
" />
<path d="M15.1479 8.4935
L15.1955 8.3983
" />
<path d="M15.1955 8.3983
L15.2431 8.3507
" />
<path d="M15.2431 8.3507
L15.3383 8.3031
" />
<path d="M16.2907 8.3031
L16.3860 8.3031
" />
<path d="M16.3860 8.3031
L16.4812 8.3507
" />
<path d="M16.4812 8.3507
L16.5288 8.3983
" />
<path d="M16.5288 8.3983
L16.5764 8.4935
" />
<path d="M16.5764 8.4935
L16.6240 8.6840
" />
<path d="M16.6240 8.6840
L16.6240 8.9221
" />
<path d="M16.6240 8.9221
L16.5764 9.1126
" />
<path d="M16.5764 9.1126
L16.5288 9.2078
" />
<path d="M16.5288 9.2078
L16.4812 9.2554
" />
<path d="M16.4812 9.2554
L16.3860 9.3031
" />
<path d="M16.3860 9.3031
L16.2907 9.3031
" />
<path d="M16.2907 9.3031
L16.1955 9.2554
" />
<path d="M16.1955 9.2554
L16.1479 9.2078
" />
<path d="M16.1479 9.2078
L16.1002 9.1126
" />
<path d="M16.1002 9.1126
L16.0526 8.9221
" />
<path d="M16.0526 8.9221
L16.0526 8.6840
" />
<path d="M16.0526 8.6840
L16.1002 8.4935
" />
<path d="M16.1002 8.4935
L16.1479 8.3983
" />
<path d="M16.1479 8.3983
L16.1955 8.3507
" />
<path d="M16.1955 8.3507
L16.2907 8.3031
" />
<path d="M17.2431 8.3031
L17.3383 8.3031
" />
<path d="M17.3383 8.3031
L17.4336 8.3507
" />
<path d="M17.4336 8.3507
L17.4812 8.3983
" />
<path d="M17.4812 8.3983
L17.5288 8.4935
" />
<path d="M17.5288 8.4935
L17.5764 8.6840
" />
<path d="M17.5764 8.6840
L17.5764 8.9221
" />
<path d="M17.5764 8.9221
L17.5288 9.1126
" />
<path d="M17.5288 9.1126
L17.4812 9.2078
" />
<path d="M17.4812 9.2078
L17.4336 9.2554
" />
<path d="M17.4336 9.2554
L17.3383 9.3031
" />
<path d="M17.3383 9.3031
L17.2431 9.3031
" />
<path d="M17.2431 9.3031
L17.1479 9.2554
" />
<path d="M17.1479 9.2554
L17.1002 9.2078
" />
<path d="M17.1002 9.2078
L17.0526 9.1126
" />
<path d="M17.0526 9.1126
L17.0050 8.9221
" />
<path d="M17.0050 8.9221
L17.0050 8.6840
" />
<path d="M17.0050 8.6840
L17.0526 8.4935
" />
<path d="M17.0526 8.4935
L17.1002 8.3983
" />
<path d="M17.1002 8.3983
L17.1479 8.3507
" />
<path d="M17.1479 8.3507
L17.2431 8.3031
" />
<path d="M18.4336 8.6364
L18.4336 9.3031
" />
<path d="M18.1955 8.2554
L17.9574 8.9697
" />
<path d="M17.9574 8.9697
L18.5764 8.9697
" />
<path d="M18.9574 8.3031
L18.9574 9.1126
" />
<path d="M18.9574 9.1126
L19.0050 9.2078
" />
<path d="M19.0050 9.2078
L19.0526 9.2554
" />
<path d="M19.0526 9.2554
L19.1479 9.3031
" />
<path d="M19.1479 9.3031
L19.3383 9.3031
" />
<path d="M19.3383 9.3031
L19.4336 9.2554
" />
<path d="M19.4336 9.2554
L19.4812 9.2078
" />
<path d="M19.4812 9.2078
L19.5288 9.1126
" />
<path d="M19.5288 9.1126
L19.5288 8.3031
" />
<path d="M20.1955 8.3031
L20.2907 8.3031
" />
<path d="M20.2907 8.3031
L20.3860 8.3507
" />
<path d="M20.3860 8.3507
L20.4336 8.3983
" />
<path d="M20.4336 8.3983
L20.4812 8.4935
" />
<path d="M20.4812 8.4935
L20.5288 8.6840
" />
<path d="M20.5288 8.6840
L20.5288 8.9221
" />
<path d="M20.5288 8.9221
L20.4812 9.1126
" />
<path d="M20.4812 9.1126
L20.4336 9.2078
" />
<path d="M20.4336 9.2078
L20.3860 9.2554
" />
<path d="M20.3860 9.2554
L20.2907 9.3031
" />
<path d="M20.2907 9.3031
L20.1955 9.3031
" />
<path d="M20.1955 9.3031
L20.1002 9.2554
" />
<path d="M20.1002 9.2554
L20.0526 9.2078
" />
<path d="M20.0526 9.2078
L20.0050 9.1126
" />
<path d="M20.0050 9.1126
L19.9574 8.9221
" />
<path d="M19.9574 8.9221
L19.9574 8.6840
" />
<path d="M19.9574 8.6840
L20.0050 8.4935
" />
<path d="M20.0050 8.4935
L20.0526 8.3983
" />
<path d="M20.0526 8.3983
L20.1002 8.3507
" />
<path d="M20.1002 8.3507
L20.1955 8.3031
" />
<path d="M21.4812 9.3031
L20.9098 9.3031
" />
<path d="M21.1955 9.3031
L21.1955 8.3031
" />
<path d="M21.1955 8.3031
L21.1002 8.4459
" />
<path d="M21.1002 8.4459
L21.0050 8.5412
" />
<path d="M21.0050 8.5412
L20.9098 8.5888
" />
</g><text x="11.0050" y="5.3483"
textLength="4.5357" font-size="1.3333" lengthAdjust="spacingAndGlyphs"
text-anchor="middle" opacity="0" stroke-opacity="0">REF**</text>
<g class="stroked-text"><desc>REF**</desc>
<path d="M9.6717 5.3031
L9.3383 4.8269
" />
<path d="M9.1002 5.3031
L9.1002 4.3031
" />
<path d="M9.1002 4.3031
L9.4812 4.3031
" />
<path d="M9.4812 4.3031
L9.5764 4.3507
" />
<path d="M9.5764 4.3507
L9.6240 4.3983
" />
<path d="M9.6240 4.3983
L9.6717 4.4935
" />
<path d="M9.6717 4.4935
L9.6717 4.6364
" />
<path d="M9.6717 4.6364
L9.6240 4.7316
" />
<path d="M9.6240 4.7316
L9.5764 4.7793
" />
<path d="M9.5764 4.7793
L9.4812 4.8269
" />
<path d="M9.4812 4.8269
L9.1002 4.8269
" />
<path d="M10.1002 4.7793
L10.4336 4.7793
" />
<path d="M10.5764 5.3031
L10.1002 5.3031
" />
<path d="M10.1002 5.3031
L10.1002 4.3031
" />
<path d="M10.1002 4.3031
L10.5764 4.3031
" />
<path d="M11.3383 4.7793
L11.0050 4.7793
" />
<path d="M11.0050 5.3031
L11.0050 4.3031
" />
<path d="M11.0050 4.3031
L11.4812 4.3031
" />
<path d="M12.0050 4.3031
L12.0050 4.5412
" />
<path d="M11.7669 4.4459
L12.0050 4.5412
" />
<path d="M12.0050 4.5412
L12.2431 4.4459
" />
<path d="M11.8621 4.7316
L12.0050 4.5412
" />
<path d="M12.0050 4.5412
L12.1479 4.7316
" />
<path d="M12.7669 4.3031
L12.7669 4.5412
" />
<path d="M12.5288 4.4459
L12.7669 4.5412
" />
<path d="M12.7669 4.5412
L13.0050 4.4459
" />
<path d="M12.6240 4.7316
L12.7669 4.5412
" />
<path d="M12.7669 4.5412
L12.9098 4.7316
" />
</g></g>
<g style="fill:none; 
stroke:#AFAFAF; stroke-width:0.0600; stroke-opacity:1; 
stroke-linecap:round; stroke-linejoin:round;">
<circle cx="1.0050" cy="8.3483" r="0.0300" /> 
</g>
<g style="fill:none; 
stroke:#AFAFAF; stroke-width:0.4500; stroke-opacity:1; 
stroke-linecap:round; stroke-linejoin:round;">
<circle cx="18.5850" cy="4.8483" r="0.4450" /> 
</g>
<g style="fill:none; 
stroke:#AFAFAF; stroke-width:0.4500; stroke-opacity:1; 
stroke-linecap:round; stroke-linejoin:round;">
<circle cx="3.4250" cy="4.8483" r="0.4450" /> 
</g>
<g style="fill:none; 
stroke:#AFAFAF; stroke-width:0.4500; stroke-opacity:1; 
stroke-linecap:round; stroke-linejoin:round;">
<circle cx="8.5050" cy="4.8483" r="0.4450" /> 
</g>
<g style="fill:none; 
stroke:#AFAFAF; stroke-width:0.4500; stroke-opacity:1; 
stroke-linecap:round; stroke-linejoin:round;">
<circle cx="13.5850" cy="4.8483" r="0.4450" /> 
</g> 
</svg>
