<?xml version="1.0" standalone="no"?>
 <!DOCTYPE svg PUBLIC "-//W3C//DTD SVG 1.1//EN" 
 "http://www.w3.org/Graphics/SVG/1.1/DTD/svg11.dtd"> 
<svg
  xmlns:svg="http://www.w3.org/2000/svg"
  xmlns="http://www.w3.org/2000/svg"
  xmlns:xlink="http://www.w3.org/1999/xlink"
  version="1.1"
  width="29.8450mm" height="9.6774mm" viewBox="0.0000 0.0000 29.8450 9.6774">
<title>SVG Image created as CONN-TH_2P-P5.00_WJ301V-5.00-3P.svg date 2024/09/23 17:20:49 </title>
  <desc>Image generated by PCBNEW </desc>
<g style="fill:#000000; fill-opacity:1.0000;stroke:#000000; stroke-opacity:1.0000;
stroke-linecap:round; stroke-linejoin:round;"
 transform="translate(0 0) scale(1 1)">
</g>
<g style="fill:#4D7FC4; fill-opacity:1.0000; stroke:none;">
<circle cx="14.9345" cy="4.8483" r="1.0000" /> 
</g>
<g style="fill:#4D7FC4; fill-opacity:1.0000; stroke:none;">
<circle cx="9.9245" cy="4.8483" r="1.0000" /> 
</g>
<g style="fill:#4D7FC4; fill-opacity:1.0000; stroke:none;">
<circle cx="19.9445" cy="4.8483" r="1.0000" /> 
</g>
<g style="fill:#02FFEE; fill-opacity:0.4000; stroke:none;">
<circle cx="14.9345" cy="4.8483" r="1.0000" /> 
</g>
<g style="fill:#02FFEE; fill-opacity:0.4000; stroke:none;">
<circle cx="9.9245" cy="4.8483" r="1.0000" /> 
</g>
<g style="fill:#02FFEE; fill-opacity:0.4000; stroke:none;">
<circle cx="19.9445" cy="4.8483" r="1.0000" /> 
</g>
<g style="fill:#F2EDA1; fill-opacity:1.0000; stroke:none;">
<circle cx="14.9345" cy="4.8483" r="1.0000" /> 
</g>
<g style="fill:#F2EDA1; fill-opacity:1.0000; stroke:none;">
<circle cx="9.9245" cy="4.8483" r="1.0000" /> 
</g>
<g style="fill:#F2EDA1; fill-opacity:1.0000; stroke:none;">
<circle cx="19.9445" cy="4.8483" r="1.0000" /> 
</g>
<g style="fill:#E8B2A7; fill-opacity:1.0000; stroke:none;">
<circle cx="14.9345" cy="4.8483" r="1.0000" /> 
</g>
<g style="fill:#E8B2A7; fill-opacity:1.0000; stroke:none;">
<circle cx="9.9245" cy="4.8483" r="1.0000" /> 
</g>
<g style="fill:#E8B2A7; fill-opacity:1.0000; stroke:none;">
<circle cx="19.9445" cy="4.8483" r="1.0000" /> 
</g>
<g style="fill:#28CCD9; fill-opacity:1.0000; stroke:none;">
<circle cx="14.9345" cy="4.8483" r="1.0000" /> 
</g>
<g style="fill:#28CCD9; fill-opacity:1.0000; stroke:none;">
<circle cx="9.9245" cy="4.8483" r="1.0000" /> 
</g>
<g style="fill:#28CCD9; fill-opacity:1.0000; stroke:none;">
<circle cx="19.9445" cy="4.8483" r="1.0000" /> 
</g>
<g style="fill:#A7A5C6; fill-opacity:1.0000; stroke:none;">
<circle cx="14.9345" cy="4.8483" r="1.0000" /> 
</g>
<g style="fill:#A7A5C6; fill-opacity:1.0000; stroke:none;">
<circle cx="9.9245" cy="4.8483" r="1.0000" /> 
</g>
<g style="fill:#A7A5C6; fill-opacity:1.0000; stroke:none;">
<circle cx="19.9445" cy="4.8483" r="1.0000" /> 
</g>
<g style="fill:#F76F8E; fill-opacity:1.0000; stroke:none;">
<circle cx="14.9345" cy="4.8483" r="1.0000" /> 
</g>
<g style="fill:#F76F8E; fill-opacity:1.0000; stroke:none;">
<circle cx="9.9245" cy="4.8483" r="1.0000" /> 
</g>
<g style="fill:#F76F8E; fill-opacity:1.0000; stroke:none;">
<circle cx="19.9445" cy="4.8483" r="1.0000" /> 
</g>
<g style="fill:#5BC3EB; fill-opacity:1.0000; stroke:none;">
<circle cx="14.9345" cy="4.8483" r="1.0000" /> 
</g>
<g style="fill:#5BC3EB; fill-opacity:1.0000; stroke:none;">
<circle cx="9.9245" cy="4.8483" r="1.0000" /> 
</g>
<g style="fill:#5BC3EB; fill-opacity:1.0000; stroke:none;">
<circle cx="19.9445" cy="4.8483" r="1.0000" /> 
</g>
<g style="fill:#ED7C33; fill-opacity:1.0000; stroke:none;">
<circle cx="14.9345" cy="4.8483" r="1.0000" /> 
</g>
<g style="fill:#ED7C33; fill-opacity:1.0000; stroke:none;">
<circle cx="9.9245" cy="4.8483" r="1.0000" /> 
</g>
<g style="fill:#ED7C33; fill-opacity:1.0000; stroke:none;">
<circle cx="19.9445" cy="4.8483" r="1.0000" /> 
</g>
<g style="fill:#F2EDA1; fill-opacity:1.0000; stroke:none;">
<circle cx="14.9345" cy="4.8483" r="1.0000" /> 
</g>
<g style="fill:#F2EDA1; fill-opacity:1.0000; stroke:none;">
<circle cx="9.9245" cy="4.8483" r="1.0000" /> 
</g>
<g style="fill:#F2EDA1; fill-opacity:1.0000; stroke:none;">
<circle cx="19.9445" cy="4.8483" r="1.0000" /> 
</g>
<g style="fill:#E8B2A7; fill-opacity:1.0000; stroke:none;">
<circle cx="14.9345" cy="4.8483" r="1.0000" /> 
</g>
<g style="fill:#E8B2A7; fill-opacity:1.0000; stroke:none;">
<circle cx="9.9245" cy="4.8483" r="1.0000" /> 
</g>
<g style="fill:#E8B2A7; fill-opacity:1.0000; stroke:none;">
<circle cx="19.9445" cy="4.8483" r="1.0000" /> 
</g>
<g style="fill:#28CCD9; fill-opacity:1.0000; stroke:none;">
<circle cx="14.9345" cy="4.8483" r="1.0000" /> 
</g>
<g style="fill:#28CCD9; fill-opacity:1.0000; stroke:none;">
<circle cx="9.9245" cy="4.8483" r="1.0000" /> 
</g>
<g style="fill:#28CCD9; fill-opacity:1.0000; stroke:none;">
<circle cx="19.9445" cy="4.8483" r="1.0000" /> 
</g>
<g style="fill:#A7A5C6; fill-opacity:1.0000; stroke:none;">
<circle cx="14.9345" cy="4.8483" r="1.0000" /> 
</g>
<g style="fill:#A7A5C6; fill-opacity:1.0000; stroke:none;">
<circle cx="9.9245" cy="4.8483" r="1.0000" /> 
</g>
<g style="fill:#A7A5C6; fill-opacity:1.0000; stroke:none;">
<circle cx="19.9445" cy="4.8483" r="1.0000" /> 
</g>
<g style="fill:#F76F8E; fill-opacity:1.0000; stroke:none;">
<circle cx="14.9345" cy="4.8483" r="1.0000" /> 
</g>
<g style="fill:#F76F8E; fill-opacity:1.0000; stroke:none;">
<circle cx="9.9245" cy="4.8483" r="1.0000" /> 
</g>
<g style="fill:#F76F8E; fill-opacity:1.0000; stroke:none;">
<circle cx="19.9445" cy="4.8483" r="1.0000" /> 
</g>
<g style="fill:#5BC3EB; fill-opacity:1.0000; stroke:none;">
<circle cx="14.9345" cy="4.8483" r="1.0000" /> 
</g>
<g style="fill:#5BC3EB; fill-opacity:1.0000; stroke:none;">
<circle cx="9.9245" cy="4.8483" r="1.0000" /> 
</g>
<g style="fill:#5BC3EB; fill-opacity:1.0000; stroke:none;">
<circle cx="19.9445" cy="4.8483" r="1.0000" /> 
</g>
<g style="fill:#ED7C33; fill-opacity:1.0000; stroke:none;">
<circle cx="14.9345" cy="4.8483" r="1.0000" /> 
</g>
<g style="fill:#ED7C33; fill-opacity:1.0000; stroke:none;">
<circle cx="9.9245" cy="4.8483" r="1.0000" /> 
</g>
<g style="fill:#ED7C33; fill-opacity:1.0000; stroke:none;">
<circle cx="19.9445" cy="4.8483" r="1.0000" /> 
</g>
<g style="fill:#F2EDA1; fill-opacity:1.0000; stroke:none;">
<circle cx="14.9345" cy="4.8483" r="1.0000" /> 
</g>
<g style="fill:#F2EDA1; fill-opacity:1.0000; stroke:none;">
<circle cx="9.9245" cy="4.8483" r="1.0000" /> 
</g>
<g style="fill:#F2EDA1; fill-opacity:1.0000; stroke:none;">
<circle cx="19.9445" cy="4.8483" r="1.0000" /> 
</g>
<g style="fill:#E8B2A7; fill-opacity:1.0000; stroke:none;">
<circle cx="14.9345" cy="4.8483" r="1.0000" /> 
</g>
<g style="fill:#E8B2A7; fill-opacity:1.0000; stroke:none;">
<circle cx="9.9245" cy="4.8483" r="1.0000" /> 
</g>
<g style="fill:#E8B2A7; fill-opacity:1.0000; stroke:none;">
<circle cx="19.9445" cy="4.8483" r="1.0000" /> 
</g>
<g style="fill:#28CCD9; fill-opacity:1.0000; stroke:none;">
<circle cx="14.9345" cy="4.8483" r="1.0000" /> 
</g>
<g style="fill:#28CCD9; fill-opacity:1.0000; stroke:none;">
<circle cx="9.9245" cy="4.8483" r="1.0000" /> 
</g>
<g style="fill:#28CCD9; fill-opacity:1.0000; stroke:none;">
<circle cx="19.9445" cy="4.8483" r="1.0000" /> 
</g>
<g style="fill:#A7A5C6; fill-opacity:1.0000; stroke:none;">
<circle cx="14.9345" cy="4.8483" r="1.0000" /> 
</g>
<g style="fill:#A7A5C6; fill-opacity:1.0000; stroke:none;">
<circle cx="9.9245" cy="4.8483" r="1.0000" /> 
</g>
<g style="fill:#A7A5C6; fill-opacity:1.0000; stroke:none;">
<circle cx="19.9445" cy="4.8483" r="1.0000" /> 
</g>
<g style="fill:#F76F8E; fill-opacity:1.0000; stroke:none;">
<circle cx="14.9345" cy="4.8483" r="1.0000" /> 
</g>
<g style="fill:#F76F8E; fill-opacity:1.0000; stroke:none;">
<circle cx="9.9245" cy="4.8483" r="1.0000" /> 
</g>
<g style="fill:#F76F8E; fill-opacity:1.0000; stroke:none;">
<circle cx="19.9445" cy="4.8483" r="1.0000" /> 
</g>
<g style="fill:#5BC3EB; fill-opacity:1.0000; stroke:none;">
<circle cx="14.9345" cy="4.8483" r="1.0000" /> 
</g>
<g style="fill:#5BC3EB; fill-opacity:1.0000; stroke:none;">
<circle cx="9.9245" cy="4.8483" r="1.0000" /> 
</g>
<g style="fill:#5BC3EB; fill-opacity:1.0000; stroke:none;">
<circle cx="19.9445" cy="4.8483" r="1.0000" /> 
</g>
<g style="fill:#ED7C33; fill-opacity:1.0000; stroke:none;">
<circle cx="14.9345" cy="4.8483" r="1.0000" /> 
</g>
<g style="fill:#ED7C33; fill-opacity:1.0000; stroke:none;">
<circle cx="9.9245" cy="4.8483" r="1.0000" /> 
</g>
<g style="fill:#ED7C33; fill-opacity:1.0000; stroke:none;">
<circle cx="19.9445" cy="4.8483" r="1.0000" /> 
</g>
<g style="fill:#8DCB81; fill-opacity:1.0000; stroke:none;">
<circle cx="14.9345" cy="4.8483" r="1.0000" /> 
</g>
<g style="fill:#8DCB81; fill-opacity:1.0000; stroke:none;">
<circle cx="9.9245" cy="4.8483" r="1.0000" /> 
</g>
<g style="fill:#8DCB81; fill-opacity:1.0000; stroke:none;">
<circle cx="19.9445" cy="4.8483" r="1.0000" /> 
</g>
<g style="fill:#F2EDA1; fill-opacity:1.0000; stroke:none;">
<circle cx="14.9345" cy="4.8483" r="1.0000" /> 
</g>
<g style="fill:#F2EDA1; fill-opacity:1.0000; stroke:none;">
<circle cx="9.9245" cy="4.8483" r="1.0000" /> 
</g>
<g style="fill:#F2EDA1; fill-opacity:1.0000; stroke:none;">
<circle cx="19.9445" cy="4.8483" r="1.0000" /> 
</g>
<g style="fill:#E8B2A7; fill-opacity:1.0000; stroke:none;">
<circle cx="14.9345" cy="4.8483" r="1.0000" /> 
</g>
<g style="fill:#E8B2A7; fill-opacity:1.0000; stroke:none;">
<circle cx="9.9245" cy="4.8483" r="1.0000" /> 
</g>
<g style="fill:#E8B2A7; fill-opacity:1.0000; stroke:none;">
<circle cx="19.9445" cy="4.8483" r="1.0000" /> 
</g>
<g style="fill:#28CCD9; fill-opacity:1.0000; stroke:none;">
<circle cx="14.9345" cy="4.8483" r="1.0000" /> 
</g>
<g style="fill:#28CCD9; fill-opacity:1.0000; stroke:none;">
<circle cx="9.9245" cy="4.8483" r="1.0000" /> 
</g>
<g style="fill:#28CCD9; fill-opacity:1.0000; stroke:none;">
<circle cx="19.9445" cy="4.8483" r="1.0000" /> 
</g>
<g style="fill:#A7A5C6; fill-opacity:1.0000; stroke:none;">
<circle cx="14.9345" cy="4.8483" r="1.0000" /> 
</g>
<g style="fill:#A7A5C6; fill-opacity:1.0000; stroke:none;">
<circle cx="9.9245" cy="4.8483" r="1.0000" /> 
</g>
<g style="fill:#A7A5C6; fill-opacity:1.0000; stroke:none;">
<circle cx="19.9445" cy="4.8483" r="1.0000" /> 
</g>
<g style="fill:#DB628B; fill-opacity:1.0000; stroke:none;">
<circle cx="14.9345" cy="4.8483" r="1.0000" /> 
</g>
<g style="fill:#DB628B; fill-opacity:1.0000; stroke:none;">
<circle cx="9.9245" cy="4.8483" r="1.0000" /> 
</g>
<g style="fill:#DB628B; fill-opacity:1.0000; stroke:none;">
<circle cx="19.9445" cy="4.8483" r="1.0000" /> 
</g>
<g style="fill:#4FCBCB; fill-opacity:1.0000; stroke:none;">
<circle cx="14.9345" cy="4.8483" r="1.0000" /> 
</g>
<g style="fill:#4FCBCB; fill-opacity:1.0000; stroke:none;">
<circle cx="9.9245" cy="4.8483" r="1.0000" /> 
</g>
<g style="fill:#4FCBCB; fill-opacity:1.0000; stroke:none;">
<circle cx="19.9445" cy="4.8483" r="1.0000" /> 
</g>
<g style="fill:#CE7D2C; fill-opacity:1.0000; stroke:none;">
<circle cx="14.9345" cy="4.8483" r="1.0000" /> 
</g>
<g style="fill:#CE7D2C; fill-opacity:1.0000; stroke:none;">
<circle cx="9.9245" cy="4.8483" r="1.0000" /> 
</g>
<g style="fill:#CE7D2C; fill-opacity:1.0000; stroke:none;">
<circle cx="19.9445" cy="4.8483" r="1.0000" /> 
</g>
<g style="fill:#7FC87F; fill-opacity:1.0000; stroke:none;">
<circle cx="14.9345" cy="4.8483" r="1.0000" /> 
</g>
<g style="fill:#7FC87F; fill-opacity:1.0000; stroke:none;">
<circle cx="9.9245" cy="4.8483" r="1.0000" /> 
</g>
<g style="fill:#7FC87F; fill-opacity:1.0000; stroke:none;">
<circle cx="19.9445" cy="4.8483" r="1.0000" /> 
</g>
<g style="fill:#C83434; fill-opacity:1.0000; stroke:none;">
<circle cx="14.9345" cy="4.8483" r="1.0000" /> 
</g>
<g style="fill:#C83434; fill-opacity:1.0000; stroke:none;">
<circle cx="9.9245" cy="4.8483" r="1.0000" /> 
</g>
<g style="fill:#C83434; fill-opacity:1.0000; stroke:none;">
<circle cx="19.9445" cy="4.8483" r="1.0000" /> 
</g>
<g style="fill:#D864FF; fill-opacity:0.4000; stroke:none;">
<circle cx="14.9345" cy="4.8483" r="1.0000" /> 
</g>
<g style="fill:#D864FF; fill-opacity:0.4000; stroke:none;">
<circle cx="9.9245" cy="4.8483" r="1.0000" /> 
</g>
<g style="fill:#D864FF; fill-opacity:0.4000; stroke:none;">
<circle cx="19.9445" cy="4.8483" r="1.0000" /> 
</g>
<g style="fill:none; 
stroke:#F2EDA1; stroke-width:0.1500; stroke-opacity:1; 
stroke-linecap:round; stroke-linejoin:round;">
<text x="14.9345" y="1.3482"
textLength="4.5357" font-size="1.3333" lengthAdjust="spacingAndGlyphs"
text-anchor="middle" opacity="0" stroke-opacity="0">REF**</text>
<g class="stroked-text"><desc>REF**</desc>
<path d="M13.6012 1.3031
L13.2679 0.8269
" />
<path d="M13.0298 1.3031
L13.0298 0.3031
" />
<path d="M13.0298 0.3031
L13.4107 0.3031
" />
<path d="M13.4107 0.3031
L13.5060 0.3507
" />
<path d="M13.5060 0.3507
L13.5536 0.3983
" />
<path d="M13.5536 0.3983
L13.6012 0.4935
" />
<path d="M13.6012 0.4935
L13.6012 0.6364
" />
<path d="M13.6012 0.6364
L13.5536 0.7316
" />
<path d="M13.5536 0.7316
L13.5060 0.7793
" />
<path d="M13.5060 0.7793
L13.4107 0.8269
" />
<path d="M13.4107 0.8269
L13.0298 0.8269
" />
<path d="M14.0298 0.7793
L14.3631 0.7793
" />
<path d="M14.5060 1.3031
L14.0298 1.3031
" />
<path d="M14.0298 1.3031
L14.0298 0.3031
" />
<path d="M14.0298 0.3031
L14.5060 0.3031
" />
<path d="M15.2679 0.7793
L14.9345 0.7793
" />
<path d="M14.9345 1.3031
L14.9345 0.3031
" />
<path d="M14.9345 0.3031
L15.4107 0.3031
" />
<path d="M15.9345 0.3031
L15.9345 0.5412
" />
<path d="M15.6964 0.4459
L15.9345 0.5412
" />
<path d="M15.9345 0.5412
L16.1726 0.4459
" />
<path d="M15.7917 0.7316
L15.9345 0.5412
" />
<path d="M15.9345 0.5412
L16.0774 0.7316
" />
<path d="M16.6964 0.3031
L16.6964 0.5412
" />
<path d="M16.4583 0.4459
L16.6964 0.5412
" />
<path d="M16.6964 0.5412
L16.9345 0.4459
" />
<path d="M16.5536 0.7316
L16.6964 0.5412
" />
<path d="M16.6964 0.5412
L16.8393 0.7316
" />
</g></g>
<g style="fill:none; 
stroke:#F2EDA1; stroke-width:0.2500; stroke-opacity:1; 
stroke-linecap:round; stroke-linejoin:round;">
<path d="M7.4245 2.6082
L22.4945 2.6082
" />
<path d="M20.4545 8.3483
L20.4545 7.4982
" />
<path d="M20.4545 7.4982
L18.9245 7.4982
" />
<path d="M18.9245 7.4982
L18.9245 8.3483
" />
<path d="M17.4245 8.3483
L22.4945 8.3483
" />
<path d="M22.4945 8.3483
L22.4945 0.8482
" />
<path d="M22.4945 0.8482
L7.4245 0.8482
" />
<path d="M7.4245 0.8482
L7.4245 8.3483
" />
<path d="M7.4245 2.5082
L6.8245 2.6482
" />
<path d="M6.8245 2.6482
L6.8245 1.8482
" />
<path d="M6.8245 1.8482
L7.4245 1.9682
" />
<path d="M17.4245 8.3483
L7.4245 8.3483
" />
<path d="M10.6345 8.3182
L10.6345 7.4282
" />
<path d="M10.6345 7.4282
L9.1045 7.4282
" />
<path d="M9.1045 7.4282
L9.1045 8.3182
" />
<path d="M15.4445 8.3483
L15.4445 7.4982
" />
<path d="M15.4445 7.4982
L13.9145 7.4982
" />
<path d="M13.9145 7.4982
L13.9145 8.3483
" />
</g>
<g style="fill:none; 
stroke:#AFAFAF; stroke-width:0.1500; stroke-opacity:1; 
stroke-linecap:round; stroke-linejoin:round;">
<text x="14.9345" y="9.3483"
textLength="29.8690" font-size="1.3333" lengthAdjust="spacingAndGlyphs"
text-anchor="middle" opacity="0" stroke-opacity="0">CONN-TH_2P-P5.00_WJ301V-5.00-3P</text>
<g class="stroked-text"><desc>CONN-TH_2P-P5.00_WJ301V-5.00-3P</desc>
<path d="M0.9345 9.2078
L0.8869 9.2554
" />
<path d="M0.8869 9.2554
L0.7440 9.3031
" />
<path d="M0.7440 9.3031
L0.6488 9.3031
" />
<path d="M0.6488 9.3031
L0.5060 9.2554
" />
<path d="M0.5060 9.2554
L0.4107 9.1602
" />
<path d="M0.4107 9.1602
L0.3631 9.0650
" />
<path d="M0.3631 9.0650
L0.3155 8.8745
" />
<path d="M0.3155 8.8745
L0.3155 8.7316
" />
<path d="M0.3155 8.7316
L0.3631 8.5412
" />
<path d="M0.3631 8.5412
L0.4107 8.4459
" />
<path d="M0.4107 8.4459
L0.5060 8.3507
" />
<path d="M0.5060 8.3507
L0.6488 8.3031
" />
<path d="M0.6488 8.3031
L0.7440 8.3031
" />
<path d="M0.7440 8.3031
L0.8869 8.3507
" />
<path d="M0.8869 8.3507
L0.9345 8.3983
" />
<path d="M1.5536 8.3031
L1.7440 8.3031
" />
<path d="M1.7440 8.3031
L1.8393 8.3507
" />
<path d="M1.8393 8.3507
L1.9345 8.4459
" />
<path d="M1.9345 8.4459
L1.9821 8.6364
" />
<path d="M1.9821 8.6364
L1.9821 8.9697
" />
<path d="M1.9821 8.9697
L1.9345 9.1602
" />
<path d="M1.9345 9.1602
L1.8393 9.2554
" />
<path d="M1.8393 9.2554
L1.7440 9.3031
" />
<path d="M1.7440 9.3031
L1.5536 9.3031
" />
<path d="M1.5536 9.3031
L1.4583 9.2554
" />
<path d="M1.4583 9.2554
L1.3631 9.1602
" />
<path d="M1.3631 9.1602
L1.3155 8.9697
" />
<path d="M1.3155 8.9697
L1.3155 8.6364
" />
<path d="M1.3155 8.6364
L1.3631 8.4459
" />
<path d="M1.3631 8.4459
L1.4583 8.3507
" />
<path d="M1.4583 8.3507
L1.5536 8.3031
" />
<path d="M2.4107 9.3031
L2.4107 8.3031
" />
<path d="M2.4107 8.3031
L2.9821 9.3031
" />
<path d="M2.9821 9.3031
L2.9821 8.3031
" />
<path d="M3.4583 9.3031
L3.4583 8.3031
" />
<path d="M3.4583 8.3031
L4.0298 9.3031
" />
<path d="M4.0298 9.3031
L4.0298 8.3031
" />
<path d="M4.5060 8.9221
L5.2679 8.9221
" />
<path d="M5.6012 8.3031
L6.1726 8.3031
" />
<path d="M5.8869 9.3031
L5.8869 8.3031
" />
<path d="M6.5060 9.3031
L6.5060 8.3031
" />
<path d="M6.5060 8.7793
L7.0774 8.7793
" />
<path d="M7.0774 9.3031
L7.0774 8.3031
" />
<path d="M7.3155 9.3983
L8.0774 9.3983
" />
<path d="M8.2679 8.3983
L8.3155 8.3507
" />
<path d="M8.3155 8.3507
L8.4107 8.3031
" />
<path d="M8.4107 8.3031
L8.6488 8.3031
" />
<path d="M8.6488 8.3031
L8.7440 8.3507
" />
<path d="M8.7440 8.3507
L8.7917 8.3983
" />
<path d="M8.7917 8.3983
L8.8393 8.4935
" />
<path d="M8.8393 8.4935
L8.8393 8.5888
" />
<path d="M8.8393 8.5888
L8.7917 8.7316
" />
<path d="M8.7917 8.7316
L8.2202 9.3031
" />
<path d="M8.2202 9.3031
L8.8393 9.3031
" />
<path d="M9.2679 9.3031
L9.2679 8.3031
" />
<path d="M9.2679 8.3031
L9.6488 8.3031
" />
<path d="M9.6488 8.3031
L9.7440 8.3507
" />
<path d="M9.7440 8.3507
L9.7917 8.3983
" />
<path d="M9.7917 8.3983
L9.8393 8.4935
" />
<path d="M9.8393 8.4935
L9.8393 8.6364
" />
<path d="M9.8393 8.6364
L9.7917 8.7316
" />
<path d="M9.7917 8.7316
L9.7440 8.7793
" />
<path d="M9.7440 8.7793
L9.6488 8.8269
" />
<path d="M9.6488 8.8269
L9.2679 8.8269
" />
<path d="M10.2679 8.9221
L11.0298 8.9221
" />
<path d="M11.5060 9.3031
L11.5060 8.3031
" />
<path d="M11.5060 8.3031
L11.8869 8.3031
" />
<path d="M11.8869 8.3031
L11.9821 8.3507
" />
<path d="M11.9821 8.3507
L12.0298 8.3983
" />
<path d="M12.0298 8.3983
L12.0774 8.4935
" />
<path d="M12.0774 8.4935
L12.0774 8.6364
" />
<path d="M12.0774 8.6364
L12.0298 8.7316
" />
<path d="M12.0298 8.7316
L11.9821 8.7793
" />
<path d="M11.9821 8.7793
L11.8869 8.8269
" />
<path d="M11.8869 8.8269
L11.5060 8.8269
" />
<path d="M12.9821 8.3031
L12.5060 8.3031
" />
<path d="M12.5060 8.3031
L12.4583 8.7793
" />
<path d="M12.4583 8.7793
L12.5060 8.7316
" />
<path d="M12.5060 8.7316
L12.6012 8.6840
" />
<path d="M12.6012 8.6840
L12.8393 8.6840
" />
<path d="M12.8393 8.6840
L12.9345 8.7316
" />
<path d="M12.9345 8.7316
L12.9821 8.7793
" />
<path d="M12.9821 8.7793
L13.0298 8.8745
" />
<path d="M13.0298 8.8745
L13.0298 9.1126
" />
<path d="M13.0298 9.1126
L12.9821 9.2078
" />
<path d="M12.9821 9.2078
L12.9345 9.2554
" />
<path d="M12.9345 9.2554
L12.8393 9.3031
" />
<path d="M12.8393 9.3031
L12.6012 9.3031
" />
<path d="M12.6012 9.3031
L12.5060 9.2554
" />
<path d="M12.5060 9.2554
L12.4583 9.2078
" />
<path d="M13.4583 9.2078
L13.5060 9.2554
" />
<path d="M13.5060 9.2554
L13.4583 9.3031
" />
<path d="M13.4583 9.3031
L13.4107 9.2554
" />
<path d="M13.4107 9.2554
L13.4583 9.2078
" />
<path d="M13.4583 9.2078
L13.4583 9.3031
" />
<path d="M14.1250 8.3031
L14.2202 8.3031
" />
<path d="M14.2202 8.3031
L14.3155 8.3507
" />
<path d="M14.3155 8.3507
L14.3631 8.3983
" />
<path d="M14.3631 8.3983
L14.4107 8.4935
" />
<path d="M14.4107 8.4935
L14.4583 8.6840
" />
<path d="M14.4583 8.6840
L14.4583 8.9221
" />
<path d="M14.4583 8.9221
L14.4107 9.1126
" />
<path d="M14.4107 9.1126
L14.3631 9.2078
" />
<path d="M14.3631 9.2078
L14.3155 9.2554
" />
<path d="M14.3155 9.2554
L14.2202 9.3031
" />
<path d="M14.2202 9.3031
L14.1250 9.3031
" />
<path d="M14.1250 9.3031
L14.0298 9.2554
" />
<path d="M14.0298 9.2554
L13.9821 9.2078
" />
<path d="M13.9821 9.2078
L13.9345 9.1126
" />
<path d="M13.9345 9.1126
L13.8869 8.9221
" />
<path d="M13.8869 8.9221
L13.8869 8.6840
" />
<path d="M13.8869 8.6840
L13.9345 8.4935
" />
<path d="M13.9345 8.4935
L13.9821 8.3983
" />
<path d="M13.9821 8.3983
L14.0298 8.3507
" />
<path d="M14.0298 8.3507
L14.1250 8.3031
" />
<path d="M15.0774 8.3031
L15.1726 8.3031
" />
<path d="M15.1726 8.3031
L15.2679 8.3507
" />
<path d="M15.2679 8.3507
L15.3155 8.3983
" />
<path d="M15.3155 8.3983
L15.3631 8.4935
" />
<path d="M15.3631 8.4935
L15.4107 8.6840
" />
<path d="M15.4107 8.6840
L15.4107 8.9221
" />
<path d="M15.4107 8.9221
L15.3631 9.1126
" />
<path d="M15.3631 9.1126
L15.3155 9.2078
" />
<path d="M15.3155 9.2078
L15.2679 9.2554
" />
<path d="M15.2679 9.2554
L15.1726 9.3031
" />
<path d="M15.1726 9.3031
L15.0774 9.3031
" />
<path d="M15.0774 9.3031
L14.9821 9.2554
" />
<path d="M14.9821 9.2554
L14.9345 9.2078
" />
<path d="M14.9345 9.2078
L14.8869 9.1126
" />
<path d="M14.8869 9.1126
L14.8393 8.9221
" />
<path d="M14.8393 8.9221
L14.8393 8.6840
" />
<path d="M14.8393 8.6840
L14.8869 8.4935
" />
<path d="M14.8869 8.4935
L14.9345 8.3983
" />
<path d="M14.9345 8.3983
L14.9821 8.3507
" />
<path d="M14.9821 8.3507
L15.0774 8.3031
" />
<path d="M15.6012 9.3983
L16.3631 9.3983
" />
<path d="M16.5060 8.3031
L16.7440 9.3031
" />
<path d="M16.7440 9.3031
L16.9345 8.5888
" />
<path d="M16.9345 8.5888
L17.1250 9.3031
" />
<path d="M17.1250 9.3031
L17.3631 8.3031
" />
<path d="M18.0298 8.3031
L18.0298 9.0174
" />
<path d="M18.0298 9.0174
L17.9821 9.1602
" />
<path d="M17.9821 9.1602
L17.8869 9.2554
" />
<path d="M17.8869 9.2554
L17.7440 9.3031
" />
<path d="M17.7440 9.3031
L17.6488 9.3031
" />
<path d="M18.4107 8.3031
L19.0298 8.3031
" />
<path d="M19.0298 8.3031
L18.6964 8.6840
" />
<path d="M18.6964 8.6840
L18.8393 8.6840
" />
<path d="M18.8393 8.6840
L18.9345 8.7316
" />
<path d="M18.9345 8.7316
L18.9821 8.7793
" />
<path d="M18.9821 8.7793
L19.0298 8.8745
" />
<path d="M19.0298 8.8745
L19.0298 9.1126
" />
<path d="M19.0298 9.1126
L18.9821 9.2078
" />
<path d="M18.9821 9.2078
L18.9345 9.2554
" />
<path d="M18.9345 9.2554
L18.8393 9.3031
" />
<path d="M18.8393 9.3031
L18.5536 9.3031
" />
<path d="M18.5536 9.3031
L18.4583 9.2554
" />
<path d="M18.4583 9.2554
L18.4107 9.2078
" />
<path d="M19.6488 8.3031
L19.7440 8.3031
" />
<path d="M19.7440 8.3031
L19.8393 8.3507
" />
<path d="M19.8393 8.3507
L19.8869 8.3983
" />
<path d="M19.8869 8.3983
L19.9345 8.4935
" />
<path d="M19.9345 8.4935
L19.9821 8.6840
" />
<path d="M19.9821 8.6840
L19.9821 8.9221
" />
<path d="M19.9821 8.9221
L19.9345 9.1126
" />
<path d="M19.9345 9.1126
L19.8869 9.2078
" />
<path d="M19.8869 9.2078
L19.8393 9.2554
" />
<path d="M19.8393 9.2554
L19.7440 9.3031
" />
<path d="M19.7440 9.3031
L19.6488 9.3031
" />
<path d="M19.6488 9.3031
L19.5536 9.2554
" />
<path d="M19.5536 9.2554
L19.5060 9.2078
" />
<path d="M19.5060 9.2078
L19.4583 9.1126
" />
<path d="M19.4583 9.1126
L19.4107 8.9221
" />
<path d="M19.4107 8.9221
L19.4107 8.6840
" />
<path d="M19.4107 8.6840
L19.4583 8.4935
" />
<path d="M19.4583 8.4935
L19.5060 8.3983
" />
<path d="M19.5060 8.3983
L19.5536 8.3507
" />
<path d="M19.5536 8.3507
L19.6488 8.3031
" />
<path d="M20.9345 9.3031
L20.3631 9.3031
" />
<path d="M20.6488 9.3031
L20.6488 8.3031
" />
<path d="M20.6488 8.3031
L20.5536 8.4459
" />
<path d="M20.5536 8.4459
L20.4583 8.5412
" />
<path d="M20.4583 8.5412
L20.3631 8.5888
" />
<path d="M21.2202 8.3031
L21.5536 9.3031
" />
<path d="M21.5536 9.3031
L21.8869 8.3031
" />
<path d="M22.2202 8.9221
L22.9821 8.9221
" />
<path d="M23.9345 8.3031
L23.4583 8.3031
" />
<path d="M23.4583 8.3031
L23.4107 8.7793
" />
<path d="M23.4107 8.7793
L23.4583 8.7316
" />
<path d="M23.4583 8.7316
L23.5536 8.6840
" />
<path d="M23.5536 8.6840
L23.7917 8.6840
" />
<path d="M23.7917 8.6840
L23.8869 8.7316
" />
<path d="M23.8869 8.7316
L23.9345 8.7793
" />
<path d="M23.9345 8.7793
L23.9821 8.8745
" />
<path d="M23.9821 8.8745
L23.9821 9.1126
" />
<path d="M23.9821 9.1126
L23.9345 9.2078
" />
<path d="M23.9345 9.2078
L23.8869 9.2554
" />
<path d="M23.8869 9.2554
L23.7917 9.3031
" />
<path d="M23.7917 9.3031
L23.5536 9.3031
" />
<path d="M23.5536 9.3031
L23.4583 9.2554
" />
<path d="M23.4583 9.2554
L23.4107 9.2078
" />
<path d="M24.4107 9.2078
L24.4583 9.2554
" />
<path d="M24.4583 9.2554
L24.4107 9.3031
" />
<path d="M24.4107 9.3031
L24.3631 9.2554
" />
<path d="M24.3631 9.2554
L24.4107 9.2078
" />
<path d="M24.4107 9.2078
L24.4107 9.3031
" />
<path d="M25.0774 8.3031
L25.1726 8.3031
" />
<path d="M25.1726 8.3031
L25.2679 8.3507
" />
<path d="M25.2679 8.3507
L25.3155 8.3983
" />
<path d="M25.3155 8.3983
L25.3631 8.4935
" />
<path d="M25.3631 8.4935
L25.4107 8.6840
" />
<path d="M25.4107 8.6840
L25.4107 8.9221
" />
<path d="M25.4107 8.9221
L25.3631 9.1126
" />
<path d="M25.3631 9.1126
L25.3155 9.2078
" />
<path d="M25.3155 9.2078
L25.2679 9.2554
" />
<path d="M25.2679 9.2554
L25.1726 9.3031
" />
<path d="M25.1726 9.3031
L25.0774 9.3031
" />
<path d="M25.0774 9.3031
L24.9821 9.2554
" />
<path d="M24.9821 9.2554
L24.9345 9.2078
" />
<path d="M24.9345 9.2078
L24.8869 9.1126
" />
<path d="M24.8869 9.1126
L24.8393 8.9221
" />
<path d="M24.8393 8.9221
L24.8393 8.6840
" />
<path d="M24.8393 8.6840
L24.8869 8.4935
" />
<path d="M24.8869 8.4935
L24.9345 8.3983
" />
<path d="M24.9345 8.3983
L24.9821 8.3507
" />
<path d="M24.9821 8.3507
L25.0774 8.3031
" />
<path d="M26.0298 8.3031
L26.1250 8.3031
" />
<path d="M26.1250 8.3031
L26.2202 8.3507
" />
<path d="M26.2202 8.3507
L26.2679 8.3983
" />
<path d="M26.2679 8.3983
L26.3155 8.4935
" />
<path d="M26.3155 8.4935
L26.3631 8.6840
" />
<path d="M26.3631 8.6840
L26.3631 8.9221
" />
<path d="M26.3631 8.9221
L26.3155 9.1126
" />
<path d="M26.3155 9.1126
L26.2679 9.2078
" />
<path d="M26.2679 9.2078
L26.2202 9.2554
" />
<path d="M26.2202 9.2554
L26.1250 9.3031
" />
<path d="M26.1250 9.3031
L26.0298 9.3031
" />
<path d="M26.0298 9.3031
L25.9345 9.2554
" />
<path d="M25.9345 9.2554
L25.8869 9.2078
" />
<path d="M25.8869 9.2078
L25.8393 9.1126
" />
<path d="M25.8393 9.1126
L25.7917 8.9221
" />
<path d="M25.7917 8.9221
L25.7917 8.6840
" />
<path d="M25.7917 8.6840
L25.8393 8.4935
" />
<path d="M25.8393 8.4935
L25.8869 8.3983
" />
<path d="M25.8869 8.3983
L25.9345 8.3507
" />
<path d="M25.9345 8.3507
L26.0298 8.3031
" />
<path d="M26.7917 8.9221
L27.5536 8.9221
" />
<path d="M27.9345 8.3031
L28.5536 8.3031
" />
<path d="M28.5536 8.3031
L28.2202 8.6840
" />
<path d="M28.2202 8.6840
L28.3631 8.6840
" />
<path d="M28.3631 8.6840
L28.4583 8.7316
" />
<path d="M28.4583 8.7316
L28.5060 8.7793
" />
<path d="M28.5060 8.7793
L28.5536 8.8745
" />
<path d="M28.5536 8.8745
L28.5536 9.1126
" />
<path d="M28.5536 9.1126
L28.5060 9.2078
" />
<path d="M28.5060 9.2078
L28.4583 9.2554
" />
<path d="M28.4583 9.2554
L28.3631 9.3031
" />
<path d="M28.3631 9.3031
L28.0774 9.3031
" />
<path d="M28.0774 9.3031
L27.9821 9.2554
" />
<path d="M27.9821 9.2554
L27.9345 9.2078
" />
<path d="M28.9821 9.3031
L28.9821 8.3031
" />
<path d="M28.9821 8.3031
L29.3631 8.3031
" />
<path d="M29.3631 8.3031
L29.4583 8.3507
" />
<path d="M29.4583 8.3507
L29.5060 8.3983
" />
<path d="M29.5060 8.3983
L29.5536 8.4935
" />
<path d="M29.5536 8.4935
L29.5536 8.6364
" />
<path d="M29.5536 8.6364
L29.5060 8.7316
" />
<path d="M29.5060 8.7316
L29.4583 8.7793
" />
<path d="M29.4583 8.7793
L29.3631 8.8269
" />
<path d="M29.3631 8.8269
L28.9821 8.8269
" />
</g><text x="14.9345" y="5.3483"
textLength="4.5357" font-size="1.3333" lengthAdjust="spacingAndGlyphs"
text-anchor="middle" opacity="0" stroke-opacity="0">REF**</text>
<g class="stroked-text"><desc>REF**</desc>
<path d="M13.6012 5.3031
L13.2679 4.8269
" />
<path d="M13.0298 5.3031
L13.0298 4.3031
" />
<path d="M13.0298 4.3031
L13.4107 4.3031
" />
<path d="M13.4107 4.3031
L13.5060 4.3507
" />
<path d="M13.5060 4.3507
L13.5536 4.3983
" />
<path d="M13.5536 4.3983
L13.6012 4.4935
" />
<path d="M13.6012 4.4935
L13.6012 4.6364
" />
<path d="M13.6012 4.6364
L13.5536 4.7316
" />
<path d="M13.5536 4.7316
L13.5060 4.7793
" />
<path d="M13.5060 4.7793
L13.4107 4.8269
" />
<path d="M13.4107 4.8269
L13.0298 4.8269
" />
<path d="M14.0298 4.7793
L14.3631 4.7793
" />
<path d="M14.5060 5.3031
L14.0298 5.3031
" />
<path d="M14.0298 5.3031
L14.0298 4.3031
" />
<path d="M14.0298 4.3031
L14.5060 4.3031
" />
<path d="M15.2679 4.7793
L14.9345 4.7793
" />
<path d="M14.9345 5.3031
L14.9345 4.3031
" />
<path d="M14.9345 4.3031
L15.4107 4.3031
" />
<path d="M15.9345 4.3031
L15.9345 4.5412
" />
<path d="M15.6964 4.4459
L15.9345 4.5412
" />
<path d="M15.9345 4.5412
L16.1726 4.4459
" />
<path d="M15.7917 4.7316
L15.9345 4.5412
" />
<path d="M15.9345 4.5412
L16.0774 4.7316
" />
<path d="M16.6964 4.3031
L16.6964 4.5412
" />
<path d="M16.4583 4.4459
L16.6964 4.5412
" />
<path d="M16.6964 4.5412
L16.9345 4.4459
" />
<path d="M16.5536 4.7316
L16.6964 4.5412
" />
<path d="M16.6964 4.5412
L16.8393 4.7316
" />
</g></g>
<g style="fill:none; 
stroke:#AFAFAF; stroke-width:0.0600; stroke-opacity:1; 
stroke-linecap:round; stroke-linejoin:round;">
<circle cx="7.4345" cy="8.3483" r="0.0300" /> 
</g> 
</svg>
