<?xml version="1.0" standalone="no"?>
 <!DOCTYPE svg PUBLIC "-//W3C//DTD SVG 1.1//EN" 
 "http://www.w3.org/Graphics/SVG/1.1/DTD/svg11.dtd"> 
<svg
  xmlns:svg="http://www.w3.org/2000/svg"
  xmlns="http://www.w3.org/2000/svg"
  xmlns:xlink="http://www.w3.org/1999/xlink"
  version="1.1"
  width="19.9390mm" height="9.9060mm" viewBox="0.0000 0.0000 19.9390 9.9060">
<title>SVG Image created as CONN-TH_4P-P2.50_4PIN.svg date 2024/09/22 11:54:24 </title>
  <desc>Image generated by PCBNEW </desc>
<g style="fill:#000000; fill-opacity:1.0000;stroke:#000000; stroke-opacity:1.0000;
stroke-linecap:round; stroke-linejoin:round;"
 transform="translate(0 0) scale(1 1)">
</g>
<g style="fill:#4D7FC4; fill-opacity:1.0000; stroke:none;">
<circle cx="13.7321" cy="5.0600" r="0.8000" /> 
</g>
<g style="fill:#4D7FC4; fill-opacity:1.0000; stroke:none;">
<circle cx="11.2321" cy="5.0600" r="0.8000" /> 
</g>
<g style="fill:#4D7FC4; fill-opacity:1.0000; stroke:none;">
<circle cx="8.7321" cy="5.0600" r="0.8000" /> 
<path style="fill:#4D7FC4; fill-opacity:1.0000; stroke:none;fill-rule:evenodd;"
d="M 5.4721,5.8600
5.4721,4.2600
6.9921,4.2600
6.9921,5.8600
Z" /> 
</g>
<g style="fill:#02FFEE; fill-opacity:0.4000; stroke:none;">
<circle cx="13.7321" cy="5.0600" r="0.8000" /> 
</g>
<g style="fill:#02FFEE; fill-opacity:0.4000; stroke:none;">
<circle cx="11.2321" cy="5.0600" r="0.8000" /> 
</g>
<g style="fill:#02FFEE; fill-opacity:0.4000; stroke:none;">
<circle cx="8.7321" cy="5.0600" r="0.8000" /> 
<path style="fill:#02FFEE; fill-opacity:0.4000; stroke:none;fill-rule:evenodd;"
d="M 5.4721,5.8600
5.4721,4.2600
6.9921,4.2600
6.9921,5.8600
Z" /> 
</g>
<g style="fill:#F2EDA1; fill-opacity:1.0000; stroke:none;">
<circle cx="13.7321" cy="5.0600" r="0.8000" /> 
</g>
<g style="fill:#F2EDA1; fill-opacity:1.0000; stroke:none;">
<circle cx="11.2321" cy="5.0600" r="0.8000" /> 
</g>
<g style="fill:#F2EDA1; fill-opacity:1.0000; stroke:none;">
<circle cx="8.7321" cy="5.0600" r="0.8000" /> 
<path style="fill:#F2EDA1; fill-opacity:1.0000; stroke:none;fill-rule:evenodd;"
d="M 5.4721,5.8600
5.4721,4.2600
6.9921,4.2600
6.9921,5.8600
Z" /> 
</g>
<g style="fill:#E8B2A7; fill-opacity:1.0000; stroke:none;">
<circle cx="13.7321" cy="5.0600" r="0.8000" /> 
</g>
<g style="fill:#E8B2A7; fill-opacity:1.0000; stroke:none;">
<circle cx="11.2321" cy="5.0600" r="0.8000" /> 
</g>
<g style="fill:#E8B2A7; fill-opacity:1.0000; stroke:none;">
<circle cx="8.7321" cy="5.0600" r="0.8000" /> 
<path style="fill:#E8B2A7; fill-opacity:1.0000; stroke:none;fill-rule:evenodd;"
d="M 5.4721,5.8600
5.4721,4.2600
6.9921,4.2600
6.9921,5.8600
Z" /> 
</g>
<g style="fill:#28CCD9; fill-opacity:1.0000; stroke:none;">
<circle cx="13.7321" cy="5.0600" r="0.8000" /> 
</g>
<g style="fill:#28CCD9; fill-opacity:1.0000; stroke:none;">
<circle cx="11.2321" cy="5.0600" r="0.8000" /> 
</g>
<g style="fill:#28CCD9; fill-opacity:1.0000; stroke:none;">
<circle cx="8.7321" cy="5.0600" r="0.8000" /> 
<path style="fill:#28CCD9; fill-opacity:1.0000; stroke:none;fill-rule:evenodd;"
d="M 5.4721,5.8600
5.4721,4.2600
6.9921,4.2600
6.9921,5.8600
Z" /> 
</g>
<g style="fill:#A7A5C6; fill-opacity:1.0000; stroke:none;">
<circle cx="13.7321" cy="5.0600" r="0.8000" /> 
</g>
<g style="fill:#A7A5C6; fill-opacity:1.0000; stroke:none;">
<circle cx="11.2321" cy="5.0600" r="0.8000" /> 
</g>
<g style="fill:#A7A5C6; fill-opacity:1.0000; stroke:none;">
<circle cx="8.7321" cy="5.0600" r="0.8000" /> 
<path style="fill:#A7A5C6; fill-opacity:1.0000; stroke:none;fill-rule:evenodd;"
d="M 5.4721,5.8600
5.4721,4.2600
6.9921,4.2600
6.9921,5.8600
Z" /> 
</g>
<g style="fill:#F76F8E; fill-opacity:1.0000; stroke:none;">
<circle cx="13.7321" cy="5.0600" r="0.8000" /> 
</g>
<g style="fill:#F76F8E; fill-opacity:1.0000; stroke:none;">
<circle cx="11.2321" cy="5.0600" r="0.8000" /> 
</g>
<g style="fill:#F76F8E; fill-opacity:1.0000; stroke:none;">
<circle cx="8.7321" cy="5.0600" r="0.8000" /> 
<path style="fill:#F76F8E; fill-opacity:1.0000; stroke:none;fill-rule:evenodd;"
d="M 5.4721,5.8600
5.4721,4.2600
6.9921,4.2600
6.9921,5.8600
Z" /> 
</g>
<g style="fill:#5BC3EB; fill-opacity:1.0000; stroke:none;">
<circle cx="13.7321" cy="5.0600" r="0.8000" /> 
</g>
<g style="fill:#5BC3EB; fill-opacity:1.0000; stroke:none;">
<circle cx="11.2321" cy="5.0600" r="0.8000" /> 
</g>
<g style="fill:#5BC3EB; fill-opacity:1.0000; stroke:none;">
<circle cx="8.7321" cy="5.0600" r="0.8000" /> 
<path style="fill:#5BC3EB; fill-opacity:1.0000; stroke:none;fill-rule:evenodd;"
d="M 5.4721,5.8600
5.4721,4.2600
6.9921,4.2600
6.9921,5.8600
Z" /> 
</g>
<g style="fill:#ED7C33; fill-opacity:1.0000; stroke:none;">
<circle cx="13.7321" cy="5.0600" r="0.8000" /> 
</g>
<g style="fill:#ED7C33; fill-opacity:1.0000; stroke:none;">
<circle cx="11.2321" cy="5.0600" r="0.8000" /> 
</g>
<g style="fill:#ED7C33; fill-opacity:1.0000; stroke:none;">
<circle cx="8.7321" cy="5.0600" r="0.8000" /> 
<path style="fill:#ED7C33; fill-opacity:1.0000; stroke:none;fill-rule:evenodd;"
d="M 5.4721,5.8600
5.4721,4.2600
6.9921,4.2600
6.9921,5.8600
Z" /> 
</g>
<g style="fill:#F2EDA1; fill-opacity:1.0000; stroke:none;">
<circle cx="13.7321" cy="5.0600" r="0.8000" /> 
</g>
<g style="fill:#F2EDA1; fill-opacity:1.0000; stroke:none;">
<circle cx="11.2321" cy="5.0600" r="0.8000" /> 
</g>
<g style="fill:#F2EDA1; fill-opacity:1.0000; stroke:none;">
<circle cx="8.7321" cy="5.0600" r="0.8000" /> 
<path style="fill:#F2EDA1; fill-opacity:1.0000; stroke:none;fill-rule:evenodd;"
d="M 5.4721,5.8600
5.4721,4.2600
6.9921,4.2600
6.9921,5.8600
Z" /> 
</g>
<g style="fill:#E8B2A7; fill-opacity:1.0000; stroke:none;">
<circle cx="13.7321" cy="5.0600" r="0.8000" /> 
</g>
<g style="fill:#E8B2A7; fill-opacity:1.0000; stroke:none;">
<circle cx="11.2321" cy="5.0600" r="0.8000" /> 
</g>
<g style="fill:#E8B2A7; fill-opacity:1.0000; stroke:none;">
<circle cx="8.7321" cy="5.0600" r="0.8000" /> 
<path style="fill:#E8B2A7; fill-opacity:1.0000; stroke:none;fill-rule:evenodd;"
d="M 5.4721,5.8600
5.4721,4.2600
6.9921,4.2600
6.9921,5.8600
Z" /> 
</g>
<g style="fill:#28CCD9; fill-opacity:1.0000; stroke:none;">
<circle cx="13.7321" cy="5.0600" r="0.8000" /> 
</g>
<g style="fill:#28CCD9; fill-opacity:1.0000; stroke:none;">
<circle cx="11.2321" cy="5.0600" r="0.8000" /> 
</g>
<g style="fill:#28CCD9; fill-opacity:1.0000; stroke:none;">
<circle cx="8.7321" cy="5.0600" r="0.8000" /> 
<path style="fill:#28CCD9; fill-opacity:1.0000; stroke:none;fill-rule:evenodd;"
d="M 5.4721,5.8600
5.4721,4.2600
6.9921,4.2600
6.9921,5.8600
Z" /> 
</g>
<g style="fill:#A7A5C6; fill-opacity:1.0000; stroke:none;">
<circle cx="13.7321" cy="5.0600" r="0.8000" /> 
</g>
<g style="fill:#A7A5C6; fill-opacity:1.0000; stroke:none;">
<circle cx="11.2321" cy="5.0600" r="0.8000" /> 
</g>
<g style="fill:#A7A5C6; fill-opacity:1.0000; stroke:none;">
<circle cx="8.7321" cy="5.0600" r="0.8000" /> 
<path style="fill:#A7A5C6; fill-opacity:1.0000; stroke:none;fill-rule:evenodd;"
d="M 5.4721,5.8600
5.4721,4.2600
6.9921,4.2600
6.9921,5.8600
Z" /> 
</g>
<g style="fill:#F76F8E; fill-opacity:1.0000; stroke:none;">
<circle cx="13.7321" cy="5.0600" r="0.8000" /> 
</g>
<g style="fill:#F76F8E; fill-opacity:1.0000; stroke:none;">
<circle cx="11.2321" cy="5.0600" r="0.8000" /> 
</g>
<g style="fill:#F76F8E; fill-opacity:1.0000; stroke:none;">
<circle cx="8.7321" cy="5.0600" r="0.8000" /> 
<path style="fill:#F76F8E; fill-opacity:1.0000; stroke:none;fill-rule:evenodd;"
d="M 5.4721,5.8600
5.4721,4.2600
6.9921,4.2600
6.9921,5.8600
Z" /> 
</g>
<g style="fill:#5BC3EB; fill-opacity:1.0000; stroke:none;">
<circle cx="13.7321" cy="5.0600" r="0.8000" /> 
</g>
<g style="fill:#5BC3EB; fill-opacity:1.0000; stroke:none;">
<circle cx="11.2321" cy="5.0600" r="0.8000" /> 
</g>
<g style="fill:#5BC3EB; fill-opacity:1.0000; stroke:none;">
<circle cx="8.7321" cy="5.0600" r="0.8000" /> 
<path style="fill:#5BC3EB; fill-opacity:1.0000; stroke:none;fill-rule:evenodd;"
d="M 5.4721,5.8600
5.4721,4.2600
6.9921,4.2600
6.9921,5.8600
Z" /> 
</g>
<g style="fill:#ED7C33; fill-opacity:1.0000; stroke:none;">
<circle cx="13.7321" cy="5.0600" r="0.8000" /> 
</g>
<g style="fill:#ED7C33; fill-opacity:1.0000; stroke:none;">
<circle cx="11.2321" cy="5.0600" r="0.8000" /> 
</g>
<g style="fill:#ED7C33; fill-opacity:1.0000; stroke:none;">
<circle cx="8.7321" cy="5.0600" r="0.8000" /> 
<path style="fill:#ED7C33; fill-opacity:1.0000; stroke:none;fill-rule:evenodd;"
d="M 5.4721,5.8600
5.4721,4.2600
6.9921,4.2600
6.9921,5.8600
Z" /> 
</g>
<g style="fill:#F2EDA1; fill-opacity:1.0000; stroke:none;">
<circle cx="13.7321" cy="5.0600" r="0.8000" /> 
</g>
<g style="fill:#F2EDA1; fill-opacity:1.0000; stroke:none;">
<circle cx="11.2321" cy="5.0600" r="0.8000" /> 
</g>
<g style="fill:#F2EDA1; fill-opacity:1.0000; stroke:none;">
<circle cx="8.7321" cy="5.0600" r="0.8000" /> 
<path style="fill:#F2EDA1; fill-opacity:1.0000; stroke:none;fill-rule:evenodd;"
d="M 5.4721,5.8600
5.4721,4.2600
6.9921,4.2600
6.9921,5.8600
Z" /> 
</g>
<g style="fill:#E8B2A7; fill-opacity:1.0000; stroke:none;">
<circle cx="13.7321" cy="5.0600" r="0.8000" /> 
</g>
<g style="fill:#E8B2A7; fill-opacity:1.0000; stroke:none;">
<circle cx="11.2321" cy="5.0600" r="0.8000" /> 
</g>
<g style="fill:#E8B2A7; fill-opacity:1.0000; stroke:none;">
<circle cx="8.7321" cy="5.0600" r="0.8000" /> 
<path style="fill:#E8B2A7; fill-opacity:1.0000; stroke:none;fill-rule:evenodd;"
d="M 5.4721,5.8600
5.4721,4.2600
6.9921,4.2600
6.9921,5.8600
Z" /> 
</g>
<g style="fill:#28CCD9; fill-opacity:1.0000; stroke:none;">
<circle cx="13.7321" cy="5.0600" r="0.8000" /> 
</g>
<g style="fill:#28CCD9; fill-opacity:1.0000; stroke:none;">
<circle cx="11.2321" cy="5.0600" r="0.8000" /> 
</g>
<g style="fill:#28CCD9; fill-opacity:1.0000; stroke:none;">
<circle cx="8.7321" cy="5.0600" r="0.8000" /> 
<path style="fill:#28CCD9; fill-opacity:1.0000; stroke:none;fill-rule:evenodd;"
d="M 5.4721,5.8600
5.4721,4.2600
6.9921,4.2600
6.9921,5.8600
Z" /> 
</g>
<g style="fill:#A7A5C6; fill-opacity:1.0000; stroke:none;">
<circle cx="13.7321" cy="5.0600" r="0.8000" /> 
</g>
<g style="fill:#A7A5C6; fill-opacity:1.0000; stroke:none;">
<circle cx="11.2321" cy="5.0600" r="0.8000" /> 
</g>
<g style="fill:#A7A5C6; fill-opacity:1.0000; stroke:none;">
<circle cx="8.7321" cy="5.0600" r="0.8000" /> 
<path style="fill:#A7A5C6; fill-opacity:1.0000; stroke:none;fill-rule:evenodd;"
d="M 5.4721,5.8600
5.4721,4.2600
6.9921,4.2600
6.9921,5.8600
Z" /> 
</g>
<g style="fill:#F76F8E; fill-opacity:1.0000; stroke:none;">
<circle cx="13.7321" cy="5.0600" r="0.8000" /> 
</g>
<g style="fill:#F76F8E; fill-opacity:1.0000; stroke:none;">
<circle cx="11.2321" cy="5.0600" r="0.8000" /> 
</g>
<g style="fill:#F76F8E; fill-opacity:1.0000; stroke:none;">
<circle cx="8.7321" cy="5.0600" r="0.8000" /> 
<path style="fill:#F76F8E; fill-opacity:1.0000; stroke:none;fill-rule:evenodd;"
d="M 5.4721,5.8600
5.4721,4.2600
6.9921,4.2600
6.9921,5.8600
Z" /> 
</g>
<g style="fill:#5BC3EB; fill-opacity:1.0000; stroke:none;">
<circle cx="13.7321" cy="5.0600" r="0.8000" /> 
</g>
<g style="fill:#5BC3EB; fill-opacity:1.0000; stroke:none;">
<circle cx="11.2321" cy="5.0600" r="0.8000" /> 
</g>
<g style="fill:#5BC3EB; fill-opacity:1.0000; stroke:none;">
<circle cx="8.7321" cy="5.0600" r="0.8000" /> 
<path style="fill:#5BC3EB; fill-opacity:1.0000; stroke:none;fill-rule:evenodd;"
d="M 5.4721,5.8600
5.4721,4.2600
6.9921,4.2600
6.9921,5.8600
Z" /> 
</g>
<g style="fill:#ED7C33; fill-opacity:1.0000; stroke:none;">
<circle cx="13.7321" cy="5.0600" r="0.8000" /> 
</g>
<g style="fill:#ED7C33; fill-opacity:1.0000; stroke:none;">
<circle cx="11.2321" cy="5.0600" r="0.8000" /> 
</g>
<g style="fill:#ED7C33; fill-opacity:1.0000; stroke:none;">
<circle cx="8.7321" cy="5.0600" r="0.8000" /> 
<path style="fill:#ED7C33; fill-opacity:1.0000; stroke:none;fill-rule:evenodd;"
d="M 5.4721,5.8600
5.4721,4.2600
6.9921,4.2600
6.9921,5.8600
Z" /> 
</g>
<g style="fill:#8DCB81; fill-opacity:1.0000; stroke:none;">
<circle cx="13.7321" cy="5.0600" r="0.8000" /> 
</g>
<g style="fill:#8DCB81; fill-opacity:1.0000; stroke:none;">
<circle cx="11.2321" cy="5.0600" r="0.8000" /> 
</g>
<g style="fill:#8DCB81; fill-opacity:1.0000; stroke:none;">
<circle cx="8.7321" cy="5.0600" r="0.8000" /> 
<path style="fill:#8DCB81; fill-opacity:1.0000; stroke:none;fill-rule:evenodd;"
d="M 5.4721,5.8600
5.4721,4.2600
6.9921,4.2600
6.9921,5.8600
Z" /> 
</g>
<g style="fill:#F2EDA1; fill-opacity:1.0000; stroke:none;">
<circle cx="13.7321" cy="5.0600" r="0.8000" /> 
</g>
<g style="fill:#F2EDA1; fill-opacity:1.0000; stroke:none;">
<circle cx="11.2321" cy="5.0600" r="0.8000" /> 
</g>
<g style="fill:#F2EDA1; fill-opacity:1.0000; stroke:none;">
<circle cx="8.7321" cy="5.0600" r="0.8000" /> 
<path style="fill:#F2EDA1; fill-opacity:1.0000; stroke:none;fill-rule:evenodd;"
d="M 5.4721,5.8600
5.4721,4.2600
6.9921,4.2600
6.9921,5.8600
Z" /> 
</g>
<g style="fill:#E8B2A7; fill-opacity:1.0000; stroke:none;">
<circle cx="13.7321" cy="5.0600" r="0.8000" /> 
</g>
<g style="fill:#E8B2A7; fill-opacity:1.0000; stroke:none;">
<circle cx="11.2321" cy="5.0600" r="0.8000" /> 
</g>
<g style="fill:#E8B2A7; fill-opacity:1.0000; stroke:none;">
<circle cx="8.7321" cy="5.0600" r="0.8000" /> 
<path style="fill:#E8B2A7; fill-opacity:1.0000; stroke:none;fill-rule:evenodd;"
d="M 5.4721,5.8600
5.4721,4.2600
6.9921,4.2600
6.9921,5.8600
Z" /> 
</g>
<g style="fill:#28CCD9; fill-opacity:1.0000; stroke:none;">
<circle cx="13.7321" cy="5.0600" r="0.8000" /> 
</g>
<g style="fill:#28CCD9; fill-opacity:1.0000; stroke:none;">
<circle cx="11.2321" cy="5.0600" r="0.8000" /> 
</g>
<g style="fill:#28CCD9; fill-opacity:1.0000; stroke:none;">
<circle cx="8.7321" cy="5.0600" r="0.8000" /> 
<path style="fill:#28CCD9; fill-opacity:1.0000; stroke:none;fill-rule:evenodd;"
d="M 5.4721,5.8600
5.4721,4.2600
6.9921,4.2600
6.9921,5.8600
Z" /> 
</g>
<g style="fill:#A7A5C6; fill-opacity:1.0000; stroke:none;">
<circle cx="13.7321" cy="5.0600" r="0.8000" /> 
</g>
<g style="fill:#A7A5C6; fill-opacity:1.0000; stroke:none;">
<circle cx="11.2321" cy="5.0600" r="0.8000" /> 
</g>
<g style="fill:#A7A5C6; fill-opacity:1.0000; stroke:none;">
<circle cx="8.7321" cy="5.0600" r="0.8000" /> 
<path style="fill:#A7A5C6; fill-opacity:1.0000; stroke:none;fill-rule:evenodd;"
d="M 5.4721,5.8600
5.4721,4.2600
6.9921,4.2600
6.9921,5.8600
Z" /> 
</g>
<g style="fill:#DB628B; fill-opacity:1.0000; stroke:none;">
<circle cx="13.7321" cy="5.0600" r="0.8000" /> 
</g>
<g style="fill:#DB628B; fill-opacity:1.0000; stroke:none;">
<circle cx="11.2321" cy="5.0600" r="0.8000" /> 
</g>
<g style="fill:#DB628B; fill-opacity:1.0000; stroke:none;">
<circle cx="8.7321" cy="5.0600" r="0.8000" /> 
<path style="fill:#DB628B; fill-opacity:1.0000; stroke:none;fill-rule:evenodd;"
d="M 5.4721,5.8600
5.4721,4.2600
6.9921,4.2600
6.9921,5.8600
Z" /> 
</g>
<g style="fill:#4FCBCB; fill-opacity:1.0000; stroke:none;">
<circle cx="13.7321" cy="5.0600" r="0.8000" /> 
</g>
<g style="fill:#4FCBCB; fill-opacity:1.0000; stroke:none;">
<circle cx="11.2321" cy="5.0600" r="0.8000" /> 
</g>
<g style="fill:#4FCBCB; fill-opacity:1.0000; stroke:none;">
<circle cx="8.7321" cy="5.0600" r="0.8000" /> 
<path style="fill:#4FCBCB; fill-opacity:1.0000; stroke:none;fill-rule:evenodd;"
d="M 5.4721,5.8600
5.4721,4.2600
6.9921,4.2600
6.9921,5.8600
Z" /> 
</g>
<g style="fill:#CE7D2C; fill-opacity:1.0000; stroke:none;">
<circle cx="13.7321" cy="5.0600" r="0.8000" /> 
</g>
<g style="fill:#CE7D2C; fill-opacity:1.0000; stroke:none;">
<circle cx="11.2321" cy="5.0600" r="0.8000" /> 
</g>
<g style="fill:#CE7D2C; fill-opacity:1.0000; stroke:none;">
<circle cx="8.7321" cy="5.0600" r="0.8000" /> 
<path style="fill:#CE7D2C; fill-opacity:1.0000; stroke:none;fill-rule:evenodd;"
d="M 5.4721,5.8600
5.4721,4.2600
6.9921,4.2600
6.9921,5.8600
Z" /> 
</g>
<g style="fill:#7FC87F; fill-opacity:1.0000; stroke:none;">
<circle cx="13.7321" cy="5.0600" r="0.8000" /> 
</g>
<g style="fill:#7FC87F; fill-opacity:1.0000; stroke:none;">
<circle cx="11.2321" cy="5.0600" r="0.8000" /> 
</g>
<g style="fill:#7FC87F; fill-opacity:1.0000; stroke:none;">
<circle cx="8.7321" cy="5.0600" r="0.8000" /> 
<path style="fill:#7FC87F; fill-opacity:1.0000; stroke:none;fill-rule:evenodd;"
d="M 5.4721,5.8600
5.4721,4.2600
6.9921,4.2600
6.9921,5.8600
Z" /> 
</g>
<g style="fill:#C83434; fill-opacity:1.0000; stroke:none;">
<circle cx="13.7321" cy="5.0600" r="0.8000" /> 
</g>
<g style="fill:#C83434; fill-opacity:1.0000; stroke:none;">
<circle cx="11.2321" cy="5.0600" r="0.8000" /> 
</g>
<g style="fill:#C83434; fill-opacity:1.0000; stroke:none;">
<circle cx="8.7321" cy="5.0600" r="0.8000" /> 
<path style="fill:#C83434; fill-opacity:1.0000; stroke:none;fill-rule:evenodd;"
d="M 5.4721,5.8600
5.4721,4.2600
6.9921,4.2600
6.9921,5.8600
Z" /> 
</g>
<g style="fill:#D864FF; fill-opacity:0.4000; stroke:none;">
<circle cx="13.7321" cy="5.0600" r="0.8000" /> 
</g>
<g style="fill:#D864FF; fill-opacity:0.4000; stroke:none;">
<circle cx="11.2321" cy="5.0600" r="0.8000" /> 
</g>
<g style="fill:#D864FF; fill-opacity:0.4000; stroke:none;">
<circle cx="8.7321" cy="5.0600" r="0.8000" /> 
<path style="fill:#D864FF; fill-opacity:0.4000; stroke:none;fill-rule:evenodd;"
d="M 5.4721,5.8600
5.4721,4.2600
6.9921,4.2600
6.9921,5.8600
Z" /> 
</g>
<g style="fill:none; 
stroke:#F2EDA1; stroke-width:0.1500; stroke-opacity:1; 
stroke-linecap:round; stroke-linejoin:round;">
<text x="9.9821" y="1.5600"
textLength="4.5357" font-size="1.3333" lengthAdjust="spacingAndGlyphs"
text-anchor="middle" opacity="0" stroke-opacity="0">REF**</text>
<g class="stroked-text"><desc>REF**</desc>
<path d="M8.6488 1.5148
L8.3155 1.0386
" />
<path d="M8.0774 1.5148
L8.0774 0.5148
" />
<path d="M8.0774 0.5148
L8.4583 0.5148
" />
<path d="M8.4583 0.5148
L8.5536 0.5624
" />
<path d="M8.5536 0.5624
L8.6012 0.6101
" />
<path d="M8.6012 0.6101
L8.6488 0.7053
" />
<path d="M8.6488 0.7053
L8.6488 0.8482
" />
<path d="M8.6488 0.8482
L8.6012 0.9434
" />
<path d="M8.6012 0.9434
L8.5536 0.9910
" />
<path d="M8.5536 0.9910
L8.4583 1.0386
" />
<path d="M8.4583 1.0386
L8.0774 1.0386
" />
<path d="M9.0774 0.9910
L9.4107 0.9910
" />
<path d="M9.5536 1.5148
L9.0774 1.5148
" />
<path d="M9.0774 1.5148
L9.0774 0.5148
" />
<path d="M9.0774 0.5148
L9.5536 0.5148
" />
<path d="M10.3155 0.9910
L9.9821 0.9910
" />
<path d="M9.9821 1.5148
L9.9821 0.5148
" />
<path d="M9.9821 0.5148
L10.4583 0.5148
" />
<path d="M10.9821 0.5148
L10.9821 0.7529
" />
<path d="M10.7440 0.6577
L10.9821 0.7529
" />
<path d="M10.9821 0.7529
L11.2202 0.6577
" />
<path d="M10.8393 0.9434
L10.9821 0.7529
" />
<path d="M10.9821 0.7529
L11.1250 0.9434
" />
<path d="M11.7440 0.5148
L11.7440 0.7529
" />
<path d="M11.5060 0.6577
L11.7440 0.7529
" />
<path d="M11.7440 0.7529
L11.9821 0.6577
" />
<path d="M11.6012 0.9434
L11.7440 0.7529
" />
<path d="M11.7440 0.7529
L11.8869 0.9434
" />
</g></g>
<g style="fill:none; 
stroke:#F2EDA1; stroke-width:0.2500; stroke-opacity:1; 
stroke-linecap:round; stroke-linejoin:round;">
<path d="M14.0421 7.3400
L14.0421 6.5800
" />
<path d="M14.0421 6.5800
L15.4421 6.5800
" />
<path d="M15.4421 6.5800
L15.4421 2.2600
" />
<path d="M15.4421 2.2600
L4.7721 2.2600
" />
<path d="M4.7721 2.2600
L4.7721 6.5800
" />
<path d="M4.7721 6.5800
L5.7921 6.5800
" />
<path d="M5.7921 6.5800
L5.7921 7.3400
" />
<path d="M5.7921 7.3400
L5.7921 7.4700
" />
<path d="M7.4421 7.4700
L7.4421 6.5800
" />
<path d="M7.4421 6.5800
L12.5221 6.5800
" />
<path d="M12.5221 6.5800
L12.5221 7.4700
" />
</g>
<g style="fill:none; 
stroke:#AFAFAF; stroke-width:0.1500; stroke-opacity:1; 
stroke-linecap:round; stroke-linejoin:round;">
<text x="9.9821" y="9.5600"
textLength="19.9643" font-size="1.3333" lengthAdjust="spacingAndGlyphs"
text-anchor="middle" opacity="0" stroke-opacity="0">CONN-TH_4P-P2.50_4PIN</text>
<g class="stroked-text"><desc>CONN-TH_4P-P2.50_4PIN</desc>
<path d="M0.9345 9.4196
L0.8869 9.4672
" />
<path d="M0.8869 9.4672
L0.7440 9.5148
" />
<path d="M0.7440 9.5148
L0.6488 9.5148
" />
<path d="M0.6488 9.5148
L0.5060 9.4672
" />
<path d="M0.5060 9.4672
L0.4107 9.3720
" />
<path d="M0.4107 9.3720
L0.3631 9.2767
" />
<path d="M0.3631 9.2767
L0.3155 9.0862
" />
<path d="M0.3155 9.0862
L0.3155 8.9434
" />
<path d="M0.3155 8.9434
L0.3631 8.7529
" />
<path d="M0.3631 8.7529
L0.4107 8.6577
" />
<path d="M0.4107 8.6577
L0.5060 8.5624
" />
<path d="M0.5060 8.5624
L0.6488 8.5148
" />
<path d="M0.6488 8.5148
L0.7440 8.5148
" />
<path d="M0.7440 8.5148
L0.8869 8.5624
" />
<path d="M0.8869 8.5624
L0.9345 8.6101
" />
<path d="M1.5536 8.5148
L1.7440 8.5148
" />
<path d="M1.7440 8.5148
L1.8393 8.5624
" />
<path d="M1.8393 8.5624
L1.9345 8.6577
" />
<path d="M1.9345 8.6577
L1.9821 8.8482
" />
<path d="M1.9821 8.8482
L1.9821 9.1815
" />
<path d="M1.9821 9.1815
L1.9345 9.3720
" />
<path d="M1.9345 9.3720
L1.8393 9.4672
" />
<path d="M1.8393 9.4672
L1.7440 9.5148
" />
<path d="M1.7440 9.5148
L1.5536 9.5148
" />
<path d="M1.5536 9.5148
L1.4583 9.4672
" />
<path d="M1.4583 9.4672
L1.3631 9.3720
" />
<path d="M1.3631 9.3720
L1.3155 9.1815
" />
<path d="M1.3155 9.1815
L1.3155 8.8482
" />
<path d="M1.3155 8.8482
L1.3631 8.6577
" />
<path d="M1.3631 8.6577
L1.4583 8.5624
" />
<path d="M1.4583 8.5624
L1.5536 8.5148
" />
<path d="M2.4107 9.5148
L2.4107 8.5148
" />
<path d="M2.4107 8.5148
L2.9821 9.5148
" />
<path d="M2.9821 9.5148
L2.9821 8.5148
" />
<path d="M3.4583 9.5148
L3.4583 8.5148
" />
<path d="M3.4583 8.5148
L4.0298 9.5148
" />
<path d="M4.0298 9.5148
L4.0298 8.5148
" />
<path d="M4.5060 9.1339
L5.2679 9.1339
" />
<path d="M5.6012 8.5148
L6.1726 8.5148
" />
<path d="M5.8869 9.5148
L5.8869 8.5148
" />
<path d="M6.5060 9.5148
L6.5060 8.5148
" />
<path d="M6.5060 8.9910
L7.0774 8.9910
" />
<path d="M7.0774 9.5148
L7.0774 8.5148
" />
<path d="M7.3155 9.6101
L8.0774 9.6101
" />
<path d="M8.7440 8.8482
L8.7440 9.5148
" />
<path d="M8.5060 8.4672
L8.2679 9.1815
" />
<path d="M8.2679 9.1815
L8.8869 9.1815
" />
<path d="M9.2679 9.5148
L9.2679 8.5148
" />
<path d="M9.2679 8.5148
L9.6488 8.5148
" />
<path d="M9.6488 8.5148
L9.7440 8.5624
" />
<path d="M9.7440 8.5624
L9.7917 8.6101
" />
<path d="M9.7917 8.6101
L9.8393 8.7053
" />
<path d="M9.8393 8.7053
L9.8393 8.8482
" />
<path d="M9.8393 8.8482
L9.7917 8.9434
" />
<path d="M9.7917 8.9434
L9.7440 8.9910
" />
<path d="M9.7440 8.9910
L9.6488 9.0386
" />
<path d="M9.6488 9.0386
L9.2679 9.0386
" />
<path d="M10.2679 9.1339
L11.0298 9.1339
" />
<path d="M11.5060 9.5148
L11.5060 8.5148
" />
<path d="M11.5060 8.5148
L11.8869 8.5148
" />
<path d="M11.8869 8.5148
L11.9821 8.5624
" />
<path d="M11.9821 8.5624
L12.0298 8.6101
" />
<path d="M12.0298 8.6101
L12.0774 8.7053
" />
<path d="M12.0774 8.7053
L12.0774 8.8482
" />
<path d="M12.0774 8.8482
L12.0298 8.9434
" />
<path d="M12.0298 8.9434
L11.9821 8.9910
" />
<path d="M11.9821 8.9910
L11.8869 9.0386
" />
<path d="M11.8869 9.0386
L11.5060 9.0386
" />
<path d="M12.4583 8.6101
L12.5060 8.5624
" />
<path d="M12.5060 8.5624
L12.6012 8.5148
" />
<path d="M12.6012 8.5148
L12.8393 8.5148
" />
<path d="M12.8393 8.5148
L12.9345 8.5624
" />
<path d="M12.9345 8.5624
L12.9821 8.6101
" />
<path d="M12.9821 8.6101
L13.0298 8.7053
" />
<path d="M13.0298 8.7053
L13.0298 8.8005
" />
<path d="M13.0298 8.8005
L12.9821 8.9434
" />
<path d="M12.9821 8.9434
L12.4107 9.5148
" />
<path d="M12.4107 9.5148
L13.0298 9.5148
" />
<path d="M13.4583 9.4196
L13.5060 9.4672
" />
<path d="M13.5060 9.4672
L13.4583 9.5148
" />
<path d="M13.4583 9.5148
L13.4107 9.4672
" />
<path d="M13.4107 9.4672
L13.4583 9.4196
" />
<path d="M13.4583 9.4196
L13.4583 9.5148
" />
<path d="M14.4107 8.5148
L13.9345 8.5148
" />
<path d="M13.9345 8.5148
L13.8869 8.9910
" />
<path d="M13.8869 8.9910
L13.9345 8.9434
" />
<path d="M13.9345 8.9434
L14.0298 8.8958
" />
<path d="M14.0298 8.8958
L14.2679 8.8958
" />
<path d="M14.2679 8.8958
L14.3631 8.9434
" />
<path d="M14.3631 8.9434
L14.4107 8.9910
" />
<path d="M14.4107 8.9910
L14.4583 9.0862
" />
<path d="M14.4583 9.0862
L14.4583 9.3243
" />
<path d="M14.4583 9.3243
L14.4107 9.4196
" />
<path d="M14.4107 9.4196
L14.3631 9.4672
" />
<path d="M14.3631 9.4672
L14.2679 9.5148
" />
<path d="M14.2679 9.5148
L14.0298 9.5148
" />
<path d="M14.0298 9.5148
L13.9345 9.4672
" />
<path d="M13.9345 9.4672
L13.8869 9.4196
" />
<path d="M15.0774 8.5148
L15.1726 8.5148
" />
<path d="M15.1726 8.5148
L15.2679 8.5624
" />
<path d="M15.2679 8.5624
L15.3155 8.6101
" />
<path d="M15.3155 8.6101
L15.3631 8.7053
" />
<path d="M15.3631 8.7053
L15.4107 8.8958
" />
<path d="M15.4107 8.8958
L15.4107 9.1339
" />
<path d="M15.4107 9.1339
L15.3631 9.3243
" />
<path d="M15.3631 9.3243
L15.3155 9.4196
" />
<path d="M15.3155 9.4196
L15.2679 9.4672
" />
<path d="M15.2679 9.4672
L15.1726 9.5148
" />
<path d="M15.1726 9.5148
L15.0774 9.5148
" />
<path d="M15.0774 9.5148
L14.9821 9.4672
" />
<path d="M14.9821 9.4672
L14.9345 9.4196
" />
<path d="M14.9345 9.4196
L14.8869 9.3243
" />
<path d="M14.8869 9.3243
L14.8393 9.1339
" />
<path d="M14.8393 9.1339
L14.8393 8.8958
" />
<path d="M14.8393 8.8958
L14.8869 8.7053
" />
<path d="M14.8869 8.7053
L14.9345 8.6101
" />
<path d="M14.9345 8.6101
L14.9821 8.5624
" />
<path d="M14.9821 8.5624
L15.0774 8.5148
" />
<path d="M15.6012 9.6101
L16.3631 9.6101
" />
<path d="M17.0298 8.8482
L17.0298 9.5148
" />
<path d="M16.7917 8.4672
L16.5536 9.1815
" />
<path d="M16.5536 9.1815
L17.1726 9.1815
" />
<path d="M17.5536 9.5148
L17.5536 8.5148
" />
<path d="M17.5536 8.5148
L17.9345 8.5148
" />
<path d="M17.9345 8.5148
L18.0298 8.5624
" />
<path d="M18.0298 8.5624
L18.0774 8.6101
" />
<path d="M18.0774 8.6101
L18.1250 8.7053
" />
<path d="M18.1250 8.7053
L18.1250 8.8482
" />
<path d="M18.1250 8.8482
L18.0774 8.9434
" />
<path d="M18.0774 8.9434
L18.0298 8.9910
" />
<path d="M18.0298 8.9910
L17.9345 9.0386
" />
<path d="M17.9345 9.0386
L17.5536 9.0386
" />
<path d="M18.5536 9.5148
L18.5536 8.5148
" />
<path d="M19.0298 9.5148
L19.0298 8.5148
" />
<path d="M19.0298 8.5148
L19.6012 9.5148
" />
<path d="M19.6012 9.5148
L19.6012 8.5148
" />
</g><text x="9.9821" y="5.5600"
textLength="4.5357" font-size="1.3333" lengthAdjust="spacingAndGlyphs"
text-anchor="middle" opacity="0" stroke-opacity="0">REF**</text>
<g class="stroked-text"><desc>REF**</desc>
<path d="M8.6488 5.5148
L8.3155 5.0386
" />
<path d="M8.0774 5.5148
L8.0774 4.5148
" />
<path d="M8.0774 4.5148
L8.4583 4.5148
" />
<path d="M8.4583 4.5148
L8.5536 4.5624
" />
<path d="M8.5536 4.5624
L8.6012 4.6101
" />
<path d="M8.6012 4.6101
L8.6488 4.7053
" />
<path d="M8.6488 4.7053
L8.6488 4.8482
" />
<path d="M8.6488 4.8482
L8.6012 4.9434
" />
<path d="M8.6012 4.9434
L8.5536 4.9910
" />
<path d="M8.5536 4.9910
L8.4583 5.0386
" />
<path d="M8.4583 5.0386
L8.0774 5.0386
" />
<path d="M9.0774 4.9910
L9.4107 4.9910
" />
<path d="M9.5536 5.5148
L9.0774 5.5148
" />
<path d="M9.0774 5.5148
L9.0774 4.5148
" />
<path d="M9.0774 4.5148
L9.5536 4.5148
" />
<path d="M10.3155 4.9910
L9.9821 4.9910
" />
<path d="M9.9821 5.5148
L9.9821 4.5148
" />
<path d="M9.9821 4.5148
L10.4583 4.5148
" />
<path d="M10.9821 4.5148
L10.9821 4.7529
" />
<path d="M10.7440 4.6577
L10.9821 4.7529
" />
<path d="M10.9821 4.7529
L11.2202 4.6577
" />
<path d="M10.8393 4.9434
L10.9821 4.7529
" />
<path d="M10.9821 4.7529
L11.1250 4.9434
" />
<path d="M11.7440 4.5148
L11.7440 4.7529
" />
<path d="M11.5060 4.6577
L11.7440 4.7529
" />
<path d="M11.7440 4.7529
L11.9821 4.6577
" />
<path d="M11.6012 4.9434
L11.7440 4.7529
" />
<path d="M11.7440 4.7529
L11.8869 4.9434
" />
</g></g>
<g style="fill:none; 
stroke:#AFAFAF; stroke-width:3.0000; stroke-opacity:1; 
stroke-linecap:round; stroke-linejoin:round;">
<path d="M3.7621 1.5000
L16.2021 1.5000
" />
<path d="M16.2021 1.5000
L16.2021 7.4700
" />
<path d="M16.2021 7.4700
L3.7621 7.4700
" />
</g>
<g style="fill:#AFAFAF; fill-opacity:1.0000; stroke:none;">
<circle cx="3.7621" cy="1.5000" r="1.5000" /> 
</g>
<g style="fill:none; 
stroke:#AFAFAF; stroke-width:0.0600; stroke-opacity:1; 
stroke-linecap:round; stroke-linejoin:round;">
<circle cx="3.7321" cy="7.4600" r="0.0300" /> 
</g> 
</svg>
