<?xml version="1.0" standalone="no"?>
 <!DOCTYPE svg PUBLIC "-//W3C//DTD SVG 1.1//EN" 
 "http://www.w3.org/Graphics/SVG/1.1/DTD/svg11.dtd"> 
<svg
  xmlns:svg="http://www.w3.org/2000/svg"
  xmlns="http://www.w3.org/2000/svg"
  xmlns:xlink="http://www.w3.org/1999/xlink"
  version="1.1"
  width="29.1338mm" height="79.2734mm" viewBox="0.0000 0.0000 29.1338 79.2734">
<title>SVG Image created as ct10252-16r-00-d.svg date 2024/09/28 12:37:03 </title>
  <desc>Image generated by Eeschema-SVG </desc>
<g style="fill:#000000; fill-opacity:1.0000;stroke:#000000; stroke-opacity:1.0000;
stroke-linecap:round; stroke-linejoin:round;"
 transform="translate(0 0) scale(1 1)">
</g>
<g style="fill:#FFFFC2; fill-opacity:1.0000; stroke:none;">
<rect x="13.868600" y="18.046700" width="8.890000" height="43.180000" rx="0.000000" />
</g>
<g style="fill:none; 
stroke:#840000; stroke-width:0.1524; stroke-opacity:1; 
stroke-linecap:round; stroke-linejoin:round;">
<rect x="13.868600" y="18.046700" width="8.890000" height="43.180000" rx="0.000000" />
<circle cx="15.1386" cy="19.3167" r="0.3800" /> 
<path d="M13.8686 20.5867
L11.3286 20.5867
" />
</g>
<g style="fill:none; 
stroke:#006464; stroke-width:0.1524; stroke-opacity:1; 
stroke-linecap:round; stroke-linejoin:round;">
<text x="14.3766" y="21.2217"
textLength="1.4127" font-size="1.6933" lengthAdjust="spacingAndGlyphs"
text-anchor="start" opacity="0" stroke-opacity="0">1</text>
<g class="stroked-text"><desc>1</desc>
<path d="M15.4444 21.1662
L14.7187 21.1662
" />
<path d="M15.0815 21.1662
L15.0815 19.8962
" />
<path d="M15.0815 19.8962
L14.9606 20.0777
" />
<path d="M14.9606 20.0777
L14.8396 20.1986
" />
<path d="M14.8396 20.1986
L14.7187 20.2591
" />
</g></g>
<g style="fill:none; 
stroke:#A90000; stroke-width:0.1524; stroke-opacity:1; 
stroke-linecap:round; stroke-linejoin:round;">
<text x="12.5986" y="20.3327"
textLength="1.4127" font-size="1.6933" lengthAdjust="spacingAndGlyphs"
text-anchor="middle" opacity="0" stroke-opacity="0">1</text>
<g class="stroked-text"><desc>1</desc>
<path d="M12.9615 20.1692
L12.2358 20.1692
" />
<path d="M12.5986 20.1692
L12.5986 18.8992
" />
<path d="M12.5986 18.8992
L12.4777 19.0807
" />
<path d="M12.4777 19.0807
L12.3567 19.2016
" />
<path d="M12.3567 19.2016
L12.2358 19.2621
" />
</g></g>
<g style="fill:none; 
stroke:#840000; stroke-width:0.1524; stroke-opacity:1; 
stroke-linecap:round; stroke-linejoin:round;">
<path d="M13.8686 43.4467
L11.3286 43.4467
" />
</g>
<g style="fill:none; 
stroke:#006464; stroke-width:0.1524; stroke-opacity:1; 
stroke-linecap:round; stroke-linejoin:round;">
<text x="14.3766" y="44.0817"
textLength="2.6222" font-size="1.6933" lengthAdjust="spacingAndGlyphs"
text-anchor="start" opacity="0" stroke-opacity="0">10</text>
<g class="stroked-text"><desc>10</desc>
<path d="M15.4444 44.0262
L14.7187 44.0262
" />
<path d="M15.0815 44.0262
L15.0815 42.7562
" />
<path d="M15.0815 42.7562
L14.9606 42.9377
" />
<path d="M14.9606 42.9377
L14.8396 43.0586
" />
<path d="M14.8396 43.0586
L14.7187 43.1191
" />
<path d="M16.2305 42.7562
L16.3515 42.7562
" />
<path d="M16.3515 42.7562
L16.4724 42.8167
" />
<path d="M16.4724 42.8167
L16.5329 42.8772
" />
<path d="M16.5329 42.8772
L16.5934 42.9981
" />
<path d="M16.5934 42.9981
L16.6539 43.2400
" />
<path d="M16.6539 43.2400
L16.6539 43.5424
" />
<path d="M16.6539 43.5424
L16.5934 43.7843
" />
<path d="M16.5934 43.7843
L16.5329 43.9053
" />
<path d="M16.5329 43.9053
L16.4724 43.9658
" />
<path d="M16.4724 43.9658
L16.3515 44.0262
" />
<path d="M16.3515 44.0262
L16.2305 44.0262
" />
<path d="M16.2305 44.0262
L16.1096 43.9658
" />
<path d="M16.1096 43.9658
L16.0491 43.9053
" />
<path d="M16.0491 43.9053
L15.9886 43.7843
" />
<path d="M15.9886 43.7843
L15.9282 43.5424
" />
<path d="M15.9282 43.5424
L15.9282 43.2400
" />
<path d="M15.9282 43.2400
L15.9886 42.9981
" />
<path d="M15.9886 42.9981
L16.0491 42.8772
" />
<path d="M16.0491 42.8772
L16.1096 42.8167
" />
<path d="M16.1096 42.8167
L16.2305 42.7562
" />
</g></g>
<g style="fill:none; 
stroke:#A90000; stroke-width:0.1524; stroke-opacity:1; 
stroke-linecap:round; stroke-linejoin:round;">
<text x="12.5986" y="43.1927"
textLength="2.6222" font-size="1.6933" lengthAdjust="spacingAndGlyphs"
text-anchor="middle" opacity="0" stroke-opacity="0">10</text>
<g class="stroked-text"><desc>10</desc>
<path d="M12.3567 43.0292
L11.6310 43.0292
" />
<path d="M11.9938 43.0292
L11.9938 41.7592
" />
<path d="M11.9938 41.7592
L11.8729 41.9407
" />
<path d="M11.8729 41.9407
L11.7519 42.0616
" />
<path d="M11.7519 42.0616
L11.6310 42.1221
" />
<path d="M13.1428 41.7592
L13.2638 41.7592
" />
<path d="M13.2638 41.7592
L13.3847 41.8197
" />
<path d="M13.3847 41.8197
L13.4452 41.8802
" />
<path d="M13.4452 41.8802
L13.5057 42.0011
" />
<path d="M13.5057 42.0011
L13.5662 42.2430
" />
<path d="M13.5662 42.2430
L13.5662 42.5454
" />
<path d="M13.5662 42.5454
L13.5057 42.7873
" />
<path d="M13.5057 42.7873
L13.4452 42.9083
" />
<path d="M13.4452 42.9083
L13.3847 42.9688
" />
<path d="M13.3847 42.9688
L13.2638 43.0292
" />
<path d="M13.2638 43.0292
L13.1428 43.0292
" />
<path d="M13.1428 43.0292
L13.0219 42.9688
" />
<path d="M13.0219 42.9688
L12.9614 42.9083
" />
<path d="M12.9614 42.9083
L12.9009 42.7873
" />
<path d="M12.9009 42.7873
L12.8405 42.5454
" />
<path d="M12.8405 42.5454
L12.8405 42.2430
" />
<path d="M12.8405 42.2430
L12.9009 42.0011
" />
<path d="M12.9009 42.0011
L12.9614 41.8802
" />
<path d="M12.9614 41.8802
L13.0219 41.8197
" />
<path d="M13.0219 41.8197
L13.1428 41.7592
" />
</g></g>
<g style="fill:none; 
stroke:#840000; stroke-width:0.1524; stroke-opacity:1; 
stroke-linecap:round; stroke-linejoin:round;">
<path d="M13.8686 45.9867
L11.3286 45.9867
" />
</g>
<g style="fill:none; 
stroke:#006464; stroke-width:0.1524; stroke-opacity:1; 
stroke-linecap:round; stroke-linejoin:round;">
<text x="14.3766" y="46.6217"
textLength="2.6222" font-size="1.6933" lengthAdjust="spacingAndGlyphs"
text-anchor="start" opacity="0" stroke-opacity="0">11</text>
<g class="stroked-text"><desc>11</desc>
<path d="M15.4444 46.5662
L14.7187 46.5662
" />
<path d="M15.0815 46.5662
L15.0815 45.2962
" />
<path d="M15.0815 45.2962
L14.9606 45.4777
" />
<path d="M14.9606 45.4777
L14.8396 45.5986
" />
<path d="M14.8396 45.5986
L14.7187 45.6591
" />
<path d="M16.6539 46.5662
L15.9282 46.5662
" />
<path d="M16.2910 46.5662
L16.2910 45.2962
" />
<path d="M16.2910 45.2962
L16.1701 45.4777
" />
<path d="M16.1701 45.4777
L16.0491 45.5986
" />
<path d="M16.0491 45.5986
L15.9282 45.6591
" />
</g></g>
<g style="fill:none; 
stroke:#A90000; stroke-width:0.1524; stroke-opacity:1; 
stroke-linecap:round; stroke-linejoin:round;">
<text x="12.5986" y="45.7327"
textLength="2.6222" font-size="1.6933" lengthAdjust="spacingAndGlyphs"
text-anchor="middle" opacity="0" stroke-opacity="0">11</text>
<g class="stroked-text"><desc>11</desc>
<path d="M12.3567 45.5692
L11.6310 45.5692
" />
<path d="M11.9938 45.5692
L11.9938 44.2992
" />
<path d="M11.9938 44.2992
L11.8729 44.4807
" />
<path d="M11.8729 44.4807
L11.7519 44.6016
" />
<path d="M11.7519 44.6016
L11.6310 44.6621
" />
<path d="M13.5662 45.5692
L12.8405 45.5692
" />
<path d="M13.2033 45.5692
L13.2033 44.2992
" />
<path d="M13.2033 44.2992
L13.0824 44.4807
" />
<path d="M13.0824 44.4807
L12.9614 44.6016
" />
<path d="M12.9614 44.6016
L12.8405 44.6621
" />
</g></g>
<g style="fill:none; 
stroke:#840000; stroke-width:0.1524; stroke-opacity:1; 
stroke-linecap:round; stroke-linejoin:round;">
<path d="M13.8686 48.5267
L11.3286 48.5267
" />
</g>
<g style="fill:none; 
stroke:#006464; stroke-width:0.1524; stroke-opacity:1; 
stroke-linecap:round; stroke-linejoin:round;">
<text x="14.3766" y="49.1617"
textLength="2.6222" font-size="1.6933" lengthAdjust="spacingAndGlyphs"
text-anchor="start" opacity="0" stroke-opacity="0">12</text>
<g class="stroked-text"><desc>12</desc>
<path d="M15.4444 49.1062
L14.7187 49.1062
" />
<path d="M15.0815 49.1062
L15.0815 47.8362
" />
<path d="M15.0815 47.8362
L14.9606 48.0177
" />
<path d="M14.9606 48.0177
L14.8396 48.1386
" />
<path d="M14.8396 48.1386
L14.7187 48.1991
" />
<path d="M15.9282 47.9572
L15.9886 47.8967
" />
<path d="M15.9886 47.8967
L16.1096 47.8362
" />
<path d="M16.1096 47.8362
L16.4120 47.8362
" />
<path d="M16.4120 47.8362
L16.5329 47.8967
" />
<path d="M16.5329 47.8967
L16.5934 47.9572
" />
<path d="M16.5934 47.9572
L16.6539 48.0781
" />
<path d="M16.6539 48.0781
L16.6539 48.1991
" />
<path d="M16.6539 48.1991
L16.5934 48.3805
" />
<path d="M16.5934 48.3805
L15.8677 49.1062
" />
<path d="M15.8677 49.1062
L16.6539 49.1062
" />
</g></g>
<g style="fill:none; 
stroke:#A90000; stroke-width:0.1524; stroke-opacity:1; 
stroke-linecap:round; stroke-linejoin:round;">
<text x="12.5986" y="48.2727"
textLength="2.6222" font-size="1.6933" lengthAdjust="spacingAndGlyphs"
text-anchor="middle" opacity="0" stroke-opacity="0">12</text>
<g class="stroked-text"><desc>12</desc>
<path d="M12.3567 48.1092
L11.6310 48.1092
" />
<path d="M11.9938 48.1092
L11.9938 46.8392
" />
<path d="M11.9938 46.8392
L11.8729 47.0207
" />
<path d="M11.8729 47.0207
L11.7519 47.1416
" />
<path d="M11.7519 47.1416
L11.6310 47.2021
" />
<path d="M12.8405 46.9602
L12.9009 46.8997
" />
<path d="M12.9009 46.8997
L13.0219 46.8392
" />
<path d="M13.0219 46.8392
L13.3243 46.8392
" />
<path d="M13.3243 46.8392
L13.4452 46.8997
" />
<path d="M13.4452 46.8997
L13.5057 46.9602
" />
<path d="M13.5057 46.9602
L13.5662 47.0811
" />
<path d="M13.5662 47.0811
L13.5662 47.2021
" />
<path d="M13.5662 47.2021
L13.5057 47.3835
" />
<path d="M13.5057 47.3835
L12.7800 48.1092
" />
<path d="M12.7800 48.1092
L13.5662 48.1092
" />
</g></g>
<g style="fill:none; 
stroke:#840000; stroke-width:0.1524; stroke-opacity:1; 
stroke-linecap:round; stroke-linejoin:round;">
<path d="M13.8686 51.0667
L11.3286 51.0667
" />
</g>
<g style="fill:none; 
stroke:#006464; stroke-width:0.1524; stroke-opacity:1; 
stroke-linecap:round; stroke-linejoin:round;">
<text x="14.3766" y="51.7017"
textLength="2.6222" font-size="1.6933" lengthAdjust="spacingAndGlyphs"
text-anchor="start" opacity="0" stroke-opacity="0">13</text>
<g class="stroked-text"><desc>13</desc>
<path d="M15.4444 51.6462
L14.7187 51.6462
" />
<path d="M15.0815 51.6462
L15.0815 50.3762
" />
<path d="M15.0815 50.3762
L14.9606 50.5577
" />
<path d="M14.9606 50.5577
L14.8396 50.6786
" />
<path d="M14.8396 50.6786
L14.7187 50.7391
" />
<path d="M15.8677 50.3762
L16.6539 50.3762
" />
<path d="M16.6539 50.3762
L16.2305 50.8600
" />
<path d="M16.2305 50.8600
L16.4120 50.8600
" />
<path d="M16.4120 50.8600
L16.5329 50.9205
" />
<path d="M16.5329 50.9205
L16.5934 50.9810
" />
<path d="M16.5934 50.9810
L16.6539 51.1019
" />
<path d="M16.6539 51.1019
L16.6539 51.4043
" />
<path d="M16.6539 51.4043
L16.5934 51.5253
" />
<path d="M16.5934 51.5253
L16.5329 51.5858
" />
<path d="M16.5329 51.5858
L16.4120 51.6462
" />
<path d="M16.4120 51.6462
L16.0491 51.6462
" />
<path d="M16.0491 51.6462
L15.9282 51.5858
" />
<path d="M15.9282 51.5858
L15.8677 51.5253
" />
</g></g>
<g style="fill:none; 
stroke:#A90000; stroke-width:0.1524; stroke-opacity:1; 
stroke-linecap:round; stroke-linejoin:round;">
<text x="12.5986" y="50.8127"
textLength="2.6222" font-size="1.6933" lengthAdjust="spacingAndGlyphs"
text-anchor="middle" opacity="0" stroke-opacity="0">13</text>
<g class="stroked-text"><desc>13</desc>
<path d="M12.3567 50.6492
L11.6310 50.6492
" />
<path d="M11.9938 50.6492
L11.9938 49.3792
" />
<path d="M11.9938 49.3792
L11.8729 49.5607
" />
<path d="M11.8729 49.5607
L11.7519 49.6816
" />
<path d="M11.7519 49.6816
L11.6310 49.7421
" />
<path d="M12.7800 49.3792
L13.5662 49.3792
" />
<path d="M13.5662 49.3792
L13.1428 49.8630
" />
<path d="M13.1428 49.8630
L13.3243 49.8630
" />
<path d="M13.3243 49.8630
L13.4452 49.9235
" />
<path d="M13.4452 49.9235
L13.5057 49.9840
" />
<path d="M13.5057 49.9840
L13.5662 50.1049
" />
<path d="M13.5662 50.1049
L13.5662 50.4073
" />
<path d="M13.5662 50.4073
L13.5057 50.5283
" />
<path d="M13.5057 50.5283
L13.4452 50.5888
" />
<path d="M13.4452 50.5888
L13.3243 50.6492
" />
<path d="M13.3243 50.6492
L12.9614 50.6492
" />
<path d="M12.9614 50.6492
L12.8405 50.5888
" />
<path d="M12.8405 50.5888
L12.7800 50.5283
" />
</g></g>
<g style="fill:none; 
stroke:#840000; stroke-width:0.1524; stroke-opacity:1; 
stroke-linecap:round; stroke-linejoin:round;">
<path d="M13.8686 53.6067
L11.3286 53.6067
" />
</g>
<g style="fill:none; 
stroke:#006464; stroke-width:0.1524; stroke-opacity:1; 
stroke-linecap:round; stroke-linejoin:round;">
<text x="14.3766" y="54.2417"
textLength="2.6222" font-size="1.6933" lengthAdjust="spacingAndGlyphs"
text-anchor="start" opacity="0" stroke-opacity="0">14</text>
<g class="stroked-text"><desc>14</desc>
<path d="M15.4444 54.1862
L14.7187 54.1862
" />
<path d="M15.0815 54.1862
L15.0815 52.9162
" />
<path d="M15.0815 52.9162
L14.9606 53.0977
" />
<path d="M14.9606 53.0977
L14.8396 53.2186
" />
<path d="M14.8396 53.2186
L14.7187 53.2791
" />
<path d="M16.5329 53.3396
L16.5329 54.1862
" />
<path d="M16.2305 52.8558
L15.9282 53.7629
" />
<path d="M15.9282 53.7629
L16.7143 53.7629
" />
</g></g>
<g style="fill:none; 
stroke:#A90000; stroke-width:0.1524; stroke-opacity:1; 
stroke-linecap:round; stroke-linejoin:round;">
<text x="12.5986" y="53.3527"
textLength="2.6222" font-size="1.6933" lengthAdjust="spacingAndGlyphs"
text-anchor="middle" opacity="0" stroke-opacity="0">14</text>
<g class="stroked-text"><desc>14</desc>
<path d="M12.3567 53.1892
L11.6310 53.1892
" />
<path d="M11.9938 53.1892
L11.9938 51.9192
" />
<path d="M11.9938 51.9192
L11.8729 52.1007
" />
<path d="M11.8729 52.1007
L11.7519 52.2216
" />
<path d="M11.7519 52.2216
L11.6310 52.2821
" />
<path d="M13.4452 52.3426
L13.4452 53.1892
" />
<path d="M13.1428 51.8588
L12.8405 52.7659
" />
<path d="M12.8405 52.7659
L13.6266 52.7659
" />
</g></g>
<g style="fill:none; 
stroke:#840000; stroke-width:0.1524; stroke-opacity:1; 
stroke-linecap:round; stroke-linejoin:round;">
<path d="M13.8686 56.1467
L11.3286 56.1467
" />
</g>
<g style="fill:none; 
stroke:#006464; stroke-width:0.1524; stroke-opacity:1; 
stroke-linecap:round; stroke-linejoin:round;">
<text x="14.3766" y="56.7817"
textLength="2.6222" font-size="1.6933" lengthAdjust="spacingAndGlyphs"
text-anchor="start" opacity="0" stroke-opacity="0">15</text>
<g class="stroked-text"><desc>15</desc>
<path d="M15.4444 56.7262
L14.7187 56.7262
" />
<path d="M15.0815 56.7262
L15.0815 55.4562
" />
<path d="M15.0815 55.4562
L14.9606 55.6377
" />
<path d="M14.9606 55.6377
L14.8396 55.7586
" />
<path d="M14.8396 55.7586
L14.7187 55.8191
" />
<path d="M16.5934 55.4562
L15.9886 55.4562
" />
<path d="M15.9886 55.4562
L15.9282 56.0610
" />
<path d="M15.9282 56.0610
L15.9886 56.0005
" />
<path d="M15.9886 56.0005
L16.1096 55.9400
" />
<path d="M16.1096 55.9400
L16.4120 55.9400
" />
<path d="M16.4120 55.9400
L16.5329 56.0005
" />
<path d="M16.5329 56.0005
L16.5934 56.0610
" />
<path d="M16.5934 56.0610
L16.6539 56.1819
" />
<path d="M16.6539 56.1819
L16.6539 56.4843
" />
<path d="M16.6539 56.4843
L16.5934 56.6053
" />
<path d="M16.5934 56.6053
L16.5329 56.6658
" />
<path d="M16.5329 56.6658
L16.4120 56.7262
" />
<path d="M16.4120 56.7262
L16.1096 56.7262
" />
<path d="M16.1096 56.7262
L15.9886 56.6658
" />
<path d="M15.9886 56.6658
L15.9282 56.6053
" />
</g></g>
<g style="fill:none; 
stroke:#A90000; stroke-width:0.1524; stroke-opacity:1; 
stroke-linecap:round; stroke-linejoin:round;">
<text x="12.5986" y="55.8927"
textLength="2.6222" font-size="1.6933" lengthAdjust="spacingAndGlyphs"
text-anchor="middle" opacity="0" stroke-opacity="0">15</text>
<g class="stroked-text"><desc>15</desc>
<path d="M12.3567 55.7292
L11.6310 55.7292
" />
<path d="M11.9938 55.7292
L11.9938 54.4592
" />
<path d="M11.9938 54.4592
L11.8729 54.6407
" />
<path d="M11.8729 54.6407
L11.7519 54.7616
" />
<path d="M11.7519 54.7616
L11.6310 54.8221
" />
<path d="M13.5057 54.4592
L12.9009 54.4592
" />
<path d="M12.9009 54.4592
L12.8405 55.0640
" />
<path d="M12.8405 55.0640
L12.9009 55.0035
" />
<path d="M12.9009 55.0035
L13.0219 54.9430
" />
<path d="M13.0219 54.9430
L13.3243 54.9430
" />
<path d="M13.3243 54.9430
L13.4452 55.0035
" />
<path d="M13.4452 55.0035
L13.5057 55.0640
" />
<path d="M13.5057 55.0640
L13.5662 55.1849
" />
<path d="M13.5662 55.1849
L13.5662 55.4873
" />
<path d="M13.5662 55.4873
L13.5057 55.6083
" />
<path d="M13.5057 55.6083
L13.4452 55.6688
" />
<path d="M13.4452 55.6688
L13.3243 55.7292
" />
<path d="M13.3243 55.7292
L13.0219 55.7292
" />
<path d="M13.0219 55.7292
L12.9009 55.6688
" />
<path d="M12.9009 55.6688
L12.8405 55.6083
" />
</g></g>
<g style="fill:none; 
stroke:#840000; stroke-width:0.1524; stroke-opacity:1; 
stroke-linecap:round; stroke-linejoin:round;">
<path d="M13.8686 58.6867
L11.3286 58.6867
" />
</g>
<g style="fill:none; 
stroke:#006464; stroke-width:0.1524; stroke-opacity:1; 
stroke-linecap:round; stroke-linejoin:round;">
<text x="14.3766" y="59.3217"
textLength="2.6222" font-size="1.6933" lengthAdjust="spacingAndGlyphs"
text-anchor="start" opacity="0" stroke-opacity="0">16</text>
<g class="stroked-text"><desc>16</desc>
<path d="M15.4444 59.2662
L14.7187 59.2662
" />
<path d="M15.0815 59.2662
L15.0815 57.9962
" />
<path d="M15.0815 57.9962
L14.9606 58.1777
" />
<path d="M14.9606 58.1777
L14.8396 58.2986
" />
<path d="M14.8396 58.2986
L14.7187 58.3591
" />
<path d="M16.5329 57.9962
L16.2910 57.9962
" />
<path d="M16.2910 57.9962
L16.1701 58.0567
" />
<path d="M16.1701 58.0567
L16.1096 58.1172
" />
<path d="M16.1096 58.1172
L15.9886 58.2986
" />
<path d="M15.9886 58.2986
L15.9282 58.5405
" />
<path d="M15.9282 58.5405
L15.9282 59.0243
" />
<path d="M15.9282 59.0243
L15.9886 59.1453
" />
<path d="M15.9886 59.1453
L16.0491 59.2058
" />
<path d="M16.0491 59.2058
L16.1701 59.2662
" />
<path d="M16.1701 59.2662
L16.4120 59.2662
" />
<path d="M16.4120 59.2662
L16.5329 59.2058
" />
<path d="M16.5329 59.2058
L16.5934 59.1453
" />
<path d="M16.5934 59.1453
L16.6539 59.0243
" />
<path d="M16.6539 59.0243
L16.6539 58.7219
" />
<path d="M16.6539 58.7219
L16.5934 58.6010
" />
<path d="M16.5934 58.6010
L16.5329 58.5405
" />
<path d="M16.5329 58.5405
L16.4120 58.4800
" />
<path d="M16.4120 58.4800
L16.1701 58.4800
" />
<path d="M16.1701 58.4800
L16.0491 58.5405
" />
<path d="M16.0491 58.5405
L15.9886 58.6010
" />
<path d="M15.9886 58.6010
L15.9282 58.7219
" />
</g></g>
<g style="fill:none; 
stroke:#A90000; stroke-width:0.1524; stroke-opacity:1; 
stroke-linecap:round; stroke-linejoin:round;">
<text x="12.5986" y="58.4327"
textLength="2.6222" font-size="1.6933" lengthAdjust="spacingAndGlyphs"
text-anchor="middle" opacity="0" stroke-opacity="0">16</text>
<g class="stroked-text"><desc>16</desc>
<path d="M12.3567 58.2692
L11.6310 58.2692
" />
<path d="M11.9938 58.2692
L11.9938 56.9992
" />
<path d="M11.9938 56.9992
L11.8729 57.1807
" />
<path d="M11.8729 57.1807
L11.7519 57.3016
" />
<path d="M11.7519 57.3016
L11.6310 57.3621
" />
<path d="M13.4452 56.9992
L13.2033 56.9992
" />
<path d="M13.2033 56.9992
L13.0824 57.0597
" />
<path d="M13.0824 57.0597
L13.0219 57.1202
" />
<path d="M13.0219 57.1202
L12.9009 57.3016
" />
<path d="M12.9009 57.3016
L12.8405 57.5435
" />
<path d="M12.8405 57.5435
L12.8405 58.0273
" />
<path d="M12.8405 58.0273
L12.9009 58.1483
" />
<path d="M12.9009 58.1483
L12.9614 58.2088
" />
<path d="M12.9614 58.2088
L13.0824 58.2692
" />
<path d="M13.0824 58.2692
L13.3243 58.2692
" />
<path d="M13.3243 58.2692
L13.4452 58.2088
" />
<path d="M13.4452 58.2088
L13.5057 58.1483
" />
<path d="M13.5057 58.1483
L13.5662 58.0273
" />
<path d="M13.5662 58.0273
L13.5662 57.7249
" />
<path d="M13.5662 57.7249
L13.5057 57.6040
" />
<path d="M13.5057 57.6040
L13.4452 57.5435
" />
<path d="M13.4452 57.5435
L13.3243 57.4830
" />
<path d="M13.3243 57.4830
L13.0824 57.4830
" />
<path d="M13.0824 57.4830
L12.9614 57.5435
" />
<path d="M12.9614 57.5435
L12.9009 57.6040
" />
<path d="M12.9009 57.6040
L12.8405 57.7249
" />
</g></g>
<g style="fill:none; 
stroke:#840000; stroke-width:0.1524; stroke-opacity:1; 
stroke-linecap:round; stroke-linejoin:round;">
<path d="M21.4886 61.2267
L21.4886 63.7667
" />
</g>
<g style="fill:none; 
stroke:#006464; stroke-width:0.1524; stroke-opacity:1; 
stroke-linecap:round; stroke-linejoin:round;">
<g transform="rotate(-90.000000 21.4886 60.7187)">
<text x="21.4886" y="61.3537"
textLength="2.6222" font-size="1.6933" lengthAdjust="spacingAndGlyphs"
text-anchor="start" opacity="0" stroke-opacity="0">17</text>
</g>
<g class="stroked-text"><desc>17</desc>
<path d="M22.0681 59.6508
L22.0681 60.3765
" />
<path d="M22.0681 60.0137
L20.7981 60.0137
" />
<path d="M20.7981 60.0137
L20.9796 60.1346
" />
<path d="M20.9796 60.1346
L21.1005 60.2556
" />
<path d="M21.1005 60.2556
L21.1610 60.3765
" />
<path d="M20.7981 59.2275
L20.7981 58.3809
" />
<path d="M20.7981 58.3809
L22.0681 58.9251
" />
</g></g>
<g style="fill:none; 
stroke:#A90000; stroke-width:0.1524; stroke-opacity:1; 
stroke-linecap:round; stroke-linejoin:round;">
<g transform="rotate(-90.000000 21.2346 62.4967)">
<text x="21.2346" y="62.4967"
textLength="2.6222" font-size="1.6933" lengthAdjust="spacingAndGlyphs"
text-anchor="middle" opacity="0" stroke-opacity="0">17</text>
</g>
<g class="stroked-text"><desc>17</desc>
<path d="M21.0711 62.7385
L21.0711 63.4642
" />
<path d="M21.0711 63.1014
L19.8011 63.1014
" />
<path d="M19.8011 63.1014
L19.9826 63.2223
" />
<path d="M19.9826 63.2223
L20.1035 63.3433
" />
<path d="M20.1035 63.3433
L20.1640 63.4642
" />
<path d="M19.8011 62.3152
L19.8011 61.4686
" />
<path d="M19.8011 61.4686
L21.0711 62.0128
" />
</g></g>
<g style="fill:none; 
stroke:#840000; stroke-width:0.1524; stroke-opacity:1; 
stroke-linecap:round; stroke-linejoin:round;">
<path d="M21.4886 18.0467
L21.4886 15.5067
" />
</g>
<g style="fill:none; 
stroke:#006464; stroke-width:0.1524; stroke-opacity:1; 
stroke-linecap:round; stroke-linejoin:round;">
<g transform="rotate(-90.000000 21.4886 18.5547)">
<text x="21.4886" y="19.1897"
textLength="2.6222" font-size="1.6933" lengthAdjust="spacingAndGlyphs"
text-anchor="end" opacity="0" stroke-opacity="0">18</text>
</g>
<g class="stroked-text"><desc>18</desc>
<path d="M22.0681 20.1062
L22.0681 20.8319
" />
<path d="M22.0681 20.4691
L20.7981 20.4691
" />
<path d="M20.7981 20.4691
L20.9796 20.5900
" />
<path d="M20.9796 20.5900
L21.1005 20.7110
" />
<path d="M21.1005 20.7110
L21.1610 20.8319
" />
<path d="M21.3424 19.3805
L21.2819 19.5015
" />
<path d="M21.2819 19.5015
L21.2215 19.5620
" />
<path d="M21.2215 19.5620
L21.1005 19.6224
" />
<path d="M21.1005 19.6224
L21.0400 19.6224
" />
<path d="M21.0400 19.6224
L20.9191 19.5620
" />
<path d="M20.9191 19.5620
L20.8586 19.5015
" />
<path d="M20.8586 19.5015
L20.7981 19.3805
" />
<path d="M20.7981 19.3805
L20.7981 19.1386
" />
<path d="M20.7981 19.1386
L20.8586 19.0177
" />
<path d="M20.8586 19.0177
L20.9191 18.9572
" />
<path d="M20.9191 18.9572
L21.0400 18.8967
" />
<path d="M21.0400 18.8967
L21.1005 18.8967
" />
<path d="M21.1005 18.8967
L21.2215 18.9572
" />
<path d="M21.2215 18.9572
L21.2819 19.0177
" />
<path d="M21.2819 19.0177
L21.3424 19.1386
" />
<path d="M21.3424 19.1386
L21.3424 19.3805
" />
<path d="M21.3424 19.3805
L21.4029 19.5015
" />
<path d="M21.4029 19.5015
L21.4634 19.5620
" />
<path d="M21.4634 19.5620
L21.5843 19.6224
" />
<path d="M21.5843 19.6224
L21.8262 19.6224
" />
<path d="M21.8262 19.6224
L21.9472 19.5620
" />
<path d="M21.9472 19.5620
L22.0077 19.5015
" />
<path d="M22.0077 19.5015
L22.0681 19.3805
" />
<path d="M22.0681 19.3805
L22.0681 19.1386
" />
<path d="M22.0681 19.1386
L22.0077 19.0177
" />
<path d="M22.0077 19.0177
L21.9472 18.9572
" />
<path d="M21.9472 18.9572
L21.8262 18.8967
" />
<path d="M21.8262 18.8967
L21.5843 18.8967
" />
<path d="M21.5843 18.8967
L21.4634 18.9572
" />
<path d="M21.4634 18.9572
L21.4029 19.0177
" />
<path d="M21.4029 19.0177
L21.3424 19.1386
" />
</g></g>
<g style="fill:none; 
stroke:#A90000; stroke-width:0.1524; stroke-opacity:1; 
stroke-linecap:round; stroke-linejoin:round;">
<g transform="rotate(-90.000000 21.2346 16.7767)">
<text x="21.2346" y="16.7767"
textLength="2.6222" font-size="1.6933" lengthAdjust="spacingAndGlyphs"
text-anchor="middle" opacity="0" stroke-opacity="0">18</text>
</g>
<g class="stroked-text"><desc>18</desc>
<path d="M21.0711 17.0185
L21.0711 17.7442
" />
<path d="M21.0711 17.3814
L19.8011 17.3814
" />
<path d="M19.8011 17.3814
L19.9826 17.5023
" />
<path d="M19.9826 17.5023
L20.1035 17.6233
" />
<path d="M20.1035 17.6233
L20.1640 17.7442
" />
<path d="M20.3454 16.2928
L20.2849 16.4138
" />
<path d="M20.2849 16.4138
L20.2245 16.4743
" />
<path d="M20.2245 16.4743
L20.1035 16.5347
" />
<path d="M20.1035 16.5347
L20.0430 16.5347
" />
<path d="M20.0430 16.5347
L19.9221 16.4743
" />
<path d="M19.9221 16.4743
L19.8616 16.4138
" />
<path d="M19.8616 16.4138
L19.8011 16.2928
" />
<path d="M19.8011 16.2928
L19.8011 16.0509
" />
<path d="M19.8011 16.0509
L19.8616 15.9300
" />
<path d="M19.8616 15.9300
L19.9221 15.8695
" />
<path d="M19.9221 15.8695
L20.0430 15.8090
" />
<path d="M20.0430 15.8090
L20.1035 15.8090
" />
<path d="M20.1035 15.8090
L20.2245 15.8695
" />
<path d="M20.2245 15.8695
L20.2849 15.9300
" />
<path d="M20.2849 15.9300
L20.3454 16.0509
" />
<path d="M20.3454 16.0509
L20.3454 16.2928
" />
<path d="M20.3454 16.2928
L20.4059 16.4138
" />
<path d="M20.4059 16.4138
L20.4664 16.4743
" />
<path d="M20.4664 16.4743
L20.5873 16.5347
" />
<path d="M20.5873 16.5347
L20.8292 16.5347
" />
<path d="M20.8292 16.5347
L20.9502 16.4743
" />
<path d="M20.9502 16.4743
L21.0107 16.4138
" />
<path d="M21.0107 16.4138
L21.0711 16.2928
" />
<path d="M21.0711 16.2928
L21.0711 16.0509
" />
<path d="M21.0711 16.0509
L21.0107 15.9300
" />
<path d="M21.0107 15.9300
L20.9502 15.8695
" />
<path d="M20.9502 15.8695
L20.8292 15.8090
" />
<path d="M20.8292 15.8090
L20.5873 15.8090
" />
<path d="M20.5873 15.8090
L20.4664 15.8695
" />
<path d="M20.4664 15.8695
L20.4059 15.9300
" />
<path d="M20.4059 15.9300
L20.3454 16.0509
" />
</g></g>
<g style="fill:none; 
stroke:#840000; stroke-width:0.1524; stroke-opacity:1; 
stroke-linecap:round; stroke-linejoin:round;">
<path d="M13.8686 23.1267
L11.3286 23.1267
" />
</g>
<g style="fill:none; 
stroke:#006464; stroke-width:0.1524; stroke-opacity:1; 
stroke-linecap:round; stroke-linejoin:round;">
<text x="14.3766" y="23.7617"
textLength="1.4127" font-size="1.6933" lengthAdjust="spacingAndGlyphs"
text-anchor="start" opacity="0" stroke-opacity="0">2</text>
<g class="stroked-text"><desc>2</desc>
<path d="M14.7187 22.5572
L14.7791 22.4967
" />
<path d="M14.7791 22.4967
L14.9001 22.4362
" />
<path d="M14.9001 22.4362
L15.2025 22.4362
" />
<path d="M15.2025 22.4362
L15.3234 22.4967
" />
<path d="M15.3234 22.4967
L15.3839 22.5572
" />
<path d="M15.3839 22.5572
L15.4444 22.6781
" />
<path d="M15.4444 22.6781
L15.4444 22.7991
" />
<path d="M15.4444 22.7991
L15.3839 22.9805
" />
<path d="M15.3839 22.9805
L14.6582 23.7062
" />
<path d="M14.6582 23.7062
L15.4444 23.7062
" />
</g></g>
<g style="fill:none; 
stroke:#A90000; stroke-width:0.1524; stroke-opacity:1; 
stroke-linecap:round; stroke-linejoin:round;">
<text x="12.5986" y="22.8727"
textLength="1.4127" font-size="1.6933" lengthAdjust="spacingAndGlyphs"
text-anchor="middle" opacity="0" stroke-opacity="0">2</text>
<g class="stroked-text"><desc>2</desc>
<path d="M12.2358 21.5602
L12.2962 21.4997
" />
<path d="M12.2962 21.4997
L12.4172 21.4392
" />
<path d="M12.4172 21.4392
L12.7196 21.4392
" />
<path d="M12.7196 21.4392
L12.8405 21.4997
" />
<path d="M12.8405 21.4997
L12.9010 21.5602
" />
<path d="M12.9010 21.5602
L12.9615 21.6811
" />
<path d="M12.9615 21.6811
L12.9615 21.8021
" />
<path d="M12.9615 21.8021
L12.9010 21.9835
" />
<path d="M12.9010 21.9835
L12.1753 22.7092
" />
<path d="M12.1753 22.7092
L12.9615 22.7092
" />
</g></g>
<g style="fill:none; 
stroke:#840000; stroke-width:0.1524; stroke-opacity:1; 
stroke-linecap:round; stroke-linejoin:round;">
<path d="M13.8686 25.6667
L11.3286 25.6667
" />
</g>
<g style="fill:none; 
stroke:#006464; stroke-width:0.1524; stroke-opacity:1; 
stroke-linecap:round; stroke-linejoin:round;">
<text x="14.3766" y="26.3017"
textLength="1.4127" font-size="1.6933" lengthAdjust="spacingAndGlyphs"
text-anchor="start" opacity="0" stroke-opacity="0">3</text>
<g class="stroked-text"><desc>3</desc>
<path d="M14.6582 24.9762
L15.4444 24.9762
" />
<path d="M15.4444 24.9762
L15.0210 25.4600
" />
<path d="M15.0210 25.4600
L15.2025 25.4600
" />
<path d="M15.2025 25.4600
L15.3234 25.5205
" />
<path d="M15.3234 25.5205
L15.3839 25.5810
" />
<path d="M15.3839 25.5810
L15.4444 25.7019
" />
<path d="M15.4444 25.7019
L15.4444 26.0043
" />
<path d="M15.4444 26.0043
L15.3839 26.1253
" />
<path d="M15.3839 26.1253
L15.3234 26.1858
" />
<path d="M15.3234 26.1858
L15.2025 26.2462
" />
<path d="M15.2025 26.2462
L14.8396 26.2462
" />
<path d="M14.8396 26.2462
L14.7187 26.1858
" />
<path d="M14.7187 26.1858
L14.6582 26.1253
" />
</g></g>
<g style="fill:none; 
stroke:#A90000; stroke-width:0.1524; stroke-opacity:1; 
stroke-linecap:round; stroke-linejoin:round;">
<text x="12.5986" y="25.4127"
textLength="1.4127" font-size="1.6933" lengthAdjust="spacingAndGlyphs"
text-anchor="middle" opacity="0" stroke-opacity="0">3</text>
<g class="stroked-text"><desc>3</desc>
<path d="M12.1753 23.9792
L12.9615 23.9792
" />
<path d="M12.9615 23.9792
L12.5381 24.4630
" />
<path d="M12.5381 24.4630
L12.7196 24.4630
" />
<path d="M12.7196 24.4630
L12.8405 24.5235
" />
<path d="M12.8405 24.5235
L12.9010 24.5840
" />
<path d="M12.9010 24.5840
L12.9615 24.7049
" />
<path d="M12.9615 24.7049
L12.9615 25.0073
" />
<path d="M12.9615 25.0073
L12.9010 25.1283
" />
<path d="M12.9010 25.1283
L12.8405 25.1888
" />
<path d="M12.8405 25.1888
L12.7196 25.2492
" />
<path d="M12.7196 25.2492
L12.3567 25.2492
" />
<path d="M12.3567 25.2492
L12.2358 25.1888
" />
<path d="M12.2358 25.1888
L12.1753 25.1283
" />
</g></g>
<g style="fill:none; 
stroke:#840000; stroke-width:0.1524; stroke-opacity:1; 
stroke-linecap:round; stroke-linejoin:round;">
<path d="M13.8686 28.2067
L11.3286 28.2067
" />
</g>
<g style="fill:none; 
stroke:#006464; stroke-width:0.1524; stroke-opacity:1; 
stroke-linecap:round; stroke-linejoin:round;">
<text x="14.3766" y="28.8417"
textLength="1.4127" font-size="1.6933" lengthAdjust="spacingAndGlyphs"
text-anchor="start" opacity="0" stroke-opacity="0">4</text>
<g class="stroked-text"><desc>4</desc>
<path d="M15.3234 27.9396
L15.3234 28.7862
" />
<path d="M15.0210 27.4558
L14.7187 28.3629
" />
<path d="M14.7187 28.3629
L15.5048 28.3629
" />
</g></g>
<g style="fill:none; 
stroke:#A90000; stroke-width:0.1524; stroke-opacity:1; 
stroke-linecap:round; stroke-linejoin:round;">
<text x="12.5986" y="27.9527"
textLength="1.4127" font-size="1.6933" lengthAdjust="spacingAndGlyphs"
text-anchor="middle" opacity="0" stroke-opacity="0">4</text>
<g class="stroked-text"><desc>4</desc>
<path d="M12.8405 26.9426
L12.8405 27.7892
" />
<path d="M12.5381 26.4588
L12.2358 27.3659
" />
<path d="M12.2358 27.3659
L13.0219 27.3659
" />
</g></g>
<g style="fill:none; 
stroke:#840000; stroke-width:0.1524; stroke-opacity:1; 
stroke-linecap:round; stroke-linejoin:round;">
<path d="M13.8686 30.7467
L11.3286 30.7467
" />
</g>
<g style="fill:none; 
stroke:#006464; stroke-width:0.1524; stroke-opacity:1; 
stroke-linecap:round; stroke-linejoin:round;">
<text x="14.3766" y="31.3817"
textLength="1.4127" font-size="1.6933" lengthAdjust="spacingAndGlyphs"
text-anchor="start" opacity="0" stroke-opacity="0">5</text>
<g class="stroked-text"><desc>5</desc>
<path d="M15.3839 30.0562
L14.7791 30.0562
" />
<path d="M14.7791 30.0562
L14.7187 30.6610
" />
<path d="M14.7187 30.6610
L14.7791 30.6005
" />
<path d="M14.7791 30.6005
L14.9001 30.5400
" />
<path d="M14.9001 30.5400
L15.2025 30.5400
" />
<path d="M15.2025 30.5400
L15.3234 30.6005
" />
<path d="M15.3234 30.6005
L15.3839 30.6610
" />
<path d="M15.3839 30.6610
L15.4444 30.7819
" />
<path d="M15.4444 30.7819
L15.4444 31.0843
" />
<path d="M15.4444 31.0843
L15.3839 31.2053
" />
<path d="M15.3839 31.2053
L15.3234 31.2658
" />
<path d="M15.3234 31.2658
L15.2025 31.3262
" />
<path d="M15.2025 31.3262
L14.9001 31.3262
" />
<path d="M14.9001 31.3262
L14.7791 31.2658
" />
<path d="M14.7791 31.2658
L14.7187 31.2053
" />
</g></g>
<g style="fill:none; 
stroke:#A90000; stroke-width:0.1524; stroke-opacity:1; 
stroke-linecap:round; stroke-linejoin:round;">
<text x="12.5986" y="30.4927"
textLength="1.4127" font-size="1.6933" lengthAdjust="spacingAndGlyphs"
text-anchor="middle" opacity="0" stroke-opacity="0">5</text>
<g class="stroked-text"><desc>5</desc>
<path d="M12.9010 29.0592
L12.2962 29.0592
" />
<path d="M12.2962 29.0592
L12.2358 29.6640
" />
<path d="M12.2358 29.6640
L12.2962 29.6035
" />
<path d="M12.2962 29.6035
L12.4172 29.5430
" />
<path d="M12.4172 29.5430
L12.7196 29.5430
" />
<path d="M12.7196 29.5430
L12.8405 29.6035
" />
<path d="M12.8405 29.6035
L12.9010 29.6640
" />
<path d="M12.9010 29.6640
L12.9615 29.7849
" />
<path d="M12.9615 29.7849
L12.9615 30.0873
" />
<path d="M12.9615 30.0873
L12.9010 30.2083
" />
<path d="M12.9010 30.2083
L12.8405 30.2688
" />
<path d="M12.8405 30.2688
L12.7196 30.3292
" />
<path d="M12.7196 30.3292
L12.4172 30.3292
" />
<path d="M12.4172 30.3292
L12.2962 30.2688
" />
<path d="M12.2962 30.2688
L12.2358 30.2083
" />
</g></g>
<g style="fill:none; 
stroke:#840000; stroke-width:0.1524; stroke-opacity:1; 
stroke-linecap:round; stroke-linejoin:round;">
<path d="M13.8686 33.2867
L11.3286 33.2867
" />
</g>
<g style="fill:none; 
stroke:#006464; stroke-width:0.1524; stroke-opacity:1; 
stroke-linecap:round; stroke-linejoin:round;">
<text x="14.3766" y="33.9217"
textLength="1.4127" font-size="1.6933" lengthAdjust="spacingAndGlyphs"
text-anchor="start" opacity="0" stroke-opacity="0">6</text>
<g class="stroked-text"><desc>6</desc>
<path d="M15.3234 32.5962
L15.0815 32.5962
" />
<path d="M15.0815 32.5962
L14.9606 32.6567
" />
<path d="M14.9606 32.6567
L14.9001 32.7172
" />
<path d="M14.9001 32.7172
L14.7791 32.8986
" />
<path d="M14.7791 32.8986
L14.7187 33.1405
" />
<path d="M14.7187 33.1405
L14.7187 33.6243
" />
<path d="M14.7187 33.6243
L14.7791 33.7453
" />
<path d="M14.7791 33.7453
L14.8396 33.8058
" />
<path d="M14.8396 33.8058
L14.9606 33.8662
" />
<path d="M14.9606 33.8662
L15.2025 33.8662
" />
<path d="M15.2025 33.8662
L15.3234 33.8058
" />
<path d="M15.3234 33.8058
L15.3839 33.7453
" />
<path d="M15.3839 33.7453
L15.4444 33.6243
" />
<path d="M15.4444 33.6243
L15.4444 33.3219
" />
<path d="M15.4444 33.3219
L15.3839 33.2010
" />
<path d="M15.3839 33.2010
L15.3234 33.1405
" />
<path d="M15.3234 33.1405
L15.2025 33.0800
" />
<path d="M15.2025 33.0800
L14.9606 33.0800
" />
<path d="M14.9606 33.0800
L14.8396 33.1405
" />
<path d="M14.8396 33.1405
L14.7791 33.2010
" />
<path d="M14.7791 33.2010
L14.7187 33.3219
" />
</g></g>
<g style="fill:none; 
stroke:#A90000; stroke-width:0.1524; stroke-opacity:1; 
stroke-linecap:round; stroke-linejoin:round;">
<text x="12.5986" y="33.0327"
textLength="1.4127" font-size="1.6933" lengthAdjust="spacingAndGlyphs"
text-anchor="middle" opacity="0" stroke-opacity="0">6</text>
<g class="stroked-text"><desc>6</desc>
<path d="M12.8405 31.5992
L12.5986 31.5992
" />
<path d="M12.5986 31.5992
L12.4777 31.6597
" />
<path d="M12.4777 31.6597
L12.4172 31.7202
" />
<path d="M12.4172 31.7202
L12.2962 31.9016
" />
<path d="M12.2962 31.9016
L12.2358 32.1435
" />
<path d="M12.2358 32.1435
L12.2358 32.6273
" />
<path d="M12.2358 32.6273
L12.2962 32.7483
" />
<path d="M12.2962 32.7483
L12.3567 32.8088
" />
<path d="M12.3567 32.8088
L12.4777 32.8692
" />
<path d="M12.4777 32.8692
L12.7196 32.8692
" />
<path d="M12.7196 32.8692
L12.8405 32.8088
" />
<path d="M12.8405 32.8088
L12.9010 32.7483
" />
<path d="M12.9010 32.7483
L12.9615 32.6273
" />
<path d="M12.9615 32.6273
L12.9615 32.3249
" />
<path d="M12.9615 32.3249
L12.9010 32.2040
" />
<path d="M12.9010 32.2040
L12.8405 32.1435
" />
<path d="M12.8405 32.1435
L12.7196 32.0830
" />
<path d="M12.7196 32.0830
L12.4777 32.0830
" />
<path d="M12.4777 32.0830
L12.3567 32.1435
" />
<path d="M12.3567 32.1435
L12.2962 32.2040
" />
<path d="M12.2962 32.2040
L12.2358 32.3249
" />
</g></g>
<g style="fill:none; 
stroke:#840000; stroke-width:0.1524; stroke-opacity:1; 
stroke-linecap:round; stroke-linejoin:round;">
<path d="M13.8686 35.8267
L11.3286 35.8267
" />
</g>
<g style="fill:none; 
stroke:#006464; stroke-width:0.1524; stroke-opacity:1; 
stroke-linecap:round; stroke-linejoin:round;">
<text x="14.3766" y="36.4617"
textLength="1.4127" font-size="1.6933" lengthAdjust="spacingAndGlyphs"
text-anchor="start" opacity="0" stroke-opacity="0">7</text>
<g class="stroked-text"><desc>7</desc>
<path d="M14.6582 35.1362
L15.5048 35.1362
" />
<path d="M15.5048 35.1362
L14.9606 36.4062
" />
</g></g>
<g style="fill:none; 
stroke:#A90000; stroke-width:0.1524; stroke-opacity:1; 
stroke-linecap:round; stroke-linejoin:round;">
<text x="12.5986" y="35.5727"
textLength="1.4127" font-size="1.6933" lengthAdjust="spacingAndGlyphs"
text-anchor="middle" opacity="0" stroke-opacity="0">7</text>
<g class="stroked-text"><desc>7</desc>
<path d="M12.1753 34.1392
L13.0219 34.1392
" />
<path d="M13.0219 34.1392
L12.4777 35.4092
" />
</g></g>
<g style="fill:none; 
stroke:#840000; stroke-width:0.1524; stroke-opacity:1; 
stroke-linecap:round; stroke-linejoin:round;">
<path d="M13.8686 38.3667
L11.3286 38.3667
" />
</g>
<g style="fill:none; 
stroke:#006464; stroke-width:0.1524; stroke-opacity:1; 
stroke-linecap:round; stroke-linejoin:round;">
<text x="14.3766" y="39.0017"
textLength="1.4127" font-size="1.6933" lengthAdjust="spacingAndGlyphs"
text-anchor="start" opacity="0" stroke-opacity="0">8</text>
<g class="stroked-text"><desc>8</desc>
<path d="M14.9606 38.2205
L14.8396 38.1600
" />
<path d="M14.8396 38.1600
L14.7791 38.0996
" />
<path d="M14.7791 38.0996
L14.7187 37.9786
" />
<path d="M14.7187 37.9786
L14.7187 37.9181
" />
<path d="M14.7187 37.9181
L14.7791 37.7972
" />
<path d="M14.7791 37.7972
L14.8396 37.7367
" />
<path d="M14.8396 37.7367
L14.9606 37.6762
" />
<path d="M14.9606 37.6762
L15.2025 37.6762
" />
<path d="M15.2025 37.6762
L15.3234 37.7367
" />
<path d="M15.3234 37.7367
L15.3839 37.7972
" />
<path d="M15.3839 37.7972
L15.4444 37.9181
" />
<path d="M15.4444 37.9181
L15.4444 37.9786
" />
<path d="M15.4444 37.9786
L15.3839 38.0996
" />
<path d="M15.3839 38.0996
L15.3234 38.1600
" />
<path d="M15.3234 38.1600
L15.2025 38.2205
" />
<path d="M15.2025 38.2205
L14.9606 38.2205
" />
<path d="M14.9606 38.2205
L14.8396 38.2810
" />
<path d="M14.8396 38.2810
L14.7791 38.3415
" />
<path d="M14.7791 38.3415
L14.7187 38.4624
" />
<path d="M14.7187 38.4624
L14.7187 38.7043
" />
<path d="M14.7187 38.7043
L14.7791 38.8253
" />
<path d="M14.7791 38.8253
L14.8396 38.8858
" />
<path d="M14.8396 38.8858
L14.9606 38.9462
" />
<path d="M14.9606 38.9462
L15.2025 38.9462
" />
<path d="M15.2025 38.9462
L15.3234 38.8858
" />
<path d="M15.3234 38.8858
L15.3839 38.8253
" />
<path d="M15.3839 38.8253
L15.4444 38.7043
" />
<path d="M15.4444 38.7043
L15.4444 38.4624
" />
<path d="M15.4444 38.4624
L15.3839 38.3415
" />
<path d="M15.3839 38.3415
L15.3234 38.2810
" />
<path d="M15.3234 38.2810
L15.2025 38.2205
" />
</g></g>
<g style="fill:none; 
stroke:#A90000; stroke-width:0.1524; stroke-opacity:1; 
stroke-linecap:round; stroke-linejoin:round;">
<text x="12.5986" y="38.1127"
textLength="1.4127" font-size="1.6933" lengthAdjust="spacingAndGlyphs"
text-anchor="middle" opacity="0" stroke-opacity="0">8</text>
<g class="stroked-text"><desc>8</desc>
<path d="M12.4777 37.2235
L12.3567 37.1630
" />
<path d="M12.3567 37.1630
L12.2962 37.1026
" />
<path d="M12.2962 37.1026
L12.2358 36.9816
" />
<path d="M12.2358 36.9816
L12.2358 36.9211
" />
<path d="M12.2358 36.9211
L12.2962 36.8002
" />
<path d="M12.2962 36.8002
L12.3567 36.7397
" />
<path d="M12.3567 36.7397
L12.4777 36.6792
" />
<path d="M12.4777 36.6792
L12.7196 36.6792
" />
<path d="M12.7196 36.6792
L12.8405 36.7397
" />
<path d="M12.8405 36.7397
L12.9010 36.8002
" />
<path d="M12.9010 36.8002
L12.9615 36.9211
" />
<path d="M12.9615 36.9211
L12.9615 36.9816
" />
<path d="M12.9615 36.9816
L12.9010 37.1026
" />
<path d="M12.9010 37.1026
L12.8405 37.1630
" />
<path d="M12.8405 37.1630
L12.7196 37.2235
" />
<path d="M12.7196 37.2235
L12.4777 37.2235
" />
<path d="M12.4777 37.2235
L12.3567 37.2840
" />
<path d="M12.3567 37.2840
L12.2962 37.3445
" />
<path d="M12.2962 37.3445
L12.2358 37.4654
" />
<path d="M12.2358 37.4654
L12.2358 37.7073
" />
<path d="M12.2358 37.7073
L12.2962 37.8283
" />
<path d="M12.2962 37.8283
L12.3567 37.8888
" />
<path d="M12.3567 37.8888
L12.4777 37.9492
" />
<path d="M12.4777 37.9492
L12.7196 37.9492
" />
<path d="M12.7196 37.9492
L12.8405 37.8888
" />
<path d="M12.8405 37.8888
L12.9010 37.8283
" />
<path d="M12.9010 37.8283
L12.9615 37.7073
" />
<path d="M12.9615 37.7073
L12.9615 37.4654
" />
<path d="M12.9615 37.4654
L12.9010 37.3445
" />
<path d="M12.9010 37.3445
L12.8405 37.2840
" />
<path d="M12.8405 37.2840
L12.7196 37.2235
" />
</g></g>
<g style="fill:none; 
stroke:#840000; stroke-width:0.1524; stroke-opacity:1; 
stroke-linecap:round; stroke-linejoin:round;">
<path d="M13.8686 40.9067
L11.3286 40.9067
" />
</g>
<g style="fill:none; 
stroke:#006464; stroke-width:0.1524; stroke-opacity:1; 
stroke-linecap:round; stroke-linejoin:round;">
<text x="14.3766" y="41.5417"
textLength="1.4127" font-size="1.6933" lengthAdjust="spacingAndGlyphs"
text-anchor="start" opacity="0" stroke-opacity="0">9</text>
<g class="stroked-text"><desc>9</desc>
<path d="M14.8396 41.4862
L15.0815 41.4862
" />
<path d="M15.0815 41.4862
L15.2025 41.4258
" />
<path d="M15.2025 41.4258
L15.2629 41.3653
" />
<path d="M15.2629 41.3653
L15.3839 41.1838
" />
<path d="M15.3839 41.1838
L15.4444 40.9419
" />
<path d="M15.4444 40.9419
L15.4444 40.4581
" />
<path d="M15.4444 40.4581
L15.3839 40.3372
" />
<path d="M15.3839 40.3372
L15.3234 40.2767
" />
<path d="M15.3234 40.2767
L15.2025 40.2162
" />
<path d="M15.2025 40.2162
L14.9606 40.2162
" />
<path d="M14.9606 40.2162
L14.8396 40.2767
" />
<path d="M14.8396 40.2767
L14.7791 40.3372
" />
<path d="M14.7791 40.3372
L14.7187 40.4581
" />
<path d="M14.7187 40.4581
L14.7187 40.7605
" />
<path d="M14.7187 40.7605
L14.7791 40.8815
" />
<path d="M14.7791 40.8815
L14.8396 40.9419
" />
<path d="M14.8396 40.9419
L14.9606 41.0024
" />
<path d="M14.9606 41.0024
L15.2025 41.0024
" />
<path d="M15.2025 41.0024
L15.3234 40.9419
" />
<path d="M15.3234 40.9419
L15.3839 40.8815
" />
<path d="M15.3839 40.8815
L15.4444 40.7605
" />
</g></g>
<g style="fill:none; 
stroke:#A90000; stroke-width:0.1524; stroke-opacity:1; 
stroke-linecap:round; stroke-linejoin:round;">
<text x="12.5986" y="40.6527"
textLength="1.4127" font-size="1.6933" lengthAdjust="spacingAndGlyphs"
text-anchor="middle" opacity="0" stroke-opacity="0">9</text>
<g class="stroked-text"><desc>9</desc>
<path d="M12.3567 40.4892
L12.5986 40.4892
" />
<path d="M12.5986 40.4892
L12.7196 40.4288
" />
<path d="M12.7196 40.4288
L12.7800 40.3683
" />
<path d="M12.7800 40.3683
L12.9010 40.1868
" />
<path d="M12.9010 40.1868
L12.9615 39.9449
" />
<path d="M12.9615 39.9449
L12.9615 39.4611
" />
<path d="M12.9615 39.4611
L12.9010 39.3402
" />
<path d="M12.9010 39.3402
L12.8405 39.2797
" />
<path d="M12.8405 39.2797
L12.7196 39.2192
" />
<path d="M12.7196 39.2192
L12.4777 39.2192
" />
<path d="M12.4777 39.2192
L12.3567 39.2797
" />
<path d="M12.3567 39.2797
L12.2962 39.3402
" />
<path d="M12.2962 39.3402
L12.2358 39.4611
" />
<path d="M12.2358 39.4611
L12.2358 39.7635
" />
<path d="M12.2358 39.7635
L12.2962 39.8845
" />
<path d="M12.2962 39.8845
L12.3567 39.9449
" />
<path d="M12.3567 39.9449
L12.4777 40.0054
" />
<path d="M12.4777 40.0054
L12.7196 40.0054
" />
<path d="M12.7196 40.0054
L12.8405 39.9449
" />
<path d="M12.8405 39.9449
L12.9010 39.8845
" />
<path d="M12.9010 39.8845
L12.9615 39.7635
" />
</g></g>
<g style="fill:none; 
stroke:#006464; stroke-width:0.1588; stroke-opacity:1; 
stroke-linecap:round; stroke-linejoin:round;">
<text x="16.4086" y="11.0618"
textLength="2.6415" font-size="1.6933" lengthAdjust="spacingAndGlyphs"
text-anchor="middle" opacity="0" stroke-opacity="0">U?</text>
<g class="stroked-text"><desc>U?</desc>
<path d="M15.5014 9.7360
L15.5014 10.7641
" />
<path d="M15.5014 10.7641
L15.5619 10.8851
" />
<path d="M15.5619 10.8851
L15.6224 10.9456
" />
<path d="M15.6224 10.9456
L15.7433 11.0060
" />
<path d="M15.7433 11.0060
L15.9852 11.0060
" />
<path d="M15.9852 11.0060
L16.1062 10.9456
" />
<path d="M16.1062 10.9456
L16.1667 10.8851
" />
<path d="M16.1667 10.8851
L16.2271 10.7641
" />
<path d="M16.2271 10.7641
L16.2271 9.7360
" />
<path d="M17.0134 10.8851
L17.0738 10.9456
" />
<path d="M17.0738 10.9456
L17.0134 11.0060
" />
<path d="M17.0134 11.0060
L16.9529 10.9456
" />
<path d="M16.9529 10.9456
L17.0134 10.8851
" />
<path d="M17.0134 10.8851
L17.0134 11.0060
" />
<path d="M16.7715 9.7965
L16.8924 9.7360
" />
<path d="M16.8924 9.7360
L17.1948 9.7360
" />
<path d="M17.1948 9.7360
L17.3157 9.7965
" />
<path d="M17.3157 9.7965
L17.3762 9.9175
" />
<path d="M17.3762 9.9175
L17.3762 10.0384
" />
<path d="M17.3762 10.0384
L17.3157 10.1594
" />
<path d="M17.3157 10.1594
L17.2553 10.2198
" />
<path d="M17.2553 10.2198
L17.1343 10.2803
" />
<path d="M17.1343 10.2803
L17.0738 10.3408
" />
<path d="M17.0738 10.3408
L17.0134 10.4617
" />
<path d="M17.0134 10.4617
L17.0134 10.5222
" />
</g><text x="16.4086" y="69.4818"
textLength="20.6027" font-size="1.6933" lengthAdjust="spacingAndGlyphs"
text-anchor="middle" opacity="0" stroke-opacity="0">CT10252-16R-00-D</text>
<g class="stroked-text"><desc>CT10252-16R-00-D</desc>
<path d="M7.2465 69.3051
L7.1861 69.3656
" />
<path d="M7.1861 69.3656
L7.0046 69.4260
" />
<path d="M7.0046 69.4260
L6.8837 69.4260
" />
<path d="M6.8837 69.4260
L6.7023 69.3656
" />
<path d="M6.7023 69.3656
L6.5813 69.2446
" />
<path d="M6.5813 69.2446
L6.5208 69.1236
" />
<path d="M6.5208 69.1236
L6.4604 68.8817
" />
<path d="M6.4604 68.8817
L6.4604 68.7003
" />
<path d="M6.4604 68.7003
L6.5208 68.4584
" />
<path d="M6.5208 68.4584
L6.5813 68.3375
" />
<path d="M6.5813 68.3375
L6.7023 68.2165
" />
<path d="M6.7023 68.2165
L6.8837 68.1560
" />
<path d="M6.8837 68.1560
L7.0046 68.1560
" />
<path d="M7.0046 68.1560
L7.1861 68.2165
" />
<path d="M7.1861 68.2165
L7.2465 68.2770
" />
<path d="M7.6094 68.1560
L8.3351 68.1560
" />
<path d="M7.9723 69.4260
L7.9723 68.1560
" />
<path d="M9.4237 69.4260
L8.6980 69.4260
" />
<path d="M9.0608 69.4260
L9.0608 68.1560
" />
<path d="M9.0608 68.1560
L8.9399 68.3375
" />
<path d="M8.9399 68.3375
L8.8189 68.4584
" />
<path d="M8.8189 68.4584
L8.6980 68.5189
" />
<path d="M10.2098 68.1560
L10.3308 68.1560
" />
<path d="M10.3308 68.1560
L10.4517 68.2165
" />
<path d="M10.4517 68.2165
L10.5122 68.2770
" />
<path d="M10.5122 68.2770
L10.5727 68.3979
" />
<path d="M10.5727 68.3979
L10.6332 68.6398
" />
<path d="M10.6332 68.6398
L10.6332 68.9422
" />
<path d="M10.6332 68.9422
L10.5727 69.1841
" />
<path d="M10.5727 69.1841
L10.5122 69.3051
" />
<path d="M10.5122 69.3051
L10.4517 69.3656
" />
<path d="M10.4517 69.3656
L10.3308 69.4260
" />
<path d="M10.3308 69.4260
L10.2098 69.4260
" />
<path d="M10.2098 69.4260
L10.0889 69.3656
" />
<path d="M10.0889 69.3656
L10.0284 69.3051
" />
<path d="M10.0284 69.3051
L9.9679 69.1841
" />
<path d="M9.9679 69.1841
L9.9075 68.9422
" />
<path d="M9.9075 68.9422
L9.9075 68.6398
" />
<path d="M9.9075 68.6398
L9.9679 68.3979
" />
<path d="M9.9679 68.3979
L10.0284 68.2770
" />
<path d="M10.0284 68.2770
L10.0889 68.2165
" />
<path d="M10.0889 68.2165
L10.2098 68.1560
" />
<path d="M11.1170 68.2770
L11.1774 68.2165
" />
<path d="M11.1774 68.2165
L11.2984 68.1560
" />
<path d="M11.2984 68.1560
L11.6008 68.1560
" />
<path d="M11.6008 68.1560
L11.7217 68.2165
" />
<path d="M11.7217 68.2165
L11.7822 68.2770
" />
<path d="M11.7822 68.2770
L11.8427 68.3979
" />
<path d="M11.8427 68.3979
L11.8427 68.5189
" />
<path d="M11.8427 68.5189
L11.7822 68.7003
" />
<path d="M11.7822 68.7003
L11.0565 69.4260
" />
<path d="M11.0565 69.4260
L11.8427 69.4260
" />
<path d="M12.9917 68.1560
L12.3869 68.1560
" />
<path d="M12.3869 68.1560
L12.3265 68.7608
" />
<path d="M12.3265 68.7608
L12.3869 68.7003
" />
<path d="M12.3869 68.7003
L12.5079 68.6398
" />
<path d="M12.5079 68.6398
L12.8103 68.6398
" />
<path d="M12.8103 68.6398
L12.9312 68.7003
" />
<path d="M12.9312 68.7003
L12.9917 68.7608
" />
<path d="M12.9917 68.7608
L13.0522 68.8817
" />
<path d="M13.0522 68.8817
L13.0522 69.1841
" />
<path d="M13.0522 69.1841
L12.9917 69.3051
" />
<path d="M12.9917 69.3051
L12.9312 69.3656
" />
<path d="M12.9312 69.3656
L12.8103 69.4260
" />
<path d="M12.8103 69.4260
L12.5079 69.4260
" />
<path d="M12.5079 69.4260
L12.3869 69.3656
" />
<path d="M12.3869 69.3656
L12.3265 69.3051
" />
<path d="M13.5360 68.2770
L13.5964 68.2165
" />
<path d="M13.5964 68.2165
L13.7174 68.1560
" />
<path d="M13.7174 68.1560
L14.0198 68.1560
" />
<path d="M14.0198 68.1560
L14.1407 68.2165
" />
<path d="M14.1407 68.2165
L14.2012 68.2770
" />
<path d="M14.2012 68.2770
L14.2617 68.3979
" />
<path d="M14.2617 68.3979
L14.2617 68.5189
" />
<path d="M14.2617 68.5189
L14.2012 68.7003
" />
<path d="M14.2012 68.7003
L13.4755 69.4260
" />
<path d="M13.4755 69.4260
L14.2617 69.4260
" />
<path d="M14.8059 68.9422
L15.7736 68.9422
" />
<path d="M17.0436 69.4260
L16.3179 69.4260
" />
<path d="M16.6807 69.4260
L16.6807 68.1560
" />
<path d="M16.6807 68.1560
L16.5598 68.3375
" />
<path d="M16.5598 68.3375
L16.4388 68.4584
" />
<path d="M16.4388 68.4584
L16.3179 68.5189
" />
<path d="M18.1321 68.1560
L17.8902 68.1560
" />
<path d="M17.8902 68.1560
L17.7693 68.2165
" />
<path d="M17.7693 68.2165
L17.7088 68.2770
" />
<path d="M17.7088 68.2770
L17.5878 68.4584
" />
<path d="M17.5878 68.4584
L17.5274 68.7003
" />
<path d="M17.5274 68.7003
L17.5274 69.1841
" />
<path d="M17.5274 69.1841
L17.5878 69.3051
" />
<path d="M17.5878 69.3051
L17.6483 69.3656
" />
<path d="M17.6483 69.3656
L17.7693 69.4260
" />
<path d="M17.7693 69.4260
L18.0112 69.4260
" />
<path d="M18.0112 69.4260
L18.1321 69.3656
" />
<path d="M18.1321 69.3656
L18.1926 69.3051
" />
<path d="M18.1926 69.3051
L18.2531 69.1841
" />
<path d="M18.2531 69.1841
L18.2531 68.8817
" />
<path d="M18.2531 68.8817
L18.1926 68.7608
" />
<path d="M18.1926 68.7608
L18.1321 68.7003
" />
<path d="M18.1321 68.7003
L18.0112 68.6398
" />
<path d="M18.0112 68.6398
L17.7693 68.6398
" />
<path d="M17.7693 68.6398
L17.6483 68.7003
" />
<path d="M17.6483 68.7003
L17.5878 68.7608
" />
<path d="M17.5878 68.7608
L17.5274 68.8817
" />
<path d="M19.5230 69.4260
L19.0997 68.8213
" />
<path d="M18.7973 69.4260
L18.7973 68.1560
" />
<path d="M18.7973 68.1560
L19.2811 68.1560
" />
<path d="M19.2811 68.1560
L19.4021 68.2165
" />
<path d="M19.4021 68.2165
L19.4626 68.2770
" />
<path d="M19.4626 68.2770
L19.5230 68.3979
" />
<path d="M19.5230 68.3979
L19.5230 68.5794
" />
<path d="M19.5230 68.5794
L19.4626 68.7003
" />
<path d="M19.4626 68.7003
L19.4021 68.7608
" />
<path d="M19.4021 68.7608
L19.2811 68.8213
" />
<path d="M19.2811 68.8213
L18.7973 68.8213
" />
<path d="M20.0673 68.9422
L21.0350 68.9422
" />
<path d="M21.8816 68.1560
L22.0026 68.1560
" />
<path d="M22.0026 68.1560
L22.1235 68.2165
" />
<path d="M22.1235 68.2165
L22.1840 68.2770
" />
<path d="M22.1840 68.2770
L22.2445 68.3979
" />
<path d="M22.2445 68.3979
L22.3050 68.6398
" />
<path d="M22.3050 68.6398
L22.3050 68.9422
" />
<path d="M22.3050 68.9422
L22.2445 69.1841
" />
<path d="M22.2445 69.1841
L22.1840 69.3051
" />
<path d="M22.1840 69.3051
L22.1235 69.3656
" />
<path d="M22.1235 69.3656
L22.0026 69.4260
" />
<path d="M22.0026 69.4260
L21.8816 69.4260
" />
<path d="M21.8816 69.4260
L21.7607 69.3656
" />
<path d="M21.7607 69.3656
L21.7002 69.3051
" />
<path d="M21.7002 69.3051
L21.6397 69.1841
" />
<path d="M21.6397 69.1841
L21.5793 68.9422
" />
<path d="M21.5793 68.9422
L21.5793 68.6398
" />
<path d="M21.5793 68.6398
L21.6397 68.3979
" />
<path d="M21.6397 68.3979
L21.7002 68.2770
" />
<path d="M21.7002 68.2770
L21.7607 68.2165
" />
<path d="M21.7607 68.2165
L21.8816 68.1560
" />
<path d="M23.0911 68.1560
L23.2121 68.1560
" />
<path d="M23.2121 68.1560
L23.3330 68.2165
" />
<path d="M23.3330 68.2165
L23.3935 68.2770
" />
<path d="M23.3935 68.2770
L23.4540 68.3979
" />
<path d="M23.4540 68.3979
L23.5145 68.6398
" />
<path d="M23.5145 68.6398
L23.5145 68.9422
" />
<path d="M23.5145 68.9422
L23.4540 69.1841
" />
<path d="M23.4540 69.1841
L23.3935 69.3051
" />
<path d="M23.3935 69.3051
L23.3330 69.3656
" />
<path d="M23.3330 69.3656
L23.2121 69.4260
" />
<path d="M23.2121 69.4260
L23.0911 69.4260
" />
<path d="M23.0911 69.4260
L22.9702 69.3656
" />
<path d="M22.9702 69.3656
L22.9097 69.3051
" />
<path d="M22.9097 69.3051
L22.8492 69.1841
" />
<path d="M22.8492 69.1841
L22.7888 68.9422
" />
<path d="M22.7888 68.9422
L22.7888 68.6398
" />
<path d="M22.7888 68.6398
L22.8492 68.3979
" />
<path d="M22.8492 68.3979
L22.9097 68.2770
" />
<path d="M22.9097 68.2770
L22.9702 68.2165
" />
<path d="M22.9702 68.2165
L23.0911 68.1560
" />
<path d="M24.0587 68.9422
L25.0264 68.9422
" />
<path d="M25.6311 69.4260
L25.6311 68.1560
" />
<path d="M25.6311 68.1560
L25.9335 68.1560
" />
<path d="M25.9335 68.1560
L26.1149 68.2165
" />
<path d="M26.1149 68.2165
L26.2359 68.3375
" />
<path d="M26.2359 68.3375
L26.2964 68.4584
" />
<path d="M26.2964 68.4584
L26.3568 68.7003
" />
<path d="M26.3568 68.7003
L26.3568 68.8817
" />
<path d="M26.3568 68.8817
L26.2964 69.1236
" />
<path d="M26.2964 69.1236
L26.2359 69.2446
" />
<path d="M26.2359 69.2446
L26.1149 69.3656
" />
<path d="M26.1149 69.3656
L25.9335 69.4260
" />
<path d="M25.9335 69.4260
L25.6311 69.4260
" />
</g></g> 
</svg>
