<?xml version="1.0" standalone="no"?>
 <!DOCTYPE svg PUBLIC "-//W3C//DTD SVG 1.1//EN" 
 "http://www.w3.org/Graphics/SVG/1.1/DTD/svg11.dtd"> 
<svg
  xmlns:svg="http://www.w3.org/2000/svg"
  xmlns="http://www.w3.org/2000/svg"
  xmlns:xlink="http://www.w3.org/1999/xlink"
  version="1.1"
  width="33.4772mm" height="11.7856mm" viewBox="0.0000 0.0000 33.4772 11.7856">
<title>SVG Image created as FPC-SMD_16P-P1.00_CT10252-16R-00-D.svg date 2024/09/28 12:37:16 </title>
  <desc>Image generated by PCBNEW </desc>
<g style="fill:#000000; fill-opacity:1.0000;stroke:#000000; stroke-opacity:1.0000;
stroke-linecap:round; stroke-linejoin:round;"
 transform="translate(0 0) scale(1 1)">
<path style="fill:#C83434; fill-opacity:1.0000; stroke:none;fill-rule:evenodd;"
d="M 24.5440,3.5982
24.5440,6.0982
23.9440,6.0982
23.9440,3.5982
Z" /> 
<path style="fill:#C83434; fill-opacity:1.0000; stroke:none;fill-rule:evenodd;"
d="M 23.5440,3.5982
23.5440,6.0982
22.9440,6.0982
22.9440,3.5982
Z" /> 
<path style="fill:#C83434; fill-opacity:1.0000; stroke:none;fill-rule:evenodd;"
d="M 22.5440,3.5982
22.5440,6.0982
21.9440,6.0982
21.9440,3.5982
Z" /> 
<path style="fill:#C83434; fill-opacity:1.0000; stroke:none;fill-rule:evenodd;"
d="M 21.5440,3.5982
21.5440,6.0982
20.9440,6.0982
20.9440,3.5982
Z" /> 
<path style="fill:#C83434; fill-opacity:1.0000; stroke:none;fill-rule:evenodd;"
d="M 20.5440,3.5982
20.5440,6.0982
19.9440,6.0982
19.9440,3.5982
Z" /> 
<path style="fill:#C83434; fill-opacity:1.0000; stroke:none;fill-rule:evenodd;"
d="M 19.5440,3.5982
19.5440,6.0982
18.9440,6.0982
18.9440,3.5982
Z" /> 
<path style="fill:#C83434; fill-opacity:1.0000; stroke:none;fill-rule:evenodd;"
d="M 18.5440,3.5982
18.5440,6.0982
17.9440,6.0982
17.9440,3.5982
Z" /> 
<path style="fill:#C83434; fill-opacity:1.0000; stroke:none;fill-rule:evenodd;"
d="M 17.5440,3.5982
17.5440,6.0982
16.9440,6.0982
16.9440,3.5982
Z" /> 
<path style="fill:#C83434; fill-opacity:1.0000; stroke:none;fill-rule:evenodd;"
d="M 16.5440,3.5982
16.5440,6.0982
15.9440,6.0982
15.9440,3.5982
Z" /> 
<path style="fill:#C83434; fill-opacity:1.0000; stroke:none;fill-rule:evenodd;"
d="M 15.5440,3.5982
15.5440,6.0982
14.9440,6.0982
14.9440,3.5982
Z" /> 
<path style="fill:#C83434; fill-opacity:1.0000; stroke:none;fill-rule:evenodd;"
d="M 14.5440,3.5982
14.5440,6.0982
13.9440,6.0982
13.9440,3.5982
Z" /> 
<path style="fill:#C83434; fill-opacity:1.0000; stroke:none;fill-rule:evenodd;"
d="M 13.5440,3.5982
13.5440,6.0982
12.9440,6.0982
12.9440,3.5982
Z" /> 
<path style="fill:#C83434; fill-opacity:1.0000; stroke:none;fill-rule:evenodd;"
d="M 12.5440,3.5982
12.5440,6.0982
11.9440,6.0982
11.9440,3.5982
Z" /> 
<path style="fill:#C83434; fill-opacity:1.0000; stroke:none;fill-rule:evenodd;"
d="M 11.5440,3.5982
11.5440,6.0982
10.9440,6.0982
10.9440,3.5982
Z" /> 
<path style="fill:#C83434; fill-opacity:1.0000; stroke:none;fill-rule:evenodd;"
d="M 10.5440,3.5982
10.5440,6.0982
9.9440,6.0982
9.9440,3.5982
Z" /> 
<path style="fill:#C83434; fill-opacity:1.0000; stroke:none;fill-rule:evenodd;"
d="M 9.5440,3.5982
9.5440,6.0982
8.9440,6.0982
8.9440,3.5982
Z" /> 
<path style="fill:#C83434; fill-opacity:1.0000; stroke:none;fill-rule:evenodd;"
d="M 28.5440,5.2482
28.5440,8.6482
25.5440,8.6482
25.5440,5.2482
Z" /> 
<path style="fill:#C83434; fill-opacity:1.0000; stroke:none;fill-rule:evenodd;"
d="M 7.9440,5.2482
7.9440,8.6482
4.9440,8.6482
4.9440,5.2482
Z" /> 
<path style="fill:#D864FF; fill-opacity:0.4000; stroke:none;fill-rule:evenodd;"
d="M 24.5440,3.5982
24.5440,6.0982
23.9440,6.0982
23.9440,3.5982
Z" /> 
<path style="fill:#D864FF; fill-opacity:0.4000; stroke:none;fill-rule:evenodd;"
d="M 23.5440,3.5982
23.5440,6.0982
22.9440,6.0982
22.9440,3.5982
Z" /> 
<path style="fill:#D864FF; fill-opacity:0.4000; stroke:none;fill-rule:evenodd;"
d="M 22.5440,3.5982
22.5440,6.0982
21.9440,6.0982
21.9440,3.5982
Z" /> 
<path style="fill:#D864FF; fill-opacity:0.4000; stroke:none;fill-rule:evenodd;"
d="M 21.5440,3.5982
21.5440,6.0982
20.9440,6.0982
20.9440,3.5982
Z" /> 
<path style="fill:#D864FF; fill-opacity:0.4000; stroke:none;fill-rule:evenodd;"
d="M 20.5440,3.5982
20.5440,6.0982
19.9440,6.0982
19.9440,3.5982
Z" /> 
<path style="fill:#D864FF; fill-opacity:0.4000; stroke:none;fill-rule:evenodd;"
d="M 19.5440,3.5982
19.5440,6.0982
18.9440,6.0982
18.9440,3.5982
Z" /> 
<path style="fill:#D864FF; fill-opacity:0.4000; stroke:none;fill-rule:evenodd;"
d="M 18.5440,3.5982
18.5440,6.0982
17.9440,6.0982
17.9440,3.5982
Z" /> 
<path style="fill:#D864FF; fill-opacity:0.4000; stroke:none;fill-rule:evenodd;"
d="M 17.5440,3.5982
17.5440,6.0982
16.9440,6.0982
16.9440,3.5982
Z" /> 
<path style="fill:#D864FF; fill-opacity:0.4000; stroke:none;fill-rule:evenodd;"
d="M 16.5440,3.5982
16.5440,6.0982
15.9440,6.0982
15.9440,3.5982
Z" /> 
<path style="fill:#D864FF; fill-opacity:0.4000; stroke:none;fill-rule:evenodd;"
d="M 15.5440,3.5982
15.5440,6.0982
14.9440,6.0982
14.9440,3.5982
Z" /> 
<path style="fill:#D864FF; fill-opacity:0.4000; stroke:none;fill-rule:evenodd;"
d="M 14.5440,3.5982
14.5440,6.0982
13.9440,6.0982
13.9440,3.5982
Z" /> 
<path style="fill:#D864FF; fill-opacity:0.4000; stroke:none;fill-rule:evenodd;"
d="M 13.5440,3.5982
13.5440,6.0982
12.9440,6.0982
12.9440,3.5982
Z" /> 
<path style="fill:#D864FF; fill-opacity:0.4000; stroke:none;fill-rule:evenodd;"
d="M 12.5440,3.5982
12.5440,6.0982
11.9440,6.0982
11.9440,3.5982
Z" /> 
<path style="fill:#D864FF; fill-opacity:0.4000; stroke:none;fill-rule:evenodd;"
d="M 11.5440,3.5982
11.5440,6.0982
10.9440,6.0982
10.9440,3.5982
Z" /> 
<path style="fill:#D864FF; fill-opacity:0.4000; stroke:none;fill-rule:evenodd;"
d="M 10.5440,3.5982
10.5440,6.0982
9.9440,6.0982
9.9440,3.5982
Z" /> 
<path style="fill:#D864FF; fill-opacity:0.4000; stroke:none;fill-rule:evenodd;"
d="M 9.5440,3.5982
9.5440,6.0982
8.9440,6.0982
8.9440,3.5982
Z" /> 
<path style="fill:#D864FF; fill-opacity:0.4000; stroke:none;fill-rule:evenodd;"
d="M 28.5440,5.2482
28.5440,8.6482
25.5440,8.6482
25.5440,5.2482
Z" /> 
<path style="fill:#D864FF; fill-opacity:0.4000; stroke:none;fill-rule:evenodd;"
d="M 7.9440,5.2482
7.9440,8.6482
4.9440,8.6482
4.9440,5.2482
Z" /> 
<path style="fill:#B4A09A; fill-opacity:0.9000; stroke:none;fill-rule:evenodd;"
d="M 24.5440,3.5982
24.5440,6.0982
23.9440,6.0982
23.9440,3.5982
Z" /> 
<path style="fill:#B4A09A; fill-opacity:0.9000; stroke:none;fill-rule:evenodd;"
d="M 23.5440,3.5982
23.5440,6.0982
22.9440,6.0982
22.9440,3.5982
Z" /> 
<path style="fill:#B4A09A; fill-opacity:0.9000; stroke:none;fill-rule:evenodd;"
d="M 22.5440,3.5982
22.5440,6.0982
21.9440,6.0982
21.9440,3.5982
Z" /> 
<path style="fill:#B4A09A; fill-opacity:0.9000; stroke:none;fill-rule:evenodd;"
d="M 21.5440,3.5982
21.5440,6.0982
20.9440,6.0982
20.9440,3.5982
Z" /> 
<path style="fill:#B4A09A; fill-opacity:0.9000; stroke:none;fill-rule:evenodd;"
d="M 20.5440,3.5982
20.5440,6.0982
19.9440,6.0982
19.9440,3.5982
Z" /> 
<path style="fill:#B4A09A; fill-opacity:0.9000; stroke:none;fill-rule:evenodd;"
d="M 19.5440,3.5982
19.5440,6.0982
18.9440,6.0982
18.9440,3.5982
Z" /> 
<path style="fill:#B4A09A; fill-opacity:0.9000; stroke:none;fill-rule:evenodd;"
d="M 18.5440,3.5982
18.5440,6.0982
17.9440,6.0982
17.9440,3.5982
Z" /> 
<path style="fill:#B4A09A; fill-opacity:0.9000; stroke:none;fill-rule:evenodd;"
d="M 17.5440,3.5982
17.5440,6.0982
16.9440,6.0982
16.9440,3.5982
Z" /> 
<path style="fill:#B4A09A; fill-opacity:0.9000; stroke:none;fill-rule:evenodd;"
d="M 16.5440,3.5982
16.5440,6.0982
15.9440,6.0982
15.9440,3.5982
Z" /> 
<path style="fill:#B4A09A; fill-opacity:0.9000; stroke:none;fill-rule:evenodd;"
d="M 15.5440,3.5982
15.5440,6.0982
14.9440,6.0982
14.9440,3.5982
Z" /> 
<path style="fill:#B4A09A; fill-opacity:0.9000; stroke:none;fill-rule:evenodd;"
d="M 14.5440,3.5982
14.5440,6.0982
13.9440,6.0982
13.9440,3.5982
Z" /> 
<path style="fill:#B4A09A; fill-opacity:0.9000; stroke:none;fill-rule:evenodd;"
d="M 13.5440,3.5982
13.5440,6.0982
12.9440,6.0982
12.9440,3.5982
Z" /> 
<path style="fill:#B4A09A; fill-opacity:0.9000; stroke:none;fill-rule:evenodd;"
d="M 12.5440,3.5982
12.5440,6.0982
11.9440,6.0982
11.9440,3.5982
Z" /> 
<path style="fill:#B4A09A; fill-opacity:0.9000; stroke:none;fill-rule:evenodd;"
d="M 11.5440,3.5982
11.5440,6.0982
10.9440,6.0982
10.9440,3.5982
Z" /> 
<path style="fill:#B4A09A; fill-opacity:0.9000; stroke:none;fill-rule:evenodd;"
d="M 10.5440,3.5982
10.5440,6.0982
9.9440,6.0982
9.9440,3.5982
Z" /> 
<path style="fill:#B4A09A; fill-opacity:0.9000; stroke:none;fill-rule:evenodd;"
d="M 9.5440,3.5982
9.5440,6.0982
8.9440,6.0982
8.9440,3.5982
Z" /> 
<path style="fill:#B4A09A; fill-opacity:0.9000; stroke:none;fill-rule:evenodd;"
d="M 28.5440,5.2482
28.5440,8.6482
25.5440,8.6482
25.5440,5.2482
Z" /> 
<path style="fill:#B4A09A; fill-opacity:0.9000; stroke:none;fill-rule:evenodd;"
d="M 7.9440,5.2482
7.9440,8.6482
4.9440,8.6482
4.9440,5.2482
Z" /> 
</g>
<g style="fill:none; 
stroke:#F2EDA1; stroke-width:0.1500; stroke-opacity:1; 
stroke-linecap:round; stroke-linejoin:round;">
<text x="16.7440" y="1.3482"
textLength="4.5357" font-size="1.3333" lengthAdjust="spacingAndGlyphs"
text-anchor="middle" opacity="0" stroke-opacity="0">REF**</text>
<g class="stroked-text"><desc>REF**</desc>
<path d="M15.4107 1.3031
L15.0774 0.8269
" />
<path d="M14.8393 1.3031
L14.8393 0.3031
" />
<path d="M14.8393 0.3031
L15.2202 0.3031
" />
<path d="M15.2202 0.3031
L15.3155 0.3507
" />
<path d="M15.3155 0.3507
L15.3631 0.3983
" />
<path d="M15.3631 0.3983
L15.4107 0.4935
" />
<path d="M15.4107 0.4935
L15.4107 0.6364
" />
<path d="M15.4107 0.6364
L15.3631 0.7316
" />
<path d="M15.3631 0.7316
L15.3155 0.7793
" />
<path d="M15.3155 0.7793
L15.2202 0.8269
" />
<path d="M15.2202 0.8269
L14.8393 0.8269
" />
<path d="M15.8393 0.7793
L16.1726 0.7793
" />
<path d="M16.3155 1.3031
L15.8393 1.3031
" />
<path d="M15.8393 1.3031
L15.8393 0.3031
" />
<path d="M15.8393 0.3031
L16.3155 0.3031
" />
<path d="M17.0774 0.7793
L16.7440 0.7793
" />
<path d="M16.7440 1.3031
L16.7440 0.3031
" />
<path d="M16.7440 0.3031
L17.2202 0.3031
" />
<path d="M17.7440 0.3031
L17.7440 0.5412
" />
<path d="M17.5060 0.4459
L17.7440 0.5412
" />
<path d="M17.7440 0.5412
L17.9821 0.4459
" />
<path d="M17.6012 0.7316
L17.7440 0.5412
" />
<path d="M17.7440 0.5412
L17.8869 0.7316
" />
<path d="M18.5060 0.3031
L18.5060 0.5412
" />
<path d="M18.2679 0.4459
L18.5060 0.5412
" />
<path d="M18.5060 0.5412
L18.7440 0.4459
" />
<path d="M18.3631 0.7316
L18.5060 0.5412
" />
<path d="M18.5060 0.5412
L18.6488 0.7316
" />
</g></g>
<g style="fill:none; 
stroke:#F2EDA1; stroke-width:0.2500; stroke-opacity:1; 
stroke-linecap:round; stroke-linejoin:round;">
<path d="M4.9840 11.0682
L28.5040 11.0682
" />
<path d="M8.7140 5.2283
L8.1740 5.2283
" />
<path d="M4.9840 8.8782
L4.9840 11.0682
" />
<path d="M25.3140 5.2283
L24.7740 5.2283
" />
<path d="M28.5040 8.8782
L28.5040 11.0682
" />
</g>
<g style="fill:none; 
stroke:#AFAFAF; stroke-width:0.1500; stroke-opacity:1; 
stroke-linecap:round; stroke-linejoin:round;">
<text x="16.7440" y="11.4482"
textLength="33.4881" font-size="1.3333" lengthAdjust="spacingAndGlyphs"
text-anchor="middle" opacity="0" stroke-opacity="0">FPC-SMD_16P-P1.00_CT10252-16R-00-D</text>
<g class="stroked-text"><desc>FPC-SMD_16P-P1.00_CT10252-16R-00-D</desc>
<path d="M0.6964 10.8793
L0.3631 10.8793
" />
<path d="M0.3631 11.4031
L0.3631 10.4031
" />
<path d="M0.3631 10.4031
L0.8393 10.4031
" />
<path d="M1.2202 11.4031
L1.2202 10.4031
" />
<path d="M1.2202 10.4031
L1.6012 10.4031
" />
<path d="M1.6012 10.4031
L1.6964 10.4507
" />
<path d="M1.6964 10.4507
L1.7440 10.4983
" />
<path d="M1.7440 10.4983
L1.7917 10.5935
" />
<path d="M1.7917 10.5935
L1.7917 10.7364
" />
<path d="M1.7917 10.7364
L1.7440 10.8316
" />
<path d="M1.7440 10.8316
L1.6964 10.8793
" />
<path d="M1.6964 10.8793
L1.6012 10.9269
" />
<path d="M1.6012 10.9269
L1.2202 10.9269
" />
<path d="M2.7917 11.3078
L2.7440 11.3554
" />
<path d="M2.7440 11.3554
L2.6012 11.4031
" />
<path d="M2.6012 11.4031
L2.5060 11.4031
" />
<path d="M2.5060 11.4031
L2.3631 11.3554
" />
<path d="M2.3631 11.3554
L2.2679 11.2602
" />
<path d="M2.2679 11.2602
L2.2202 11.1650
" />
<path d="M2.2202 11.1650
L2.1726 10.9745
" />
<path d="M2.1726 10.9745
L2.1726 10.8316
" />
<path d="M2.1726 10.8316
L2.2202 10.6412
" />
<path d="M2.2202 10.6412
L2.2679 10.5459
" />
<path d="M2.2679 10.5459
L2.3631 10.4507
" />
<path d="M2.3631 10.4507
L2.5060 10.4031
" />
<path d="M2.5060 10.4031
L2.6012 10.4031
" />
<path d="M2.6012 10.4031
L2.7440 10.4507
" />
<path d="M2.7440 10.4507
L2.7917 10.4983
" />
<path d="M3.2202 11.0221
L3.9821 11.0221
" />
<path d="M4.4107 11.3554
L4.5536 11.4031
" />
<path d="M4.5536 11.4031
L4.7917 11.4031
" />
<path d="M4.7917 11.4031
L4.8869 11.3554
" />
<path d="M4.8869 11.3554
L4.9345 11.3078
" />
<path d="M4.9345 11.3078
L4.9821 11.2126
" />
<path d="M4.9821 11.2126
L4.9821 11.1174
" />
<path d="M4.9821 11.1174
L4.9345 11.0221
" />
<path d="M4.9345 11.0221
L4.8869 10.9745
" />
<path d="M4.8869 10.9745
L4.7917 10.9269
" />
<path d="M4.7917 10.9269
L4.6012 10.8793
" />
<path d="M4.6012 10.8793
L4.5060 10.8316
" />
<path d="M4.5060 10.8316
L4.4583 10.7840
" />
<path d="M4.4583 10.7840
L4.4107 10.6888
" />
<path d="M4.4107 10.6888
L4.4107 10.5935
" />
<path d="M4.4107 10.5935
L4.4583 10.4983
" />
<path d="M4.4583 10.4983
L4.5060 10.4507
" />
<path d="M4.5060 10.4507
L4.6012 10.4031
" />
<path d="M4.6012 10.4031
L4.8393 10.4031
" />
<path d="M4.8393 10.4031
L4.9821 10.4507
" />
<path d="M5.4107 11.4031
L5.4107 10.4031
" />
<path d="M5.4107 10.4031
L5.7440 11.1174
" />
<path d="M5.7440 11.1174
L6.0774 10.4031
" />
<path d="M6.0774 10.4031
L6.0774 11.4031
" />
<path d="M6.5536 11.4031
L6.5536 10.4031
" />
<path d="M6.5536 10.4031
L6.7917 10.4031
" />
<path d="M6.7917 10.4031
L6.9345 10.4507
" />
<path d="M6.9345 10.4507
L7.0298 10.5459
" />
<path d="M7.0298 10.5459
L7.0774 10.6412
" />
<path d="M7.0774 10.6412
L7.1250 10.8316
" />
<path d="M7.1250 10.8316
L7.1250 10.9745
" />
<path d="M7.1250 10.9745
L7.0774 11.1650
" />
<path d="M7.0774 11.1650
L7.0298 11.2602
" />
<path d="M7.0298 11.2602
L6.9345 11.3554
" />
<path d="M6.9345 11.3554
L6.7917 11.4031
" />
<path d="M6.7917 11.4031
L6.5536 11.4031
" />
<path d="M7.3155 11.4983
L8.0774 11.4983
" />
<path d="M8.8393 11.4031
L8.2679 11.4031
" />
<path d="M8.5536 11.4031
L8.5536 10.4031
" />
<path d="M8.5536 10.4031
L8.4583 10.5459
" />
<path d="M8.4583 10.5459
L8.3631 10.6412
" />
<path d="M8.3631 10.6412
L8.2679 10.6888
" />
<path d="M9.6964 10.4031
L9.5060 10.4031
" />
<path d="M9.5060 10.4031
L9.4107 10.4507
" />
<path d="M9.4107 10.4507
L9.3631 10.4983
" />
<path d="M9.3631 10.4983
L9.2679 10.6412
" />
<path d="M9.2679 10.6412
L9.2202 10.8316
" />
<path d="M9.2202 10.8316
L9.2202 11.2126
" />
<path d="M9.2202 11.2126
L9.2679 11.3078
" />
<path d="M9.2679 11.3078
L9.3155 11.3554
" />
<path d="M9.3155 11.3554
L9.4107 11.4031
" />
<path d="M9.4107 11.4031
L9.6012 11.4031
" />
<path d="M9.6012 11.4031
L9.6964 11.3554
" />
<path d="M9.6964 11.3554
L9.7440 11.3078
" />
<path d="M9.7440 11.3078
L9.7917 11.2126
" />
<path d="M9.7917 11.2126
L9.7917 10.9745
" />
<path d="M9.7917 10.9745
L9.7440 10.8793
" />
<path d="M9.7440 10.8793
L9.6964 10.8316
" />
<path d="M9.6964 10.8316
L9.6012 10.7840
" />
<path d="M9.6012 10.7840
L9.4107 10.7840
" />
<path d="M9.4107 10.7840
L9.3155 10.8316
" />
<path d="M9.3155 10.8316
L9.2679 10.8793
" />
<path d="M9.2679 10.8793
L9.2202 10.9745
" />
<path d="M10.2202 11.4031
L10.2202 10.4031
" />
<path d="M10.2202 10.4031
L10.6012 10.4031
" />
<path d="M10.6012 10.4031
L10.6964 10.4507
" />
<path d="M10.6964 10.4507
L10.7440 10.4983
" />
<path d="M10.7440 10.4983
L10.7917 10.5935
" />
<path d="M10.7917 10.5935
L10.7917 10.7364
" />
<path d="M10.7917 10.7364
L10.7440 10.8316
" />
<path d="M10.7440 10.8316
L10.6964 10.8793
" />
<path d="M10.6964 10.8793
L10.6012 10.9269
" />
<path d="M10.6012 10.9269
L10.2202 10.9269
" />
<path d="M11.2202 11.0221
L11.9821 11.0221
" />
<path d="M12.4583 11.4031
L12.4583 10.4031
" />
<path d="M12.4583 10.4031
L12.8393 10.4031
" />
<path d="M12.8393 10.4031
L12.9345 10.4507
" />
<path d="M12.9345 10.4507
L12.9821 10.4983
" />
<path d="M12.9821 10.4983
L13.0298 10.5935
" />
<path d="M13.0298 10.5935
L13.0298 10.7364
" />
<path d="M13.0298 10.7364
L12.9821 10.8316
" />
<path d="M12.9821 10.8316
L12.9345 10.8793
" />
<path d="M12.9345 10.8793
L12.8393 10.9269
" />
<path d="M12.8393 10.9269
L12.4583 10.9269
" />
<path d="M13.9821 11.4031
L13.4107 11.4031
" />
<path d="M13.6964 11.4031
L13.6964 10.4031
" />
<path d="M13.6964 10.4031
L13.6012 10.5459
" />
<path d="M13.6012 10.5459
L13.5060 10.6412
" />
<path d="M13.5060 10.6412
L13.4107 10.6888
" />
<path d="M14.4107 11.3078
L14.4583 11.3554
" />
<path d="M14.4583 11.3554
L14.4107 11.4031
" />
<path d="M14.4107 11.4031
L14.3631 11.3554
" />
<path d="M14.3631 11.3554
L14.4107 11.3078
" />
<path d="M14.4107 11.3078
L14.4107 11.4031
" />
<path d="M15.0774 10.4031
L15.1726 10.4031
" />
<path d="M15.1726 10.4031
L15.2679 10.4507
" />
<path d="M15.2679 10.4507
L15.3155 10.4983
" />
<path d="M15.3155 10.4983
L15.3631 10.5935
" />
<path d="M15.3631 10.5935
L15.4107 10.7840
" />
<path d="M15.4107 10.7840
L15.4107 11.0221
" />
<path d="M15.4107 11.0221
L15.3631 11.2126
" />
<path d="M15.3631 11.2126
L15.3155 11.3078
" />
<path d="M15.3155 11.3078
L15.2679 11.3554
" />
<path d="M15.2679 11.3554
L15.1726 11.4031
" />
<path d="M15.1726 11.4031
L15.0774 11.4031
" />
<path d="M15.0774 11.4031
L14.9821 11.3554
" />
<path d="M14.9821 11.3554
L14.9345 11.3078
" />
<path d="M14.9345 11.3078
L14.8869 11.2126
" />
<path d="M14.8869 11.2126
L14.8393 11.0221
" />
<path d="M14.8393 11.0221
L14.8393 10.7840
" />
<path d="M14.8393 10.7840
L14.8869 10.5935
" />
<path d="M14.8869 10.5935
L14.9345 10.4983
" />
<path d="M14.9345 10.4983
L14.9821 10.4507
" />
<path d="M14.9821 10.4507
L15.0774 10.4031
" />
<path d="M16.0298 10.4031
L16.1250 10.4031
" />
<path d="M16.1250 10.4031
L16.2202 10.4507
" />
<path d="M16.2202 10.4507
L16.2679 10.4983
" />
<path d="M16.2679 10.4983
L16.3155 10.5935
" />
<path d="M16.3155 10.5935
L16.3631 10.7840
" />
<path d="M16.3631 10.7840
L16.3631 11.0221
" />
<path d="M16.3631 11.0221
L16.3155 11.2126
" />
<path d="M16.3155 11.2126
L16.2679 11.3078
" />
<path d="M16.2679 11.3078
L16.2202 11.3554
" />
<path d="M16.2202 11.3554
L16.1250 11.4031
" />
<path d="M16.1250 11.4031
L16.0298 11.4031
" />
<path d="M16.0298 11.4031
L15.9345 11.3554
" />
<path d="M15.9345 11.3554
L15.8869 11.3078
" />
<path d="M15.8869 11.3078
L15.8393 11.2126
" />
<path d="M15.8393 11.2126
L15.7917 11.0221
" />
<path d="M15.7917 11.0221
L15.7917 10.7840
" />
<path d="M15.7917 10.7840
L15.8393 10.5935
" />
<path d="M15.8393 10.5935
L15.8869 10.4983
" />
<path d="M15.8869 10.4983
L15.9345 10.4507
" />
<path d="M15.9345 10.4507
L16.0298 10.4031
" />
<path d="M16.5536 11.4983
L17.3155 11.4983
" />
<path d="M18.1250 11.3078
L18.0774 11.3554
" />
<path d="M18.0774 11.3554
L17.9345 11.4031
" />
<path d="M17.9345 11.4031
L17.8393 11.4031
" />
<path d="M17.8393 11.4031
L17.6964 11.3554
" />
<path d="M17.6964 11.3554
L17.6012 11.2602
" />
<path d="M17.6012 11.2602
L17.5536 11.1650
" />
<path d="M17.5536 11.1650
L17.5060 10.9745
" />
<path d="M17.5060 10.9745
L17.5060 10.8316
" />
<path d="M17.5060 10.8316
L17.5536 10.6412
" />
<path d="M17.5536 10.6412
L17.6012 10.5459
" />
<path d="M17.6012 10.5459
L17.6964 10.4507
" />
<path d="M17.6964 10.4507
L17.8393 10.4031
" />
<path d="M17.8393 10.4031
L17.9345 10.4031
" />
<path d="M17.9345 10.4031
L18.0774 10.4507
" />
<path d="M18.0774 10.4507
L18.1250 10.4983
" />
<path d="M18.4107 10.4031
L18.9821 10.4031
" />
<path d="M18.6964 11.4031
L18.6964 10.4031
" />
<path d="M19.8393 11.4031
L19.2679 11.4031
" />
<path d="M19.5536 11.4031
L19.5536 10.4031
" />
<path d="M19.5536 10.4031
L19.4583 10.5459
" />
<path d="M19.4583 10.5459
L19.3631 10.6412
" />
<path d="M19.3631 10.6412
L19.2679 10.6888
" />
<path d="M20.4583 10.4031
L20.5536 10.4031
" />
<path d="M20.5536 10.4031
L20.6488 10.4507
" />
<path d="M20.6488 10.4507
L20.6964 10.4983
" />
<path d="M20.6964 10.4983
L20.7440 10.5935
" />
<path d="M20.7440 10.5935
L20.7917 10.7840
" />
<path d="M20.7917 10.7840
L20.7917 11.0221
" />
<path d="M20.7917 11.0221
L20.7440 11.2126
" />
<path d="M20.7440 11.2126
L20.6964 11.3078
" />
<path d="M20.6964 11.3078
L20.6488 11.3554
" />
<path d="M20.6488 11.3554
L20.5536 11.4031
" />
<path d="M20.5536 11.4031
L20.4583 11.4031
" />
<path d="M20.4583 11.4031
L20.3631 11.3554
" />
<path d="M20.3631 11.3554
L20.3155 11.3078
" />
<path d="M20.3155 11.3078
L20.2679 11.2126
" />
<path d="M20.2679 11.2126
L20.2202 11.0221
" />
<path d="M20.2202 11.0221
L20.2202 10.7840
" />
<path d="M20.2202 10.7840
L20.2679 10.5935
" />
<path d="M20.2679 10.5935
L20.3155 10.4983
" />
<path d="M20.3155 10.4983
L20.3631 10.4507
" />
<path d="M20.3631 10.4507
L20.4583 10.4031
" />
<path d="M21.1726 10.4983
L21.2202 10.4507
" />
<path d="M21.2202 10.4507
L21.3155 10.4031
" />
<path d="M21.3155 10.4031
L21.5536 10.4031
" />
<path d="M21.5536 10.4031
L21.6488 10.4507
" />
<path d="M21.6488 10.4507
L21.6964 10.4983
" />
<path d="M21.6964 10.4983
L21.7440 10.5935
" />
<path d="M21.7440 10.5935
L21.7440 10.6888
" />
<path d="M21.7440 10.6888
L21.6964 10.8316
" />
<path d="M21.6964 10.8316
L21.1250 11.4031
" />
<path d="M21.1250 11.4031
L21.7440 11.4031
" />
<path d="M22.6488 10.4031
L22.1726 10.4031
" />
<path d="M22.1726 10.4031
L22.1250 10.8793
" />
<path d="M22.1250 10.8793
L22.1726 10.8316
" />
<path d="M22.1726 10.8316
L22.2679 10.7840
" />
<path d="M22.2679 10.7840
L22.5060 10.7840
" />
<path d="M22.5060 10.7840
L22.6012 10.8316
" />
<path d="M22.6012 10.8316
L22.6488 10.8793
" />
<path d="M22.6488 10.8793
L22.6964 10.9745
" />
<path d="M22.6964 10.9745
L22.6964 11.2126
" />
<path d="M22.6964 11.2126
L22.6488 11.3078
" />
<path d="M22.6488 11.3078
L22.6012 11.3554
" />
<path d="M22.6012 11.3554
L22.5060 11.4031
" />
<path d="M22.5060 11.4031
L22.2679 11.4031
" />
<path d="M22.2679 11.4031
L22.1726 11.3554
" />
<path d="M22.1726 11.3554
L22.1250 11.3078
" />
<path d="M23.0774 10.4983
L23.1250 10.4507
" />
<path d="M23.1250 10.4507
L23.2202 10.4031
" />
<path d="M23.2202 10.4031
L23.4583 10.4031
" />
<path d="M23.4583 10.4031
L23.5536 10.4507
" />
<path d="M23.5536 10.4507
L23.6012 10.4983
" />
<path d="M23.6012 10.4983
L23.6488 10.5935
" />
<path d="M23.6488 10.5935
L23.6488 10.6888
" />
<path d="M23.6488 10.6888
L23.6012 10.8316
" />
<path d="M23.6012 10.8316
L23.0298 11.4031
" />
<path d="M23.0298 11.4031
L23.6488 11.4031
" />
<path d="M24.0774 11.0221
L24.8393 11.0221
" />
<path d="M25.8393 11.4031
L25.2679 11.4031
" />
<path d="M25.5536 11.4031
L25.5536 10.4031
" />
<path d="M25.5536 10.4031
L25.4583 10.5459
" />
<path d="M25.4583 10.5459
L25.3631 10.6412
" />
<path d="M25.3631 10.6412
L25.2679 10.6888
" />
<path d="M26.6964 10.4031
L26.5060 10.4031
" />
<path d="M26.5060 10.4031
L26.4107 10.4507
" />
<path d="M26.4107 10.4507
L26.3631 10.4983
" />
<path d="M26.3631 10.4983
L26.2679 10.6412
" />
<path d="M26.2679 10.6412
L26.2202 10.8316
" />
<path d="M26.2202 10.8316
L26.2202 11.2126
" />
<path d="M26.2202 11.2126
L26.2679 11.3078
" />
<path d="M26.2679 11.3078
L26.3155 11.3554
" />
<path d="M26.3155 11.3554
L26.4107 11.4031
" />
<path d="M26.4107 11.4031
L26.6012 11.4031
" />
<path d="M26.6012 11.4031
L26.6964 11.3554
" />
<path d="M26.6964 11.3554
L26.7440 11.3078
" />
<path d="M26.7440 11.3078
L26.7917 11.2126
" />
<path d="M26.7917 11.2126
L26.7917 10.9745
" />
<path d="M26.7917 10.9745
L26.7440 10.8793
" />
<path d="M26.7440 10.8793
L26.6964 10.8316
" />
<path d="M26.6964 10.8316
L26.6012 10.7840
" />
<path d="M26.6012 10.7840
L26.4107 10.7840
" />
<path d="M26.4107 10.7840
L26.3155 10.8316
" />
<path d="M26.3155 10.8316
L26.2679 10.8793
" />
<path d="M26.2679 10.8793
L26.2202 10.9745
" />
<path d="M27.7917 11.4031
L27.4583 10.9269
" />
<path d="M27.2202 11.4031
L27.2202 10.4031
" />
<path d="M27.2202 10.4031
L27.6012 10.4031
" />
<path d="M27.6012 10.4031
L27.6964 10.4507
" />
<path d="M27.6964 10.4507
L27.7440 10.4983
" />
<path d="M27.7440 10.4983
L27.7917 10.5935
" />
<path d="M27.7917 10.5935
L27.7917 10.7364
" />
<path d="M27.7917 10.7364
L27.7440 10.8316
" />
<path d="M27.7440 10.8316
L27.6964 10.8793
" />
<path d="M27.6964 10.8793
L27.6012 10.9269
" />
<path d="M27.6012 10.9269
L27.2202 10.9269
" />
<path d="M28.2202 11.0221
L28.9821 11.0221
" />
<path d="M29.6488 10.4031
L29.7440 10.4031
" />
<path d="M29.7440 10.4031
L29.8393 10.4507
" />
<path d="M29.8393 10.4507
L29.8869 10.4983
" />
<path d="M29.8869 10.4983
L29.9345 10.5935
" />
<path d="M29.9345 10.5935
L29.9821 10.7840
" />
<path d="M29.9821 10.7840
L29.9821 11.0221
" />
<path d="M29.9821 11.0221
L29.9345 11.2126
" />
<path d="M29.9345 11.2126
L29.8869 11.3078
" />
<path d="M29.8869 11.3078
L29.8393 11.3554
" />
<path d="M29.8393 11.3554
L29.7440 11.4031
" />
<path d="M29.7440 11.4031
L29.6488 11.4031
" />
<path d="M29.6488 11.4031
L29.5536 11.3554
" />
<path d="M29.5536 11.3554
L29.5060 11.3078
" />
<path d="M29.5060 11.3078
L29.4583 11.2126
" />
<path d="M29.4583 11.2126
L29.4107 11.0221
" />
<path d="M29.4107 11.0221
L29.4107 10.7840
" />
<path d="M29.4107 10.7840
L29.4583 10.5935
" />
<path d="M29.4583 10.5935
L29.5060 10.4983
" />
<path d="M29.5060 10.4983
L29.5536 10.4507
" />
<path d="M29.5536 10.4507
L29.6488 10.4031
" />
<path d="M30.6012 10.4031
L30.6964 10.4031
" />
<path d="M30.6964 10.4031
L30.7917 10.4507
" />
<path d="M30.7917 10.4507
L30.8393 10.4983
" />
<path d="M30.8393 10.4983
L30.8869 10.5935
" />
<path d="M30.8869 10.5935
L30.9345 10.7840
" />
<path d="M30.9345 10.7840
L30.9345 11.0221
" />
<path d="M30.9345 11.0221
L30.8869 11.2126
" />
<path d="M30.8869 11.2126
L30.8393 11.3078
" />
<path d="M30.8393 11.3078
L30.7917 11.3554
" />
<path d="M30.7917 11.3554
L30.6964 11.4031
" />
<path d="M30.6964 11.4031
L30.6012 11.4031
" />
<path d="M30.6012 11.4031
L30.5060 11.3554
" />
<path d="M30.5060 11.3554
L30.4583 11.3078
" />
<path d="M30.4583 11.3078
L30.4107 11.2126
" />
<path d="M30.4107 11.2126
L30.3631 11.0221
" />
<path d="M30.3631 11.0221
L30.3631 10.7840
" />
<path d="M30.3631 10.7840
L30.4107 10.5935
" />
<path d="M30.4107 10.5935
L30.4583 10.4983
" />
<path d="M30.4583 10.4983
L30.5060 10.4507
" />
<path d="M30.5060 10.4507
L30.6012 10.4031
" />
<path d="M31.3631 11.0221
L32.1250 11.0221
" />
<path d="M32.6012 11.4031
L32.6012 10.4031
" />
<path d="M32.6012 10.4031
L32.8393 10.4031
" />
<path d="M32.8393 10.4031
L32.9821 10.4507
" />
<path d="M32.9821 10.4507
L33.0774 10.5459
" />
<path d="M33.0774 10.5459
L33.1250 10.6412
" />
<path d="M33.1250 10.6412
L33.1726 10.8316
" />
<path d="M33.1726 10.8316
L33.1726 10.9745
" />
<path d="M33.1726 10.9745
L33.1250 11.1650
" />
<path d="M33.1250 11.1650
L33.0774 11.2602
" />
<path d="M33.0774 11.2602
L32.9821 11.3554
" />
<path d="M32.9821 11.3554
L32.8393 11.4031
" />
<path d="M32.8393 11.4031
L32.6012 11.4031
" />
</g><text x="16.7440" y="6.3982"
textLength="4.5357" font-size="1.3333" lengthAdjust="spacingAndGlyphs"
text-anchor="middle" opacity="0" stroke-opacity="0">REF**</text>
<g class="stroked-text"><desc>REF**</desc>
<path d="M15.4107 6.3531
L15.0774 5.8769
" />
<path d="M14.8393 6.3531
L14.8393 5.3531
" />
<path d="M14.8393 5.3531
L15.2202 5.3531
" />
<path d="M15.2202 5.3531
L15.3155 5.4007
" />
<path d="M15.3155 5.4007
L15.3631 5.4483
" />
<path d="M15.3631 5.4483
L15.4107 5.5435
" />
<path d="M15.4107 5.5435
L15.4107 5.6864
" />
<path d="M15.4107 5.6864
L15.3631 5.7816
" />
<path d="M15.3631 5.7816
L15.3155 5.8293
" />
<path d="M15.3155 5.8293
L15.2202 5.8769
" />
<path d="M15.2202 5.8769
L14.8393 5.8769
" />
<path d="M15.8393 5.8293
L16.1726 5.8293
" />
<path d="M16.3155 6.3531
L15.8393 6.3531
" />
<path d="M15.8393 6.3531
L15.8393 5.3531
" />
<path d="M15.8393 5.3531
L16.3155 5.3531
" />
<path d="M17.0774 5.8293
L16.7440 5.8293
" />
<path d="M16.7440 6.3531
L16.7440 5.3531
" />
<path d="M16.7440 5.3531
L17.2202 5.3531
" />
<path d="M17.7440 5.3531
L17.7440 5.5912
" />
<path d="M17.5060 5.4959
L17.7440 5.5912
" />
<path d="M17.7440 5.5912
L17.9821 5.4959
" />
<path d="M17.6012 5.7816
L17.7440 5.5912
" />
<path d="M17.7440 5.5912
L17.8869 5.7816
" />
<path d="M18.5060 5.3531
L18.5060 5.5912
" />
<path d="M18.2679 5.4959
L18.5060 5.5912
" />
<path d="M18.5060 5.5912
L18.7440 5.4959
" />
<path d="M18.3631 5.7816
L18.5060 5.5912
" />
<path d="M18.5060 5.5912
L18.6488 5.7816
" />
</g></g> 
</svg>
