<?xml version="1.0" standalone="no"?>
 <!DOCTYPE svg PUBLIC "-//W3C//DTD SVG 1.1//EN" 
 "http://www.w3.org/Graphics/SVG/1.1/DTD/svg11.dtd"> 
<svg
  xmlns:svg="http://www.w3.org/2000/svg"
  xmlns="http://www.w3.org/2000/svg"
  xmlns:xlink="http://www.w3.org/1999/xlink"
  version="1.1"
  width="27.0764mm" height="17.7038mm" viewBox="0.0000 0.0000 27.0764 17.7038">
<title>SVG Image created as jl126-50002g01.svg date 2024/09/29 11:27:27 </title>
  <desc>Image generated by Eeschema-SVG </desc>
<g style="fill:#000000; fill-opacity:1.0000;stroke:#000000; stroke-opacity:1.0000;
stroke-linecap:round; stroke-linejoin:round;"
 transform="translate(0 0) scale(1 1)">
</g>
<g style="fill:#FFFFC2; fill-opacity:1.0000; stroke:none;">
<rect x="13.701700" y="5.041900" width="5.080000" height="7.620000" rx="0.000000" />
</g>
<g style="fill:none; 
stroke:#840000; stroke-width:0.1524; stroke-opacity:1; 
stroke-linecap:round; stroke-linejoin:round;">
<rect x="13.701700" y="5.041900" width="5.080000" height="7.620000" rx="0.000000" />
<circle cx="14.9717" cy="6.3119" r="0.3800" /> 
<path d="M13.7017 7.5819
L11.1617 7.5819
" />
</g>
<g style="fill:none; 
stroke:#006464; stroke-width:0.1524; stroke-opacity:1; 
stroke-linecap:round; stroke-linejoin:round;">
<text x="14.2097" y="8.2169"
textLength="1.4127" font-size="1.6933" lengthAdjust="spacingAndGlyphs"
text-anchor="start" opacity="0" stroke-opacity="0">1</text>
<g class="stroked-text"><desc>1</desc>
<path d="M15.2775 8.1614
L14.5518 8.1614
" />
<path d="M14.9146 8.1614
L14.9146 6.8914
" />
<path d="M14.9146 6.8914
L14.7937 7.0729
" />
<path d="M14.7937 7.0729
L14.6727 7.1938
" />
<path d="M14.6727 7.1938
L14.5518 7.2543
" />
</g></g>
<g style="fill:none; 
stroke:#A90000; stroke-width:0.1524; stroke-opacity:1; 
stroke-linecap:round; stroke-linejoin:round;">
<text x="12.4317" y="7.3279"
textLength="1.4127" font-size="1.6933" lengthAdjust="spacingAndGlyphs"
text-anchor="middle" opacity="0" stroke-opacity="0">1</text>
<g class="stroked-text"><desc>1</desc>
<path d="M12.7946 7.1644
L12.0689 7.1644
" />
<path d="M12.4317 7.1644
L12.4317 5.8944
" />
<path d="M12.4317 5.8944
L12.3108 6.0759
" />
<path d="M12.3108 6.0759
L12.1898 6.1968
" />
<path d="M12.1898 6.1968
L12.0689 6.2573
" />
</g></g>
<g style="fill:none; 
stroke:#840000; stroke-width:0.1524; stroke-opacity:1; 
stroke-linecap:round; stroke-linejoin:round;">
<path d="M13.7017 10.1219
L11.1617 10.1219
" />
</g>
<g style="fill:none; 
stroke:#006464; stroke-width:0.1524; stroke-opacity:1; 
stroke-linecap:round; stroke-linejoin:round;">
<text x="14.2097" y="10.7569"
textLength="1.4127" font-size="1.6933" lengthAdjust="spacingAndGlyphs"
text-anchor="start" opacity="0" stroke-opacity="0">2</text>
<g class="stroked-text"><desc>2</desc>
<path d="M14.5518 9.5524
L14.6122 9.4919
" />
<path d="M14.6122 9.4919
L14.7332 9.4314
" />
<path d="M14.7332 9.4314
L15.0356 9.4314
" />
<path d="M15.0356 9.4314
L15.1565 9.4919
" />
<path d="M15.1565 9.4919
L15.2170 9.5524
" />
<path d="M15.2170 9.5524
L15.2775 9.6733
" />
<path d="M15.2775 9.6733
L15.2775 9.7943
" />
<path d="M15.2775 9.7943
L15.2170 9.9757
" />
<path d="M15.2170 9.9757
L14.4913 10.7014
" />
<path d="M14.4913 10.7014
L15.2775 10.7014
" />
</g></g>
<g style="fill:none; 
stroke:#A90000; stroke-width:0.1524; stroke-opacity:1; 
stroke-linecap:round; stroke-linejoin:round;">
<text x="12.4317" y="9.8679"
textLength="1.4127" font-size="1.6933" lengthAdjust="spacingAndGlyphs"
text-anchor="middle" opacity="0" stroke-opacity="0">2</text>
<g class="stroked-text"><desc>2</desc>
<path d="M12.0689 8.5554
L12.1293 8.4949
" />
<path d="M12.1293 8.4949
L12.2503 8.4344
" />
<path d="M12.2503 8.4344
L12.5527 8.4344
" />
<path d="M12.5527 8.4344
L12.6736 8.4949
" />
<path d="M12.6736 8.4949
L12.7341 8.5554
" />
<path d="M12.7341 8.5554
L12.7946 8.6763
" />
<path d="M12.7946 8.6763
L12.7946 8.7973
" />
<path d="M12.7946 8.7973
L12.7341 8.9787
" />
<path d="M12.7341 8.9787
L12.0084 9.7044
" />
<path d="M12.0084 9.7044
L12.7946 9.7044
" />
</g></g>
<g style="fill:none; 
stroke:#006464; stroke-width:0.1588; stroke-opacity:1; 
stroke-linecap:round; stroke-linejoin:round;">
<text x="16.2417" y="3.1370"
textLength="3.9115" font-size="1.6933" lengthAdjust="spacingAndGlyphs"
text-anchor="middle" opacity="0" stroke-opacity="0">CN?</text>
<g class="stroked-text"><desc>CN?</desc>
<path d="M15.4252 2.9603
L15.3648 3.0208
" />
<path d="M15.3648 3.0208
L15.1833 3.0812
" />
<path d="M15.1833 3.0812
L15.0624 3.0812
" />
<path d="M15.0624 3.0812
L14.8810 3.0208
" />
<path d="M14.8810 3.0208
L14.7600 2.8998
" />
<path d="M14.7600 2.8998
L14.6995 2.7788
" />
<path d="M14.6995 2.7788
L14.6391 2.5369
" />
<path d="M14.6391 2.5369
L14.6391 2.3555
" />
<path d="M14.6391 2.3555
L14.6995 2.1136
" />
<path d="M14.6995 2.1136
L14.7600 1.9927
" />
<path d="M14.7600 1.9927
L14.8810 1.8717
" />
<path d="M14.8810 1.8717
L15.0624 1.8112
" />
<path d="M15.0624 1.8112
L15.1833 1.8112
" />
<path d="M15.1833 1.8112
L15.3648 1.8717
" />
<path d="M15.3648 1.8717
L15.4252 1.9322
" />
<path d="M15.9695 3.0812
L15.9695 1.8112
" />
<path d="M15.9695 1.8112
L16.6952 3.0812
" />
<path d="M16.6952 3.0812
L16.6952 1.8112
" />
<path d="M17.4815 2.9603
L17.5419 3.0208
" />
<path d="M17.5419 3.0208
L17.4815 3.0812
" />
<path d="M17.4815 3.0812
L17.4210 3.0208
" />
<path d="M17.4210 3.0208
L17.4815 2.9603
" />
<path d="M17.4815 2.9603
L17.4815 3.0812
" />
<path d="M17.2396 1.8717
L17.3605 1.8112
" />
<path d="M17.3605 1.8112
L17.6629 1.8112
" />
<path d="M17.6629 1.8112
L17.7838 1.8717
" />
<path d="M17.7838 1.8717
L17.8443 1.9927
" />
<path d="M17.8443 1.9927
L17.8443 2.1136
" />
<path d="M17.8443 2.1136
L17.7838 2.2346
" />
<path d="M17.7838 2.2346
L17.7234 2.2950
" />
<path d="M17.7234 2.2950
L17.6024 2.3555
" />
<path d="M17.6024 2.3555
L17.5419 2.4160
" />
<path d="M17.5419 2.4160
L17.4815 2.5369
" />
<path d="M17.4815 2.5369
L17.4815 2.5974
" />
</g><text x="16.2417" y="15.8370"
textLength="17.1555" font-size="1.6933" lengthAdjust="spacingAndGlyphs"
text-anchor="middle" opacity="0" stroke-opacity="0">JL126-50002G01</text>
<g class="stroked-text"><desc>JL126-50002G01</desc>
<path d="M8.4404 14.5112
L8.4404 15.4184
" />
<path d="M8.4404 15.4184
L8.3799 15.5998
" />
<path d="M8.3799 15.5998
L8.2590 15.7208
" />
<path d="M8.2590 15.7208
L8.0775 15.7812
" />
<path d="M8.0775 15.7812
L7.9566 15.7812
" />
<path d="M9.6499 15.7812
L9.0451 15.7812
" />
<path d="M9.0451 15.7812
L9.0451 14.5112
" />
<path d="M10.7385 15.7812
L10.0128 15.7812
" />
<path d="M10.3756 15.7812
L10.3756 14.5112
" />
<path d="M10.3756 14.5112
L10.2547 14.6927
" />
<path d="M10.2547 14.6927
L10.1337 14.8136
" />
<path d="M10.1337 14.8136
L10.0128 14.8741
" />
<path d="M11.2223 14.6322
L11.2827 14.5717
" />
<path d="M11.2827 14.5717
L11.4037 14.5112
" />
<path d="M11.4037 14.5112
L11.7061 14.5112
" />
<path d="M11.7061 14.5112
L11.8270 14.5717
" />
<path d="M11.8270 14.5717
L11.8875 14.6322
" />
<path d="M11.8875 14.6322
L11.9480 14.7531
" />
<path d="M11.9480 14.7531
L11.9480 14.8741
" />
<path d="M11.9480 14.8741
L11.8875 15.0555
" />
<path d="M11.8875 15.0555
L11.1618 15.7812
" />
<path d="M11.1618 15.7812
L11.9480 15.7812
" />
<path d="M13.0365 14.5112
L12.7946 14.5112
" />
<path d="M12.7946 14.5112
L12.6737 14.5717
" />
<path d="M12.6737 14.5717
L12.6132 14.6322
" />
<path d="M12.6132 14.6322
L12.4922 14.8136
" />
<path d="M12.4922 14.8136
L12.4318 15.0555
" />
<path d="M12.4318 15.0555
L12.4318 15.5393
" />
<path d="M12.4318 15.5393
L12.4922 15.6603
" />
<path d="M12.4922 15.6603
L12.5527 15.7208
" />
<path d="M12.5527 15.7208
L12.6737 15.7812
" />
<path d="M12.6737 15.7812
L12.9156 15.7812
" />
<path d="M12.9156 15.7812
L13.0365 15.7208
" />
<path d="M13.0365 15.7208
L13.0970 15.6603
" />
<path d="M13.0970 15.6603
L13.1575 15.5393
" />
<path d="M13.1575 15.5393
L13.1575 15.2369
" />
<path d="M13.1575 15.2369
L13.0970 15.1160
" />
<path d="M13.0970 15.1160
L13.0365 15.0555
" />
<path d="M13.0365 15.0555
L12.9156 14.9950
" />
<path d="M12.9156 14.9950
L12.6737 14.9950
" />
<path d="M12.6737 14.9950
L12.5527 15.0555
" />
<path d="M12.5527 15.0555
L12.4922 15.1160
" />
<path d="M12.4922 15.1160
L12.4318 15.2369
" />
<path d="M13.7017 15.2974
L14.6694 15.2974
" />
<path d="M15.8789 14.5112
L15.2741 14.5112
" />
<path d="M15.2741 14.5112
L15.2137 15.1160
" />
<path d="M15.2137 15.1160
L15.2741 15.0555
" />
<path d="M15.2741 15.0555
L15.3951 14.9950
" />
<path d="M15.3951 14.9950
L15.6975 14.9950
" />
<path d="M15.6975 14.9950
L15.8184 15.0555
" />
<path d="M15.8184 15.0555
L15.8789 15.1160
" />
<path d="M15.8789 15.1160
L15.9394 15.2369
" />
<path d="M15.9394 15.2369
L15.9394 15.5393
" />
<path d="M15.9394 15.5393
L15.8789 15.6603
" />
<path d="M15.8789 15.6603
L15.8184 15.7208
" />
<path d="M15.8184 15.7208
L15.6975 15.7812
" />
<path d="M15.6975 15.7812
L15.3951 15.7812
" />
<path d="M15.3951 15.7812
L15.2741 15.7208
" />
<path d="M15.2741 15.7208
L15.2137 15.6603
" />
<path d="M16.7255 14.5112
L16.8465 14.5112
" />
<path d="M16.8465 14.5112
L16.9674 14.5717
" />
<path d="M16.9674 14.5717
L17.0279 14.6322
" />
<path d="M17.0279 14.6322
L17.0884 14.7531
" />
<path d="M17.0884 14.7531
L17.1489 14.9950
" />
<path d="M17.1489 14.9950
L17.1489 15.2974
" />
<path d="M17.1489 15.2974
L17.0884 15.5393
" />
<path d="M17.0884 15.5393
L17.0279 15.6603
" />
<path d="M17.0279 15.6603
L16.9674 15.7208
" />
<path d="M16.9674 15.7208
L16.8465 15.7812
" />
<path d="M16.8465 15.7812
L16.7255 15.7812
" />
<path d="M16.7255 15.7812
L16.6046 15.7208
" />
<path d="M16.6046 15.7208
L16.5441 15.6603
" />
<path d="M16.5441 15.6603
L16.4836 15.5393
" />
<path d="M16.4836 15.5393
L16.4232 15.2974
" />
<path d="M16.4232 15.2974
L16.4232 14.9950
" />
<path d="M16.4232 14.9950
L16.4836 14.7531
" />
<path d="M16.4836 14.7531
L16.5441 14.6322
" />
<path d="M16.5441 14.6322
L16.6046 14.5717
" />
<path d="M16.6046 14.5717
L16.7255 14.5112
" />
<path d="M17.9350 14.5112
L18.0560 14.5112
" />
<path d="M18.0560 14.5112
L18.1769 14.5717
" />
<path d="M18.1769 14.5717
L18.2374 14.6322
" />
<path d="M18.2374 14.6322
L18.2979 14.7531
" />
<path d="M18.2979 14.7531
L18.3584 14.9950
" />
<path d="M18.3584 14.9950
L18.3584 15.2974
" />
<path d="M18.3584 15.2974
L18.2979 15.5393
" />
<path d="M18.2979 15.5393
L18.2374 15.6603
" />
<path d="M18.2374 15.6603
L18.1769 15.7208
" />
<path d="M18.1769 15.7208
L18.0560 15.7812
" />
<path d="M18.0560 15.7812
L17.9350 15.7812
" />
<path d="M17.9350 15.7812
L17.8141 15.7208
" />
<path d="M17.8141 15.7208
L17.7536 15.6603
" />
<path d="M17.7536 15.6603
L17.6931 15.5393
" />
<path d="M17.6931 15.5393
L17.6327 15.2974
" />
<path d="M17.6327 15.2974
L17.6327 14.9950
" />
<path d="M17.6327 14.9950
L17.6931 14.7531
" />
<path d="M17.6931 14.7531
L17.7536 14.6322
" />
<path d="M17.7536 14.6322
L17.8141 14.5717
" />
<path d="M17.8141 14.5717
L17.9350 14.5112
" />
<path d="M19.1445 14.5112
L19.2655 14.5112
" />
<path d="M19.2655 14.5112
L19.3864 14.5717
" />
<path d="M19.3864 14.5717
L19.4469 14.6322
" />
<path d="M19.4469 14.6322
L19.5074 14.7531
" />
<path d="M19.5074 14.7531
L19.5679 14.9950
" />
<path d="M19.5679 14.9950
L19.5679 15.2974
" />
<path d="M19.5679 15.2974
L19.5074 15.5393
" />
<path d="M19.5074 15.5393
L19.4469 15.6603
" />
<path d="M19.4469 15.6603
L19.3864 15.7208
" />
<path d="M19.3864 15.7208
L19.2655 15.7812
" />
<path d="M19.2655 15.7812
L19.1445 15.7812
" />
<path d="M19.1445 15.7812
L19.0236 15.7208
" />
<path d="M19.0236 15.7208
L18.9631 15.6603
" />
<path d="M18.9631 15.6603
L18.9026 15.5393
" />
<path d="M18.9026 15.5393
L18.8422 15.2974
" />
<path d="M18.8422 15.2974
L18.8422 14.9950
" />
<path d="M18.8422 14.9950
L18.9026 14.7531
" />
<path d="M18.9026 14.7531
L18.9631 14.6322
" />
<path d="M18.9631 14.6322
L19.0236 14.5717
" />
<path d="M19.0236 14.5717
L19.1445 14.5112
" />
<path d="M20.0517 14.6322
L20.1121 14.5717
" />
<path d="M20.1121 14.5717
L20.2331 14.5112
" />
<path d="M20.2331 14.5112
L20.5355 14.5112
" />
<path d="M20.5355 14.5112
L20.6564 14.5717
" />
<path d="M20.6564 14.5717
L20.7169 14.6322
" />
<path d="M20.7169 14.6322
L20.7774 14.7531
" />
<path d="M20.7774 14.7531
L20.7774 14.8741
" />
<path d="M20.7774 14.8741
L20.7169 15.0555
" />
<path d="M20.7169 15.0555
L19.9912 15.7812
" />
<path d="M19.9912 15.7812
L20.7774 15.7812
" />
<path d="M21.9869 14.5717
L21.8659 14.5112
" />
<path d="M21.8659 14.5112
L21.6845 14.5112
" />
<path d="M21.6845 14.5112
L21.5031 14.5717
" />
<path d="M21.5031 14.5717
L21.3821 14.6927
" />
<path d="M21.3821 14.6927
L21.3216 14.8136
" />
<path d="M21.3216 14.8136
L21.2612 15.0555
" />
<path d="M21.2612 15.0555
L21.2612 15.2369
" />
<path d="M21.2612 15.2369
L21.3216 15.4788
" />
<path d="M21.3216 15.4788
L21.3821 15.5998
" />
<path d="M21.3821 15.5998
L21.5031 15.7208
" />
<path d="M21.5031 15.7208
L21.6845 15.7812
" />
<path d="M21.6845 15.7812
L21.8054 15.7812
" />
<path d="M21.8054 15.7812
L21.9869 15.7208
" />
<path d="M21.9869 15.7208
L22.0473 15.6603
" />
<path d="M22.0473 15.6603
L22.0473 15.2369
" />
<path d="M22.0473 15.2369
L21.8054 15.2369
" />
<path d="M22.8335 14.5112
L22.9545 14.5112
" />
<path d="M22.9545 14.5112
L23.0754 14.5717
" />
<path d="M23.0754 14.5717
L23.1359 14.6322
" />
<path d="M23.1359 14.6322
L23.1964 14.7531
" />
<path d="M23.1964 14.7531
L23.2569 14.9950
" />
<path d="M23.2569 14.9950
L23.2569 15.2974
" />
<path d="M23.2569 15.2974
L23.1964 15.5393
" />
<path d="M23.1964 15.5393
L23.1359 15.6603
" />
<path d="M23.1359 15.6603
L23.0754 15.7208
" />
<path d="M23.0754 15.7208
L22.9545 15.7812
" />
<path d="M22.9545 15.7812
L22.8335 15.7812
" />
<path d="M22.8335 15.7812
L22.7126 15.7208
" />
<path d="M22.7126 15.7208
L22.6521 15.6603
" />
<path d="M22.6521 15.6603
L22.5916 15.5393
" />
<path d="M22.5916 15.5393
L22.5312 15.2974
" />
<path d="M22.5312 15.2974
L22.5312 14.9950
" />
<path d="M22.5312 14.9950
L22.5916 14.7531
" />
<path d="M22.5916 14.7531
L22.6521 14.6322
" />
<path d="M22.6521 14.6322
L22.7126 14.5717
" />
<path d="M22.7126 14.5717
L22.8335 14.5112
" />
<path d="M24.4664 15.7812
L23.7407 15.7812
" />
<path d="M24.1035 15.7812
L24.1035 14.5112
" />
<path d="M24.1035 14.5112
L23.9826 14.6927
" />
<path d="M23.9826 14.6927
L23.8616 14.8136
" />
<path d="M23.8616 14.8136
L23.7407 14.8741
" />
</g></g> 
</svg>
