<?xml version="1.0" standalone="no"?>
 <!DOCTYPE svg PUBLIC "-//W3C//DTD SVG 1.1//EN" 
 "http://www.w3.org/Graphics/SVG/1.1/DTD/svg11.dtd"> 
<svg
  xmlns:svg="http://www.w3.org/2000/svg"
  xmlns="http://www.w3.org/2000/svg"
  xmlns:xlink="http://www.w3.org/1999/xlink"
  version="1.1"
  width="27.1018mm" height="23.7998mm" viewBox="0.0000 0.0000 27.1018 23.7998">
<title>SVG Image created as jl301-50004u01.svg date 2024/09/23 17:20:53 </title>
  <desc>Image generated by Eeschema-SVG </desc>
<g style="fill:#000000; fill-opacity:1.0000;stroke:#000000; stroke-opacity:1.0000;
stroke-linecap:round; stroke-linejoin:round;"
 transform="translate(0 0) scale(1 1)">
</g>
<g style="fill:#FFFFC2; fill-opacity:1.0000; stroke:none;">
<rect x="13.699300" y="5.549900" width="5.080000" height="12.700000" rx="0.000000" />
</g>
<g style="fill:none; 
stroke:#840000; stroke-width:0.1524; stroke-opacity:1; 
stroke-linecap:round; stroke-linejoin:round;">
<rect x="13.699300" y="5.549900" width="5.080000" height="12.700000" rx="0.000000" />
<circle cx="14.9693" cy="6.8199" r="0.3800" /> 
<path d="M13.6993 8.0899
L11.1593 8.0899
" />
</g>
<g style="fill:none; 
stroke:#006464; stroke-width:0.1524; stroke-opacity:1; 
stroke-linecap:round; stroke-linejoin:round;">
<text x="14.2073" y="8.7249"
textLength="1.4127" font-size="1.6933" lengthAdjust="spacingAndGlyphs"
text-anchor="start" opacity="0" stroke-opacity="0">1</text>
<g class="stroked-text"><desc>1</desc>
<path d="M15.2751 8.6694
L14.5494 8.6694
" />
<path d="M14.9122 8.6694
L14.9122 7.3994
" />
<path d="M14.9122 7.3994
L14.7913 7.5809
" />
<path d="M14.7913 7.5809
L14.6703 7.7018
" />
<path d="M14.6703 7.7018
L14.5494 7.7623
" />
</g></g>
<g style="fill:none; 
stroke:#A90000; stroke-width:0.1524; stroke-opacity:1; 
stroke-linecap:round; stroke-linejoin:round;">
<text x="12.4293" y="7.8359"
textLength="1.4127" font-size="1.6933" lengthAdjust="spacingAndGlyphs"
text-anchor="middle" opacity="0" stroke-opacity="0">1</text>
<g class="stroked-text"><desc>1</desc>
<path d="M12.7922 7.6724
L12.0665 7.6724
" />
<path d="M12.4293 7.6724
L12.4293 6.4024
" />
<path d="M12.4293 6.4024
L12.3084 6.5839
" />
<path d="M12.3084 6.5839
L12.1874 6.7048
" />
<path d="M12.1874 6.7048
L12.0665 6.7653
" />
</g></g>
<g style="fill:none; 
stroke:#840000; stroke-width:0.1524; stroke-opacity:1; 
stroke-linecap:round; stroke-linejoin:round;">
<path d="M13.6993 10.6299
L11.1593 10.6299
" />
</g>
<g style="fill:none; 
stroke:#006464; stroke-width:0.1524; stroke-opacity:1; 
stroke-linecap:round; stroke-linejoin:round;">
<text x="14.2073" y="11.2649"
textLength="1.4127" font-size="1.6933" lengthAdjust="spacingAndGlyphs"
text-anchor="start" opacity="0" stroke-opacity="0">2</text>
<g class="stroked-text"><desc>2</desc>
<path d="M14.5494 10.0604
L14.6098 9.9999
" />
<path d="M14.6098 9.9999
L14.7308 9.9394
" />
<path d="M14.7308 9.9394
L15.0332 9.9394
" />
<path d="M15.0332 9.9394
L15.1541 9.9999
" />
<path d="M15.1541 9.9999
L15.2146 10.0604
" />
<path d="M15.2146 10.0604
L15.2751 10.1813
" />
<path d="M15.2751 10.1813
L15.2751 10.3023
" />
<path d="M15.2751 10.3023
L15.2146 10.4837
" />
<path d="M15.2146 10.4837
L14.4889 11.2094
" />
<path d="M14.4889 11.2094
L15.2751 11.2094
" />
</g></g>
<g style="fill:none; 
stroke:#A90000; stroke-width:0.1524; stroke-opacity:1; 
stroke-linecap:round; stroke-linejoin:round;">
<text x="12.4293" y="10.3759"
textLength="1.4127" font-size="1.6933" lengthAdjust="spacingAndGlyphs"
text-anchor="middle" opacity="0" stroke-opacity="0">2</text>
<g class="stroked-text"><desc>2</desc>
<path d="M12.0665 9.0634
L12.1269 9.0029
" />
<path d="M12.1269 9.0029
L12.2479 8.9424
" />
<path d="M12.2479 8.9424
L12.5503 8.9424
" />
<path d="M12.5503 8.9424
L12.6712 9.0029
" />
<path d="M12.6712 9.0029
L12.7317 9.0634
" />
<path d="M12.7317 9.0634
L12.7922 9.1843
" />
<path d="M12.7922 9.1843
L12.7922 9.3053
" />
<path d="M12.7922 9.3053
L12.7317 9.4867
" />
<path d="M12.7317 9.4867
L12.0060 10.2124
" />
<path d="M12.0060 10.2124
L12.7922 10.2124
" />
</g></g>
<g style="fill:none; 
stroke:#840000; stroke-width:0.1524; stroke-opacity:1; 
stroke-linecap:round; stroke-linejoin:round;">
<path d="M13.6993 13.1699
L11.1593 13.1699
" />
</g>
<g style="fill:none; 
stroke:#006464; stroke-width:0.1524; stroke-opacity:1; 
stroke-linecap:round; stroke-linejoin:round;">
<text x="14.2073" y="13.8049"
textLength="1.4127" font-size="1.6933" lengthAdjust="spacingAndGlyphs"
text-anchor="start" opacity="0" stroke-opacity="0">3</text>
<g class="stroked-text"><desc>3</desc>
<path d="M14.4889 12.4794
L15.2751 12.4794
" />
<path d="M15.2751 12.4794
L14.8517 12.9632
" />
<path d="M14.8517 12.9632
L15.0332 12.9632
" />
<path d="M15.0332 12.9632
L15.1541 13.0237
" />
<path d="M15.1541 13.0237
L15.2146 13.0842
" />
<path d="M15.2146 13.0842
L15.2751 13.2051
" />
<path d="M15.2751 13.2051
L15.2751 13.5075
" />
<path d="M15.2751 13.5075
L15.2146 13.6285
" />
<path d="M15.2146 13.6285
L15.1541 13.6890
" />
<path d="M15.1541 13.6890
L15.0332 13.7494
" />
<path d="M15.0332 13.7494
L14.6703 13.7494
" />
<path d="M14.6703 13.7494
L14.5494 13.6890
" />
<path d="M14.5494 13.6890
L14.4889 13.6285
" />
</g></g>
<g style="fill:none; 
stroke:#A90000; stroke-width:0.1524; stroke-opacity:1; 
stroke-linecap:round; stroke-linejoin:round;">
<text x="12.4293" y="12.9159"
textLength="1.4127" font-size="1.6933" lengthAdjust="spacingAndGlyphs"
text-anchor="middle" opacity="0" stroke-opacity="0">3</text>
<g class="stroked-text"><desc>3</desc>
<path d="M12.0060 11.4824
L12.7922 11.4824
" />
<path d="M12.7922 11.4824
L12.3688 11.9662
" />
<path d="M12.3688 11.9662
L12.5503 11.9662
" />
<path d="M12.5503 11.9662
L12.6712 12.0267
" />
<path d="M12.6712 12.0267
L12.7317 12.0872
" />
<path d="M12.7317 12.0872
L12.7922 12.2081
" />
<path d="M12.7922 12.2081
L12.7922 12.5105
" />
<path d="M12.7922 12.5105
L12.7317 12.6315
" />
<path d="M12.7317 12.6315
L12.6712 12.6920
" />
<path d="M12.6712 12.6920
L12.5503 12.7524
" />
<path d="M12.5503 12.7524
L12.1874 12.7524
" />
<path d="M12.1874 12.7524
L12.0665 12.6920
" />
<path d="M12.0665 12.6920
L12.0060 12.6315
" />
</g></g>
<g style="fill:none; 
stroke:#840000; stroke-width:0.1524; stroke-opacity:1; 
stroke-linecap:round; stroke-linejoin:round;">
<path d="M13.6993 15.7099
L11.1593 15.7099
" />
</g>
<g style="fill:none; 
stroke:#006464; stroke-width:0.1524; stroke-opacity:1; 
stroke-linecap:round; stroke-linejoin:round;">
<text x="14.2073" y="16.3449"
textLength="1.4127" font-size="1.6933" lengthAdjust="spacingAndGlyphs"
text-anchor="start" opacity="0" stroke-opacity="0">4</text>
<g class="stroked-text"><desc>4</desc>
<path d="M15.1541 15.4428
L15.1541 16.2894
" />
<path d="M14.8517 14.9590
L14.5494 15.8661
" />
<path d="M14.5494 15.8661
L15.3355 15.8661
" />
</g></g>
<g style="fill:none; 
stroke:#A90000; stroke-width:0.1524; stroke-opacity:1; 
stroke-linecap:round; stroke-linejoin:round;">
<text x="12.4293" y="15.4559"
textLength="1.4127" font-size="1.6933" lengthAdjust="spacingAndGlyphs"
text-anchor="middle" opacity="0" stroke-opacity="0">4</text>
<g class="stroked-text"><desc>4</desc>
<path d="M12.6712 14.4458
L12.6712 15.2924
" />
<path d="M12.3688 13.9620
L12.0665 14.8691
" />
<path d="M12.0665 14.8691
L12.8526 14.8691
" />
</g></g>
<g style="fill:none; 
stroke:#006464; stroke-width:0.1588; stroke-opacity:1; 
stroke-linecap:round; stroke-linejoin:round;">
<text x="16.2393" y="3.6450"
textLength="2.6415" font-size="1.6933" lengthAdjust="spacingAndGlyphs"
text-anchor="middle" opacity="0" stroke-opacity="0">U?</text>
<g class="stroked-text"><desc>U?</desc>
<path d="M15.3321 2.3192
L15.3321 3.3473
" />
<path d="M15.3321 3.3473
L15.3926 3.4683
" />
<path d="M15.3926 3.4683
L15.4531 3.5288
" />
<path d="M15.4531 3.5288
L15.5740 3.5892
" />
<path d="M15.5740 3.5892
L15.8159 3.5892
" />
<path d="M15.8159 3.5892
L15.9369 3.5288
" />
<path d="M15.9369 3.5288
L15.9974 3.4683
" />
<path d="M15.9974 3.4683
L16.0578 3.3473
" />
<path d="M16.0578 3.3473
L16.0578 2.3192
" />
<path d="M16.8441 3.4683
L16.9045 3.5288
" />
<path d="M16.9045 3.5288
L16.8441 3.5892
" />
<path d="M16.8441 3.5892
L16.7836 3.5288
" />
<path d="M16.7836 3.5288
L16.8441 3.4683
" />
<path d="M16.8441 3.4683
L16.8441 3.5892
" />
<path d="M16.6022 2.3797
L16.7231 2.3192
" />
<path d="M16.7231 2.3192
L17.0255 2.3192
" />
<path d="M17.0255 2.3192
L17.1464 2.3797
" />
<path d="M17.1464 2.3797
L17.2069 2.5007
" />
<path d="M17.2069 2.5007
L17.2069 2.6216
" />
<path d="M17.2069 2.6216
L17.1464 2.7426
" />
<path d="M17.1464 2.7426
L17.0860 2.8030
" />
<path d="M17.0860 2.8030
L16.9650 2.8635
" />
<path d="M16.9650 2.8635
L16.9045 2.9240
" />
<path d="M16.9045 2.9240
L16.8441 3.0449
" />
<path d="M16.8441 3.0449
L16.8441 3.1054
" />
</g><text x="16.2393" y="21.4250"
textLength="17.2160" font-size="1.6933" lengthAdjust="spacingAndGlyphs"
text-anchor="middle" opacity="0" stroke-opacity="0">JL301-50004U01</text>
<g class="stroked-text"><desc>JL301-50004U01</desc>
<path d="M8.4077 20.0992
L8.4077 21.0064
" />
<path d="M8.4077 21.0064
L8.3472 21.1878
" />
<path d="M8.3472 21.1878
L8.2263 21.3088
" />
<path d="M8.2263 21.3088
L8.0448 21.3692
" />
<path d="M8.0448 21.3692
L7.9239 21.3692
" />
<path d="M9.6172 21.3692
L9.0124 21.3692
" />
<path d="M9.0124 21.3692
L9.0124 20.0992
" />
<path d="M9.9196 20.0992
L10.7058 20.0992
" />
<path d="M10.7058 20.0992
L10.2824 20.5830
" />
<path d="M10.2824 20.5830
L10.4639 20.5830
" />
<path d="M10.4639 20.5830
L10.5848 20.6435
" />
<path d="M10.5848 20.6435
L10.6453 20.7040
" />
<path d="M10.6453 20.7040
L10.7058 20.8249
" />
<path d="M10.7058 20.8249
L10.7058 21.1273
" />
<path d="M10.7058 21.1273
L10.6453 21.2483
" />
<path d="M10.6453 21.2483
L10.5848 21.3088
" />
<path d="M10.5848 21.3088
L10.4639 21.3692
" />
<path d="M10.4639 21.3692
L10.1010 21.3692
" />
<path d="M10.1010 21.3692
L9.9801 21.3088
" />
<path d="M9.9801 21.3088
L9.9196 21.2483
" />
<path d="M11.4919 20.0992
L11.6129 20.0992
" />
<path d="M11.6129 20.0992
L11.7338 20.1597
" />
<path d="M11.7338 20.1597
L11.7943 20.2202
" />
<path d="M11.7943 20.2202
L11.8548 20.3411
" />
<path d="M11.8548 20.3411
L11.9153 20.5830
" />
<path d="M11.9153 20.5830
L11.9153 20.8854
" />
<path d="M11.9153 20.8854
L11.8548 21.1273
" />
<path d="M11.8548 21.1273
L11.7943 21.2483
" />
<path d="M11.7943 21.2483
L11.7338 21.3088
" />
<path d="M11.7338 21.3088
L11.6129 21.3692
" />
<path d="M11.6129 21.3692
L11.4919 21.3692
" />
<path d="M11.4919 21.3692
L11.3710 21.3088
" />
<path d="M11.3710 21.3088
L11.3105 21.2483
" />
<path d="M11.3105 21.2483
L11.2500 21.1273
" />
<path d="M11.2500 21.1273
L11.1896 20.8854
" />
<path d="M11.1896 20.8854
L11.1896 20.5830
" />
<path d="M11.1896 20.5830
L11.2500 20.3411
" />
<path d="M11.2500 20.3411
L11.3105 20.2202
" />
<path d="M11.3105 20.2202
L11.3710 20.1597
" />
<path d="M11.3710 20.1597
L11.4919 20.0992
" />
<path d="M13.1248 21.3692
L12.3991 21.3692
" />
<path d="M12.7619 21.3692
L12.7619 20.0992
" />
<path d="M12.7619 20.0992
L12.6410 20.2807
" />
<path d="M12.6410 20.2807
L12.5200 20.4016
" />
<path d="M12.5200 20.4016
L12.3991 20.4621
" />
<path d="M13.6690 20.8854
L14.6367 20.8854
" />
<path d="M15.8462 20.0992
L15.2414 20.0992
" />
<path d="M15.2414 20.0992
L15.1810 20.7040
" />
<path d="M15.1810 20.7040
L15.2414 20.6435
" />
<path d="M15.2414 20.6435
L15.3624 20.5830
" />
<path d="M15.3624 20.5830
L15.6648 20.5830
" />
<path d="M15.6648 20.5830
L15.7857 20.6435
" />
<path d="M15.7857 20.6435
L15.8462 20.7040
" />
<path d="M15.8462 20.7040
L15.9067 20.8249
" />
<path d="M15.9067 20.8249
L15.9067 21.1273
" />
<path d="M15.9067 21.1273
L15.8462 21.2483
" />
<path d="M15.8462 21.2483
L15.7857 21.3088
" />
<path d="M15.7857 21.3088
L15.6648 21.3692
" />
<path d="M15.6648 21.3692
L15.3624 21.3692
" />
<path d="M15.3624 21.3692
L15.2414 21.3088
" />
<path d="M15.2414 21.3088
L15.1810 21.2483
" />
<path d="M16.6928 20.0992
L16.8138 20.0992
" />
<path d="M16.8138 20.0992
L16.9347 20.1597
" />
<path d="M16.9347 20.1597
L16.9952 20.2202
" />
<path d="M16.9952 20.2202
L17.0557 20.3411
" />
<path d="M17.0557 20.3411
L17.1162 20.5830
" />
<path d="M17.1162 20.5830
L17.1162 20.8854
" />
<path d="M17.1162 20.8854
L17.0557 21.1273
" />
<path d="M17.0557 21.1273
L16.9952 21.2483
" />
<path d="M16.9952 21.2483
L16.9347 21.3088
" />
<path d="M16.9347 21.3088
L16.8138 21.3692
" />
<path d="M16.8138 21.3692
L16.6928 21.3692
" />
<path d="M16.6928 21.3692
L16.5719 21.3088
" />
<path d="M16.5719 21.3088
L16.5114 21.2483
" />
<path d="M16.5114 21.2483
L16.4509 21.1273
" />
<path d="M16.4509 21.1273
L16.3905 20.8854
" />
<path d="M16.3905 20.8854
L16.3905 20.5830
" />
<path d="M16.3905 20.5830
L16.4509 20.3411
" />
<path d="M16.4509 20.3411
L16.5114 20.2202
" />
<path d="M16.5114 20.2202
L16.5719 20.1597
" />
<path d="M16.5719 20.1597
L16.6928 20.0992
" />
<path d="M17.9023 20.0992
L18.0233 20.0992
" />
<path d="M18.0233 20.0992
L18.1442 20.1597
" />
<path d="M18.1442 20.1597
L18.2047 20.2202
" />
<path d="M18.2047 20.2202
L18.2652 20.3411
" />
<path d="M18.2652 20.3411
L18.3257 20.5830
" />
<path d="M18.3257 20.5830
L18.3257 20.8854
" />
<path d="M18.3257 20.8854
L18.2652 21.1273
" />
<path d="M18.2652 21.1273
L18.2047 21.2483
" />
<path d="M18.2047 21.2483
L18.1442 21.3088
" />
<path d="M18.1442 21.3088
L18.0233 21.3692
" />
<path d="M18.0233 21.3692
L17.9023 21.3692
" />
<path d="M17.9023 21.3692
L17.7814 21.3088
" />
<path d="M17.7814 21.3088
L17.7209 21.2483
" />
<path d="M17.7209 21.2483
L17.6604 21.1273
" />
<path d="M17.6604 21.1273
L17.6000 20.8854
" />
<path d="M17.6000 20.8854
L17.6000 20.5830
" />
<path d="M17.6000 20.5830
L17.6604 20.3411
" />
<path d="M17.6604 20.3411
L17.7209 20.2202
" />
<path d="M17.7209 20.2202
L17.7814 20.1597
" />
<path d="M17.7814 20.1597
L17.9023 20.0992
" />
<path d="M19.1118 20.0992
L19.2328 20.0992
" />
<path d="M19.2328 20.0992
L19.3537 20.1597
" />
<path d="M19.3537 20.1597
L19.4142 20.2202
" />
<path d="M19.4142 20.2202
L19.4747 20.3411
" />
<path d="M19.4747 20.3411
L19.5352 20.5830
" />
<path d="M19.5352 20.5830
L19.5352 20.8854
" />
<path d="M19.5352 20.8854
L19.4747 21.1273
" />
<path d="M19.4747 21.1273
L19.4142 21.2483
" />
<path d="M19.4142 21.2483
L19.3537 21.3088
" />
<path d="M19.3537 21.3088
L19.2328 21.3692
" />
<path d="M19.2328 21.3692
L19.1118 21.3692
" />
<path d="M19.1118 21.3692
L18.9909 21.3088
" />
<path d="M18.9909 21.3088
L18.9304 21.2483
" />
<path d="M18.9304 21.2483
L18.8699 21.1273
" />
<path d="M18.8699 21.1273
L18.8095 20.8854
" />
<path d="M18.8095 20.8854
L18.8095 20.5830
" />
<path d="M18.8095 20.5830
L18.8699 20.3411
" />
<path d="M18.8699 20.3411
L18.9304 20.2202
" />
<path d="M18.9304 20.2202
L18.9909 20.1597
" />
<path d="M18.9909 20.1597
L19.1118 20.0992
" />
<path d="M20.6237 20.5226
L20.6237 21.3692
" />
<path d="M20.3213 20.0388
L20.0190 20.9459
" />
<path d="M20.0190 20.9459
L20.8051 20.9459
" />
<path d="M21.2889 20.0992
L21.2889 21.1273
" />
<path d="M21.2889 21.1273
L21.3494 21.2483
" />
<path d="M21.3494 21.2483
L21.4099 21.3088
" />
<path d="M21.4099 21.3088
L21.5308 21.3692
" />
<path d="M21.5308 21.3692
L21.7727 21.3692
" />
<path d="M21.7727 21.3692
L21.8937 21.3088
" />
<path d="M21.8937 21.3088
L21.9542 21.2483
" />
<path d="M21.9542 21.2483
L22.0146 21.1273
" />
<path d="M22.0146 21.1273
L22.0146 20.0992
" />
<path d="M22.8613 20.0992
L22.9823 20.0992
" />
<path d="M22.9823 20.0992
L23.1032 20.1597
" />
<path d="M23.1032 20.1597
L23.1637 20.2202
" />
<path d="M23.1637 20.2202
L23.2242 20.3411
" />
<path d="M23.2242 20.3411
L23.2847 20.5830
" />
<path d="M23.2847 20.5830
L23.2847 20.8854
" />
<path d="M23.2847 20.8854
L23.2242 21.1273
" />
<path d="M23.2242 21.1273
L23.1637 21.2483
" />
<path d="M23.1637 21.2483
L23.1032 21.3088
" />
<path d="M23.1032 21.3088
L22.9823 21.3692
" />
<path d="M22.9823 21.3692
L22.8613 21.3692
" />
<path d="M22.8613 21.3692
L22.7404 21.3088
" />
<path d="M22.7404 21.3088
L22.6799 21.2483
" />
<path d="M22.6799 21.2483
L22.6194 21.1273
" />
<path d="M22.6194 21.1273
L22.5590 20.8854
" />
<path d="M22.5590 20.8854
L22.5590 20.5830
" />
<path d="M22.5590 20.5830
L22.6194 20.3411
" />
<path d="M22.6194 20.3411
L22.6799 20.2202
" />
<path d="M22.6799 20.2202
L22.7404 20.1597
" />
<path d="M22.7404 20.1597
L22.8613 20.0992
" />
<path d="M24.4942 21.3692
L23.7685 21.3692
" />
<path d="M24.1313 21.3692
L24.1313 20.0992
" />
<path d="M24.1313 20.0992
L24.0104 20.2807
" />
<path d="M24.0104 20.2807
L23.8894 20.4016
" />
<path d="M23.8894 20.4016
L23.7685 20.4621
" />
</g></g> 
</svg>
