<?xml version="1.0" standalone="no"?>
 <!DOCTYPE svg PUBLIC "-//W3C//DTD SVG 1.1//EN" 
 "http://www.w3.org/Graphics/SVG/1.1/DTD/svg11.dtd"> 
<svg
  xmlns:svg="http://www.w3.org/2000/svg"
  xmlns="http://www.w3.org/2000/svg"
  xmlns:xlink="http://www.w3.org/1999/xlink"
  version="1.1"
  width="25.6794mm" height="38.1254mm" viewBox="0.0000 0.0000 25.6794 38.1254">
<title>SVG Image created as r-rj45r08p-a004.svg date 2024/09/22 11:22:32 </title>
  <desc>Image generated by Eeschema-SVG </desc>
<g style="fill:#000000; fill-opacity:1.0000;stroke:#000000; stroke-opacity:1.0000;
stroke-linecap:round; stroke-linejoin:round;"
 transform="translate(0 0) scale(1 1)">
</g>
<g style="fill:#FFFFC2; fill-opacity:1.0000; stroke:none;">
<rect x="2.620500" y="3.180400" width="20.320000" height="19.050000" rx="0.000000" />
<path style="fill:#FFFFC2; fill-opacity:1.0000; stroke:none;fill-rule:evenodd;"
d="M 7.1905,8.2604
18.6205,8.2604
18.6205,18.4204
16.0805,18.4204
16.0805,19.6904
14.8105,19.6904
14.8105,20.9604
11.0005,20.9604
11.0005,19.6904
9.7305,19.6904
9.7305,18.4204
7.1905,18.4204
7.1905,8.2604
Z" /> 
</g>
<g style="fill:none; 
stroke:#840000; stroke-width:0.1524; stroke-opacity:1; 
stroke-linecap:round; stroke-linejoin:round;">
<rect x="2.620500" y="3.180400" width="20.320000" height="19.050000" rx="0.000000" />
<path style="fill:none; 
stroke:#840000; stroke-width:0.1524; stroke-opacity:1; 
stroke-linecap:round; stroke-linejoin:round;fill:none"
d="M 8.4605,9.5304
8.4605,8.2604
8.4605,8.2604
" /> 
<path style="fill:none; 
stroke:#840000; stroke-width:0.1524; stroke-opacity:1; 
stroke-linecap:round; stroke-linejoin:round;fill:none"
d="M 9.7305,8.2604
9.7305,9.5304
9.7305,9.5304
" /> 
<path style="fill:none; 
stroke:#840000; stroke-width:0.1524; stroke-opacity:1; 
stroke-linecap:round; stroke-linejoin:round;fill:none"
d="M 11.0005,8.2604
11.0005,9.5304
11.0005,9.5304
" /> 
<path style="fill:none; 
stroke:#840000; stroke-width:0.1524; stroke-opacity:1; 
stroke-linecap:round; stroke-linejoin:round;fill:none"
d="M 12.2705,8.2604
12.2705,9.5304
12.2705,9.5304
" /> 
<path style="fill:none; 
stroke:#840000; stroke-width:0.1524; stroke-opacity:1; 
stroke-linecap:round; stroke-linejoin:round;fill:none"
d="M 13.5405,8.2604
13.5405,9.5304
13.5405,9.5304
" /> 
<path style="fill:none; 
stroke:#840000; stroke-width:0.1524; stroke-opacity:1; 
stroke-linecap:round; stroke-linejoin:round;fill:none"
d="M 14.8105,8.2604
14.8105,9.5304
14.8105,9.5304
" /> 
<path style="fill:none; 
stroke:#840000; stroke-width:0.1524; stroke-opacity:1; 
stroke-linecap:round; stroke-linejoin:round;fill:none"
d="M 16.0805,9.5304
16.0805,8.2604
16.0805,8.2604
" /> 
<path style="fill:none; 
stroke:#840000; stroke-width:0.1524; stroke-opacity:1; 
stroke-linecap:round; stroke-linejoin:round;fill:none"
d="M 17.3505,9.5304
17.3505,8.2604
17.3505,8.2604
" /> 
<path style="fill:none; 
stroke:#840000; stroke-width:0.1524; stroke-opacity:1; 
stroke-linecap:round; stroke-linejoin:round;fill:none"
d="M 7.1905,8.2604
18.6205,8.2604
18.6205,18.4204
16.0805,18.4204
16.0805,19.6904
14.8105,19.6904
14.8105,20.9604
11.0005,20.9604
11.0005,19.6904
9.7305,19.6904
9.7305,18.4204
7.1905,18.4204
7.1905,8.2604
Z" /> 
<path d="M3.8905 22.2304
L3.8905 26.0404
" />
</g>
<g style="fill:none; 
stroke:#006464; stroke-width:0.1524; stroke-opacity:1; 
stroke-linecap:round; stroke-linejoin:round;">
<g transform="rotate(-90.000000 3.8905 21.7224)">
<text x="3.8905" y="22.3574"
textLength="1.4127" font-size="1.6933" lengthAdjust="spacingAndGlyphs"
text-anchor="start" opacity="0" stroke-opacity="0">1</text>
</g>
<g class="stroked-text"><desc>1</desc>
<path d="M4.4700 20.6545
L4.4700 21.3802
" />
<path d="M4.4700 21.0174
L3.2000 21.0174
" />
<path d="M3.2000 21.0174
L3.3815 21.1383
" />
<path d="M3.3815 21.1383
L3.5024 21.2593
" />
<path d="M3.5024 21.2593
L3.5629 21.3802
" />
</g></g>
<g style="fill:none; 
stroke:#A90000; stroke-width:0.1524; stroke-opacity:1; 
stroke-linecap:round; stroke-linejoin:round;">
<g transform="rotate(-90.000000 3.6365 24.1354)">
<text x="3.6365" y="24.1354"
textLength="1.4127" font-size="1.6933" lengthAdjust="spacingAndGlyphs"
text-anchor="middle" opacity="0" stroke-opacity="0">1</text>
</g>
<g class="stroked-text"><desc>1</desc>
<path d="M3.4730 23.7724
L3.4730 24.4981
" />
<path d="M3.4730 24.1353
L2.2030 24.1353
" />
<path d="M2.2030 24.1353
L2.3845 24.2562
" />
<path d="M2.3845 24.2562
L2.5054 24.3772
" />
<path d="M2.5054 24.3772
L2.5659 24.4981
" />
</g></g>
<g style="fill:none; 
stroke:#840000; stroke-width:0.1524; stroke-opacity:1; 
stroke-linecap:round; stroke-linejoin:round;">
<path d="M6.4305 22.2304
L6.4305 26.0404
" />
</g>
<g style="fill:none; 
stroke:#006464; stroke-width:0.1524; stroke-opacity:1; 
stroke-linecap:round; stroke-linejoin:round;">
<g transform="rotate(-90.000000 6.4305 21.7224)">
<text x="6.4305" y="22.3574"
textLength="1.4127" font-size="1.6933" lengthAdjust="spacingAndGlyphs"
text-anchor="start" opacity="0" stroke-opacity="0">2</text>
</g>
<g class="stroked-text"><desc>2</desc>
<path d="M5.8610 21.3802
L5.8005 21.3198
" />
<path d="M5.8005 21.3198
L5.7400 21.1988
" />
<path d="M5.7400 21.1988
L5.7400 20.8964
" />
<path d="M5.7400 20.8964
L5.8005 20.7755
" />
<path d="M5.8005 20.7755
L5.8610 20.7150
" />
<path d="M5.8610 20.7150
L5.9819 20.6545
" />
<path d="M5.9819 20.6545
L6.1029 20.6545
" />
<path d="M6.1029 20.6545
L6.2843 20.7150
" />
<path d="M6.2843 20.7150
L7.0100 21.4407
" />
<path d="M7.0100 21.4407
L7.0100 20.6545
" />
</g></g>
<g style="fill:none; 
stroke:#A90000; stroke-width:0.1524; stroke-opacity:1; 
stroke-linecap:round; stroke-linejoin:round;">
<g transform="rotate(-90.000000 6.1765 24.1354)">
<text x="6.1765" y="24.1354"
textLength="1.4127" font-size="1.6933" lengthAdjust="spacingAndGlyphs"
text-anchor="middle" opacity="0" stroke-opacity="0">2</text>
</g>
<g class="stroked-text"><desc>2</desc>
<path d="M4.8640 24.4981
L4.8035 24.4377
" />
<path d="M4.8035 24.4377
L4.7430 24.3167
" />
<path d="M4.7430 24.3167
L4.7430 24.0143
" />
<path d="M4.7430 24.0143
L4.8035 23.8934
" />
<path d="M4.8035 23.8934
L4.8640 23.8329
" />
<path d="M4.8640 23.8329
L4.9849 23.7724
" />
<path d="M4.9849 23.7724
L5.1059 23.7724
" />
<path d="M5.1059 23.7724
L5.2873 23.8329
" />
<path d="M5.2873 23.8329
L6.0130 24.5586
" />
<path d="M6.0130 24.5586
L6.0130 23.7724
" />
</g></g>
<g style="fill:none; 
stroke:#840000; stroke-width:0.1524; stroke-opacity:1; 
stroke-linecap:round; stroke-linejoin:round;">
<path d="M8.9705 22.2304
L8.9705 26.0404
" />
</g>
<g style="fill:none; 
stroke:#006464; stroke-width:0.1524; stroke-opacity:1; 
stroke-linecap:round; stroke-linejoin:round;">
<g transform="rotate(-90.000000 8.9705 21.7224)">
<text x="8.9705" y="22.3574"
textLength="1.4127" font-size="1.6933" lengthAdjust="spacingAndGlyphs"
text-anchor="start" opacity="0" stroke-opacity="0">3</text>
</g>
<g class="stroked-text"><desc>3</desc>
<path d="M8.2800 21.4407
L8.2800 20.6545
" />
<path d="M8.2800 20.6545
L8.7638 21.0779
" />
<path d="M8.7638 21.0779
L8.7638 20.8964
" />
<path d="M8.7638 20.8964
L8.8243 20.7755
" />
<path d="M8.8243 20.7755
L8.8848 20.7150
" />
<path d="M8.8848 20.7150
L9.0057 20.6545
" />
<path d="M9.0057 20.6545
L9.3081 20.6545
" />
<path d="M9.3081 20.6545
L9.4291 20.7150
" />
<path d="M9.4291 20.7150
L9.4896 20.7755
" />
<path d="M9.4896 20.7755
L9.5500 20.8964
" />
<path d="M9.5500 20.8964
L9.5500 21.2593
" />
<path d="M9.5500 21.2593
L9.4896 21.3802
" />
<path d="M9.4896 21.3802
L9.4291 21.4407
" />
</g></g>
<g style="fill:none; 
stroke:#A90000; stroke-width:0.1524; stroke-opacity:1; 
stroke-linecap:round; stroke-linejoin:round;">
<g transform="rotate(-90.000000 8.7165 24.1354)">
<text x="8.7165" y="24.1354"
textLength="1.4127" font-size="1.6933" lengthAdjust="spacingAndGlyphs"
text-anchor="middle" opacity="0" stroke-opacity="0">3</text>
</g>
<g class="stroked-text"><desc>3</desc>
<path d="M7.2830 24.5586
L7.2830 23.7724
" />
<path d="M7.2830 23.7724
L7.7668 24.1958
" />
<path d="M7.7668 24.1958
L7.7668 24.0143
" />
<path d="M7.7668 24.0143
L7.8273 23.8934
" />
<path d="M7.8273 23.8934
L7.8878 23.8329
" />
<path d="M7.8878 23.8329
L8.0087 23.7724
" />
<path d="M8.0087 23.7724
L8.3111 23.7724
" />
<path d="M8.3111 23.7724
L8.4321 23.8329
" />
<path d="M8.4321 23.8329
L8.4926 23.8934
" />
<path d="M8.4926 23.8934
L8.5530 24.0143
" />
<path d="M8.5530 24.0143
L8.5530 24.3772
" />
<path d="M8.5530 24.3772
L8.4926 24.4981
" />
<path d="M8.4926 24.4981
L8.4321 24.5586
" />
</g></g>
<g style="fill:none; 
stroke:#840000; stroke-width:0.1524; stroke-opacity:1; 
stroke-linecap:round; stroke-linejoin:round;">
<path d="M11.5105 22.2304
L11.5105 26.0404
" />
</g>
<g style="fill:none; 
stroke:#006464; stroke-width:0.1524; stroke-opacity:1; 
stroke-linecap:round; stroke-linejoin:round;">
<g transform="rotate(-90.000000 11.5105 21.7224)">
<text x="11.5105" y="22.3574"
textLength="1.4127" font-size="1.6933" lengthAdjust="spacingAndGlyphs"
text-anchor="start" opacity="0" stroke-opacity="0">4</text>
</g>
<g class="stroked-text"><desc>4</desc>
<path d="M11.2434 20.7755
L12.0900 20.7755
" />
<path d="M10.7596 21.0779
L11.6667 21.3802
" />
<path d="M11.6667 21.3802
L11.6667 20.5941
" />
</g></g>
<g style="fill:none; 
stroke:#A90000; stroke-width:0.1524; stroke-opacity:1; 
stroke-linecap:round; stroke-linejoin:round;">
<g transform="rotate(-90.000000 11.2565 24.1354)">
<text x="11.2565" y="24.1354"
textLength="1.4127" font-size="1.6933" lengthAdjust="spacingAndGlyphs"
text-anchor="middle" opacity="0" stroke-opacity="0">4</text>
</g>
<g class="stroked-text"><desc>4</desc>
<path d="M10.2464 23.8934
L11.0930 23.8934
" />
<path d="M9.7626 24.1958
L10.6697 24.4981
" />
<path d="M10.6697 24.4981
L10.6697 23.7120
" />
</g></g>
<g style="fill:none; 
stroke:#840000; stroke-width:0.1524; stroke-opacity:1; 
stroke-linecap:round; stroke-linejoin:round;">
<path d="M14.0505 22.2304
L14.0505 26.0404
" />
</g>
<g style="fill:none; 
stroke:#006464; stroke-width:0.1524; stroke-opacity:1; 
stroke-linecap:round; stroke-linejoin:round;">
<g transform="rotate(-90.000000 14.0505 21.7224)">
<text x="14.0505" y="22.3574"
textLength="1.4127" font-size="1.6933" lengthAdjust="spacingAndGlyphs"
text-anchor="start" opacity="0" stroke-opacity="0">5</text>
</g>
<g class="stroked-text"><desc>5</desc>
<path d="M13.3600 20.7150
L13.3600 21.3198
" />
<path d="M13.3600 21.3198
L13.9648 21.3802
" />
<path d="M13.9648 21.3802
L13.9043 21.3198
" />
<path d="M13.9043 21.3198
L13.8438 21.1988
" />
<path d="M13.8438 21.1988
L13.8438 20.8964
" />
<path d="M13.8438 20.8964
L13.9043 20.7755
" />
<path d="M13.9043 20.7755
L13.9648 20.7150
" />
<path d="M13.9648 20.7150
L14.0857 20.6545
" />
<path d="M14.0857 20.6545
L14.3881 20.6545
" />
<path d="M14.3881 20.6545
L14.5091 20.7150
" />
<path d="M14.5091 20.7150
L14.5696 20.7755
" />
<path d="M14.5696 20.7755
L14.6300 20.8964
" />
<path d="M14.6300 20.8964
L14.6300 21.1988
" />
<path d="M14.6300 21.1988
L14.5696 21.3198
" />
<path d="M14.5696 21.3198
L14.5091 21.3802
" />
</g></g>
<g style="fill:none; 
stroke:#A90000; stroke-width:0.1524; stroke-opacity:1; 
stroke-linecap:round; stroke-linejoin:round;">
<g transform="rotate(-90.000000 13.7965 24.1354)">
<text x="13.7965" y="24.1354"
textLength="1.4127" font-size="1.6933" lengthAdjust="spacingAndGlyphs"
text-anchor="middle" opacity="0" stroke-opacity="0">5</text>
</g>
<g class="stroked-text"><desc>5</desc>
<path d="M12.3630 23.8329
L12.3630 24.4377
" />
<path d="M12.3630 24.4377
L12.9678 24.4981
" />
<path d="M12.9678 24.4981
L12.9073 24.4377
" />
<path d="M12.9073 24.4377
L12.8468 24.3167
" />
<path d="M12.8468 24.3167
L12.8468 24.0143
" />
<path d="M12.8468 24.0143
L12.9073 23.8934
" />
<path d="M12.9073 23.8934
L12.9678 23.8329
" />
<path d="M12.9678 23.8329
L13.0887 23.7724
" />
<path d="M13.0887 23.7724
L13.3911 23.7724
" />
<path d="M13.3911 23.7724
L13.5121 23.8329
" />
<path d="M13.5121 23.8329
L13.5726 23.8934
" />
<path d="M13.5726 23.8934
L13.6330 24.0143
" />
<path d="M13.6330 24.0143
L13.6330 24.3167
" />
<path d="M13.6330 24.3167
L13.5726 24.4377
" />
<path d="M13.5726 24.4377
L13.5121 24.4981
" />
</g></g>
<g style="fill:none; 
stroke:#840000; stroke-width:0.1524; stroke-opacity:1; 
stroke-linecap:round; stroke-linejoin:round;">
<path d="M16.5905 22.2304
L16.5905 26.0404
" />
</g>
<g style="fill:none; 
stroke:#006464; stroke-width:0.1524; stroke-opacity:1; 
stroke-linecap:round; stroke-linejoin:round;">
<g transform="rotate(-90.000000 16.5905 21.7224)">
<text x="16.5905" y="22.3574"
textLength="1.4127" font-size="1.6933" lengthAdjust="spacingAndGlyphs"
text-anchor="start" opacity="0" stroke-opacity="0">6</text>
</g>
<g class="stroked-text"><desc>6</desc>
<path d="M15.9000 20.7755
L15.9000 21.0174
" />
<path d="M15.9000 21.0174
L15.9605 21.1383
" />
<path d="M15.9605 21.1383
L16.0210 21.1988
" />
<path d="M16.0210 21.1988
L16.2024 21.3198
" />
<path d="M16.2024 21.3198
L16.4443 21.3802
" />
<path d="M16.4443 21.3802
L16.9281 21.3802
" />
<path d="M16.9281 21.3802
L17.0491 21.3198
" />
<path d="M17.0491 21.3198
L17.1096 21.2593
" />
<path d="M17.1096 21.2593
L17.1700 21.1383
" />
<path d="M17.1700 21.1383
L17.1700 20.8964
" />
<path d="M17.1700 20.8964
L17.1096 20.7755
" />
<path d="M17.1096 20.7755
L17.0491 20.7150
" />
<path d="M17.0491 20.7150
L16.9281 20.6545
" />
<path d="M16.9281 20.6545
L16.6257 20.6545
" />
<path d="M16.6257 20.6545
L16.5048 20.7150
" />
<path d="M16.5048 20.7150
L16.4443 20.7755
" />
<path d="M16.4443 20.7755
L16.3838 20.8964
" />
<path d="M16.3838 20.8964
L16.3838 21.1383
" />
<path d="M16.3838 21.1383
L16.4443 21.2593
" />
<path d="M16.4443 21.2593
L16.5048 21.3198
" />
<path d="M16.5048 21.3198
L16.6257 21.3802
" />
</g></g>
<g style="fill:none; 
stroke:#A90000; stroke-width:0.1524; stroke-opacity:1; 
stroke-linecap:round; stroke-linejoin:round;">
<g transform="rotate(-90.000000 16.3365 24.1354)">
<text x="16.3365" y="24.1354"
textLength="1.4127" font-size="1.6933" lengthAdjust="spacingAndGlyphs"
text-anchor="middle" opacity="0" stroke-opacity="0">6</text>
</g>
<g class="stroked-text"><desc>6</desc>
<path d="M14.9030 23.8934
L14.9030 24.1353
" />
<path d="M14.9030 24.1353
L14.9635 24.2562
" />
<path d="M14.9635 24.2562
L15.0240 24.3167
" />
<path d="M15.0240 24.3167
L15.2054 24.4377
" />
<path d="M15.2054 24.4377
L15.4473 24.4981
" />
<path d="M15.4473 24.4981
L15.9311 24.4981
" />
<path d="M15.9311 24.4981
L16.0521 24.4377
" />
<path d="M16.0521 24.4377
L16.1126 24.3772
" />
<path d="M16.1126 24.3772
L16.1730 24.2562
" />
<path d="M16.1730 24.2562
L16.1730 24.0143
" />
<path d="M16.1730 24.0143
L16.1126 23.8934
" />
<path d="M16.1126 23.8934
L16.0521 23.8329
" />
<path d="M16.0521 23.8329
L15.9311 23.7724
" />
<path d="M15.9311 23.7724
L15.6287 23.7724
" />
<path d="M15.6287 23.7724
L15.5078 23.8329
" />
<path d="M15.5078 23.8329
L15.4473 23.8934
" />
<path d="M15.4473 23.8934
L15.3868 24.0143
" />
<path d="M15.3868 24.0143
L15.3868 24.2562
" />
<path d="M15.3868 24.2562
L15.4473 24.3772
" />
<path d="M15.4473 24.3772
L15.5078 24.4377
" />
<path d="M15.5078 24.4377
L15.6287 24.4981
" />
</g></g>
<g style="fill:none; 
stroke:#840000; stroke-width:0.1524; stroke-opacity:1; 
stroke-linecap:round; stroke-linejoin:round;">
<path d="M19.1305 22.2304
L19.1305 26.0404
" />
</g>
<g style="fill:none; 
stroke:#006464; stroke-width:0.1524; stroke-opacity:1; 
stroke-linecap:round; stroke-linejoin:round;">
<g transform="rotate(-90.000000 19.1305 21.7224)">
<text x="19.1305" y="22.3574"
textLength="1.4127" font-size="1.6933" lengthAdjust="spacingAndGlyphs"
text-anchor="start" opacity="0" stroke-opacity="0">7</text>
</g>
<g class="stroked-text"><desc>7</desc>
<path d="M18.4400 21.4407
L18.4400 20.5941
" />
<path d="M18.4400 20.5941
L19.7100 21.1383
" />
</g></g>
<g style="fill:none; 
stroke:#A90000; stroke-width:0.1524; stroke-opacity:1; 
stroke-linecap:round; stroke-linejoin:round;">
<g transform="rotate(-90.000000 18.8765 24.1354)">
<text x="18.8765" y="24.1354"
textLength="1.4127" font-size="1.6933" lengthAdjust="spacingAndGlyphs"
text-anchor="middle" opacity="0" stroke-opacity="0">7</text>
</g>
<g class="stroked-text"><desc>7</desc>
<path d="M17.4430 24.5586
L17.4430 23.7120
" />
<path d="M17.4430 23.7120
L18.7130 24.2562
" />
</g></g>
<g style="fill:none; 
stroke:#840000; stroke-width:0.1524; stroke-opacity:1; 
stroke-linecap:round; stroke-linejoin:round;">
<path d="M21.6705 22.2304
L21.6705 26.0404
" />
</g>
<g style="fill:none; 
stroke:#006464; stroke-width:0.1524; stroke-opacity:1; 
stroke-linecap:round; stroke-linejoin:round;">
<g transform="rotate(-90.000000 21.6705 21.7224)">
<text x="21.6705" y="22.3574"
textLength="1.4127" font-size="1.6933" lengthAdjust="spacingAndGlyphs"
text-anchor="start" opacity="0" stroke-opacity="0">8</text>
</g>
<g class="stroked-text"><desc>8</desc>
<path d="M21.5243 21.1383
L21.4638 21.2593
" />
<path d="M21.4638 21.2593
L21.4034 21.3198
" />
<path d="M21.4034 21.3198
L21.2824 21.3802
" />
<path d="M21.2824 21.3802
L21.2219 21.3802
" />
<path d="M21.2219 21.3802
L21.1010 21.3198
" />
<path d="M21.1010 21.3198
L21.0405 21.2593
" />
<path d="M21.0405 21.2593
L20.9800 21.1383
" />
<path d="M20.9800 21.1383
L20.9800 20.8964
" />
<path d="M20.9800 20.8964
L21.0405 20.7755
" />
<path d="M21.0405 20.7755
L21.1010 20.7150
" />
<path d="M21.1010 20.7150
L21.2219 20.6545
" />
<path d="M21.2219 20.6545
L21.2824 20.6545
" />
<path d="M21.2824 20.6545
L21.4034 20.7150
" />
<path d="M21.4034 20.7150
L21.4638 20.7755
" />
<path d="M21.4638 20.7755
L21.5243 20.8964
" />
<path d="M21.5243 20.8964
L21.5243 21.1383
" />
<path d="M21.5243 21.1383
L21.5848 21.2593
" />
<path d="M21.5848 21.2593
L21.6453 21.3198
" />
<path d="M21.6453 21.3198
L21.7662 21.3802
" />
<path d="M21.7662 21.3802
L22.0081 21.3802
" />
<path d="M22.0081 21.3802
L22.1291 21.3198
" />
<path d="M22.1291 21.3198
L22.1896 21.2593
" />
<path d="M22.1896 21.2593
L22.2500 21.1383
" />
<path d="M22.2500 21.1383
L22.2500 20.8964
" />
<path d="M22.2500 20.8964
L22.1896 20.7755
" />
<path d="M22.1896 20.7755
L22.1291 20.7150
" />
<path d="M22.1291 20.7150
L22.0081 20.6545
" />
<path d="M22.0081 20.6545
L21.7662 20.6545
" />
<path d="M21.7662 20.6545
L21.6453 20.7150
" />
<path d="M21.6453 20.7150
L21.5848 20.7755
" />
<path d="M21.5848 20.7755
L21.5243 20.8964
" />
</g></g>
<g style="fill:none; 
stroke:#A90000; stroke-width:0.1524; stroke-opacity:1; 
stroke-linecap:round; stroke-linejoin:round;">
<g transform="rotate(-90.000000 21.4165 24.1354)">
<text x="21.4165" y="24.1354"
textLength="1.4127" font-size="1.6933" lengthAdjust="spacingAndGlyphs"
text-anchor="middle" opacity="0" stroke-opacity="0">8</text>
</g>
<g class="stroked-text"><desc>8</desc>
<path d="M20.5273 24.2562
L20.4668 24.3772
" />
<path d="M20.4668 24.3772
L20.4064 24.4377
" />
<path d="M20.4064 24.4377
L20.2854 24.4981
" />
<path d="M20.2854 24.4981
L20.2249 24.4981
" />
<path d="M20.2249 24.4981
L20.1040 24.4377
" />
<path d="M20.1040 24.4377
L20.0435 24.3772
" />
<path d="M20.0435 24.3772
L19.9830 24.2562
" />
<path d="M19.9830 24.2562
L19.9830 24.0143
" />
<path d="M19.9830 24.0143
L20.0435 23.8934
" />
<path d="M20.0435 23.8934
L20.1040 23.8329
" />
<path d="M20.1040 23.8329
L20.2249 23.7724
" />
<path d="M20.2249 23.7724
L20.2854 23.7724
" />
<path d="M20.2854 23.7724
L20.4064 23.8329
" />
<path d="M20.4064 23.8329
L20.4668 23.8934
" />
<path d="M20.4668 23.8934
L20.5273 24.0143
" />
<path d="M20.5273 24.0143
L20.5273 24.2562
" />
<path d="M20.5273 24.2562
L20.5878 24.3772
" />
<path d="M20.5878 24.3772
L20.6483 24.4377
" />
<path d="M20.6483 24.4377
L20.7692 24.4981
" />
<path d="M20.7692 24.4981
L21.0111 24.4981
" />
<path d="M21.0111 24.4981
L21.1321 24.4377
" />
<path d="M21.1321 24.4377
L21.1926 24.3772
" />
<path d="M21.1926 24.3772
L21.2530 24.2562
" />
<path d="M21.2530 24.2562
L21.2530 24.0143
" />
<path d="M21.2530 24.0143
L21.1926 23.8934
" />
<path d="M21.1926 23.8934
L21.1321 23.8329
" />
<path d="M21.1321 23.8329
L21.0111 23.7724
" />
<path d="M21.0111 23.7724
L20.7692 23.7724
" />
<path d="M20.7692 23.7724
L20.6483 23.8329
" />
<path d="M20.6483 23.8329
L20.5878 23.8934
" />
<path d="M20.5878 23.8934
L20.5273 24.0143
" />
</g></g>
<g style="fill:none; 
stroke:#006464; stroke-width:0.1588; stroke-opacity:1; 
stroke-linecap:round; stroke-linejoin:round;">
<text x="14.0505" y="21.5955"
textLength="3.5486" font-size="1.6933" lengthAdjust="spacingAndGlyphs"
text-anchor="middle" opacity="0" stroke-opacity="0">RJ?</text>
<g class="stroked-text"><desc>RJ?</desc>
<path d="M13.4154 21.5397
L12.9921 20.9350
" />
<path d="M12.6897 21.5397
L12.6897 20.2697
" />
<path d="M12.6897 20.2697
L13.1735 20.2697
" />
<path d="M13.1735 20.2697
L13.2945 20.3302
" />
<path d="M13.2945 20.3302
L13.3550 20.3907
" />
<path d="M13.3550 20.3907
L13.4154 20.5116
" />
<path d="M13.4154 20.5116
L13.4154 20.6931
" />
<path d="M13.4154 20.6931
L13.3550 20.8140
" />
<path d="M13.3550 20.8140
L13.2945 20.8745
" />
<path d="M13.2945 20.8745
L13.1735 20.9350
" />
<path d="M13.1735 20.9350
L12.6897 20.9350
" />
<path d="M14.3226 20.2697
L14.3226 21.1769
" />
<path d="M14.3226 21.1769
L14.2621 21.3583
" />
<path d="M14.2621 21.3583
L14.1412 21.4793
" />
<path d="M14.1412 21.4793
L13.9597 21.5397
" />
<path d="M13.9597 21.5397
L13.8388 21.5397
" />
<path d="M15.1088 21.4188
L15.1692 21.4793
" />
<path d="M15.1692 21.4793
L15.1088 21.5397
" />
<path d="M15.1088 21.5397
L15.0483 21.4793
" />
<path d="M15.0483 21.4793
L15.1088 21.4188
" />
<path d="M15.1088 21.4188
L15.1088 21.5397
" />
<path d="M14.8669 20.3302
L14.9878 20.2697
" />
<path d="M14.9878 20.2697
L15.2902 20.2697
" />
<path d="M15.2902 20.2697
L15.4111 20.3302
" />
<path d="M15.4111 20.3302
L15.4716 20.4512
" />
<path d="M15.4716 20.4512
L15.4716 20.5721
" />
<path d="M15.4716 20.5721
L15.4111 20.6931
" />
<path d="M15.4111 20.6931
L15.3507 20.7535
" />
<path d="M15.3507 20.7535
L15.2297 20.8140
" />
<path d="M15.2297 20.8140
L15.1692 20.8745
" />
<path d="M15.1692 20.8745
L15.1088 20.9954
" />
<path d="M15.1088 20.9954
L15.1088 21.0559
" />
</g><text x="14.0505" y="31.7555"
textLength="18.9699" font-size="1.6933" lengthAdjust="spacingAndGlyphs"
text-anchor="middle" opacity="0" stroke-opacity="0">R-RJ45R08P-A004</text>
<g class="stroked-text"><desc>R-RJ45R08P-A004</desc>
<path d="M5.7048 31.6997
L5.2815 31.0950
" />
<path d="M4.9791 31.6997
L4.9791 30.4297
" />
<path d="M4.9791 30.4297
L5.4629 30.4297
" />
<path d="M5.4629 30.4297
L5.5839 30.4902
" />
<path d="M5.5839 30.4902
L5.6444 30.5507
" />
<path d="M5.6444 30.5507
L5.7048 30.6716
" />
<path d="M5.7048 30.6716
L5.7048 30.8531
" />
<path d="M5.7048 30.8531
L5.6444 30.9740
" />
<path d="M5.6444 30.9740
L5.5839 31.0345
" />
<path d="M5.5839 31.0345
L5.4629 31.0950
" />
<path d="M5.4629 31.0950
L4.9791 31.0950
" />
<path d="M6.2491 31.2159
L7.2168 31.2159
" />
<path d="M8.5472 31.6997
L8.1239 31.0950
" />
<path d="M7.8215 31.6997
L7.8215 30.4297
" />
<path d="M7.8215 30.4297
L8.3053 30.4297
" />
<path d="M8.3053 30.4297
L8.4263 30.4902
" />
<path d="M8.4263 30.4902
L8.4868 30.5507
" />
<path d="M8.4868 30.5507
L8.5472 30.6716
" />
<path d="M8.5472 30.6716
L8.5472 30.8531
" />
<path d="M8.5472 30.8531
L8.4868 30.9740
" />
<path d="M8.4868 30.9740
L8.4263 31.0345
" />
<path d="M8.4263 31.0345
L8.3053 31.0950
" />
<path d="M8.3053 31.0950
L7.8215 31.0950
" />
<path d="M9.4544 30.4297
L9.4544 31.3369
" />
<path d="M9.4544 31.3369
L9.3939 31.5183
" />
<path d="M9.3939 31.5183
L9.2730 31.6393
" />
<path d="M9.2730 31.6393
L9.0915 31.6997
" />
<path d="M9.0915 31.6997
L8.9706 31.6997
" />
<path d="M10.6034 30.8531
L10.6034 31.6997
" />
<path d="M10.3010 30.3693
L9.9987 31.2764
" />
<path d="M9.9987 31.2764
L10.7848 31.2764
" />
<path d="M11.8734 30.4297
L11.2686 30.4297
" />
<path d="M11.2686 30.4297
L11.2082 31.0345
" />
<path d="M11.2082 31.0345
L11.2686 30.9740
" />
<path d="M11.2686 30.9740
L11.3896 30.9135
" />
<path d="M11.3896 30.9135
L11.6920 30.9135
" />
<path d="M11.6920 30.9135
L11.8129 30.9740
" />
<path d="M11.8129 30.9740
L11.8734 31.0345
" />
<path d="M11.8734 31.0345
L11.9339 31.1554
" />
<path d="M11.9339 31.1554
L11.9339 31.4578
" />
<path d="M11.9339 31.4578
L11.8734 31.5788
" />
<path d="M11.8734 31.5788
L11.8129 31.6393
" />
<path d="M11.8129 31.6393
L11.6920 31.6997
" />
<path d="M11.6920 31.6997
L11.3896 31.6997
" />
<path d="M11.3896 31.6997
L11.2686 31.6393
" />
<path d="M11.2686 31.6393
L11.2082 31.5788
" />
<path d="M13.2038 31.6997
L12.7805 31.0950
" />
<path d="M12.4781 31.6997
L12.4781 30.4297
" />
<path d="M12.4781 30.4297
L12.9619 30.4297
" />
<path d="M12.9619 30.4297
L13.0829 30.4902
" />
<path d="M13.0829 30.4902
L13.1434 30.5507
" />
<path d="M13.1434 30.5507
L13.2038 30.6716
" />
<path d="M13.2038 30.6716
L13.2038 30.8531
" />
<path d="M13.2038 30.8531
L13.1434 30.9740
" />
<path d="M13.1434 30.9740
L13.0829 31.0345
" />
<path d="M13.0829 31.0345
L12.9619 31.0950
" />
<path d="M12.9619 31.0950
L12.4781 31.0950
" />
<path d="M13.9900 30.4297
L14.1110 30.4297
" />
<path d="M14.1110 30.4297
L14.2319 30.4902
" />
<path d="M14.2319 30.4902
L14.2924 30.5507
" />
<path d="M14.2924 30.5507
L14.3529 30.6716
" />
<path d="M14.3529 30.6716
L14.4134 30.9135
" />
<path d="M14.4134 30.9135
L14.4134 31.2159
" />
<path d="M14.4134 31.2159
L14.3529 31.4578
" />
<path d="M14.3529 31.4578
L14.2924 31.5788
" />
<path d="M14.2924 31.5788
L14.2319 31.6393
" />
<path d="M14.2319 31.6393
L14.1110 31.6997
" />
<path d="M14.1110 31.6997
L13.9900 31.6997
" />
<path d="M13.9900 31.6997
L13.8691 31.6393
" />
<path d="M13.8691 31.6393
L13.8086 31.5788
" />
<path d="M13.8086 31.5788
L13.7481 31.4578
" />
<path d="M13.7481 31.4578
L13.6877 31.2159
" />
<path d="M13.6877 31.2159
L13.6877 30.9135
" />
<path d="M13.6877 30.9135
L13.7481 30.6716
" />
<path d="M13.7481 30.6716
L13.8086 30.5507
" />
<path d="M13.8086 30.5507
L13.8691 30.4902
" />
<path d="M13.8691 30.4902
L13.9900 30.4297
" />
<path d="M15.1391 30.9740
L15.0181 30.9135
" />
<path d="M15.0181 30.9135
L14.9576 30.8531
" />
<path d="M14.9576 30.8531
L14.8972 30.7321
" />
<path d="M14.8972 30.7321
L14.8972 30.6716
" />
<path d="M14.8972 30.6716
L14.9576 30.5507
" />
<path d="M14.9576 30.5507
L15.0181 30.4902
" />
<path d="M15.0181 30.4902
L15.1391 30.4297
" />
<path d="M15.1391 30.4297
L15.3810 30.4297
" />
<path d="M15.3810 30.4297
L15.5019 30.4902
" />
<path d="M15.5019 30.4902
L15.5624 30.5507
" />
<path d="M15.5624 30.5507
L15.6229 30.6716
" />
<path d="M15.6229 30.6716
L15.6229 30.7321
" />
<path d="M15.6229 30.7321
L15.5624 30.8531
" />
<path d="M15.5624 30.8531
L15.5019 30.9135
" />
<path d="M15.5019 30.9135
L15.3810 30.9740
" />
<path d="M15.3810 30.9740
L15.1391 30.9740
" />
<path d="M15.1391 30.9740
L15.0181 31.0345
" />
<path d="M15.0181 31.0345
L14.9576 31.0950
" />
<path d="M14.9576 31.0950
L14.8972 31.2159
" />
<path d="M14.8972 31.2159
L14.8972 31.4578
" />
<path d="M14.8972 31.4578
L14.9576 31.5788
" />
<path d="M14.9576 31.5788
L15.0181 31.6393
" />
<path d="M15.0181 31.6393
L15.1391 31.6997
" />
<path d="M15.1391 31.6997
L15.3810 31.6997
" />
<path d="M15.3810 31.6997
L15.5019 31.6393
" />
<path d="M15.5019 31.6393
L15.5624 31.5788
" />
<path d="M15.5624 31.5788
L15.6229 31.4578
" />
<path d="M15.6229 31.4578
L15.6229 31.2159
" />
<path d="M15.6229 31.2159
L15.5624 31.0950
" />
<path d="M15.5624 31.0950
L15.5019 31.0345
" />
<path d="M15.5019 31.0345
L15.3810 30.9740
" />
<path d="M16.1671 31.6997
L16.1671 30.4297
" />
<path d="M16.1671 30.4297
L16.6509 30.4297
" />
<path d="M16.6509 30.4297
L16.7719 30.4902
" />
<path d="M16.7719 30.4902
L16.8324 30.5507
" />
<path d="M16.8324 30.5507
L16.8928 30.6716
" />
<path d="M16.8928 30.6716
L16.8928 30.8531
" />
<path d="M16.8928 30.8531
L16.8324 30.9740
" />
<path d="M16.8324 30.9740
L16.7719 31.0345
" />
<path d="M16.7719 31.0345
L16.6509 31.0950
" />
<path d="M16.6509 31.0950
L16.1671 31.0950
" />
<path d="M17.4371 31.2159
L18.4048 31.2159
" />
<path d="M18.9491 31.3369
L19.5538 31.3369
" />
<path d="M18.8281 31.6997
L19.2514 30.4297
" />
<path d="M19.2514 30.4297
L19.6748 31.6997
" />
<path d="M20.3400 30.4297
L20.4610 30.4297
" />
<path d="M20.4610 30.4297
L20.5819 30.4902
" />
<path d="M20.5819 30.4902
L20.6424 30.5507
" />
<path d="M20.6424 30.5507
L20.7029 30.6716
" />
<path d="M20.7029 30.6716
L20.7634 30.9135
" />
<path d="M20.7634 30.9135
L20.7634 31.2159
" />
<path d="M20.7634 31.2159
L20.7029 31.4578
" />
<path d="M20.7029 31.4578
L20.6424 31.5788
" />
<path d="M20.6424 31.5788
L20.5819 31.6393
" />
<path d="M20.5819 31.6393
L20.4610 31.6997
" />
<path d="M20.4610 31.6997
L20.3400 31.6997
" />
<path d="M20.3400 31.6997
L20.2191 31.6393
" />
<path d="M20.2191 31.6393
L20.1586 31.5788
" />
<path d="M20.1586 31.5788
L20.0981 31.4578
" />
<path d="M20.0981 31.4578
L20.0377 31.2159
" />
<path d="M20.0377 31.2159
L20.0377 30.9135
" />
<path d="M20.0377 30.9135
L20.0981 30.6716
" />
<path d="M20.0981 30.6716
L20.1586 30.5507
" />
<path d="M20.1586 30.5507
L20.2191 30.4902
" />
<path d="M20.2191 30.4902
L20.3400 30.4297
" />
<path d="M21.5495 30.4297
L21.6705 30.4297
" />
<path d="M21.6705 30.4297
L21.7914 30.4902
" />
<path d="M21.7914 30.4902
L21.8519 30.5507
" />
<path d="M21.8519 30.5507
L21.9124 30.6716
" />
<path d="M21.9124 30.6716
L21.9729 30.9135
" />
<path d="M21.9729 30.9135
L21.9729 31.2159
" />
<path d="M21.9729 31.2159
L21.9124 31.4578
" />
<path d="M21.9124 31.4578
L21.8519 31.5788
" />
<path d="M21.8519 31.5788
L21.7914 31.6393
" />
<path d="M21.7914 31.6393
L21.6705 31.6997
" />
<path d="M21.6705 31.6997
L21.5495 31.6997
" />
<path d="M21.5495 31.6997
L21.4286 31.6393
" />
<path d="M21.4286 31.6393
L21.3681 31.5788
" />
<path d="M21.3681 31.5788
L21.3076 31.4578
" />
<path d="M21.3076 31.4578
L21.2472 31.2159
" />
<path d="M21.2472 31.2159
L21.2472 30.9135
" />
<path d="M21.2472 30.9135
L21.3076 30.6716
" />
<path d="M21.3076 30.6716
L21.3681 30.5507
" />
<path d="M21.3681 30.5507
L21.4286 30.4902
" />
<path d="M21.4286 30.4902
L21.5495 30.4297
" />
<path d="M23.0614 30.8531
L23.0614 31.6997
" />
<path d="M22.7590 30.3693
L22.4567 31.2764
" />
<path d="M22.4567 31.2764
L23.2428 31.2764
" />
</g></g> 
</svg>
