<?xml version="1.0" standalone="no"?>
 <!DOCTYPE svg PUBLIC "-//W3C//DTD SVG 1.1//EN" 
 "http://www.w3.org/Graphics/SVG/1.1/DTD/svg11.dtd"> 
<svg
  xmlns:svg="http://www.w3.org/2000/svg"
  xmlns="http://www.w3.org/2000/svg"
  xmlns:xlink="http://www.w3.org/1999/xlink"
  version="1.1"
  width="26.3906mm" height="26.8478mm" viewBox="0.0000 0.0000 26.3906 26.8478">
<title>SVG Image created as wj301v-5.0-3p.svg date 2024/09/23 17:20:53 </title>
  <desc>Image generated by Eeschema-SVG </desc>
<g style="fill:#000000; fill-opacity:1.0000;stroke:#000000; stroke-opacity:1.0000;
stroke-linecap:round; stroke-linejoin:round;"
 transform="translate(0 0) scale(1 1)">
</g>
<g style="fill:#FFFFC2; fill-opacity:1.0000; stroke:none;">
<rect x="2.584600" y="5.803900" width="7.620000" height="15.240000" rx="0.000000" />
</g>
<g style="fill:none; 
stroke:#840000; stroke-width:0.1524; stroke-opacity:1; 
stroke-linecap:round; stroke-linejoin:round;">
<rect x="2.584600" y="5.803900" width="7.620000" height="15.240000" rx="0.000000" />
<path d="M10.2046 8.3439
L15.2846 8.3439
" />
</g>
<g style="fill:none; 
stroke:#006464; stroke-width:0.1524; stroke-opacity:1; 
stroke-linecap:round; stroke-linejoin:round;">
<text x="9.6966" y="8.9789"
textLength="1.4127" font-size="1.6933" lengthAdjust="spacingAndGlyphs"
text-anchor="end" opacity="0" stroke-opacity="0">1</text>
<g class="stroked-text"><desc>1</desc>
<path d="M9.3545 8.9234
L8.6288 8.9234
" />
<path d="M8.9916 8.9234
L8.9916 7.6534
" />
<path d="M8.9916 7.6534
L8.8707 7.8349
" />
<path d="M8.8707 7.8349
L8.7497 7.9558
" />
<path d="M8.7497 7.9558
L8.6288 8.0163
" />
</g></g>
<g style="fill:none; 
stroke:#A90000; stroke-width:0.1524; stroke-opacity:1; 
stroke-linecap:round; stroke-linejoin:round;">
<text x="12.7446" y="8.0899"
textLength="1.4127" font-size="1.6933" lengthAdjust="spacingAndGlyphs"
text-anchor="middle" opacity="0" stroke-opacity="0">1</text>
<g class="stroked-text"><desc>1</desc>
<path d="M13.1075 7.9264
L12.3818 7.9264
" />
<path d="M12.7446 7.9264
L12.7446 6.6564
" />
<path d="M12.7446 6.6564
L12.6237 6.8379
" />
<path d="M12.6237 6.8379
L12.5027 6.9588
" />
<path d="M12.5027 6.9588
L12.3818 7.0193
" />
</g></g>
<g style="fill:none; 
stroke:#840000; stroke-width:0.1524; stroke-opacity:1; 
stroke-linecap:round; stroke-linejoin:round;">
<path d="M10.2046 13.4239
L15.2846 13.4239
" />
</g>
<g style="fill:none; 
stroke:#006464; stroke-width:0.1524; stroke-opacity:1; 
stroke-linecap:round; stroke-linejoin:round;">
<text x="9.6966" y="14.0589"
textLength="1.4127" font-size="1.6933" lengthAdjust="spacingAndGlyphs"
text-anchor="end" opacity="0" stroke-opacity="0">2</text>
<g class="stroked-text"><desc>2</desc>
<path d="M8.6288 12.8544
L8.6892 12.7939
" />
<path d="M8.6892 12.7939
L8.8102 12.7334
" />
<path d="M8.8102 12.7334
L9.1126 12.7334
" />
<path d="M9.1126 12.7334
L9.2335 12.7939
" />
<path d="M9.2335 12.7939
L9.2940 12.8544
" />
<path d="M9.2940 12.8544
L9.3545 12.9753
" />
<path d="M9.3545 12.9753
L9.3545 13.0963
" />
<path d="M9.3545 13.0963
L9.2940 13.2777
" />
<path d="M9.2940 13.2777
L8.5683 14.0034
" />
<path d="M8.5683 14.0034
L9.3545 14.0034
" />
</g></g>
<g style="fill:none; 
stroke:#A90000; stroke-width:0.1524; stroke-opacity:1; 
stroke-linecap:round; stroke-linejoin:round;">
<text x="12.7446" y="13.1699"
textLength="1.4127" font-size="1.6933" lengthAdjust="spacingAndGlyphs"
text-anchor="middle" opacity="0" stroke-opacity="0">2</text>
<g class="stroked-text"><desc>2</desc>
<path d="M12.3818 11.8574
L12.4422 11.7969
" />
<path d="M12.4422 11.7969
L12.5632 11.7364
" />
<path d="M12.5632 11.7364
L12.8656 11.7364
" />
<path d="M12.8656 11.7364
L12.9865 11.7969
" />
<path d="M12.9865 11.7969
L13.0470 11.8574
" />
<path d="M13.0470 11.8574
L13.1075 11.9783
" />
<path d="M13.1075 11.9783
L13.1075 12.0993
" />
<path d="M13.1075 12.0993
L13.0470 12.2807
" />
<path d="M13.0470 12.2807
L12.3213 13.0064
" />
<path d="M12.3213 13.0064
L13.1075 13.0064
" />
</g></g>
<g style="fill:none; 
stroke:#840000; stroke-width:0.1524; stroke-opacity:1; 
stroke-linecap:round; stroke-linejoin:round;">
<path d="M10.2046 18.5039
L15.2846 18.5039
" />
</g>
<g style="fill:none; 
stroke:#006464; stroke-width:0.1524; stroke-opacity:1; 
stroke-linecap:round; stroke-linejoin:round;">
<text x="9.6966" y="19.1389"
textLength="1.4127" font-size="1.6933" lengthAdjust="spacingAndGlyphs"
text-anchor="end" opacity="0" stroke-opacity="0">3</text>
<g class="stroked-text"><desc>3</desc>
<path d="M8.5683 17.8134
L9.3545 17.8134
" />
<path d="M9.3545 17.8134
L8.9311 18.2972
" />
<path d="M8.9311 18.2972
L9.1126 18.2972
" />
<path d="M9.1126 18.2972
L9.2335 18.3577
" />
<path d="M9.2335 18.3577
L9.2940 18.4182
" />
<path d="M9.2940 18.4182
L9.3545 18.5391
" />
<path d="M9.3545 18.5391
L9.3545 18.8415
" />
<path d="M9.3545 18.8415
L9.2940 18.9625
" />
<path d="M9.2940 18.9625
L9.2335 19.0230
" />
<path d="M9.2335 19.0230
L9.1126 19.0834
" />
<path d="M9.1126 19.0834
L8.7497 19.0834
" />
<path d="M8.7497 19.0834
L8.6288 19.0230
" />
<path d="M8.6288 19.0230
L8.5683 18.9625
" />
</g></g>
<g style="fill:none; 
stroke:#A90000; stroke-width:0.1524; stroke-opacity:1; 
stroke-linecap:round; stroke-linejoin:round;">
<text x="12.7446" y="18.2499"
textLength="1.4127" font-size="1.6933" lengthAdjust="spacingAndGlyphs"
text-anchor="middle" opacity="0" stroke-opacity="0">3</text>
<g class="stroked-text"><desc>3</desc>
<path d="M12.3213 16.8164
L13.1075 16.8164
" />
<path d="M13.1075 16.8164
L12.6841 17.3002
" />
<path d="M12.6841 17.3002
L12.8656 17.3002
" />
<path d="M12.8656 17.3002
L12.9865 17.3607
" />
<path d="M12.9865 17.3607
L13.0470 17.4212
" />
<path d="M13.0470 17.4212
L13.1075 17.5421
" />
<path d="M13.1075 17.5421
L13.1075 17.8445
" />
<path d="M13.1075 17.8445
L13.0470 17.9655
" />
<path d="M13.0470 17.9655
L12.9865 18.0260
" />
<path d="M12.9865 18.0260
L12.8656 18.0864
" />
<path d="M12.8656 18.0864
L12.5027 18.0864
" />
<path d="M12.5027 18.0864
L12.3818 18.0260
" />
<path d="M12.3818 18.0260
L12.3213 17.9655
" />
</g></g>
<g style="fill:none; 
stroke:#006464; stroke-width:0.1588; stroke-opacity:1; 
stroke-linecap:round; stroke-linejoin:round;">
<text x="10.2046" y="3.8990"
textLength="2.5810" font-size="1.6933" lengthAdjust="spacingAndGlyphs"
text-anchor="middle" opacity="0" stroke-opacity="0">P?</text>
<g class="stroked-text"><desc>P?</desc>
<path d="M9.3276 3.8432
L9.3276 2.5732
" />
<path d="M9.3276 2.5732
L9.8114 2.5732
" />
<path d="M9.8114 2.5732
L9.9324 2.6337
" />
<path d="M9.9324 2.6337
L9.9929 2.6942
" />
<path d="M9.9929 2.6942
L10.0533 2.8151
" />
<path d="M10.0533 2.8151
L10.0533 2.9966
" />
<path d="M10.0533 2.9966
L9.9929 3.1175
" />
<path d="M9.9929 3.1175
L9.9324 3.1780
" />
<path d="M9.9324 3.1780
L9.8114 3.2385
" />
<path d="M9.8114 3.2385
L9.3276 3.2385
" />
<path d="M10.7791 3.7223
L10.8395 3.7828
" />
<path d="M10.8395 3.7828
L10.7791 3.8432
" />
<path d="M10.7791 3.8432
L10.7186 3.7828
" />
<path d="M10.7186 3.7828
L10.7791 3.7223
" />
<path d="M10.7791 3.7223
L10.7791 3.8432
" />
<path d="M10.5372 2.6337
L10.6581 2.5732
" />
<path d="M10.6581 2.5732
L10.9605 2.5732
" />
<path d="M10.9605 2.5732
L11.0814 2.6337
" />
<path d="M11.0814 2.6337
L11.1419 2.7547
" />
<path d="M11.1419 2.7547
L11.1419 2.8756
" />
<path d="M11.1419 2.8756
L11.0814 2.9966
" />
<path d="M11.0814 2.9966
L11.0210 3.0570
" />
<path d="M11.0210 3.0570
L10.9000 3.1175
" />
<path d="M10.9000 3.1175
L10.8395 3.1780
" />
<path d="M10.8395 3.1780
L10.7791 3.2989
" />
<path d="M10.7791 3.2989
L10.7791 3.3594
" />
</g><text x="10.2046" y="24.2190"
textLength="16.0066" font-size="1.6933" lengthAdjust="spacingAndGlyphs"
text-anchor="middle" opacity="0" stroke-opacity="0">WJ301V-5.0-3P</text>
<g class="stroked-text"><desc>WJ301V-5.0-3P</desc>
<path d="M2.4939 22.8932
L2.7963 24.1632
" />
<path d="M2.7963 24.1632
L3.0382 23.2561
" />
<path d="M3.0382 23.2561
L3.2801 24.1632
" />
<path d="M3.2801 24.1632
L3.5825 22.8932
" />
<path d="M4.4291 22.8932
L4.4291 23.8004
" />
<path d="M4.4291 23.8004
L4.3686 23.9818
" />
<path d="M4.3686 23.9818
L4.2477 24.1028
" />
<path d="M4.2477 24.1028
L4.0662 24.1632
" />
<path d="M4.0662 24.1632
L3.9453 24.1632
" />
<path d="M4.9129 22.8932
L5.6991 22.8932
" />
<path d="M5.6991 22.8932
L5.2757 23.3770
" />
<path d="M5.2757 23.3770
L5.4572 23.3770
" />
<path d="M5.4572 23.3770
L5.5781 23.4375
" />
<path d="M5.5781 23.4375
L5.6386 23.4980
" />
<path d="M5.6386 23.4980
L5.6991 23.6189
" />
<path d="M5.6991 23.6189
L5.6991 23.9213
" />
<path d="M5.6991 23.9213
L5.6386 24.0423
" />
<path d="M5.6386 24.0423
L5.5781 24.1028
" />
<path d="M5.5781 24.1028
L5.4572 24.1632
" />
<path d="M5.4572 24.1632
L5.0943 24.1632
" />
<path d="M5.0943 24.1632
L4.9734 24.1028
" />
<path d="M4.9734 24.1028
L4.9129 24.0423
" />
<path d="M6.4852 22.8932
L6.6062 22.8932
" />
<path d="M6.6062 22.8932
L6.7271 22.9537
" />
<path d="M6.7271 22.9537
L6.7876 23.0142
" />
<path d="M6.7876 23.0142
L6.8481 23.1351
" />
<path d="M6.8481 23.1351
L6.9086 23.3770
" />
<path d="M6.9086 23.3770
L6.9086 23.6794
" />
<path d="M6.9086 23.6794
L6.8481 23.9213
" />
<path d="M6.8481 23.9213
L6.7876 24.0423
" />
<path d="M6.7876 24.0423
L6.7271 24.1028
" />
<path d="M6.7271 24.1028
L6.6062 24.1632
" />
<path d="M6.6062 24.1632
L6.4852 24.1632
" />
<path d="M6.4852 24.1632
L6.3643 24.1028
" />
<path d="M6.3643 24.1028
L6.3038 24.0423
" />
<path d="M6.3038 24.0423
L6.2433 23.9213
" />
<path d="M6.2433 23.9213
L6.1829 23.6794
" />
<path d="M6.1829 23.6794
L6.1829 23.3770
" />
<path d="M6.1829 23.3770
L6.2433 23.1351
" />
<path d="M6.2433 23.1351
L6.3038 23.0142
" />
<path d="M6.3038 23.0142
L6.3643 22.9537
" />
<path d="M6.3643 22.9537
L6.4852 22.8932
" />
<path d="M8.1181 24.1632
L7.3924 24.1632
" />
<path d="M7.7552 24.1632
L7.7552 22.8932
" />
<path d="M7.7552 22.8932
L7.6343 23.0747
" />
<path d="M7.6343 23.0747
L7.5133 23.1956
" />
<path d="M7.5133 23.1956
L7.3924 23.2561
" />
<path d="M8.4809 22.8932
L8.9042 24.1632
" />
<path d="M8.9042 24.1632
L9.3276 22.8932
" />
<path d="M9.7509 23.6794
L10.7186 23.6794
" />
<path d="M11.9281 22.8932
L11.3233 22.8932
" />
<path d="M11.3233 22.8932
L11.2629 23.4980
" />
<path d="M11.2629 23.4980
L11.3233 23.4375
" />
<path d="M11.3233 23.4375
L11.4443 23.3770
" />
<path d="M11.4443 23.3770
L11.7467 23.3770
" />
<path d="M11.7467 23.3770
L11.8676 23.4375
" />
<path d="M11.8676 23.4375
L11.9281 23.4980
" />
<path d="M11.9281 23.4980
L11.9886 23.6189
" />
<path d="M11.9886 23.6189
L11.9886 23.9213
" />
<path d="M11.9886 23.9213
L11.9281 24.0423
" />
<path d="M11.9281 24.0423
L11.8676 24.1028
" />
<path d="M11.8676 24.1028
L11.7467 24.1632
" />
<path d="M11.7467 24.1632
L11.4443 24.1632
" />
<path d="M11.4443 24.1632
L11.3233 24.1028
" />
<path d="M11.3233 24.1028
L11.2629 24.0423
" />
<path d="M12.5328 24.0423
L12.5933 24.1028
" />
<path d="M12.5933 24.1028
L12.5328 24.1632
" />
<path d="M12.5328 24.1632
L12.4724 24.1028
" />
<path d="M12.4724 24.1028
L12.5328 24.0423
" />
<path d="M12.5328 24.0423
L12.5328 24.1632
" />
<path d="M13.3795 22.8932
L13.5005 22.8932
" />
<path d="M13.5005 22.8932
L13.6214 22.9537
" />
<path d="M13.6214 22.9537
L13.6819 23.0142
" />
<path d="M13.6819 23.0142
L13.7424 23.1351
" />
<path d="M13.7424 23.1351
L13.8029 23.3770
" />
<path d="M13.8029 23.3770
L13.8029 23.6794
" />
<path d="M13.8029 23.6794
L13.7424 23.9213
" />
<path d="M13.7424 23.9213
L13.6819 24.0423
" />
<path d="M13.6819 24.0423
L13.6214 24.1028
" />
<path d="M13.6214 24.1028
L13.5005 24.1632
" />
<path d="M13.5005 24.1632
L13.3795 24.1632
" />
<path d="M13.3795 24.1632
L13.2586 24.1028
" />
<path d="M13.2586 24.1028
L13.1981 24.0423
" />
<path d="M13.1981 24.0423
L13.1376 23.9213
" />
<path d="M13.1376 23.9213
L13.0772 23.6794
" />
<path d="M13.0772 23.6794
L13.0772 23.3770
" />
<path d="M13.0772 23.3770
L13.1376 23.1351
" />
<path d="M13.1376 23.1351
L13.1981 23.0142
" />
<path d="M13.1981 23.0142
L13.2586 22.9537
" />
<path d="M13.2586 22.9537
L13.3795 22.8932
" />
<path d="M14.3471 23.6794
L15.3148 23.6794
" />
<path d="M15.7986 22.8932
L16.5848 22.8932
" />
<path d="M16.5848 22.8932
L16.1614 23.3770
" />
<path d="M16.1614 23.3770
L16.3429 23.3770
" />
<path d="M16.3429 23.3770
L16.4638 23.4375
" />
<path d="M16.4638 23.4375
L16.5243 23.4980
" />
<path d="M16.5243 23.4980
L16.5848 23.6189
" />
<path d="M16.5848 23.6189
L16.5848 23.9213
" />
<path d="M16.5848 23.9213
L16.5243 24.0423
" />
<path d="M16.5243 24.0423
L16.4638 24.1028
" />
<path d="M16.4638 24.1028
L16.3429 24.1632
" />
<path d="M16.3429 24.1632
L15.9800 24.1632
" />
<path d="M15.9800 24.1632
L15.8591 24.1028
" />
<path d="M15.8591 24.1028
L15.7986 24.0423
" />
<path d="M17.1290 24.1632
L17.1290 22.8932
" />
<path d="M17.1290 22.8932
L17.6128 22.8932
" />
<path d="M17.6128 22.8932
L17.7338 22.9537
" />
<path d="M17.7338 22.9537
L17.7943 23.0142
" />
<path d="M17.7943 23.0142
L17.8547 23.1351
" />
<path d="M17.8547 23.1351
L17.8547 23.3166
" />
<path d="M17.8547 23.3166
L17.7943 23.4375
" />
<path d="M17.7943 23.4375
L17.7338 23.4980
" />
<path d="M17.7338 23.4980
L17.6128 23.5585
" />
<path d="M17.6128 23.5585
L17.1290 23.5585
" />
</g></g> 
</svg>
