<?xml version="1.0" standalone="no"?>
 <!DOCTYPE svg PUBLIC "-//W3C//DTD SVG 1.1//EN" 
 "http://www.w3.org/Graphics/SVG/1.1/DTD/svg11.dtd"> 
<svg
  xmlns:svg="http://www.w3.org/2000/svg"
  xmlns="http://www.w3.org/2000/svg"
  xmlns:xlink="http://www.w3.org/1999/xlink"
  version="1.1"
  width="27.2542mm" height="23.7998mm" viewBox="0.0000 0.0000 27.2542 23.7998">
<title>SVG Image created as zx-xh2.54-4pzz.svg date 2024/09/22 11:54:19 </title>
  <desc>Image generated by Eeschema-SVG </desc>
<g style="fill:#000000; fill-opacity:1.0000;stroke:#000000; stroke-opacity:1.0000;
stroke-linecap:round; stroke-linejoin:round;"
 transform="translate(0 0) scale(1 1)">
</g>
<g style="fill:#FFFFC2; fill-opacity:1.0000; stroke:none;">
<rect x="13.715000" y="5.549900" width="5.080000" height="12.700000" rx="0.000000" />
</g>
<g style="fill:none; 
stroke:#840000; stroke-width:0.1524; stroke-opacity:1; 
stroke-linecap:round; stroke-linejoin:round;">
<rect x="13.715000" y="5.549900" width="5.080000" height="12.700000" rx="0.000000" />
<circle cx="14.9850" cy="6.8199" r="0.3800" /> 
<path d="M13.7150 8.0899
L11.1750 8.0899
" />
</g>
<g style="fill:none; 
stroke:#006464; stroke-width:0.1524; stroke-opacity:1; 
stroke-linecap:round; stroke-linejoin:round;">
<text x="14.2230" y="8.7249"
textLength="1.4127" font-size="1.6933" lengthAdjust="spacingAndGlyphs"
text-anchor="start" opacity="0" stroke-opacity="0">1</text>
<g class="stroked-text"><desc>1</desc>
<path d="M15.2908 8.6694
L14.5651 8.6694
" />
<path d="M14.9279 8.6694
L14.9279 7.3994
" />
<path d="M14.9279 7.3994
L14.8070 7.5809
" />
<path d="M14.8070 7.5809
L14.6860 7.7018
" />
<path d="M14.6860 7.7018
L14.5651 7.7623
" />
</g></g>
<g style="fill:none; 
stroke:#A90000; stroke-width:0.1524; stroke-opacity:1; 
stroke-linecap:round; stroke-linejoin:round;">
<text x="12.4450" y="7.8359"
textLength="1.4127" font-size="1.6933" lengthAdjust="spacingAndGlyphs"
text-anchor="middle" opacity="0" stroke-opacity="0">1</text>
<g class="stroked-text"><desc>1</desc>
<path d="M12.8079 7.6724
L12.0822 7.6724
" />
<path d="M12.4450 7.6724
L12.4450 6.4024
" />
<path d="M12.4450 6.4024
L12.3241 6.5839
" />
<path d="M12.3241 6.5839
L12.2031 6.7048
" />
<path d="M12.2031 6.7048
L12.0822 6.7653
" />
</g></g>
<g style="fill:none; 
stroke:#840000; stroke-width:0.1524; stroke-opacity:1; 
stroke-linecap:round; stroke-linejoin:round;">
<path d="M13.7150 10.6299
L11.1750 10.6299
" />
</g>
<g style="fill:none; 
stroke:#006464; stroke-width:0.1524; stroke-opacity:1; 
stroke-linecap:round; stroke-linejoin:round;">
<text x="14.2230" y="11.2649"
textLength="1.4127" font-size="1.6933" lengthAdjust="spacingAndGlyphs"
text-anchor="start" opacity="0" stroke-opacity="0">2</text>
<g class="stroked-text"><desc>2</desc>
<path d="M14.5651 10.0604
L14.6255 9.9999
" />
<path d="M14.6255 9.9999
L14.7465 9.9394
" />
<path d="M14.7465 9.9394
L15.0489 9.9394
" />
<path d="M15.0489 9.9394
L15.1698 9.9999
" />
<path d="M15.1698 9.9999
L15.2303 10.0604
" />
<path d="M15.2303 10.0604
L15.2908 10.1813
" />
<path d="M15.2908 10.1813
L15.2908 10.3023
" />
<path d="M15.2908 10.3023
L15.2303 10.4837
" />
<path d="M15.2303 10.4837
L14.5046 11.2094
" />
<path d="M14.5046 11.2094
L15.2908 11.2094
" />
</g></g>
<g style="fill:none; 
stroke:#A90000; stroke-width:0.1524; stroke-opacity:1; 
stroke-linecap:round; stroke-linejoin:round;">
<text x="12.4450" y="10.3759"
textLength="1.4127" font-size="1.6933" lengthAdjust="spacingAndGlyphs"
text-anchor="middle" opacity="0" stroke-opacity="0">2</text>
<g class="stroked-text"><desc>2</desc>
<path d="M12.0822 9.0634
L12.1426 9.0029
" />
<path d="M12.1426 9.0029
L12.2636 8.9424
" />
<path d="M12.2636 8.9424
L12.5660 8.9424
" />
<path d="M12.5660 8.9424
L12.6869 9.0029
" />
<path d="M12.6869 9.0029
L12.7474 9.0634
" />
<path d="M12.7474 9.0634
L12.8079 9.1843
" />
<path d="M12.8079 9.1843
L12.8079 9.3053
" />
<path d="M12.8079 9.3053
L12.7474 9.4867
" />
<path d="M12.7474 9.4867
L12.0217 10.2124
" />
<path d="M12.0217 10.2124
L12.8079 10.2124
" />
</g></g>
<g style="fill:none; 
stroke:#840000; stroke-width:0.1524; stroke-opacity:1; 
stroke-linecap:round; stroke-linejoin:round;">
<path d="M13.7150 13.1699
L11.1750 13.1699
" />
</g>
<g style="fill:none; 
stroke:#006464; stroke-width:0.1524; stroke-opacity:1; 
stroke-linecap:round; stroke-linejoin:round;">
<text x="14.2230" y="13.8049"
textLength="1.4127" font-size="1.6933" lengthAdjust="spacingAndGlyphs"
text-anchor="start" opacity="0" stroke-opacity="0">3</text>
<g class="stroked-text"><desc>3</desc>
<path d="M14.5046 12.4794
L15.2908 12.4794
" />
<path d="M15.2908 12.4794
L14.8674 12.9632
" />
<path d="M14.8674 12.9632
L15.0489 12.9632
" />
<path d="M15.0489 12.9632
L15.1698 13.0237
" />
<path d="M15.1698 13.0237
L15.2303 13.0842
" />
<path d="M15.2303 13.0842
L15.2908 13.2051
" />
<path d="M15.2908 13.2051
L15.2908 13.5075
" />
<path d="M15.2908 13.5075
L15.2303 13.6285
" />
<path d="M15.2303 13.6285
L15.1698 13.6890
" />
<path d="M15.1698 13.6890
L15.0489 13.7494
" />
<path d="M15.0489 13.7494
L14.6860 13.7494
" />
<path d="M14.6860 13.7494
L14.5651 13.6890
" />
<path d="M14.5651 13.6890
L14.5046 13.6285
" />
</g></g>
<g style="fill:none; 
stroke:#A90000; stroke-width:0.1524; stroke-opacity:1; 
stroke-linecap:round; stroke-linejoin:round;">
<text x="12.4450" y="12.9159"
textLength="1.4127" font-size="1.6933" lengthAdjust="spacingAndGlyphs"
text-anchor="middle" opacity="0" stroke-opacity="0">3</text>
<g class="stroked-text"><desc>3</desc>
<path d="M12.0217 11.4824
L12.8079 11.4824
" />
<path d="M12.8079 11.4824
L12.3845 11.9662
" />
<path d="M12.3845 11.9662
L12.5660 11.9662
" />
<path d="M12.5660 11.9662
L12.6869 12.0267
" />
<path d="M12.6869 12.0267
L12.7474 12.0872
" />
<path d="M12.7474 12.0872
L12.8079 12.2081
" />
<path d="M12.8079 12.2081
L12.8079 12.5105
" />
<path d="M12.8079 12.5105
L12.7474 12.6315
" />
<path d="M12.7474 12.6315
L12.6869 12.6920
" />
<path d="M12.6869 12.6920
L12.5660 12.7524
" />
<path d="M12.5660 12.7524
L12.2031 12.7524
" />
<path d="M12.2031 12.7524
L12.0822 12.6920
" />
<path d="M12.0822 12.6920
L12.0217 12.6315
" />
</g></g>
<g style="fill:none; 
stroke:#840000; stroke-width:0.1524; stroke-opacity:1; 
stroke-linecap:round; stroke-linejoin:round;">
<path d="M13.7150 15.7099
L11.1750 15.7099
" />
</g>
<g style="fill:none; 
stroke:#006464; stroke-width:0.1524; stroke-opacity:1; 
stroke-linecap:round; stroke-linejoin:round;">
<text x="14.2230" y="16.3449"
textLength="1.4127" font-size="1.6933" lengthAdjust="spacingAndGlyphs"
text-anchor="start" opacity="0" stroke-opacity="0">4</text>
<g class="stroked-text"><desc>4</desc>
<path d="M15.1698 15.4428
L15.1698 16.2894
" />
<path d="M14.8674 14.9590
L14.5651 15.8661
" />
<path d="M14.5651 15.8661
L15.3512 15.8661
" />
</g></g>
<g style="fill:none; 
stroke:#A90000; stroke-width:0.1524; stroke-opacity:1; 
stroke-linecap:round; stroke-linejoin:round;">
<text x="12.4450" y="15.4559"
textLength="1.4127" font-size="1.6933" lengthAdjust="spacingAndGlyphs"
text-anchor="middle" opacity="0" stroke-opacity="0">4</text>
<g class="stroked-text"><desc>4</desc>
<path d="M12.6869 14.4458
L12.6869 15.2924
" />
<path d="M12.3845 13.9620
L12.0822 14.8691
" />
<path d="M12.0822 14.8691
L12.8683 14.8691
" />
</g></g>
<g style="fill:none; 
stroke:#006464; stroke-width:0.1588; stroke-opacity:1; 
stroke-linecap:round; stroke-linejoin:round;">
<text x="16.2550" y="3.6450"
textLength="3.9115" font-size="1.6933" lengthAdjust="spacingAndGlyphs"
text-anchor="middle" opacity="0" stroke-opacity="0">CN?</text>
<g class="stroked-text"><desc>CN?</desc>
<path d="M15.4385 3.4683
L15.3781 3.5288
" />
<path d="M15.3781 3.5288
L15.1966 3.5892
" />
<path d="M15.1966 3.5892
L15.0757 3.5892
" />
<path d="M15.0757 3.5892
L14.8943 3.5288
" />
<path d="M14.8943 3.5288
L14.7733 3.4078
" />
<path d="M14.7733 3.4078
L14.7128 3.2868
" />
<path d="M14.7128 3.2868
L14.6524 3.0449
" />
<path d="M14.6524 3.0449
L14.6524 2.8635
" />
<path d="M14.6524 2.8635
L14.7128 2.6216
" />
<path d="M14.7128 2.6216
L14.7733 2.5007
" />
<path d="M14.7733 2.5007
L14.8943 2.3797
" />
<path d="M14.8943 2.3797
L15.0757 2.3192
" />
<path d="M15.0757 2.3192
L15.1966 2.3192
" />
<path d="M15.1966 2.3192
L15.3781 2.3797
" />
<path d="M15.3781 2.3797
L15.4385 2.4402
" />
<path d="M15.9828 3.5892
L15.9828 2.3192
" />
<path d="M15.9828 2.3192
L16.7085 3.5892
" />
<path d="M16.7085 3.5892
L16.7085 2.3192
" />
<path d="M17.4948 3.4683
L17.5552 3.5288
" />
<path d="M17.5552 3.5288
L17.4948 3.5892
" />
<path d="M17.4948 3.5892
L17.4343 3.5288
" />
<path d="M17.4343 3.5288
L17.4948 3.4683
" />
<path d="M17.4948 3.4683
L17.4948 3.5892
" />
<path d="M17.2529 2.3797
L17.3738 2.3192
" />
<path d="M17.3738 2.3192
L17.6762 2.3192
" />
<path d="M17.6762 2.3192
L17.7971 2.3797
" />
<path d="M17.7971 2.3797
L17.8576 2.5007
" />
<path d="M17.8576 2.5007
L17.8576 2.6216
" />
<path d="M17.8576 2.6216
L17.7971 2.7426
" />
<path d="M17.7971 2.7426
L17.7367 2.8030
" />
<path d="M17.7367 2.8030
L17.6157 2.8635
" />
<path d="M17.6157 2.8635
L17.5552 2.9240
" />
<path d="M17.5552 2.9240
L17.4948 3.0449
" />
<path d="M17.4948 3.0449
L17.4948 3.1054
" />
</g><text x="16.2550" y="21.4250"
textLength="17.4580" font-size="1.6933" lengthAdjust="spacingAndGlyphs"
text-anchor="middle" opacity="0" stroke-opacity="0">ZX-XH2.54-4PZZ</text>
<g class="stroked-text"><desc>ZX-XH2.54-4PZZ</desc>
<path d="M7.8186 20.0992
L8.6652 20.0992
" />
<path d="M8.6652 20.0992
L7.8186 21.3692
" />
<path d="M7.8186 21.3692
L8.6652 21.3692
" />
<path d="M9.0281 20.0992
L9.8747 21.3692
" />
<path d="M9.8747 20.0992
L9.0281 21.3692
" />
<path d="M10.3585 20.8854
L11.3262 20.8854
" />
<path d="M11.8100 20.0992
L12.6566 21.3692
" />
<path d="M12.6566 20.0992
L11.8100 21.3692
" />
<path d="M13.1404 21.3692
L13.1404 20.0992
" />
<path d="M13.1404 20.7040
L13.8661 20.7040
" />
<path d="M13.8661 21.3692
L13.8661 20.0992
" />
<path d="M14.4105 20.2202
L14.4709 20.1597
" />
<path d="M14.4709 20.1597
L14.5919 20.0992
" />
<path d="M14.5919 20.0992
L14.8943 20.0992
" />
<path d="M14.8943 20.0992
L15.0152 20.1597
" />
<path d="M15.0152 20.1597
L15.0757 20.2202
" />
<path d="M15.0757 20.2202
L15.1362 20.3411
" />
<path d="M15.1362 20.3411
L15.1362 20.4621
" />
<path d="M15.1362 20.4621
L15.0757 20.6435
" />
<path d="M15.0757 20.6435
L14.3500 21.3692
" />
<path d="M14.3500 21.3692
L15.1362 21.3692
" />
<path d="M15.6804 21.2483
L15.7409 21.3088
" />
<path d="M15.7409 21.3088
L15.6804 21.3692
" />
<path d="M15.6804 21.3692
L15.6200 21.3088
" />
<path d="M15.6200 21.3088
L15.6804 21.2483
" />
<path d="M15.6804 21.2483
L15.6804 21.3692
" />
<path d="M16.8900 20.0992
L16.2852 20.0992
" />
<path d="M16.2852 20.0992
L16.2248 20.7040
" />
<path d="M16.2248 20.7040
L16.2852 20.6435
" />
<path d="M16.2852 20.6435
L16.4062 20.5830
" />
<path d="M16.4062 20.5830
L16.7086 20.5830
" />
<path d="M16.7086 20.5830
L16.8295 20.6435
" />
<path d="M16.8295 20.6435
L16.8900 20.7040
" />
<path d="M16.8900 20.7040
L16.9505 20.8249
" />
<path d="M16.9505 20.8249
L16.9505 21.1273
" />
<path d="M16.9505 21.1273
L16.8900 21.2483
" />
<path d="M16.8900 21.2483
L16.8295 21.3088
" />
<path d="M16.8295 21.3088
L16.7086 21.3692
" />
<path d="M16.7086 21.3692
L16.4062 21.3692
" />
<path d="M16.4062 21.3692
L16.2852 21.3088
" />
<path d="M16.2852 21.3088
L16.2248 21.2483
" />
<path d="M18.0390 20.5226
L18.0390 21.3692
" />
<path d="M17.7366 20.0388
L17.4343 20.9459
" />
<path d="M17.4343 20.9459
L18.2204 20.9459
" />
<path d="M18.7042 20.8854
L19.6719 20.8854
" />
<path d="M20.8209 20.5226
L20.8209 21.3692
" />
<path d="M20.5185 20.0388
L20.2162 20.9459
" />
<path d="M20.2162 20.9459
L21.0023 20.9459
" />
<path d="M21.4861 21.3692
L21.4861 20.0992
" />
<path d="M21.4861 20.0992
L21.9699 20.0992
" />
<path d="M21.9699 20.0992
L22.0909 20.1597
" />
<path d="M22.0909 20.1597
L22.1514 20.2202
" />
<path d="M22.1514 20.2202
L22.2118 20.3411
" />
<path d="M22.2118 20.3411
L22.2118 20.5226
" />
<path d="M22.2118 20.5226
L22.1514 20.6435
" />
<path d="M22.1514 20.6435
L22.0909 20.7040
" />
<path d="M22.0909 20.7040
L21.9699 20.7645
" />
<path d="M21.9699 20.7645
L21.4861 20.7645
" />
<path d="M22.6352 20.0992
L23.4818 20.0992
" />
<path d="M23.4818 20.0992
L22.6352 21.3692
" />
<path d="M22.6352 21.3692
L23.4818 21.3692
" />
<path d="M23.8447 20.0992
L24.6913 20.0992
" />
<path d="M24.6913 20.0992
L23.8447 21.3692
" />
<path d="M23.8447 21.3692
L24.6913 21.3692
" />
</g></g> 
</svg>
