0
SECTION
2
HEADER
9
$INSUNITS
70
4
9
$ACADVER
1
AC1014
9
$HANDSEED
5
FFFF
0
ENDSEC
0
SECTION
2
TABLES
0
TABLE
2
VPORT
5
8
100
AcDbSymbolTable
0
ENDTAB
0
TABLE
2
LTYPE
5
5
100
AcDbSymbolTable
0
LTYPE
5
14
100
AcDbSymbolTableRecord
100
AcDbLinetypeTableRecord
2
BYBLOCK
70
0
0
LTYPE
5
15
100
AcDbSymbolTableRecord
100
AcDbLinetypeTableRecord
2
BYLAYER
70
0
0
ENDTAB
0
TABLE
2
LAYER
5
2
100
AcDbSymbolTable
70
2
0
LAYER
5
50
100
AcDbSymbolTableRecord
100
AcDbLayerTableRecord
2
0
70
0
6
CONTINUOUS
0
ENDTAB
0
TABLE
2
STYLE
5
3
100
AcDbSymbolTable
70
1
0
STYLE
5
11
100
AcDbSymbolTableRecord
100
AcDbTextStyleTableRecord
2
STANDARD
70
0
0
ENDTAB
0
TABLE
2
VIEW
5
6
100
AcDbSymbolTable
70
0
0
ENDTAB
0
TABLE
2
UCS
5
7
100
AcDbSymbolTable
70
0
0
ENDTAB
0
TABLE
2
APPID
5
9
100
AcDbSymbolTable
70
2
0
APPID
5
12
100
AcDbSymbolTableRecord
100
AcDbRegAppTableRecord
2
ACAD
70
0
0
ENDTAB
0
TABLE
2
DIMSTYLE
5
A
100
AcDbSymbolTable
70
1
0
ENDTAB
0
TABLE
2
BLOCK_RECORD
5
1
100
AcDbSymbolTable
70
1
0
BLOCK_RECORD
5
1F
100
AcDbSymbolTableRecord
100
AcDbBlockTableRecord
2
*MODEL_SPACE
0
BLOCK_RECORD
5
1B
100
AcDbSymbolTableRecord
100
AcDbBlockTableRecord
2
*PAPER_SPACE
0
ENDTAB
0
ENDSEC
0
SECTION
2
BLOCKS
0
BLOCK
5
20
100
AcDbEntity
100
AcDbBlockBegin
2
*MODEL_SPACE
0
ENDBLK
5
21
100
AcDbEntity
100
AcDbBlockEnd
0
BLOCK
5
1C
100
AcDbEntity
100
AcDbBlockBegin
2
*PAPER_SPACE
0
ENDBLK
5
1D
100
AcDbEntity
100
AcDbBlockEnd
0
ENDSEC
0
SECTION
2
ENTITIES
0
LWPOLYLINE
5
100
100
AcDbEntity
8
0
100
AcDbPolyline
90
36
70
1
43
0.0
10
11.03058314678459
20
15.748461722235248
42
0.84874070518710543
10
11.030583146784609
20
17.001571773580949
10
11.030583146784601
20
17.823664622633299
10
28.830583146784605
20
17.823664622633299
10
28.830583146784608
20
17.010069708903785
42
0.85760581975480776
10
28.830583146784605
20
15.754907411087903
10
28.830583146784591
20
14.454245771541284
42
0.85760581975480576
10
28.830583146784605
20
13.199083473725302
10
28.830583146784591
20
11.898421834178682
42
0.85760581975480576
10
28.830583146784605
20
10.643259536362702
10
28.830583146784605
20
9.3425978968160663
42
0.8576058197548142
10
28.830583146784605
20
8.0874355990000897
10
28.830583146784605
20
6.7867739594534759
42
0.8576058197548142
10
28.830583146784605
20
5.5316116616375002
10
28.830583146784605
20
4.2309500220908856
42
0.85760581975481276
10
28.830583146784605
20
2.9757877242749204
10
28.830583146784605
20
1.6751260847282954
42
0.85760581975481331
10
28.830583146784605
20
0.419963786912326
10
28.830583146784605
20
-0.88069785263428479
42
0.8576058197548142
10
28.830583146784605
20
-2.1358601504502599
10
28.830583146784605
20
-4.8763353773667504
10
11.030583146784601
20
-4.8763353773667504
10
11.030583146784601
20
-2.1423058393028809
42
0.84874070518710487
10
11.030583146784601
20
-0.88919578795717602
10
11.030583146784601
20
0.41351809805970946
42
0.84874070518710409
10
11.030583146784601
20
1.6666281494054103
10
11.030583146784601
20
2.9693420354222999
42
0.84874070518710409
10
11.030583146784601
20
4.2224520867680004
10
11.030583146784601
20
5.5251659727848796
42
0.84874070518710409
10
11.030583146784601
20
6.7782760241305802
10
11.030583146784601
20
8.0809899101474691
42
0.84874070518710409
10
11.030583146784601
20
9.3340999614931697
10
11.030583146784609
20
10.636813847510052
42
0.84874070518710376
10
11.030583146784601
20
11.889923898855802
10
11.03058314678459
20
13.19263778487265
42
0.84874070518710643
10
11.030583146784601
20
14.445747836218301
0
CIRCLE
5
101
100
AcDbEntity
8
0
100
AcDbCircle
10
12.427365901112699
20
-1.5157508136300302
30
0
40
0.63500000000000001
210
0
220
0
230
1
0
CIRCLE
5
102
100
AcDbEntity
8
0
100
AcDbCircle
10
27.427365901112704
20
13.826664622633302
30
0
40
0.63500000000000001
210
0
220
0
230
1
0
CIRCLE
5
103
100
AcDbEntity
8
0
100
AcDbCircle
10
27.427365901112704
20
11.2708406852707
30
0
40
0.63500000000000001
210
0
220
0
230
1
0
CIRCLE
5
104
100
AcDbEntity
8
0
100
AcDbCircle
10
12.427365901112699
20
3.5958970610951502
30
0
40
0.63500000000000001
210
0
220
0
230
1
0
CIRCLE
5
105
100
AcDbEntity
8
0
100
AcDbCircle
10
27.427365901112704
20
16.382488559995799
30
0
40
0.63500000000000001
210
0
220
0
230
1
0
CIRCLE
5
106
100
AcDbEntity
8
0
100
AcDbCircle
10
12.427365901112699
20
16.375016747908099
30
0
40
0.63500000000000001
210
0
220
0
230
1
0
CIRCLE
5
107
100
AcDbEntity
8
0
100
AcDbCircle
10
12.427365901112699
20
1.04007312373256
30
0
40
0.63500000000000001
210
0
220
0
230
1
0
CIRCLE
5
108
100
AcDbEntity
8
0
100
AcDbCircle
10
12.427365901112699
20
11.2633688731829
30
0
40
0.63500000000000001
210
0
220
0
230
1
0
CIRCLE
5
109
100
AcDbEntity
8
0
100
AcDbCircle
10
12.427365901112699
20
13.819192810545502
30
0
40
0.63500000000000001
210
0
220
0
230
1
0
CIRCLE
5
110
100
AcDbEntity
8
0
100
AcDbCircle
10
12.427365901112699
20
6.1517209984577299
30
0
40
0.63500000000000001
210
0
220
0
230
1
0
CIRCLE
5
111
100
AcDbEntity
8
0
100
AcDbCircle
10
27.427365901112704
20
6.1591928105454912
30
0
40
0.63500000000000001
210
0
220
0
230
1
0
CIRCLE
5
112
100
AcDbEntity
8
0
100
AcDbCircle
10
27.427365901112704
20
1.0475449358203099
30
0
40
0.63500000000000001
210
0
220
0
230
1
0
CIRCLE
5
113
100
AcDbEntity
8
0
100
AcDbCircle
10
27.427365901112704
20
8.7150167479080807
30
0
40
0.63500000000000001
210
0
220
0
230
1
0
CIRCLE
5
114
100
AcDbEntity
8
0
100
AcDbCircle
10
27.427365901112704
20
3.6033688731828999
30
0
40
0.63500000000000001
210
0
220
0
230
1
0
CIRCLE
5
115
100
AcDbEntity
8
0
100
AcDbCircle
10
12.427365901112699
20
8.7075449358203194
30
0
40
0.63500000000000001
210
0
220
0
230
1
0
CIRCLE
5
116
100
AcDbEntity
8
0
100
AcDbCircle
10
27.427365901112704
20
-1.50827900154227
30
0
40
0.63500000000000001
210
0
220
0
230
1
0
LWPOLYLINE
5
117
100
AcDbEntity
8
0
100
AcDbPolyline
90
8
70
1
43
0.0
10
24.430583146784599
20
11.723664622633201
10
22.930583146784599
20
11.723664622633201
10
16.930583146784599
20
11.723664622633201
10
15.430583146784597
20
11.723664622633201
10
15.430583146784597
20
19.123664622633299
10
16.930583146784599
20
19.123664622633299
10
22.930583146784599
20
19.123664622633299
10
24.430583146784599
20
19.123664622633299
0
LWPOLYLINE
5
118
100
AcDbEntity
8
0
100
AcDbPolyline
90
4
70
1
43
0.0
10
16.802096215706399
20
-2.7275651647707599
10
22.402096215706401
20
-2.7275651647707599
10
22.402096215706401
20
-4.7275651647707599
10
16.802096215706399
20
-4.7275651647707599
0
LWPOLYLINE
5
119
100
AcDbEntity
8
0
100
AcDbPolyline
90
4
70
1
43
0.0
10
16.386873340149499
20
-3.0671283259682003
10
22.886873340149499
20
-3.0671283259682003
10
22.886873340149499
20
-4.3671283259682001
10
16.386873340149499
20
-4.3671283259682001
0
ENDSEC
0
SECTION
2
OBJECTS
0
DICTIONARY
5
C
100
AcDbDictionary
3
ACAD_GROUP
350
D
3
ACAD_MLINESTYLE
350
17
0
DICTIONARY
5
D
100
AcDbDictionary
0
DICTIONARY
5
1A
330
C
100
AcDbDictionary
0
DICTIONARY
5
17
100
AcDbDictionary
0
ENDSEC
0
EOF
