0
SECTION
2
HEADER
9
$INSUNITS
70
4
9
$ACADVER
1
AC1014
9
$HANDSEED
5
FFFF
0
ENDSEC
0
SECTION
2
TABLES
0
TABLE
2
VPORT
5
8
100
AcDbSymbolTable
0
ENDTAB
0
TABLE
2
LTYPE
5
5
100
AcDbSymbolTable
0
LTYPE
5
14
100
AcDbSymbolTableRecord
100
AcDbLinetypeTableRecord
2
BYBLOCK
70
0
0
LTYPE
5
15
100
AcDbSymbolTableRecord
100
AcDbLinetypeTableRecord
2
BYLAYER
70
0
0
ENDTAB
0
TABLE
2
LAYER
5
2
100
AcDbSymbolTable
70
2
0
LAYER
5
50
100
AcDbSymbolTableRecord
100
AcDbLayerTableRecord
2
0
70
0
6
CONTINUOUS
0
ENDTAB
0
TABLE
2
STYLE
5
3
100
AcDbSymbolTable
70
1
0
STYLE
5
11
100
AcDbSymbolTableRecord
100
AcDbTextStyleTableRecord
2
STANDARD
70
0
0
ENDTAB
0
TABLE
2
VIEW
5
6
100
AcDbSymbolTable
70
0
0
ENDTAB
0
TABLE
2
UCS
5
7
100
AcDbSymbolTable
70
0
0
ENDTAB
0
TABLE
2
APPID
5
9
100
AcDbSymbolTable
70
2
0
APPID
5
12
100
AcDbSymbolTableRecord
100
AcDbRegAppTableRecord
2
ACAD
70
0
0
ENDTAB
0
TABLE
2
DIMSTYLE
5
A
100
AcDbSymbolTable
70
1
0
ENDTAB
0
TABLE
2
BLOCK_RECORD
5
1
100
AcDbSymbolTable
70
1
0
BLOCK_RECORD
5
1F
100
AcDbSymbolTableRecord
100
AcDbBlockTableRecord
2
*MODEL_SPACE
0
BLOCK_RECORD
5
1B
100
AcDbSymbolTableRecord
100
AcDbBlockTableRecord
2
*PAPER_SPACE
0
ENDTAB
0
ENDSEC
0
SECTION
2
BLOCKS
0
BLOCK
5
20
100
AcDbEntity
100
AcDbBlockBegin
2
*MODEL_SPACE
0
ENDBLK
5
21
100
AcDbEntity
100
AcDbBlockEnd
0
BLOCK
5
1C
100
AcDbEntity
100
AcDbBlockBegin
2
*PAPER_SPACE
0
ENDBLK
5
1D
100
AcDbEntity
100
AcDbBlockEnd
0
ENDSEC
0
SECTION
2
ENTITIES
0
CIRCLE
5
100
100
AcDbEntity
8
0
100
AcDbCircle
10
26.3694235
20
28.701566699999983
30
0
40
0.59999999999999998
210
0
220
-0
230
1
0
CIRCLE
5
101
100
AcDbEntity
8
0
100
AcDbCircle
10
23.369423500000003
20
26.161566699999984
30
0
40
0.59999999999999998
210
0
220
-0
230
1
0
CIRCLE
5
102
100
AcDbEntity
8
0
100
AcDbCircle
10
26.3694235
20
26.161566699999984
30
0
40
0.59999999999999998
210
0
220
-0
230
1
0
CIRCLE
5
103
100
AcDbEntity
8
0
100
AcDbCircle
10
23.369423499999996
20
23.621566699999981
30
0
40
0.59999999999999998
210
0
220
-0
230
1
0
CIRCLE
5
104
100
AcDbEntity
8
0
100
AcDbCircle
10
26.3694235
20
23.621566699999981
30
0
40
0.59999999999999998
210
0
220
-0
230
1
0
CIRCLE
5
105
100
AcDbEntity
8
0
100
AcDbCircle
10
26.3694235
20
21.081566699999982
30
0
40
0.59999999999999998
210
0
220
-0
230
1
0
CIRCLE
5
106
100
AcDbEntity
8
0
100
AcDbCircle
10
26.3694235
20
18.541566699999986
30
0
40
0.59999999999999998
210
0
220
-0
230
1
0
CIRCLE
5
107
100
AcDbEntity
8
0
100
AcDbCircle
10
26.3694235
20
16.001566699999984
30
0
40
0.59999999999999998
210
0
220
-0
230
1
0
CIRCLE
5
108
100
AcDbEntity
8
0
100
AcDbCircle
10
26.3694235
20
13.461566699999985
30
0
40
0.59999999999999998
210
0
220
-0
230
1
0
CIRCLE
5
109
100
AcDbEntity
8
0
100
AcDbCircle
10
23.369423500000003
20
13.461566699999985
30
0
40
0.59999999999999998
210
0
220
-0
230
1
0
CIRCLE
5
110
100
AcDbEntity
8
0
100
AcDbCircle
10
20.369423500000003
20
13.461566699999985
30
0
40
0.59999999999999998
210
0
220
-0
230
1
0
CIRCLE
5
111
100
AcDbEntity
8
0
100
AcDbCircle
10
20.369423500000003
20
16.001566699999984
30
0
40
0.59999999999999998
210
0
220
-0
230
1
0
CIRCLE
5
112
100
AcDbEntity
8
0
100
AcDbCircle
10
20.369423500000003
20
18.541566699999986
30
0
40
0.59999999999999998
210
0
220
-0
230
1
0
CIRCLE
5
113
100
AcDbEntity
8
0
100
AcDbCircle
10
20.369423500000003
20
21.081566699999982
30
0
40
0.59999999999999998
210
0
220
-0
230
1
0
CIRCLE
5
114
100
AcDbEntity
8
0
100
AcDbCircle
10
1.506435545201767
20
13.603316916389939
30
0
40
0.59999999999999998
210
0
220
-0
230
1
0
CIRCLE
5
115
100
AcDbEntity
8
0
100
AcDbCircle
10
1.535396975552517
20
16.143151799911315
30
0
40
0.59999999999999998
210
0
220
-0
230
1
0
CIRCLE
5
116
100
AcDbEntity
8
0
100
AcDbCircle
10
1.5643584059032651
20
18.682986683432691
30
0
40
0.59999999999999998
210
0
220
-0
230
1
0
CIRCLE
5
117
100
AcDbEntity
8
0
100
AcDbCircle
10
1.5933198362540126
20
21.222821566954067
30
0
40
0.59999999999999998
210
0
220
-0
230
1
0
CIRCLE
5
118
100
AcDbEntity
8
0
100
AcDbCircle
10
1.6222812666047628
20
23.76265645047544
30
0
40
0.59999999999999998
210
0
220
-0
230
1
0
CIRCLE
5
119
100
AcDbEntity
8
0
100
AcDbCircle
10
1.6512426969555127
20
26.302491333996816
30
0
40
0.59999999999999998
210
0
220
-0
230
1
0
CIRCLE
5
120
100
AcDbEntity
8
0
100
AcDbCircle
10
1.6802041273062607
20
28.842326217518188
30
0
40
0.59999999999999998
210
0
220
-0
230
1
0
CIRCLE
5
121
100
AcDbEntity
8
0
100
AcDbCircle
10
1.7091655576570086
20
31.382161101039564
30
0
40
0.59999999999999998
210
0
220
-0
230
1
0
CIRCLE
5
122
100
AcDbEntity
8
0
100
AcDbCircle
10
1.7381269880077588
20
33.921995984560944
30
0
40
0.59999999999999998
210
0
220
-0
230
1
0
CIRCLE
5
123
100
AcDbEntity
8
0
100
AcDbCircle
10
1.7670884183585065
20
36.461830868082316
30
0
40
0.59999999999999998
210
0
220
-0
230
1
0
CIRCLE
5
124
100
AcDbEntity
8
0
100
AcDbCircle
10
1.7960498487092567
20
39.001665751603689
30
0
40
0.59999999999999998
210
0
220
-0
230
1
0
CIRCLE
5
125
100
AcDbEntity
8
0
100
AcDbCircle
10
1.8250112790600066
20
41.541500635125068
30
0
40
0.59999999999999998
210
0
220
-0
230
1
0
CIRCLE
5
126
100
AcDbEntity
8
0
100
AcDbCircle
10
1.8539727094107521
20
44.081335518646441
30
0
40
0.59999999999999998
210
0
220
-0
230
1
0
CIRCLE
5
127
100
AcDbEntity
8
0
100
AcDbCircle
10
1.8829341397615025
20
46.62117040216782
30
0
40
0.59999999999999998
210
0
220
-0
230
1
0
CIRCLE
5
128
100
AcDbEntity
8
0
100
AcDbCircle
10
1.9118955701122522
20
49.161005285689193
30
0
40
0.59999999999999998
210
0
220
-0
230
1
0
CIRCLE
5
129
100
AcDbEntity
8
0
100
AcDbCircle
10
1.9408570004630001
20
51.700840169210579
30
0
40
0.59999999999999998
210
0
220
-0
230
1
0
CIRCLE
5
130
100
AcDbEntity
8
0
100
AcDbCircle
10
26.3694235
20
51.561566699999986
30
0
40
0.59999999999999998
210
0
220
-0
230
1
0
CIRCLE
5
131
100
AcDbEntity
8
0
100
AcDbCircle
10
26.3694235
20
49.02156669999998
30
0
40
0.59999999999999998
210
0
220
-0
230
1
0
CIRCLE
5
132
100
AcDbEntity
8
0
100
AcDbCircle
10
26.3694235
20
46.481566699999981
30
0
40
0.59999999999999998
210
0
220
-0
230
1
0
CIRCLE
5
133
100
AcDbEntity
8
0
100
AcDbCircle
10
26.3694235
20
43.941566699999974
30
0
40
0.59999999999999998
210
0
220
-0
230
1
0
CIRCLE
5
134
100
AcDbEntity
8
0
100
AcDbCircle
10
26.3694235
20
41.401566699999975
30
0
40
0.59999999999999998
210
0
220
-0
230
1
0
CIRCLE
5
135
100
AcDbEntity
8
0
100
AcDbCircle
10
26.3694235
20
38.861566699999983
30
0
40
0.59999999999999998
210
0
220
-0
230
1
0
CIRCLE
5
136
100
AcDbEntity
8
0
100
AcDbCircle
10
26.3694235
20
36.321566699999984
30
0
40
0.59999999999999998
210
0
220
-0
230
1
0
CIRCLE
5
137
100
AcDbEntity
8
0
100
AcDbCircle
10
26.3694235
20
33.781566699999985
30
0
40
0.59999999999999998
210
0
220
-0
230
1
0
CIRCLE
5
138
100
AcDbEntity
8
0
100
AcDbCircle
10
26.3694235
20
31.241566699999982
30
0
40
0.59999999999999998
210
0
220
-0
230
1
0
CIRCLE
5
139
100
AcDbEntity
8
0
100
AcDbCircle
10
23.369423500000003
20
21.081566699999982
30
0
40
0.59999999999999998
210
0
220
-0
230
1
0
CIRCLE
5
140
100
AcDbEntity
8
0
100
AcDbCircle
10
23.369423500000003
20
18.541566699999986
30
0
40
0.59999999999999998
210
0
220
-0
230
1
0
CIRCLE
5
141
100
AcDbEntity
8
0
100
AcDbCircle
10
23.369423499999996
20
16.001566699999984
30
0
40
0.59999999999999998
210
0
220
-0
230
1
0
ARC
5
142
100
AcDbEntity
8
0
100
AcDbCircle
10
2.9348760200000159
20
55.664818819999979
30
0
40
2.9965472200000232
210
0
220
0
230
1
100
AcDbArc
50
90.000000000000327
51
180
0
LINE
5
143
100
AcDbEntity
8
0
100
AcDbLine
10
2.8558769399999981
20
58.661366040000004
30
0
11
4.8885322599999981
21
58.661366040000004
31
0
0
LINE
5
144
100
AcDbEntity
8
0
100
AcDbLine
10
4.8885322599999981
20
58.661366040000004
30
0
11
5.014876939999998
21
58.535018819999998
31
0
0
LINE
5
145
100
AcDbEntity
8
0
100
AcDbLine
10
5.014876939999998
20
52.489818820000011
30
0
11
5.014876939999998
21
58.535018819999998
31
0
0
LINE
5
146
100
AcDbEntity
8
0
100
AcDbLine
10
5.014876939999998
20
52.489818820000011
30
0
11
5.2180769400000004
21
52.286618820000001
31
0
0
LINE
5
147
100
AcDbEntity
8
0
100
AcDbLine
10
5.2180769400000004
20
52.286618820000001
30
0
11
23.099676940000002
21
52.286618820000001
31
0
0
LINE
5
148
100
AcDbEntity
8
0
100
AcDbLine
10
23.099676940000002
20
52.286618820000001
30
0
11
23.150476940000001
21
52.337418820000003
31
0
0
LINE
5
149
100
AcDbEntity
8
0
100
AcDbLine
10
23.150476940000001
20
52.337418820000003
30
0
11
23.150476940000001
21
58.661566699999987
31
0
0
LINE
5
150
100
AcDbEntity
8
0
100
AcDbLine
10
23.150476940000001
20
58.661566699999987
30
0
11
25.030076940000004
21
58.661566699999987
31
0
0
ARC
5
151
100
AcDbEntity
8
0
100
AcDbCircle
10
24.902876280000012
20
55.665019479999991
30
0
40
2.9965472199999921
210
0
220
0
230
1
100
AcDbArc
50
0
51
90.000000000000142
0
LINE
5
152
100
AcDbEntity
8
0
100
AcDbLine
10
27.899423500000001
20
2.8074188200000001
30
0
11
27.899423500000001
21
55.664818819999994
31
0
0
ARC
5
153
100
AcDbEntity
8
0
100
AcDbCircle
10
24.902876280000005
20
2.8330194799999964
30
0
40
2.9965472199999983
210
0
220
0
230
1
100
AcDbArc
50
-90
51
0
0
LINE
5
154
100
AcDbEntity
8
0
100
AcDbLine
10
21.016876940000003
20
-0.15898114000000002
30
0
11
25.004676940000003
21
-0.15898114000000002
31
0
0
LINE
5
155
100
AcDbEntity
8
0
100
AcDbLine
10
21.016876940000003
20
-0.15898114000000002
30
0
11
21.016876940000003
21
7.7350188199999979
31
0
0
LINE
5
156
100
AcDbEntity
8
0
100
AcDbLine
10
6.7928769400000011
20
7.7350188199999979
30
0
11
21.016876940000003
21
7.7350188199999979
31
0
0
LINE
5
157
100
AcDbEntity
8
0
100
AcDbLine
10
6.7679290600000011
20
7.7100709399999978
30
0
11
6.7928769400000011
21
7.7350188199999979
31
0
0
LINE
5
158
100
AcDbEntity
8
0
100
AcDbLine
10
6.7679290600000011
20
-0.16392905999999999
30
0
11
6.7679290600000011
21
7.7100709399999978
31
0
0
LINE
5
159
100
AcDbEntity
8
0
100
AcDbLine
10
2.9348760199999986
20
-0.16392905999999999
30
0
11
6.7679290600000011
21
-0.16392905999999999
31
0
0
ARC
5
160
100
AcDbEntity
8
0
100
AcDbCircle
10
2.9348760199999981
20
2.8326181599999982
30
0
40
2.9965472199999974
210
0
220
0
230
1
100
AcDbArc
50
180
51
270
0
LINE
5
161
100
AcDbEntity
8
0
100
AcDbLine
10
-0.061671199999999995
20
2.4044706800000002
30
0
11
-0.061671200000007476
21
55.664818819999994
31
0
0
LWPOLYLINE
5
162
100
AcDbEntity
8
0
100
AcDbPolyline
90
2
70
1
43
0.0
10
3.8718769399999986
20
55.741018820000001
42
0.99999999999999989
10
1.3318769399999986
20
55.741018820000001
42
0.99999999999999989
0
LWPOLYLINE
5
163
100
AcDbEntity
8
0
100
AcDbPolyline
90
2
70
1
43
0.0
10
26.731876939999996
20
55.741018820000001
42
0.99999999999999989
10
24.19187694
20
55.741018820000001
42
0.99999999999999989
0
CIRCLE
5
164
100
AcDbEntity
8
0
100
AcDbCircle
10
23.369423499999996
20
28.701566700000001
30
0
40
0.59999999999999998
210
0
220
-0
230
1
0
LWPOLYLINE
5
165
100
AcDbEntity
8
0
100
AcDbPolyline
90
2
70
1
43
0.0
10
1.3318769399999995
20
2.2740188200000007
42
0.99999999999999989
10
3.8718769399999973
20
2.2740188200000007
42
0.99999999999999989
0
LWPOLYLINE
5
166
100
AcDbEntity
8
0
100
AcDbPolyline
90
2
70
1
43
0.0
10
26.795376940000004
20
2.2740188200000002
42
0.99999999999999989
10
24.255376939999998
20
2.2740188199999931
42
0.99999999999999989
0
ENDSEC
0
SECTION
2
OBJECTS
0
DICTIONARY
5
C
100
AcDbDictionary
3
ACAD_GROUP
350
D
3
ACAD_MLINESTYLE
350
17
0
DICTIONARY
5
D
100
AcDbDictionary
0
DICTIONARY
5
1A
330
C
100
AcDbDictionary
0
DICTIONARY
5
17
100
AcDbDictionary
0
ENDSEC
0
EOF
